<svg width="22" height="22" viewBox="0 0 22 22" fill="none" xmlns="http://www.w3.org/2000/svg">
<path d="M12.8333 9.9C12.65 9.9 12.4667 9.80833 12.375 9.71666C12.1 9.44166 12.1 8.98333 12.375 8.70833L18.5167 2.56666C18.7917 2.29166 19.25 2.29166 19.525 2.56666C19.8 2.84166 19.8 3.3 19.525 3.575L13.3833 9.71666C13.2 9.80833 13.0167 9.9 12.8333 9.9Z" fill="white"/>
<path d="M18.975 3.66668H14.7583C14.3917 3.66668 14.025 3.39168 14.025 2.93335C14.025 2.47501 14.3 2.20001 14.7583 2.20001H18.975C19.3417 2.20001 19.7083 2.47501 19.7083 2.93335C19.7083 3.39168 19.3417 3.66668 18.975 3.66668Z" fill="white"/>
<path d="M18.975 7.88335C18.6083 7.88335 18.2417 7.60835 18.2417 7.15002V3.02502C18.2417 2.65835 18.5167 2.29169 18.975 2.29169C19.4333 2.29169 19.7083 2.56669 19.7083 3.02502V7.24169C19.7083 7.60835 19.3417 7.88335 18.975 7.88335ZM3.11667 19.525C2.93334 19.525 2.75 19.4334 2.65834 19.3417C2.38334 19.0667 2.38334 18.6084 2.65834 18.3334L8.8 12.1917C9.075 11.9167 9.53333 11.9167 9.80833 12.1917C10.0833 12.4667 10.0833 12.925 9.80833 13.2L3.66667 19.3417C3.48334 19.525 3.3 19.525 3.11667 19.525Z" fill="white"/>
<path d="M7.33333 19.525H3.11666C2.75 19.525 2.38333 19.25 2.38333 18.7917C2.38333 18.3333 2.65833 18.0583 3.11666 18.0583H7.33333C7.7 18.0583 8.06667 18.3333 8.06667 18.7917C8.06667 19.25 7.7 19.525 7.33333 19.525Z" fill="white"/>
<path d="M3.11666 19.525C2.75 19.525 2.38333 19.25 2.38333 18.7917V14.6667C2.38333 14.3 2.65833 13.9333 3.11666 13.9333C3.575 13.9333 3.85 14.2084 3.85 14.6667V18.8834C3.75833 19.25 3.48333 19.525 3.11666 19.525Z" fill="white"/>
</svg>
