<?xml version="1.0" encoding="UTF-8"?>
<svg width="40px" height="40px" viewBox="0 0 40 40" version="1.1" xmlns="http://www.w3.org/2000/svg" xmlns:xlink="http://www.w3.org/1999/xlink">
    <title>变更</title>
    <g id="供应总览" stroke="none" stroke-width="1" fill="none" fill-rule="evenodd">
        <g id="供应总览备份" transform="translate(-1368.000000, -434.000000)" fill="#64C7BC">
            <g id="Group-47备份-7" transform="translate(1281.000000, 426.000000)">
                <g id="Group-12">
                    <g id="编组-5">
                        <g id="路径">
                            <g id="编组-13" transform="translate(87.000000, 8.000000)">
                                <path d="M24.004102,6.20185794 L34.7961085,16.9939017 C35.0634451,17.261201 35.0634451,17.6945737 34.7961458,17.9619104 L29.3313216,23.4268466 C28.9001129,23.8580179 28.162801,23.5526608 28.162801,22.9428422 L28.162801,17.4419751 C28.162801,17.0639353 27.8563619,16.7574962 27.4783221,16.7574962 L19.0226106,16.7574962 C18.6445708,16.7574962 18.3381317,16.4510198 18.3381317,16.0730173 L18.3381317,11.7436557 C18.3381317,11.3656159 18.6445708,11.0591768 19.0226106,11.0591768 L22.1511026,11.0591768 C22.5291424,11.0591768 22.8356188,10.7527004 22.8356188,10.3746606 L22.8356188,6.6858623 C22.8356188,6.07604367 23.5728934,5.7706493 24.004102,6.20185794 M16.176641,14.4101571 L16.176641,18.2561113 C16.176641,18.6341511 16.4831174,18.9405902 16.8611572,18.9405902 L25.2950415,18.9405902 C25.6730813,18.9405902 25.9795204,19.2470666 25.9795204,19.6251064 L25.9795204,29.216094 C25.9795204,29.5941338 25.6730813,29.9005729 25.2950415,29.9005729 L16.8611572,29.9005729 C16.4831174,29.9005729 16.176641,30.2070493 16.176641,30.5850891 L16.176641,33.9508447 C16.176641,34.560029 15.4406723,34.8656846 15.0090906,34.4357819 L5.20139798,24.6655127 C4.93286734,24.3979895 4.93286734,23.9631616 5.20139798,23.6956384 L15.0090906,13.92522 C15.4406723,13.4952799 16.176641,13.8009728 16.176641,14.4101571" id="Fill-1"></path>
                            </g>
                        </g>
                    </g>
                </g>
            </g>
        </g>
    </g>
</svg>