<?xml version="1.0" encoding="UTF-8"?>
<svg width="32px" height="32px" viewBox="0 0 32 32" version="1.1" xmlns="http://www.w3.org/2000/svg" xmlns:xlink="http://www.w3.org/1999/xlink">
    <title>供应商在库</title>
    <g id="供应总览" stroke="none" stroke-width="1" fill="none" fill-rule="evenodd">
        <g transform="translate(-837.000000, -400.000000)" id="编组-3备份-9">
            <g transform="translate(665.000000, 399.000000)">
                <g id="编组-5备份-2" transform="translate(171.000000, 0.000000)">
                    <polygon id="多边形" fill="#64C8BC" transform="translate(17.000000, 17.000000) rotate(-330.000000) translate(-17.000000, -17.000000) " points="17 5 27.3923048 11 27.3923048 23 17 29 6.60769515 23 6.60769515 11"></polygon>
                    <g id="编组" transform="translate(11.000000, 11.000000)" fill="#FFFFFF" fill-rule="nonzero">
                        <path d="M12,3.2682 L12,8.8683 L6.3309,12.045 L6.3309,6.4455 L12,3.2685 L12,3.2682 Z M0,3.2682 L5.6427,6.4182 L5.6427,12.0183 L0,8.8683 L0,3.2682 Z M2.1021,5.1348 C1.97203694,5.1348 1.8666,5.24023694 1.8666,5.3703 C1.8666,5.6172 2.0004,5.8446 2.2164,5.9643 L4.3161,7.131 C4.38900638,7.1713329 4.47779811,7.17014009 4.54959473,7.12786328 C4.62139135,7.08558647 4.66550502,7.00851911 4.6656,6.9252 C4.6656,6.6783 4.5318,6.4509 4.3161,6.3312 L2.2161,5.1645 C2.18122981,5.14510193 2.14200249,5.13488218 2.1021,5.1348 L2.1021,5.1348 Z M5.994,0 L11.9886,2.5959 L5.994,5.9463 L0,2.5959 L5.9943,0 L5.994,0 Z" id="形状"></path>
                    </g>
                </g>
            </g>
        </g>
    </g>
</svg>