<?xml version="1.0" encoding="UTF-8"?>
<svg width="32px" height="32px" viewBox="0 0 32 32" version="1.1" xmlns="http://www.w3.org/2000/svg" xmlns:xlink="http://www.w3.org/1999/xlink">
    <title>生产中</title>
    <g id="供应总览" stroke="none" stroke-width="1" fill="none" fill-rule="evenodd">
        <g transform="translate(-478.000000, -400.000000)" id="编组-3备份-8">
            <g transform="translate(477.000000, 399.000000)" id="编组-5">
                <polygon id="多边形" fill="#64C8BC" transform="translate(17.000000, 17.000000) rotate(-330.000000) translate(-17.000000, -17.000000) " points="17 5 27.3923048 11 27.3923048 23 17 29 6.60769515 23 6.60769515 11"></polygon>
                <g id="编组" transform="translate(10.000000, 10.000000)" fill="#FFFFFF" fill-rule="nonzero">
                    <path d="M7.53040014,1.10869366 L2.74755422,3.98281926 L0.585094115,2.778003 L5.53988605,0 L7.53040014,1.10869366 Z M8.56147926,1.68304115 L10.5275149,2.778003 L5.57212593,5.55600599 L3.77923039,4.55716675 L8.5620763,1.68304115 L8.56147926,1.68304115 Z M11.1000713,7.68025587 C10.2532996,7.72399355 9.4623048,8.11593192 8.9145695,8.76317323 C8.3668342,9.41041453 8.11111929,10.2553396 8.20803466,11.0976832 L6.14110012,12.2816032 L6.15781709,6.34707713 L11.112012,3.50937065 L11.1000713,7.68025587 L11.1000713,7.68025587 Z" id="形状"></path>
                    <path d="M13.6177671,10.9173786 C13.6177671,11.1735066 13.7323978,11.403365 13.9162845,11.5627733 C14.0018481,11.6355078 14.0225266,11.7593263 13.9652414,11.8559174 L13.5562725,12.5425074 C13.4992641,12.637279 13.3846428,12.680509 13.2792484,12.6469885 C13.1889383,12.6191253 13.0949437,12.6050361 13.0004331,12.6051961 C12.5645977,12.6051961 12.2016005,12.8995342 12.1138364,13.2923831 C12.0889854,13.4001348 11.9927656,13.4762675 11.8821869,13.4756763 L11.0702196,13.4756763 C10.9598639,13.4759879 10.8639689,13.3999161 10.8391671,13.2923831 C10.751403,12.8995342 10.3878088,12.6051961 9.95257038,12.6051961 C9.85525371,12.6051961 9.76151923,12.6201219 9.67375512,12.6469885 C9.56850054,12.6806184 9.45391952,12.6376506 9.39673097,12.5431044 L8.98776212,11.8559174 C8.93081827,11.7594622 8.95147415,11.6360307 9.03671897,11.5633703 C9.22000866,11.403365 9.33523638,11.1735066 9.33523638,10.9173786 C9.33449196,10.6688641 9.22550115,10.433008 9.03671897,10.271387 C8.95147416,10.1987266 8.93081828,10.0752951 8.98776212,9.97883992 L9.39673097,9.29165284 C9.45373939,9.19688126 9.56836068,9.15365125 9.67375512,9.18717175 C9.76151924,9.21463535 9.85525371,9.22896419 9.95257038,9.22896418 C10.3878088,9.22896418 10.751403,8.93462602 10.8391671,8.54177711 C10.8640181,8.43402543 10.9602379,8.35789277 11.0708166,8.35848397 L11.8827839,8.35848397 C11.9938324,8.35848397 12.089955,8.43490789 12.1138364,8.54177711 C12.2016005,8.93462602 12.5651947,9.22896419 13.0004331,9.22896418 C13.0977498,9.22896418 13.1914843,9.21463534 13.2792484,9.18717175 C13.3846428,9.15365125 13.4992641,9.19688126 13.5562725,9.29165284 L13.9652414,9.97824288 C14.0223872,10.0749734 14.0014527,10.1988146 13.9156875,10.271387 C13.7269053,10.433008 13.6179145,10.6688641 13.6171701,10.9173786 L13.6177671,10.9173786 Z M11.4762032,9.82062569 C10.8612574,9.82062569 10.3633303,10.3113883 10.3633303,10.9173786 C10.3633303,11.5227719 10.8618544,12.0135346 11.4762032,12.0135346 C12.0911491,12.0135346 12.5896732,11.5227719 12.5896732,10.9173786 C12.5896732,10.3113883 12.0911491,9.82062569 11.4762032,9.82062569 Z" id="形状"></path>
                    <polygon id="路径" points="0 9.51673497 4.9541949 12.3550385 4.97150892 6.41991538 0.0167169789 3.5822089"></polygon>
                </g>
            </g>
        </g>
    </g>
</svg>