<?xml version="1.0" encoding="UTF-8"?>
<svg width="32px" height="32px" viewBox="0 0 32 32" version="1.1" xmlns="http://www.w3.org/2000/svg" xmlns:xlink="http://www.w3.org/1999/xlink">
    <title>待确认</title>
    <g id="供应总览" stroke="none" stroke-width="1" fill="none" fill-rule="evenodd">
        <g transform="translate(-478.000000, -263.000000)" id="编组-4">
            <g transform="translate(477.000000, 262.000000)" id="编组-5">
                <polygon id="多边形" fill="#64C8BC" transform="translate(17.000000, 17.000000) rotate(-330.000000) translate(-17.000000, -17.000000) " points="17 5 27.3923048 11 27.3923048 23 17 29 6.60769515 23 6.60769515 11"></polygon>
                <g id="编组" transform="translate(12.000000, 11.000000)" fill-rule="nonzero">
                    <polygon id="路径" fill="#FFFFFF" points="0.535421687 2.87855422 10.7985542 2.87855422 10.7985542 10.4354217 0.535421687 10.4354217"></polygon>
                    <path d="M9.65349398,0.357831325 C9.50771084,0.139156627 9.26253012,0.00795180723 9.00012048,0.00795180723 L1.9853012,0.00795180723 C1.72289157,0.00795180723 1.47771084,0.139156627 1.33192771,0.357831325 L0.00397590361,2.36168675 L0.00397590361,10.2180723 C0.00397590361,10.6501205 0.357831325,11.0039759 0.789879518,11.0039759 L10.2140964,11.0039759 C10.6461446,11.0039759 11,10.6501205 11,10.2180723 L11,2.36168675 L9.65349398,0.357831325 Z M10.3439759,10.3479518 L0.66,10.3479518 L0.66,3.0826506 L10.3439759,3.0826506 L10.3439759,10.3479518 L10.3439759,10.3479518 Z M0.66,2.27554217 L1.84084337,0.669277108 L9.18831325,0.662650602 L10.3453012,2.27554217 L0.66,2.27554217 Z" id="形状" fill="#FFFFFF"></path>
                    <path d="M2.92228916,6.62518072 L4.73,8.22879518 C4.73795181,8.24204819 4.74987952,8.26060241 4.76975904,8.27783133 C4.85457831,8.35337349 4.96722892,8.39445783 5.09578313,8.39445783 L5.10903614,8.39445783 C5.22963855,8.39445783 5.34361446,8.35337349 5.42975904,8.27650602 C5.44963855,8.25795181 5.46156627,8.23939759 5.47216867,8.22216867 L8.34012048,4.98843373 C8.42891566,4.90891566 8.47795181,4.80289157 8.47795181,4.68891566 C8.47795181,4.57493976 8.42891566,4.46891566 8.34012048,4.38939759 C8.16650602,4.23698795 7.88024096,4.22771084 7.69072289,4.3986747 L5.09048193,7.37795181 L3.56240964,6.02614458 C3.38879518,5.87373494 3.09325301,5.87373494 2.92228916,6.02614458 C2.83216867,6.10566265 2.78313253,6.21301205 2.78313253,6.32566265 C2.78313253,6.43963855 2.83216867,6.54566265 2.92228916,6.62518072 L2.92228916,6.62518072 Z" id="路径" fill="#64C8BC"></path>
                </g>
            </g>
        </g>
    </g>
</svg>