<?xml version="1.0" encoding="UTF-8"?>
<svg width="32px" height="32px" viewBox="0 0 32 32" version="1.1" xmlns="http://www.w3.org/2000/svg" xmlns:xlink="http://www.w3.org/1999/xlink">
    <title>待下达</title>
    <g id="供应总览" stroke="none" stroke-width="1" fill="none" fill-rule="evenodd">
        <g transform="translate(-664.000000, -263.000000)" id="编组-3备份-5">
            <g transform="translate(663.000000, 262.000000)" id="编组-5">
                <polygon id="多边形" fill="#64C8BC" transform="translate(17.000000, 17.000000) rotate(-330.000000) translate(-17.000000, -17.000000) " points="17 5 27.3923048 11 27.3923048 23 17 29 6.60769515 23 6.60769515 11"></polygon>
                <g id="编组" transform="translate(12.000000, 12.000000)" fill="#FFFFFF" fill-rule="nonzero">
                    <path d="M9.59862648,5.48584997 C9.86527902,5.21919743 9.86527902,4.78306233 9.59862648,4.51640979 L6.17055946,1.08608301 C5.90390692,0.819430477 5.46777182,0.819430477 5.20111928,1.08608301 C4.93446675,1.35273555 4.93446675,1.78887065 5.20111928,2.05552319 L7.45862684,4.31303073 L0.884963715,4.31303073 C0.505322801,4.31303073 0.20025422,4.62035909 0.20025422,4.99774023 C0.20025422,5.37512137 0.507582571,5.68244973 0.884963715,5.68244973 L7.45862684,5.68244973 L5.20111928,7.93995728 C5.06779301,8.07328356 5,8.2495454 5,8.42580725 C5,8.60206909 5.06779302,8.77607118 5.20111928,8.91165722 C5.46777182,9.17830975 5.90390692,9.17830975 6.17055946,8.91165722 L9.59862648,5.48584997 Z" id="路径" transform="translate(4.999435, 4.998870) rotate(-270.000000) translate(-4.999435, -4.998870) "></path>
                </g>
            </g>
        </g>
    </g>
</svg>