<?xml version="1.0" encoding="UTF-8"?>
<svg width="32px" height="32px" viewBox="0 0 32 32" version="1.1" xmlns="http://www.w3.org/2000/svg" xmlns:xlink="http://www.w3.org/1999/xlink">
    <title>待回复</title>
    <g id="供应总览" stroke="none" stroke-width="1" fill="none" fill-rule="evenodd">
        <g id="客户协同总览" transform="translate(-664.000000, -263.000000)">
            <g id="编组-6" transform="translate(663.000000, 262.000000)">
                <polygon id="多边形" fill="#64C8BC" transform="translate(17.000000, 17.000000) rotate(-330.000000) translate(-17.000000, -17.000000) " points="17 5 27.3923048 11 27.3923048 23 17 29 6.60769515 23 6.60769515 11"></polygon>
                <path d="M12.6,12 L21.4,12 C22.2836556,12 23,12.7675119 23,13.7142857 L23,20.5714286 C23,21.5182024 22.2836556,22.2857143 21.4,22.2857143 L16.1424,22.2857143 L13.4,24 L13.4,22.2857143 L12.6,22.2857143 C11.7163444,22.2857143 11,21.5182024 11,20.5714286 L11,13.7142857 C11,12.7675119 11.7163444,12 12.6,12 Z M13.8,15.4285714 C13.5790861,15.4285714 13.4,15.6972006 13.4,16.0285714 C13.4,16.3599423 13.5790861,16.6285714 13.8,16.6285714 L20.2,16.6285714 C20.4209139,16.6285714 20.6,16.3599423 20.6,16.0285714 C20.6,15.6972006 20.4209139,15.4285714 20.2,15.4285714 L13.8,15.4285714 Z M13.8,18 C13.5790861,18 13.4,18.2686292 13.4,18.6 C13.4,18.9313708 13.5790861,19.2 13.8,19.2 L17,19.2 C17.2209139,19.2 17.4,18.9313708 17.4,18.6 C17.4,18.2686292 17.2209139,18 17,18 L13.8,18 Z" id="形状" fill="#FFFFFF" fill-rule="nonzero"></path>
            </g>
        </g>
    </g>
</svg>