<?xml version="1.0" encoding="UTF-8"?>
<svg width="32px" height="32px" viewBox="0 0 32 32" version="1.1" xmlns="http://www.w3.org/2000/svg" xmlns:xlink="http://www.w3.org/1999/xlink">
    <title>待计划</title>
    <g id="供应总览" stroke="none" stroke-width="1" fill="none" fill-rule="evenodd">
        <g id="客户协同总览" transform="translate(-837.000000, -263.000000)">
            <g id="编组-5备份" transform="translate(836.000000, 262.000000)">
                <polygon id="多边形" fill="#64C8BC" transform="translate(17.000000, 17.000000) rotate(-330.000000) translate(-17.000000, -17.000000) " points="17 5 27.3923048 11 27.3923048 23 17 29 6.60769515 23 6.60769515 11"></polygon>
                <g id="编组" transform="translate(12.000000, 11.000000)" fill="#FFFFFF" fill-rule="nonzero">
                    <path d="M9.07988982,0.452553664 L8.1748393,0.452553664 L8.1748393,1.81014854 C8.17488514,2.05482752 8.07649627,2.28923798 7.90183184,2.46058599 C7.72716741,2.63193401 7.49091415,2.72581172 7.24628099,2.721076 L2.72102847,2.721076 C2.22023373,2.71784499 1.81596755,2.31095369 1.81597797,1.81014854 L1.81597797,0.452553664 L0.905050511,0.452553664 C0.405204916,0.452553664 3.01980663e-14,0.857777688 3.01980663e-14,1.35762328 L3.01980663e-14,10.7607454 C3.01980663e-14,11.260591 0.405204916,11.6657959 0.905050511,11.6657959 L9.08576676,11.6657959 C9.58427837,11.66259 9.98761131,11.259257 9.99081727,10.7607454 L9.99081727,1.35762328 C9.99081727,1.11656724 9.89466278,0.885468969 9.72365969,0.71556912 C9.55265659,0.545669272 9.32094078,0.451007474 9.07988982,0.452553664 Z M7.18751148,5.6536747 L4.69568412,8.37470317 C4.6101157,8.46925247 4.48821391,8.52271817 4.3606979,8.52164335 C4.23318188,8.52271818 4.11128008,8.46925247 4.02571166,8.37470317 L2.80918274,7.01125047 C2.67477326,6.89556615 2.62032376,6.71203345 2.66989848,6.54176567 C2.71947321,6.37149789 2.86393436,6.24587951 3.0394365,6.22042826 C3.21493865,6.19497701 3.38913252,6.27438418 3.48503214,6.42355533 L4.36657484,7.41088316 L6.51753903,5.06010262 C6.69489659,4.8899452 6.97489221,4.8899452 7.15224977,5.06010262 C7.31058752,5.22139026 7.32564009,5.47477519 7.18751148,5.6536747 L7.18751148,5.6536747 Z" id="形状"></path>
                    <path d="M7.24628099,0.305648993 C7.1419071,0.114849235 6.94069691,-0.00271176962 6.72323233,4.75303958e-05 L3.34986226,4.75303958e-05 C3.13239768,-0.00271176962 2.93118749,0.114849235 2.82681359,0.305648993 C2.76884978,0.399175533 2.73830623,0.507096092 2.73865629,0.617127417 L2.73865629,1.20482254 C2.73865629,1.36068899 2.80057702,1.51017155 2.91079124,1.62038577 C3.02100546,1.73059999 3.17048802,1.79251769 3.32635446,1.79251769 L6.67033977,1.79251769 C6.82620621,1.79251769 6.97568877,1.73059998 7.08590299,1.62038576 C7.1961172,1.51017154 7.2580349,1.36068899 7.2580349,1.20482254 L7.2580349,0.617127417 C7.28057492,0.513982764 7.27653035,0.406801594 7.24628099,0.305648993" id="路径"></path>
                </g>
            </g>
        </g>
    </g>
</svg>