<?xml version="1.0" encoding="UTF-8"?>
<svg width="32px" height="32px" viewBox="0 0 32 32" version="1.1" xmlns="http://www.w3.org/2000/svg" xmlns:xlink="http://www.w3.org/1999/xlink">
    <title>发运中</title>
    <g id="供应总览" stroke="none" stroke-width="1" fill="none" fill-rule="evenodd">
        <g transform="translate(-666.000000, -400.000000)" id="编组-3备份-9">
            <g transform="translate(665.000000, 399.000000)" id="编组-5">
                <polygon id="多边形" fill="#64C8BC" transform="translate(17.000000, 17.000000) rotate(-330.000000) translate(-17.000000, -17.000000) " points="17 5 27.3923048 11 27.3923048 23 17 29 6.60769515 23 6.60769515 11"></polygon>
                <g id="编组" transform="translate(10.000000, 13.000000)" fill="#FFFFFF" fill-rule="nonzero">
                    <path d="M13.4262806,2.34632517 C13.7801782,2.61135857 13.9890869,3.03073497 13.9890869,3.47505568 L13.9890869,6.55412027 C13.9890869,6.95011136 13.6710468,7.27282851 13.2781737,7.27282851 L12.3162584,7.27282851 C12.3224944,7.32583519 12.3256125,7.37884187 12.3256125,7.43340757 C12.3256125,8.18641425 11.7207127,8.79599109 10.9755011,8.79599109 C10.2302895,8.79599109 9.62538976,8.18641425 9.62538976,7.43340757 C9.62538976,7.37884187 9.6285078,7.32427617 9.63474388,7.27282851 L4.7830735,7.27282851 C4.78930958,7.32583519 4.79242762,7.37884187 4.79242762,7.43340757 C4.79242762,8.18641425 4.18752784,8.79599109 3.44231626,8.79599109 C2.69710468,8.79599109 2.0922049,8.18641425 2.0922049,7.43340757 C2.0922049,7.37884187 2.09532294,7.32427617 2.10155902,7.27282851 L0.36169265,7.27282851 C0.165256125,7.27282851 0.00623608018,7.11224944 0.00623608018,6.9142539 C0.00623608018,6.71625835 0.165256125,6.55567929 0.36169265,6.55567929 L7.8481069,6.55567929 C8.20512249,6.55567929 8.4935412,6.26414254 8.4935412,5.90400891 L8.4935412,1.3688196 C8.4935412,0.980623608 8.80534521,0.667260579 9.18886414,0.667260579 L10.7213808,0.667260579 C11.0191537,0.667260579 11.3091314,0.763919822 11.5492205,0.943207127 L13.4262806,2.34632517 Z M0.534743875,6.19398664 C0.241648107,6.19398664 0.00467706013,5.95701559 0.00467706013,5.66547884 L0.00467706013,0.542538976 C0.00467706013,0.251002227 0.241648107,0.0140311804 0.534743875,0.0140311804 L7.60489978,0.0140311804 C7.89799555,0.0140311804 8.13496659,0.251002227 8.13496659,0.542538976 L8.13496659,5.66547884 C8.13496659,5.95701559 7.89799555,6.19398664 7.60489978,6.19398664 L0.534743875,6.19398664 L0.534743875,6.19398664 Z M2.09376392,2.30267261 L2.08596882,3.89910913 C2.08596882,3.99888641 2.16547884,4.07995546 2.26681514,4.07995546 L3.86013363,4.08775056 C3.95991091,4.08775056 4.04097996,4.1688196 4.03942094,4.26859688 L4.03474388,5.09955457 C4.03474388,5.23518931 4.19532294,5.30534521 4.29510022,5.21336303 L6.04120267,3.23340757 C6.10668151,3.17260579 6.10668151,3.06971047 6.04276169,3.00890869 L4.31848552,1.00868597 C4.22026726,0.915144766 4.05657016,0.983741648 4.05657016,1.11937639 L4.0518931,1.95033408 C4.0518931,2.05011136 3.96926503,2.12962138 3.86948775,2.12962138 L2.27616927,2.1233853 C2.17639198,2.12182628 2.09532294,2.20289532 2.09376392,2.30267261 L2.09376392,2.30267261 Z" id="形状"></path>
                </g>
            </g>
        </g>
    </g>
</svg>