<?xml version="1.0" encoding="UTF-8"?>
<svg width="6px" height="9px" viewBox="0 0 6 9" version="1.1" xmlns="http://www.w3.org/2000/svg" xmlns:xlink="http://www.w3.org/1999/xlink">
    <title>升序</title>
    <g id="供应总览" stroke="none" stroke-width="1" fill="none" fill-rule="evenodd">
        <g id="供应总览备份" transform="translate(-866.000000, -891.000000)" fill-rule="nonzero">
            <g id="编组-11备份-9" transform="translate(619.000000, 780.000000)">
                <g id="升序" transform="translate(247.000000, 111.000000)">
                    <path d="M3.22457243,0.0643077569 L5.84922441,2.63661801 C5.99920452,2.80810536 5.99920452,3.06533639 5.92421446,3.23682374 C5.8492244,3.32256741 5.77423434,3.40831108 5.62425423,3.40831108 L0.374950278,3.40831108 C0.149980106,3.40831108 0,3.23682374 0,2.97959271 C0,2.89384903 0,2.72236168 0.0749900572,2.63661801 L2.69964203,0.0643077569 C2.9246122,-0.021435919 3.07459231,-0.021435919 3.22457243,0.0643077569 Z" id="路径" fill="#2AC5A9"></path>
                    <path d="M3.22457243,8.47103968 L5.84922441,5.89872943 C5.99920452,5.72724208 5.99920452,5.47001105 5.92421446,5.2985237 C5.8492244,5.21278002 5.77423434,5.12703635 5.62425423,5.12703635 L0.374950278,5.12703635 C0.149980106,5.12703635 9.29478716e-13,5.29852371 9.29478716e-13,5.55575472 C9.29478716e-13,5.6414984 9.29478716e-13,5.81298575 0.0749900572,5.89872943 L2.69964203,8.47103968 C2.9246122,8.55678335 3.07459231,8.55678335 3.22457243,8.47103968 L3.22457243,8.47103968 Z" id="路径" fill="#AAADBA"></path>
                </g>
            </g>
        </g>
    </g>
</svg>