<?xml version="1.0" encoding="UTF-8"?>
<svg width="32px" height="32px" viewBox="0 0 32 32" version="1.1" xmlns="http://www.w3.org/2000/svg" xmlns:xlink="http://www.w3.org/1999/xlink">
    <title>已下达</title>
    <g id="供应总览" stroke="none" stroke-width="1" fill="none" fill-rule="evenodd">
        <g transform="translate(-837.000000, -263.000000)" id="编组-3备份-5">
            <g transform="translate(663.000000, 262.000000)">
                <g id="编组-5备份" transform="translate(173.000000, 0.000000)">
                    <polygon id="多边形" fill="#64C8BC" transform="translate(17.000000, 17.000000) rotate(-330.000000) translate(-17.000000, -17.000000) " points="17 5 27.3923048 11 27.3923048 23 17 29 6.60769515 23 6.60769515 11"></polygon>
                    <g id="编组" transform="translate(12.000000, 11.000000)" fill="#FFFFFF" fill-rule="nonzero">
                        <polygon id="路径" points="6.663196 0 6.663196 3.331598 5.55266333 3.331598 5.55266333 4.997397 8.88426133 4.997397 8.88426133 7.21846233 9.994794 7.21846233 9.994794 10.5500603 6.663196 10.5500603 6.663196 7.21846233 7.77372867 7.21846233 7.77372867 6.10792967 2.22106533 6.10792967 2.22106533 7.21846233 3.331598 7.21846233 3.331598 10.5500603 0 10.5500603 0 7.21846233 1.11053267 7.21846233 1.11053267 4.997397 4.44213067 4.997397 4.44213067 3.331598 3.331598 3.331598 3.331598 0"></polygon>
                    </g>
                </g>
            </g>
        </g>
    </g>
</svg>