<?xml version="1.0" encoding="UTF-8"?>
<svg width="81px" height="80px" viewBox="0 0 81 80" version="1.1" xmlns="http://www.w3.org/2000/svg" xmlns:xlink="http://www.w3.org/1999/xlink">
    <title>车间</title>
    <g id="备件监控" stroke="none" stroke-width="1" fill="none" fill-rule="evenodd">
        <g id="安灯看板-方案二" transform="translate(-673.000000, -230.000000)">
            <g id="编组-9备份-3" transform="translate(208.000000, 149.000000)">
                <g id="编组-5">
                    <g id="编组-6备份" transform="translate(449.000000, 64.000000)">
                        <g id="编组-4" transform="translate(16.015449, 17.000000)">
                            <g id="车间">
                                <circle id="椭圆形" fill="#EDF8F6" cx="40" cy="40" r="40"></circle>
                                <g id="编组" transform="translate(17.984551, 19.000000)" fill="#64C7BC" fill-rule="nonzero">
                                    <path d="M15.0604004,25.373568 L13.4168752,27.0126987 C9.82221319,25.3384124 5.56838332,26.0898637 2.7647227,28.8935244 C-0.0389379199,31.6971849 -0.790389272,35.9510149 0.879502632,39.5456769 L5.75734478,34.6810181 L10.3231808,39.2512486 L5.45412757,44.1203018 C9.04878962,45.7901937 13.2982251,45.0387424 16.1018857,42.2394762 C18.9055463,39.4402101 19.6569976,35.1863802 17.9915002,31.5917181 L19.6262365,29.9525874 L15.0604004,25.373568 Z M29.9488051,19.6212299 L31.5835414,17.9820991 C35.1782034,19.6563854 39.4320333,18.9049341 42.2356939,16.1012735 C45.0393545,13.2976129 45.7908059,9.04378302 44.120914,5.44912093 L39.2474663,10.3181742 L34.6772359,5.75233813 L39.5506835,0.883284917 C35.9604159,-0.791001431 31.7021916,-0.0395500781 28.898531,2.7597161 C26.0948704,5.55898228 25.3390246,9.81720659 27.0089165,13.4118686 L25.3785746,15.0509994 L29.9488051,19.6212299 Z M35.446265,33.3758658 L25.8399921,23.7344373 L27.8526513,21.7217781 L7.57664807,1.42380255 C5.87160053,-0.20214479 3.18219565,-0.171383643 1.52109268,1.49411382 C-0.14440478,3.15961124 -0.175165928,5.84901611 1.4551759,7.54966916 L21.7267847,27.8564336 L23.7394439,25.8437744 L33.3457167,35.4720196 L34.0971681,38.6052641 L40.3372905,44.8585698 L44.8196319,40.3718339 L38.5751151,34.1185282 L35.446265,33.3758658 Z" id="形状"></path>
                                </g>
                            </g>
                        </g>
                    </g>
                </g>
            </g>
        </g>
    </g>
</svg>