<?xml version="1.0" encoding="UTF-8"?>
<svg width="81px" height="80px" viewBox="0 0 81 80" version="1.1" xmlns="http://www.w3.org/2000/svg" xmlns:xlink="http://www.w3.org/1999/xlink">
    <title>报废</title>
    <g id="备件监控" stroke="none" stroke-width="1" fill="none" fill-rule="evenodd">
        <g id="安灯看板-方案二" transform="translate(-673.000000, -393.000000)">
            <g id="编组-9备份-3" transform="translate(208.000000, 149.000000)">
                <g id="编组-5">
                    <g id="编组-8" transform="translate(449.000000, 227.000000)">
                        <g id="编组-6备份-3">
                            <g id="编组-4" transform="translate(16.015449, 17.000000)">
                                <g id="报废">
                                    <circle id="椭圆形" fill="#FFF3EE" cx="40" cy="40" r="40"></circle>
                                    <g id="编组" transform="translate(17.984551, 17.000000)" fill="#FF8B5E" fill-rule="nonzero">
                                        <path d="M38.6935185,13.4240741 L5.05185185,13.4240741 C4.17592593,13.4240741 3.46296296,14.137037 3.46296296,15.012963 C3.46296296,15.0486111 3.46296296,15.0842593 3.46805556,15.125 L5.4337963,43.4907407 C5.52037037,44.7384259 6.55925926,45.7111111 7.81203704,45.7111111 L35.9486111,45.7111111 C37.2013889,45.7111111 38.2402778,44.7435185 38.3268519,43.4907407 L40.2824074,15.125 C40.3435185,14.2490741 39.6814815,13.4902778 38.8055556,13.4291667 C38.7699074,13.4240741 38.7291667,13.4240741 38.6935185,13.4240741 Z M30.6472222,22.1425926 L29.7763889,35.5310185 C29.7050926,36.6208333 28.7833333,37.4611111 27.6935185,37.4305556 C26.649537,37.4 25.8296296,36.5342593 25.8601852,35.4902778 C25.8601852,35.4648148 25.8601852,35.4444444 25.8652778,35.4189815 L26.7361111,22.0305556 C26.8074074,20.9407407 27.7291667,20.100463 28.8240741,20.1310185 C29.8680556,20.1615741 30.687963,21.0273148 30.6574074,22.0712963 C30.6523148,22.0916667 30.6523148,22.1171296 30.6472222,22.1425926 Z M17.1111111,22.025463 L17.875,35.4138889 C17.9361111,36.462963 17.1314815,37.3643519 16.0824074,37.4203704 L16.0263889,37.4203704 C14.9365741,37.4509259 14.0199074,36.6106481 13.9587963,35.5208333 L13.1949074,22.1324074 C13.1337963,21.0833333 13.9384259,20.1819444 14.9875,20.1259259 L15.0435185,20.1259259 C16.1282407,20.0953704 17.0449074,20.9356481 17.1111111,22.025463 L17.1111111,22.025463 Z M30.7694444,5.35231481 L42.3143519,7.57777778 C43.1393519,7.73564815 43.7351852,8.4587963 43.7351852,9.29398148 C43.7351852,10.0935185 43.0884259,10.7402778 42.2888889,10.7402778 L1.46157407,10.7402778 C0.662037037,10.7402778 0.0152777778,10.0935185 0.0152777778,9.29398148 C0.0152777778,8.4537037 0.611111111,7.73564815 1.43611111,7.57777778 L12.9810185,5.35231481 C13.4953704,5.26574074 13.9027778,4.86851852 14.0300926,4.34907407 L14.7685185,1.22731481 C14.9365741,0.509259259 15.5782407,0.00509259259 16.3166667,0.00509259259 L27.4185185,0.00509259259 C28.1518519,0.00509259259 28.7884259,0.509259259 28.9615741,1.22222222 L29.7203704,4.35925926 C29.8425926,4.87361111 30.2550926,5.26574074 30.7694444,5.35231481 L30.7694444,5.35231481 Z" id="形状"></path>
                                    </g>
                                </g>
                            </g>
                        </g>
                    </g>
                </g>
            </g>
        </g>
    </g>
</svg>