<?xml version="1.0" encoding="UTF-8"?>
<svg width="82px" height="80px" viewBox="0 0 82 80" version="1.1" xmlns="http://www.w3.org/2000/svg" xmlns:xlink="http://www.w3.org/1999/xlink">
    <title>仓库</title>
    <g id="备件监控" stroke="none" stroke-width="1" fill="none" fill-rule="evenodd">
        <g id="安灯看板-方案二" transform="translate(-239.000000, -230.000000)">
            <g id="编组-9备份-3" transform="translate(208.000000, 149.000000)">
                <g id="编组-5">
                    <g id="编组-6" transform="translate(15.984551, 64.000000)">
                        <g id="仓库" transform="translate(16.015449, 17.000000)">
                            <circle id="椭圆形" fill="#EEF9FE" cx="40" cy="40" r="40"></circle>
                            <g id="编组" transform="translate(16.000000, 18.461538)" fill="#4DB7FA" fill-rule="nonzero">
                                <path d="M48.8472158,23.0262219 L48.8472158,32.3621511 C48.8472158,32.9006399 48.7046426,33.40226 48.4208033,33.8658135 C48.1364193,34.3297481 47.7474745,34.6810619 47.2537509,34.9204629 L37.1995643,39.9476106 C36.8254323,40.1569503 36.3989653,40.261838 35.9204357,40.261838 C35.4414159,40.261838 35.0150579,40.1570048 34.641307,39.9476106 L24.5872294,34.9204629 C24.5273247,34.8902927 24.4750442,34.8605582 24.4301702,34.8306603 C24.3998366,34.8604493 24.3477195,34.8901838 24.273002,34.9204629 L14.2189244,39.9476106 C13.8447924,40.1569503 13.4183254,40.261838 12.9397413,40.261838 C12.460776,40.261838 12.0343635,40.1570048 11.6606127,39.9476106 L1.60653506,34.9204629 C1.11275698,34.680953 0.723594282,34.3295848 0.4395371,33.8658135 C0.155207624,33.40226 0.0131790334,32.9007488 0.0131790334,32.3621511 L0.0131790334,23.0262219 C0.0131790334,22.4577808 0.17377808,21.9341593 0.495684139,21.455194 C0.817208986,20.976501 1.23986385,20.6174541 1.76364874,20.3779442 L11.503499,16.2037304 L11.503499,7.22679374 C11.503499,6.65835262 11.664098,6.13484003 11.9860585,5.65576583 C12.3075289,5.1771273 12.7302383,4.81808033 13.2540231,4.578516 L23.3081007,0.269625596 C23.6521171,0.120299523 24.0261947,0.0452008169 24.4302246,0.0452008169 C24.8341457,0.0452008169 25.2081144,0.120299523 25.5522941,0.269625596 L35.6064806,4.578516 C36.1300477,4.81802587 36.5526481,5.1771273 36.8743907,5.65576583 C37.1959156,6.13473111 37.3569503,6.65835262 37.3569503,7.22679374 L37.3569503,16.2036215 L47.0968005,20.3778353 C47.6354527,20.6173451 48.0618652,20.9764466 48.3759292,21.4550851 C48.6899932,21.9341048 48.8472158,22.4577263 48.8472158,23.0261675 L48.8472158,23.0262219 Z M12.9395779,26.4821784 L22.0062083,22.5997549 L12.9395779,18.7171681 L3.87294758,22.5997549 L12.9395779,26.4821784 Z M14.3758747,36.6711504 L22.99371,32.3622056 L22.99371,25.3153438 L14.3758747,28.9958339 L14.3758747,36.6711504 L14.3758747,36.6711504 Z M24.4300613,11.4010075 L34.3271341,7.15942818 L24.4300613,2.91784888 L14.5329884,7.15942818 L24.4300613,11.4010075 Z M25.8663036,19.906712 L34.4840844,16.203676 L34.4840844,10.2341184 L25.8663036,13.9146086 L25.8663036,19.906712 L25.8663036,19.906712 Z M35.9203812,26.4821784 L44.9870116,22.5997549 L35.9203812,18.7171681 L26.8538053,22.5997549 L35.9203812,26.4821784 Z M37.3567869,36.6711504 L45.9745133,32.3622056 L45.9745133,25.3153438 L37.3567869,28.9958339 L37.3567869,36.6711504 L37.3567869,36.6711504 Z" id="形状"></path>
                            </g>
                        </g>
                    </g>
                </g>
            </g>
        </g>
    </g>
</svg>