<?xml version="1.0" encoding="UTF-8"?>
<svg width="16px" height="16px" viewBox="0 0 16 16" version="1.1" xmlns="http://www.w3.org/2000/svg" xmlns:xlink="http://www.w3.org/1999/xlink">
    <title>取消</title>
    <g id="取消" stroke="none" stroke-width="1" fill="none" fill-rule="evenodd">
        <g id="编组" transform="translate(3.000000, 3.000000)" fill="#333333" fill-rule="nonzero">
            <path d="M9.59612278,10 C9.48959238,9.99848262 9.38797676,9.95493307 9.31340872,9.87883684 L0.121163164,0.686591279 C0.00056933796,0.52579956 0.0165594241,0.300801743 0.158680584,0.158680584 C0.300801743,0.0165594241 0.52579956,0.00056933796 0.686591279,0.121163164 L9.87883684,9.30533118 C9.99197081,9.42071903 10.0254344,9.59243587 9.96390629,9.74186125 C9.90237819,9.89128663 9.75770403,9.98965264 9.59612278,9.99192245 L9.59612278,10 Z" id="路径"></path>
            <path d="M0.403877217,10 C0.242295967,9.99773019 0.0976217989,9.89936418 0.0360937004,9.7499388 C-0.0254343981,9.60051341 0.00802918398,9.42879657 0.121163164,9.31340872 L9.30533118,0.121163164 C9.4637004,-0.0372060493 9.72046762,-0.0372060493 9.87883684,0.121163164 C10.037206,0.279532377 10.037206,0.536299605 9.87883684,0.694668818 L0.686591279,9.87883684 C0.61202324,9.95493307 0.510407618,9.99848262 0.403877217,10 Z" id="路径"></path>
        </g>
    </g>
</svg>