<?xml version="1.0" encoding="UTF-8"?>
<svg width="16px" height="16px" viewBox="0 0 16 16" version="1.1" xmlns="http://www.w3.org/2000/svg" xmlns:xlink="http://www.w3.org/1999/xlink">
    <title>下达</title>
    <g id="下达" stroke="none" stroke-width="1" fill="none" fill-rule="evenodd">
        <g id="编组" transform="translate(3.000000, 3.000000)" fill="#000000" fill-rule="nonzero">
            <path d="M4.98619956,9.26229183 C4.8331174,9.26229183 4.70901979,9.13260983 4.70901979,8.97263897 L4.70901979,4.63151256 C4.70541342,4.52563803 4.75740721,4.42615248 4.84459709,4.37209729 C4.93178697,4.31804211 5.04026128,4.31804211 5.12745116,4.37209729 C5.21464104,4.42615248 5.26663483,4.52563803 5.26302846,4.63151256 L5.26302846,8.97337227 C5.26283486,9.13319992 5.13879394,9.26265847 4.98584869,9.26265847 L4.98619956,9.26229183 Z" id="路径"></path>
            <path d="M4.98619956,9.55158338 C4.91313847,9.55058674 4.84340712,9.51948882 4.79217372,9.46504883 L3.13014768,7.72823162 C3.05645189,7.65556062 3.02638815,7.54676854 3.05166631,7.44423002 C3.07694448,7.3416915 3.15356741,7.26162053 3.2516904,7.23520485 C3.34981339,7.20878917 3.45392064,7.24020578 3.52346226,7.31721788 L4.98619956,8.85127809 L6.45419975,7.31721788 C6.56416682,7.21351202 6.73260609,7.21802172 6.83734706,7.32747604 C6.94208804,7.43693036 6.94640354,7.61294939 6.84716349,7.72786498 L5.1854883,9.46504883 C5.13297243,9.52084125 5.06108741,9.55205302 4.98619956,9.55158338 L4.98619956,9.55158338 Z" id="路径"></path>
            <path d="M8.79724597,10.999109 L1.17480228,10.999109 C0.872036755,11.0084813 0.578129809,10.891665 0.357851218,10.6744036 C0.137572627,10.4571423 0.00900170969,10.1572675 0.000472296464,9.84086425 L0.000472296464,2.31538963 C0.00918444111,1.99911527 0.137835192,1.6994282 0.358093602,1.48232428 C0.578352013,1.26522036 0.872154935,1.14850405 1.17480228,1.15787814 L2.21615616,1.15787814 L2.21615616,1.81601344 L1.17480228,1.81601344 C0.851308933,1.79951422 0.716578505,1.97807238 0.695877745,2.31538963 L0.695877745,9.8412309 C0.704298396,10.0040231 0.703947533,10.125384 0.806047934,10.2207128 C0.908148335,10.3160416 1.01902024,10.3640726 1.17480228,10.3549064 L8.79724597,10.3549064 C8.95302802,10.3640727 9.04425174,10.329241 9.16038655,10.2207128 C9.27687223,10.111818 9.27792481,10.0040231 9.28669632,9.8412309 L9.28669632,2.31538963 C9.2779248,2.15259739 9.27687222,2.04040274 9.16038655,1.93150793 C9.04425174,1.82297977 8.95337888,1.80648055 8.79724597,1.81601344 L7.75589209,1.81601344 L7.75589209,1.15787814 L8.79724597,1.15787814 C9.09989332,1.14850405 9.39369624,1.26522036 9.61395465,1.48232428 C9.83421306,1.6994282 9.96286381,1.99911527 9.97157596,2.31538963 L9.97157596,9.8412309 C9.96295516,10.1575697 9.83434432,10.4573506 9.61407582,10.6745333 C9.39380732,10.8917159 9.0999524,11.0084822 8.79724597,10.999109 L8.79724597,10.999109 Z" id="路径"></path>
            <path d="M7.75589209,2.60504249 L7.20188342,2.60504249 L7.20188342,0.966853916 C7.20188342,0.810294708 6.93593119,0.578939077 6.52612615,0.578939066 L3.4459221,0.578939066 C3.03611707,0.578939066 2.77016483,0.804794966 2.77016483,0.966853916 L2.77016483,2.60504249 L2.21615616,2.60504249 L2.21615616,0.966853916 C2.21615616,0.434112637 2.7705157,0 3.4459221,0 L6.52612615,0 C7.20188342,0 7.75589209,0.434112637 7.75589209,0.966853916 L7.75589209,2.60504249 Z M8.30990078,3.18398156 L1.66214748,3.18398156 C1.50906533,3.18398156 1.38496772,3.05429955 1.38496772,2.8943287 C1.38496772,2.73435785 1.50906533,2.60467584 1.66214748,2.60467584 L8.30990078,2.60467584 C8.46298294,2.60467584 8.58708055,2.73435784 8.58708055,2.8943287 C8.58708055,3.05429956 8.46298294,3.18398156 8.30990078,3.18398156 Z" id="形状"></path>
        </g>
    </g>
</svg>