<?xml version="1.0" encoding="UTF-8"?>
<svg width="16px" height="16px" viewBox="0 0 16 16" version="1.1" xmlns="http://www.w3.org/2000/svg" xmlns:xlink="http://www.w3.org/1999/xlink">
    <title>导入</title>
    <g id="导入" stroke="none" stroke-width="1" fill="none" fill-rule="evenodd">
        <g>
            <path d="M3.0055,8.78208696 L3.0055,12.4342609 C3.0055,12.7224094 3.22935763,12.956 3.5055,12.956 L12.5,12.956 C12.7761424,12.956 13,12.7224094 13,12.4342609 L13,8.78208696 L14,8.78208696 L14,12.4342609 C14,13.2982609 13.3275,14 12.501,14 L3.505,14 C2.67711088,13.9988497 2.00632633,13.2986672 2.0055,12.4347826 L2,8.78208696 L3.0055,8.78208696 Z M7.4865,11.6469565 L7.4865,4.112 L5.0325,6.68156522 L4.2875,5.90104348 L8.0135,2 L11.7395,5.90104348 L10.9945,6.68156522 L8.541,4.11252174 L8.5405,11.6469565 L7.4865,11.6469565 Z" fill="#FFFFFF" fill-rule="nonzero"></path>
            <rect id="矩形" x="0" y="0" width="16" height="16"></rect>
        </g>
    </g>
</svg>