<?xml version="1.0" encoding="UTF-8"?>
<svg width="16px" height="16px" viewBox="0 0 16 16" version="1.1" xmlns="http://www.w3.org/2000/svg" xmlns:xlink="http://www.w3.org/1999/xlink">
    <title>排产</title>
    <g id="排产" stroke="none" stroke-width="1" fill="none" fill-rule="evenodd">
        <g id="编组" transform="translate(4.000000, 3.000000)" fill="#000000" fill-rule="nonzero">
            <path d="M2.83567217,7.33333334 L6.13755897,7.33333334 C6.39793632,7.33333334 6.60925707,7.53866667 6.60925707,7.79166666 C6.60925707,8.04466665 6.39793631,8.25 6.13755897,8.25 L2.83567217,8.25 C2.57529481,8.25 2.36397405,8.04466666 2.36397405,7.79166666 C2.36397405,7.53866666 2.57529481,7.33333334 2.83567217,7.33333334 Z M2.83567217,5.5 L6.13755897,5.5 C6.39793632,5.5 6.60925707,5.70533334 6.60925707,5.95833334 C6.60925707,6.21133334 6.39793631,6.41666666 6.13755897,6.41666666 L2.83567217,6.41666666 C2.57529481,6.41666666 2.36397405,6.21133333 2.36397405,5.95833334 C2.36397405,5.70533335 2.57529481,5.5 2.83567217,5.5 L2.83567217,5.5 Z M2.83567217,3.66666666 L6.13755897,3.66666666 C6.39793632,3.66666666 6.60925707,3.872 6.60925707,4.125 C6.60925707,4.378 6.39793631,4.58333334 6.13755897,4.58333334 L2.83567217,4.58333334 C2.57529481,4.58333334 2.36397405,4.378 2.36397405,4.125 C2.36397405,3.872 2.57529481,3.66666666 2.83567217,3.66666666 Z M2.6017099,0.689333337 L2.6017099,1.37866666 L6.37529482,1.37866666 L6.37529482,0.689333337 L2.6017099,0.689333337 Z M7.08472877,0.689333337 L8.49982311,0.689333337 C8.76020047,0.689333337 8.97152123,0.894666674 8.97152123,1.14766666 L8.97152123,10.5416667 C8.97152123,10.7946667 8.76020047,11 8.49982311,11 L0.480955189,11 C0.22057783,11 0.00925707179,10.7946667 0.00925707179,10.5416667 L0.00925707179,1.144 C0.00925707179,0.891 0.22057783,0.685666663 0.480955189,0.685666663 L1.89604953,0.685666663 L1.89604953,0.458333337 C1.89227595,0.205333337 2.10359669,0 2.36774765,0 L6.61303066,0 C6.87340802,0 7.08472878,0.205333337 7.08472877,0.458333337 L7.08472877,0.689333337 Z M1.89227595,1.375 L0.714917457,1.375 L0.714917457,10.3143333 L8.26208726,10.3143333 L8.26208726,1.375 L7.08472877,1.375 L7.08472877,1.60233334 C7.08472877,1.85533334 6.87340801,2.06066667 6.61303066,2.06066666 L2.36774765,2.06066666 C2.10737029,2.06066666 1.89604953,1.85533333 1.89604953,1.60233334 L1.89604953,1.375 L1.89227595,1.375 Z" id="形状"></path>
        </g>
    </g>
</svg>