<?xml version="1.0" encoding="UTF-8"?>
<svg width="16px" height="16px" viewBox="0 0 16 16" version="1.1" xmlns="http://www.w3.org/2000/svg" xmlns:xlink="http://www.w3.org/1999/xlink">
    <title>暂挂</title>
    <g id="暂挂" stroke="none" stroke-width="1" fill="none" fill-rule="evenodd">
        <g id="编组" transform="translate(2.000000, 2.000000)" fill="#333333" fill-rule="nonzero">
            <path d="M6,12 C2.7,12 0,9.3 0,6 C0,2.7 2.7,0 6,0 C9.3,0 12,2.7 12,6 C12,9.3 9.3,12 6,12 Z M6,0.75 C3.075,0.75 0.75,3.075 0.75,6 C0.75,8.925 3.075,11.25 6,11.25 C8.925,11.25 11.25,8.925 11.25,6 C11.25,3.075 8.925,0.75 6,0.75 Z" id="形状"></path>
            <path d="M4.875,8.25 C4.65,8.25 4.5,8.1 4.5,7.875 L4.5,4.125 C4.5,3.9 4.65,3.75 4.875,3.75 C5.1,3.75 5.25,3.9 5.25,4.125 L5.25,7.875 C5.25,8.1 5.1,8.25 4.875,8.25 Z M7.125,8.25 C6.9,8.25 6.75,8.1 6.75,7.875 L6.75,4.125 C6.75,3.9 6.9,3.75 7.125,3.75 C7.35,3.75 7.5,3.9 7.5,4.125 L7.5,7.875 C7.5,8.1 7.35,8.25 7.125,8.25 Z" id="形状"></path>
        </g>
    </g>
</svg>