<?xml version="1.0" encoding="UTF-8"?>
<svg width="43px" height="43px" viewBox="0 0 43 43" version="1.1" xmlns="http://www.w3.org/2000/svg" xmlns:xlink="http://www.w3.org/1999/xlink">
    <title>编组 4</title>
    <defs>
        <rect id="path-1" x="-1.27897692e-13" y="-1.42108547e-14" width="41.28" height="41.28"></rect>
        <rect id="path-3" x="1.92" y="1.92" width="37.44" height="37.44"></rect>
        <filter x="-6.7%" y="-6.7%" width="113.4%" height="113.4%" filterUnits="objectBoundingBox" id="filter-4">
            <feGaussianBlur stdDeviation="2.5" in="SourceAlpha" result="shadowBlurInner1"></feGaussianBlur>
            <feOffset dx="0" dy="0" in="shadowBlurInner1" result="shadowOffsetInner1"></feOffset>
            <feComposite in="shadowOffsetInner1" in2="SourceAlpha" operator="arithmetic" k2="-1" k3="1" result="shadowInnerInner1"></feComposite>
            <feColorMatrix values="0 0 0 0 0.176470588   0 0 0 0 0.807843137   0 0 0 0 0.952941176  0 0 0 0.637838724 0" type="matrix" in="shadowInnerInner1"></feColorMatrix>
        </filter>
        <linearGradient x1="50%" y1="0%" x2="50%" y2="100%" id="linearGradient-5">
            <stop stop-color="#FFFFFF" stop-opacity="0.399229677" offset="0%"></stop>
            <stop stop-color="#FFFFFF" offset="100%"></stop>
        </linearGradient>
        <polygon id="path-6" points="0.0747115385 0.638884615 10.9502885 0.638884615 10.9502885 4.01972308 0.0747115385 4.01972308"></polygon>
        <linearGradient x1="50%" y1="100%" x2="50%" y2="3.061617e-15%" id="linearGradient-8">
            <stop stop-color="#FFFFFF" stop-opacity="0.399229677" offset="0%"></stop>
            <stop stop-color="#FFFFFF" stop-opacity="0.457495629" offset="100%"></stop>
        </linearGradient>
    </defs>
    <g id="大数据看板" stroke="none" stroke-width="1" fill="none" fill-rule="evenodd">
        <g id="看板" transform="translate(-408.000000, -260.000000)">
            <g id="编组-4" transform="translate(409.000000, 261.000000)">
                <g id="编组-13">
                    <g id="形状结合">
                        <mask id="mask-2" fill="white">
                            <use xlink:href="#path-1"></use>
                        </mask>
                        <use id="蒙版" stroke-opacity="0.36756993" stroke="#2DCEF3" stroke-width="0.5" xlink:href="#path-1"></use>
                        <path d="M0.96,40.32 L0.96,42.24 L-0.96,42.24 L-0.96,40.32 L0.96,40.32 Z M42.24,40.32 L42.24,42.24 L40.32,42.24 L40.32,40.32 L42.24,40.32 Z M0.96,-0.96 L0.96,0.96 L-0.96,0.96 L-0.96,-0.96 L0.96,-0.96 Z M42.24,-0.96 L42.24,0.96 L40.32,0.96 L40.32,-0.96 L42.24,-0.96 Z" fill="#2DCEF3" mask="url(#mask-2)"></path>
                    </g>
                    <g id="矩形" fill="black" fill-opacity="1">
                        <use filter="url(#filter-4)" xlink:href="#path-3"></use>
                    </g>
                    <polygon id="三角形" fill="#2DCEF3" transform="translate(5.280000, 5.280000) rotate(-270.000000) translate(-5.280000, -5.280000) " points="1.92 1.92 8.64 8.64 1.92 8.64"></polygon>
                </g>
                <g id="编组" transform="translate(10.000000, 6.000000)">
                    <path d="M17.0261538,11.0163577 C17.0261538,11.5171269 16.6142308,11.92905 16.1134615,11.92905 L4.70076923,11.92905 C4.19192308,11.92905 3.78807692,11.5171269 3.78807692,11.0163577 L3.78807692,10.5317423 C3.78807692,10.0237038 4.19192308,9.61985769 4.70076923,9.61985769 L16.1134615,9.61985769 C16.6142308,9.61985769 17.0261538,10.0237038 17.0261538,10.5317423 L17.0261538,11.0163577 Z M17.0261538,15.8625115 C17.0261538,16.3632808 16.6142308,16.7752038 16.1134615,16.7752038 L4.70076923,16.7752038 C4.19192308,16.7752038 3.78807692,16.3632808 3.78807692,15.8625115 L3.78807692,15.3778962 C3.78807692,14.8698577 4.19192308,14.4660115 4.70076923,14.4660115 L16.1134615,14.4660115 C16.6142308,14.4660115 17.0261538,14.8698577 17.0261538,15.3778962 L17.0261538,15.8625115 Z M9.87807692,20.8782808 C9.87807692,21.37905 9.47423077,21.7909731 8.96538462,21.7909731 L4.70076923,21.7909731 C4.19192308,21.7909731 3.78807692,21.37905 3.78807692,20.8782808 L3.78807692,20.3936654 C3.78807692,19.8848192 4.19192308,19.4809731 4.70076923,19.4809731 L8.96538462,19.4809731 C9.47423077,19.4809731 9.87807692,19.8848192 9.87807692,20.3936654 L9.87807692,20.8782808 Z M17.8823077,3.06058846 L16.275,3.06058846 L16.275,3.51289615 C16.275,4.15097308 15.7580769,4.67597308 15.1119231,4.67597308 L5.72653846,4.67597308 C5.08846154,4.67597308 4.56346154,4.15097308 4.56346154,3.51289615 L4.56346154,3.06058846 L2.95615385,3.06058846 C1.32461538,3.06058846 -6.75015599e-14,4.38520385 -6.75015599e-14,6.02481923 L-6.75015599e-14,24.6663577 C-6.75015599e-14,26.3059731 1.32461538,27.6305885 2.95615385,27.6305885 L17.8823077,27.6305885 C19.5219231,27.6305885 20.8465385,26.3059731 20.8465385,24.6663577 L20.8465385,6.02481923 C20.8465385,4.38520385 19.5219231,3.06058846 17.8823077,3.06058846 L17.8823077,3.06058846 Z" id="Fill-1" fill="url(#linearGradient-5)"></path>
                    <g transform="translate(4.846154, 0.169131)">
                        <mask id="mask-7" fill="white">
                            <use xlink:href="#path-6"></use>
                        </mask>
                        <g id="Clip-4"></g>
                        <path d="M0.753173077,4.01972308 L0.884826923,4.01972308 L10.1401731,4.01972308 L10.2710192,4.01972308 C10.6465962,4.01972308 10.9502885,3.71603077 10.9502885,3.34045385 L10.9502885,1.31718462 C10.9502885,0.942415385 10.6465962,0.637915385 10.2710192,0.637915385 L10.1401731,0.637915385 L0.884826923,0.637915385 L0.753173077,0.637915385 C0.378403846,0.637915385 0.0747115385,0.942415385 0.0747115385,1.31718462 L0.0747115385,3.34045385 C0.0747115385,3.71603077 0.378403846,4.01972308 0.753173077,4.01972308" id="Fill-3" fill="url(#linearGradient-8)" mask="url(#mask-7)"></path>
                    </g>
                </g>
            </g>
        </g>
    </g>
</svg>