<?xml version="1.0" encoding="UTF-8"?>
<svg width="11px" height="11px" viewBox="0 0 11 11" version="1.1" xmlns="http://www.w3.org/2000/svg" xmlns:xlink="http://www.w3.org/1999/xlink">
    <title>升序</title>
    <g id="安等统计" stroke="none" stroke-width="1" fill="none" fill-rule="evenodd">
        <g id="履历备份-4" transform="translate(-317.000000, -511.000000)" fill-rule="nonzero">
            <g id="升序" transform="translate(317.000000, 511.000000)">
                <path d="M7.6758544,10.0533041 C7.51990803,10.0559692 7.36953711,9.99523381 7.25924918,9.88494588 C7.14896124,9.77465794 7.08822586,9.62428702 7.09098077,9.46834066 L7.09098077,0.597928571 C7.09098077,0.274915959 7.35283423,0.0130625 7.67584684,0.0130625 C7.99885945,0.0130625 8.26071291,0.274915959 8.26071291,0.597928571 L8.26071291,9.46834066 C8.252964,9.7880844 7.99559814,10.0454503 7.6758544,10.0531992 L7.6758544,10.0533041 Z" id="路径" fill="#62C0BC"></path>
                <path d="M10.388956,3.89283556 C10.2329567,3.89392795 10.0835445,3.83001303 9.97660714,3.71642857 L7.26891484,1.00873626 C7.04289154,0.782712971 7.04289154,0.416256809 7.26891484,0.190233516 C7.49493813,-0.035789776 7.86139429,-0.035789776 8.08741758,0.190233516 L10.7951099,2.89792582 C10.9070172,3.00464742 10.970341,3.1525397 10.970341,3.3071772 C10.970341,3.4618147 10.9070172,3.60970697 10.7951099,3.71642857 C10.6875113,3.82536348 10.5420118,3.88855404 10.388956,3.89283556 L10.388956,3.89283556 Z" id="形状" fill="#62C0BC"></path>
                <path d="M3.28939286,10.053289 C3.13344916,10.055954 2.98308063,9.99522064 2.87279316,9.88493601 C2.76250568,9.77465139 2.70176847,9.62428443 2.70451923,9.46834066 L2.70451923,0.597928571 C2.70451923,0.274915959 2.96637269,0.0130625 3.2893853,0.0130625 C3.61239791,0.0130625 3.87425137,0.274915959 3.87425137,0.597928571 L3.87425137,9.46834066 C3.86650246,9.7880844 3.6091366,10.0454503 3.28939286,10.053289 L3.28939286,10.053289 Z" id="路径" fill="#DDDDDD"></path>
                <path d="M3.28939286,10.0532166 C3.1345847,10.0536611 2.98647597,9.99010311 2.88014148,9.87759203 L0.172449176,7.16989973 C-0.0548550683,6.94451899 -0.0564143843,6.57754532 0.168966346,6.35024107 C0.394347077,6.12293683 0.761320756,6.12137751 0.988625,6.34675824 L3.69631731,9.05445055 C3.8600265,9.2215375 3.90843031,9.47009983 3.81938154,9.68640763 C3.73033277,9.90271543 3.52096158,10.0451579 3.28706593,10.0485604 L3.28939286,10.0532166 Z" id="路径" fill="#DDDDDD"></path>
            </g>
        </g>
    </g>
</svg>