<svg width="32" height="32" viewBox="0 0 32 32" fill="none" xmlns="http://www.w3.org/2000/svg">
<path d="M17.2674 16.6607L6.2692 10.1352L6.36305 10.0868C8.66826 8.95908 10.9999 7.78008 13.2552 6.64067L13.6864 6.42511C14.0266 6.25207 14.817 5.82094 15.2569 5.57751C15.4521 5.46768 15.6723 5.41009 15.8963 5.41034C16.1073 5.41149 16.3151 5.4617 16.5034 5.55698L17.7909 6.21247C18.1252 6.38551 18.4684 6.55855 18.8086 6.73012C19.8106 7.24435 20.8137 7.75613 21.8177 8.26547C22.4248 8.57781 23.0392 8.88283 23.6096 9.16878L23.9821 9.35502L25.4075 10.0736C25.4529 10.0985 25.5072 10.122 25.5805 10.1513C25.9862 10.2492 26.2866 10.5913 26.3314 11.0062C26.3376 11.4337 26.0572 11.8126 25.6465 11.9315L25.6113 11.9447L25.4823 12.0092C23.0509 13.3906 20.187 15.0154 17.2674 16.6607Z" fill="#1C879C"/>
<path d="M26.9927 21.3533C27.0142 21.8263 26.7493 22.2659 26.321 22.4678C23.0309 24.3168 19.7442 26.1718 16.4608 28.0329C16.2892 28.1353 16.0945 28.1928 15.8948 28.2C15.7062 28.1971 15.5223 28.1412 15.3639 28.0387C12.3468 26.2067 9.32353 24.3849 6.29412 22.5734C5.75362 22.3055 5.42986 21.7363 5.47586 21.1348C5.50519 17.9527 5.50519 14.728 5.47586 11.5473L16.7673 18.2459C16.7776 20.1288 16.7776 22.0352 16.7746 23.8345V25.8875C17.6677 25.386 18.5769 24.8698 19.3541 24.4328L20.3556 23.8667C21.891 23.0001 23.4835 22.107 25.0482 21.2272C25.2315 21.1275 25.2858 21.0541 25.2828 20.7873C25.274 19.6303 25.274 18.441 25.274 17.3089V14.8233C25.2396 14.5069 25.3337 14.1899 25.535 13.9435C25.6915 13.7916 25.9039 13.7115 26.1216 13.722H26.1436C26.4406 13.7098 26.7176 13.8712 26.8534 14.1356C26.952 14.3472 26.9973 14.5798 26.9853 14.8131V15.6196C26.9853 17.4981 26.9765 19.4411 26.9956 21.3562L26.9927 21.3533Z" fill="#1C879C"/>
</svg>
