<svg width="24" height="24" viewBox="0 0 24 24" fill="none" xmlns="http://www.w3.org/2000/svg">
<path fill-rule="evenodd" clip-rule="evenodd" d="M9.99988 8.5C11.6567 8.5 12.9999 7.15685 12.9999 5.5C12.9999 3.84315 11.6567 2.5 9.99988 2.5C8.34302 2.5 6.99988 3.84315 6.99988 5.5C6.99988 7.15685 8.34302 8.5 9.99988 8.5ZM18.8699 8.25H14.6299C14.58 8.25 14.5305 8.25983 14.4844 8.27893C14.4383 8.29802 14.3965 8.32601 14.3612 8.3613C14.3259 8.39659 14.2979 8.43848 14.2788 8.48458C14.2597 8.53068 14.2499 8.5801 14.2499 8.63V11.5H19.2499V8.63C19.2499 8.52922 19.2098 8.43256 19.1386 8.3613C19.0673 8.29004 18.9706 8.25 18.8699 8.25ZM9.74987 9C8.86904 8.98014 7.99972 9.20285 7.23694 9.64376C6.47416 10.0847 5.84729 10.7268 5.42487 11.5H14.0749C13.6524 10.7268 13.0256 10.0847 12.2628 9.64376C11.5 9.20285 10.6307 8.98014 9.74987 9ZM21.9999 13.5V13.525C22.6065 14.2066 22.9411 15.0876 22.9399 16C22.9385 16.9942 22.543 17.9472 21.8401 18.6502C21.1371 19.3532 20.184 19.7487 19.1899 19.75H5.18987C2.40987 19.75 0.334866 16.725 2.07987 13.795C2.37317 13.32 2.78405 12.9287 3.2728 12.6589C3.76155 12.3892 4.31163 12.25 4.86987 12.255H19.2749C19.7905 12.2626 20.299 12.3772 20.768 12.5915C21.2371 12.8058 21.6566 13.1152 21.9999 13.5ZM8.22769 17.0199C8.37357 16.8002 8.47456 16.5539 8.52487 16.295C8.54912 16.1698 8.56085 16.0425 8.55987 15.915C8.55987 15.3846 8.34915 14.8759 7.97408 14.5008C7.59901 14.1257 7.0903 13.915 6.55987 13.915H6.50987C5.98815 13.9281 5.49219 14.1445 5.12787 14.5182C4.76354 14.8919 4.5597 15.3931 4.55987 15.915C4.55993 16.2776 4.65854 16.6333 4.84514 16.9441C5.03175 17.2549 5.29933 17.5092 5.61928 17.6797C5.93922 17.8502 6.2995 17.9305 6.66157 17.9121C7.02364 17.8936 7.37389 17.7771 7.67487 17.575C7.89394 17.4282 8.08181 17.2396 8.22769 17.0199ZM11.3799 17.74C11.6339 17.8568 11.9103 17.9165 12.1899 17.915C12.4525 17.915 12.7126 17.8633 12.9552 17.7628C13.1979 17.6623 13.4184 17.5149 13.6041 17.3292C13.7898 17.1435 13.9371 16.923 14.0376 16.6804C14.1381 16.4377 14.1899 16.1777 14.1899 15.915C14.1914 15.7461 14.1695 15.5779 14.1249 15.415C14.0141 14.9859 13.7639 14.6058 13.4137 14.3343C13.0635 14.0628 12.633 13.9153 12.1899 13.915C11.6594 13.915 11.1507 14.1257 10.7757 14.5008C10.4006 14.8759 10.1899 15.3846 10.1899 15.915C10.1889 16.0993 10.2141 16.2828 10.2649 16.46C10.3455 16.7421 10.4871 17.003 10.6798 17.2242C10.8725 17.4454 11.1115 17.6215 11.3799 17.74ZM16.6987 17.578C17.0276 17.7977 17.4143 17.915 17.8099 17.915C18.3403 17.915 18.849 17.7043 19.2241 17.3292C19.5992 16.9542 19.8099 16.4454 19.8099 15.915C19.8099 15.5194 19.6926 15.1328 19.4728 14.8039C19.253 14.475 18.9407 14.2186 18.5752 14.0673C18.2098 13.9159 17.8076 13.8763 17.4197 13.9534C17.0317 14.0306 16.6754 14.2211 16.3957 14.5008C16.1159 14.7805 15.9255 15.1369 15.8483 15.5248C15.7711 15.9128 15.8107 16.3149 15.9621 16.6804C16.1135 17.0458 16.3698 17.3582 16.6987 17.578Z" fill="#9E9E9E"/>
</svg>
