<svg width="32" height="32" viewBox="0 0 32 32" fill="none" xmlns="http://www.w3.org/2000/svg">
<path d="M13.3333 11.3333C15.5424 11.3333 17.3333 9.54248 17.3333 7.33334C17.3333 5.1242 15.5424 3.33334 13.3333 3.33334C11.1241 3.33334 9.33325 5.1242 9.33325 7.33334C9.33325 9.54248 11.1241 11.3333 13.3333 11.3333Z" fill="white" fill-opacity="0.6"/>
<path d="M25.1601 11H19.5067C19.4402 11 19.3743 11.0131 19.3128 11.0386C19.2514 11.064 19.1955 11.1014 19.1485 11.1484C19.1014 11.1954 19.0641 11.2513 19.0386 11.3128C19.0132 11.3742 19.0001 11.4401 19.0001 11.5067V15.3333H25.6667V11.5067C25.6667 11.3723 25.6133 11.2434 25.5183 11.1484C25.4233 11.0534 25.2944 11 25.1601 11ZM13.0001 12C11.8256 11.9735 10.6665 12.2705 9.6495 12.8583C8.63245 13.4462 7.79663 14.3024 7.2334 15.3333H18.7667C18.2035 14.3024 17.3677 13.4462 16.3506 12.8583C15.3336 12.2705 14.1745 11.9735 13.0001 12Z" fill="white" fill-opacity="0.6"/>
<path d="M29.3334 18.0333V18C28.8757 17.4869 28.3164 17.0744 27.691 16.7886C27.0655 16.5029 26.3876 16.3501 25.7001 16.34H6.4934C5.74908 16.3334 5.01564 16.5189 4.36398 16.8786C3.71231 17.2383 3.16447 17.76 2.7734 18.3933C0.446733 22.3 3.2134 26.3334 6.92006 26.3334H25.5867C26.9123 26.3316 28.183 25.8042 29.1203 24.8669C30.0576 23.9296 30.585 22.6589 30.5867 21.3334C30.5884 20.1168 30.1423 18.9421 29.3334 18.0333ZM11.3667 21.7267C11.2997 22.0718 11.165 22.4003 10.9705 22.6932C10.776 22.9861 10.5255 23.2376 10.2334 23.4334C9.8321 23.7028 9.3651 23.8582 8.88234 23.8828C8.39957 23.9073 7.91921 23.8002 7.49261 23.5729C7.06602 23.3456 6.70924 23.0066 6.46043 22.5921C6.21163 22.1777 6.08015 21.7034 6.08007 21.22C6.07985 20.5242 6.35163 19.8558 6.8374 19.3576C7.32317 18.8594 7.98444 18.5707 8.68006 18.5533H8.74673C9.45397 18.5533 10.1323 18.8343 10.6323 19.3344C11.1324 19.8345 11.4134 20.5128 11.4134 21.22C11.4147 21.39 11.3991 21.5598 11.3667 21.7267ZM16.2534 23.8867C15.8807 23.8887 15.5121 23.809 15.1734 23.6534C14.8156 23.4953 14.4969 23.2605 14.24 22.9656C13.9831 22.6706 13.7942 22.3228 13.6867 21.9467C13.619 21.7104 13.5854 21.4658 13.5867 21.22C13.5867 20.5128 13.8677 19.8345 14.3678 19.3344C14.8679 18.8343 15.5462 18.5533 16.2534 18.5533C16.8442 18.5538 17.4182 18.7504 17.8852 19.1124C18.3522 19.4744 18.6857 19.9813 18.8334 20.5533C18.8929 20.7705 18.9221 20.9949 18.9201 21.22C18.9201 21.5702 18.8511 21.917 18.7171 22.2405C18.5831 22.564 18.3866 22.858 18.139 23.1056C17.8914 23.3533 17.5974 23.5497 17.2739 23.6837C16.9504 23.8177 16.6036 23.8867 16.2534 23.8867ZM23.7467 23.8867C23.2193 23.8867 22.7037 23.7303 22.2652 23.4373C21.8267 23.1443 21.4849 22.7278 21.2831 22.2405C21.0812 21.7532 21.0284 21.2171 21.1313 20.6998C21.2342 20.1825 21.4882 19.7073 21.8611 19.3344C22.2341 18.9615 22.7092 18.7075 23.2265 18.6046C23.7438 18.5017 24.2799 18.5545 24.7672 18.7563C25.2545 18.9582 25.671 19.3 25.964 19.7385C26.257 20.177 26.4134 20.6926 26.4134 21.22C26.4134 21.9273 26.1324 22.6055 25.6323 23.1056C25.1322 23.6057 24.454 23.8867 23.7467 23.8867Z" fill="white" fill-opacity="0.6"/>
</svg>
