<svg width="48" height="48" viewBox="0 0 48 48" fill="none" xmlns="http://www.w3.org/2000/svg">
<g filter="url(#filter0_d)">
<path d="M9.55556 20.3507H4L8.44444 16.1285L15.3333 9.01736L18 11.684L13.7778 15.9062H44V20.1285H9.55556V20.3507ZM38.6667 26.7951H44L39.5556 31.0174L32.6667 37.9062L30 35.2396L34.2222 31.0174H4V26.7951H38.6667Z" fill="black"/>
</g>
<path d="M9.55556 20.3507H4L8.44444 16.1285L15.3333 9.01736L18 11.684L13.7778 15.9062H44V20.1285H9.55556V20.3507ZM38.6667 26.7951H44L39.5556 31.0174L32.6667 37.9062L30 35.2396L34.2222 31.0174H4V26.7951H38.6667Z" fill="#444444"/>
<defs>
<filter id="filter0_d" x="2" y="9.01736" width="44" height="32.8889" filterUnits="userSpaceOnUse" color-interpolation-filters="sRGB">
<feFlood flood-opacity="0" result="BackgroundImageFix"/>
<feColorMatrix in="SourceAlpha" type="matrix" values="0 0 0 0 0 0 0 0 0 0 0 0 0 0 0 0 0 0 127 0"/>
<feOffset dy="2"/>
<feGaussianBlur stdDeviation="1"/>
<feColorMatrix type="matrix" values="0 0 0 0 0 0 0 0 0 0 0 0 0 0 0 0 0 0 0.102382 0"/>
<feBlend mode="normal" in2="BackgroundImageFix" result="effect1_dropShadow"/>
<feBlend mode="normal" in="SourceGraphic" in2="effect1_dropShadow" result="shape"/>
</filter>
</defs>
</svg>
