<svg width="24" height="24" viewBox="0 0 24 24" fill="none" xmlns="http://www.w3.org/2000/svg">
<g opacity="0.9">
<path d="M14.5998 7.81162C14.7793 7.80444 14.9516 7.73265 15.0736 7.61059C15.2029 7.48136 15.2675 7.30906 15.2675 7.12957V4.68854C15.2675 4.50906 15.1957 4.33675 15.0736 4.2147C14.9444 4.08547 14.7793 4.02085 14.5998 4.02085C14.4203 4.02085 14.248 4.09265 14.1187 4.2147C13.9895 4.34393 13.9177 4.51624 13.9177 4.69572V7.12957C13.9177 7.30906 13.9895 7.48136 14.1187 7.61059C14.248 7.73983 14.4203 7.81162 14.5998 7.81162ZM6.20695 7.81162C6.38644 7.81162 6.55875 7.73983 6.68798 7.61777C6.81721 7.49572 6.889 7.31624 6.889 7.13675V4.69572C6.889 4.32239 6.58747 4.01367 6.20695 4.01367C5.82644 4.01367 5.5249 4.31521 5.5249 4.69572V7.12957C5.5249 7.30906 5.5967 7.48136 5.72593 7.61059C5.85516 7.73983 6.02747 7.81162 6.20695 7.81162Z" fill="#9E9E9E"/>
<path d="M18.7928 6.72668C18.7928 6.4395 18.6779 6.16668 18.4769 5.95848C18.2758 5.75745 17.9958 5.64258 17.7158 5.64258H16.3661V6.86309C16.3661 7.83232 15.5764 8.62207 14.6071 8.62207C13.6379 8.62207 12.8482 7.83232 12.8482 6.86309V5.64258H7.97328V6.86309C7.97328 7.83232 7.18354 8.62207 6.2143 8.62207C5.24507 8.62207 4.45533 7.83232 4.45533 6.86309V5.64258H3.09123C2.80405 5.64258 2.53123 5.75745 2.3302 5.95848C2.14354 6.14514 2.03584 6.38924 2.02148 6.64771V10.1513H18.7928V6.72668Z" fill="#9E9E9E"/>
<path d="M18.8062 10.1523H18.8778V10.4108H18.8062V10.1523Z" fill="black"/>
<path d="M2.01416 10.4043V19.7951C2.0357 20.0535 2.14339 20.2976 2.32288 20.4843C2.5239 20.6853 2.8039 20.8002 3.09108 20.8002H14.3485C13.6377 19.8884 13.207 18.7469 13.207 17.4976C13.207 14.5397 15.6049 12.1489 18.5557 12.1489C18.6347 12.1489 18.7065 12.1489 18.7854 12.1561V10.4115H2.01416V10.4043Z" fill="#9E9E9E"/>
<path d="M22.2315 18.3947H21.772C21.693 18.6676 21.5853 18.926 21.4489 19.1629L21.8725 19.5937C22.1453 19.8665 22.1453 20.3117 21.8725 20.5845L21.6284 20.8286C21.3556 21.1014 20.9104 21.1014 20.6376 20.8286L20.2068 20.3978C19.9699 20.5342 19.7115 20.6419 19.4386 20.7137V21.1588C19.4386 21.5465 19.1227 21.8624 18.7422 21.8624H18.3904C18.0027 21.8624 17.6868 21.5465 17.6868 21.1588V20.7065C17.414 20.6347 17.1556 20.5271 16.9186 20.3906L16.4879 20.8214C16.215 21.0942 15.7699 21.0942 15.4971 20.8214L15.253 20.5701C14.9802 20.2973 14.9802 19.8522 15.253 19.5794L15.6766 19.1486C15.5402 18.9117 15.4325 18.6532 15.3535 18.3804H14.894C14.5063 18.3804 14.1904 18.0645 14.1904 17.6768V17.325C14.1904 16.9373 14.5063 16.6214 14.894 16.6214H15.3535C15.4253 16.3558 15.5258 16.0973 15.6622 15.8604L15.253 15.4512C14.9802 15.1783 14.9802 14.7332 15.253 14.4604L15.4971 14.2163C15.7699 13.9435 16.215 13.9435 16.4879 14.2163L16.8899 14.6183C17.134 14.4747 17.3997 14.3599 17.6797 14.2881V13.8214C17.6797 13.4337 17.9956 13.125 18.3761 13.125H18.7279C19.1156 13.125 19.4315 13.4409 19.4315 13.8286V14.2953C19.7115 14.3742 19.9771 14.4819 20.2212 14.6255L20.6233 14.2235C20.8961 13.9506 21.3412 13.9506 21.614 14.2235L21.8581 14.4747C22.1309 14.7476 22.1309 15.1927 21.8581 15.4655L21.4489 15.8747C21.5853 16.1117 21.6858 16.3701 21.7576 16.6358H22.2171C22.6048 16.6358 22.9207 16.9517 22.9207 17.3394V17.6912C22.9279 18.0788 22.612 18.3947 22.2315 18.3947ZM18.5771 15.4727C17.4427 15.4727 16.5166 16.3917 16.5166 17.5332C16.5166 18.6747 17.4284 19.5937 18.5627 19.5937C19.6971 19.5937 20.6304 18.6747 20.6304 17.5332C20.6304 16.3917 19.6971 15.4727 18.5556 15.4727H18.5771ZM18.5627 18.3804C18.0817 18.3804 17.6868 17.9855 17.6868 17.5045C17.6868 17.0235 18.0817 16.6286 18.5627 16.6286C19.0438 16.6286 19.4386 17.0235 19.4386 17.5045C19.4386 17.9927 19.0509 18.3804 18.5627 18.3804Z" fill="#9E9E9E"/>
<path d="M3.93115 13.1315C3.93115 13.5677 4.28473 13.9213 4.7209 13.9213C5.15706 13.9213 5.51064 13.5677 5.51064 13.1315C5.51064 12.6954 5.15706 12.3418 4.7209 12.3418C4.28473 12.3418 3.93115 12.6954 3.93115 13.1315Z" fill="white"/>
<path d="M3.93115 16.6354C3.93115 17.0716 4.28473 17.4252 4.7209 17.4252C5.15706 17.4252 5.51064 17.0716 5.51064 16.6354C5.51064 16.1993 5.15706 15.8457 4.7209 15.8457C4.28473 15.8457 3.93115 16.1993 3.93115 16.6354Z" fill="white"/>
<path d="M6.85303 16.6356C6.85298 16.9178 7.0035 17.1785 7.24786 17.3196C7.49223 17.4607 7.79331 17.4607 8.03768 17.3196C8.28205 17.1785 8.43256 16.9178 8.43251 16.6356C8.43256 16.3534 8.28205 16.0926 8.03768 15.9515C7.79331 15.8104 7.49223 15.8104 7.24786 15.9515C7.0035 16.0926 6.85298 16.3534 6.85303 16.6356Z" fill="white"/>
<path d="M9.40918 16.6356C9.40913 16.9178 9.55965 17.1785 9.80401 17.3196C10.0484 17.4607 10.3495 17.4607 10.5938 17.3196C10.8382 17.1785 10.9887 16.9178 10.9887 16.6356C10.9887 16.3534 10.8382 16.0926 10.5938 15.9515C10.3495 15.8104 10.0484 15.8104 9.80401 15.9515C9.55965 16.0926 9.40913 16.3534 9.40918 16.6356Z" fill="white"/>
<path d="M6.85303 13.1317C6.85298 13.4138 7.0035 13.6746 7.24786 13.8157C7.49223 13.9568 7.79331 13.9568 8.03768 13.8157C8.28205 13.6746 8.43256 13.4138 8.43251 13.1317C8.43256 12.8495 8.28205 12.5887 8.03768 12.4476C7.79331 12.3065 7.49223 12.3065 7.24786 12.4476C7.0035 12.5887 6.85298 12.8495 6.85303 13.1317Z" fill="white"/>
<path d="M9.76807 13.1315C9.76807 13.5677 10.1216 13.9213 10.5578 13.9213C10.994 13.9213 11.3476 13.5677 11.3476 13.1315C11.3476 12.6954 10.994 12.3418 10.5578 12.3418C10.1216 12.3418 9.76807 12.6954 9.76807 13.1315Z" fill="white"/>
</g>
</svg>
