<svg width="24" height="24" viewBox="0 0 24 24" fill="none" xmlns="http://www.w3.org/2000/svg">
<path d="M14.5999 7.81113C14.7794 7.80395 14.9517 7.73216 15.0737 7.61011C15.203 7.48088 15.2676 7.30857 15.2676 7.12908V4.68806C15.2676 4.50857 15.1958 4.33626 15.0737 4.21421C14.9445 4.08498 14.7794 4.02036 14.5999 4.02036C14.4204 4.02036 14.2481 4.09216 14.1189 4.21421C13.9896 4.34344 13.9178 4.51575 13.9178 4.69523V7.12908C13.9178 7.30857 13.9896 7.48088 14.1189 7.61011C14.2481 7.73934 14.4204 7.81113 14.5999 7.81113ZM6.20708 7.81113C6.38656 7.81113 6.55887 7.73934 6.6881 7.61729C6.81733 7.49523 6.88913 7.31575 6.88913 7.13626V4.69523C6.88913 4.3219 6.58759 4.01318 6.20708 4.01318C5.82656 4.01318 5.52502 4.31472 5.52502 4.69523V7.12908C5.52502 7.30857 5.59682 7.48088 5.72605 7.61011C5.85528 7.73934 6.02759 7.81113 6.20708 7.81113Z" fill="#0C6B7E"/>
<path d="M18.7927 6.72705C18.7927 6.43987 18.6778 6.16705 18.4768 5.95884C18.2758 5.75782 17.9958 5.64294 17.7158 5.64294H16.3661V6.86346C16.3661 7.83269 15.5763 8.62243 14.6071 8.62243C13.6378 8.62243 12.8481 7.83269 12.8481 6.86346V5.64294H7.97323V6.86346C7.97323 7.83269 7.18349 8.62243 6.21426 8.62243C5.24503 8.62243 4.45528 7.83269 4.45528 6.86346V5.64294H3.09118C2.804 5.64294 2.53118 5.75782 2.33016 5.95884C2.14349 6.14551 2.0358 6.38961 2.02144 6.64807V10.1517H18.7927V6.72705Z" fill="#0C6B7E"/>
<path d="M18.806 10.1517H18.8777V10.4101H18.806V10.1517Z" fill="black"/>
<path d="M2.01425 10.403V19.7937C2.03579 20.0522 2.14348 20.2963 2.32297 20.483C2.524 20.684 2.804 20.7989 3.09117 20.7989H14.3486C13.6378 19.8871 13.2071 18.7455 13.2071 17.4963C13.2071 14.5383 15.605 12.1476 18.5558 12.1476C18.6348 12.1476 18.7066 12.1476 18.7855 12.1547V10.4101H2.01425V10.403Z" fill="#0C6B7E"/>
<path d="M22.2317 18.3937H21.7722C21.6932 18.6665 21.5855 18.925 21.4491 19.1619L21.8727 19.5927C22.1455 19.8655 22.1455 20.3106 21.8727 20.5834L21.6286 20.8276C21.3558 21.1004 20.9107 21.1004 20.6378 20.8276L20.2071 20.3968C19.9701 20.5332 19.7117 20.6409 19.4389 20.7127V21.1578C19.4389 21.5455 19.123 21.8614 18.7425 21.8614H18.3907C18.003 21.8614 17.6871 21.5455 17.6871 21.1578V20.7055C17.4142 20.6337 17.1558 20.526 16.9189 20.3896L16.4881 20.8204C16.2153 21.0932 15.7701 21.0932 15.4973 20.8204L15.2532 20.5691C14.9804 20.2963 14.9804 19.8511 15.2532 19.5783L15.6768 19.1476C15.5404 18.9106 15.4327 18.6522 15.3537 18.3793H14.8942C14.5066 18.3793 14.1907 18.0634 14.1907 17.6758V17.324C14.1907 16.9363 14.5066 16.6204 14.8942 16.6204H15.3537C15.4255 16.3547 15.526 16.0963 15.6625 15.8593L15.2532 15.4501C14.9804 15.1773 14.9804 14.7322 15.2532 14.4593L15.4973 14.2152C15.7701 13.9424 16.2153 13.9424 16.4881 14.2152L16.8901 14.6173C17.1342 14.4737 17.3999 14.3588 17.6799 14.287V13.8204C17.6799 13.4327 17.9958 13.124 18.3763 13.124H18.7281C19.1158 13.124 19.4317 13.4399 19.4317 13.8276V14.2942C19.7117 14.3732 19.9773 14.4809 20.2214 14.6245L20.6235 14.2224C20.8963 13.9496 21.3414 13.9496 21.6142 14.2224L21.8584 14.4737C22.1312 14.7465 22.1312 15.1917 21.8584 15.4645L21.4491 15.8737C21.5855 16.1106 21.686 16.3691 21.7578 16.6347H22.2173C22.605 16.6347 22.9209 16.9506 22.9209 17.3383V17.6901C22.9281 18.0778 22.6122 18.3937 22.2317 18.3937ZM18.5773 15.4717C17.443 15.4717 16.5168 16.3906 16.5168 17.5322C16.5168 18.6737 17.4286 19.5927 18.563 19.5927C19.6973 19.5927 20.6307 18.6737 20.6307 17.5322C20.6307 16.3906 19.6973 15.4717 18.5558 15.4717H18.5773ZM18.563 18.3793C18.0819 18.3793 17.6871 17.9845 17.6871 17.5034C17.6871 17.0224 18.0819 16.6276 18.563 16.6276C19.044 16.6276 19.4389 17.0224 19.4389 17.5034C19.4389 17.9917 19.0512 18.3793 18.563 18.3793Z" fill="#0C6B7E"/>
<path d="M3.93117 13.1311C3.93117 13.5673 4.28475 13.9209 4.72091 13.9209C5.15707 13.9209 5.51065 13.5673 5.51065 13.1311C5.51065 12.695 5.15707 12.3414 4.72091 12.3414C4.28475 12.3414 3.93117 12.695 3.93117 13.1311Z" fill="white"/>
<path d="M3.93117 16.6347C3.93117 17.0709 4.28475 17.4245 4.72091 17.4245C5.15707 17.4245 5.51065 17.0709 5.51065 16.6347C5.51065 16.1986 5.15707 15.845 4.72091 15.845C4.28475 15.845 3.93117 16.1986 3.93117 16.6347Z" fill="white"/>
<path d="M6.85323 16.6347C6.85318 16.9169 7.00369 17.1777 7.24806 17.3188C7.49243 17.4599 7.79351 17.4599 8.03788 17.3188C8.28224 17.1777 8.43276 16.9169 8.43271 16.6347C8.43276 16.3525 8.28224 16.0918 8.03788 15.9507C7.79351 15.8096 7.49243 15.8096 7.24806 15.9507C7.00369 16.0918 6.85318 16.3525 6.85323 16.6347Z" fill="white"/>
<path d="M9.40912 16.6347C9.40907 16.9169 9.55959 17.1777 9.80395 17.3188C10.0483 17.4599 10.3494 17.4599 10.5938 17.3188C10.8381 17.1777 10.9887 16.9169 10.9886 16.6347C10.9887 16.3525 10.8381 16.0918 10.5938 15.9507C10.3494 15.8096 10.0483 15.8096 9.80395 15.9507C9.55959 16.0918 9.40907 16.3525 9.40912 16.6347Z" fill="white"/>
<path d="M6.85323 13.1311C6.85318 13.4133 7.00369 13.6741 7.24806 13.8152C7.49243 13.9563 7.79351 13.9563 8.03788 13.8152C8.28224 13.6741 8.43276 13.4133 8.43271 13.1311C8.43276 12.8489 8.28224 12.5882 8.03788 12.4471C7.79351 12.306 7.49243 12.306 7.24806 12.4471C7.00369 12.5882 6.85318 12.8489 6.85323 13.1311Z" fill="white"/>
<path d="M9.7681 13.1311C9.7681 13.5673 10.1217 13.9209 10.5578 13.9209C10.994 13.9209 11.3476 13.5673 11.3476 13.1311C11.3476 12.695 10.994 12.3414 10.5578 12.3414C10.1217 12.3414 9.7681 12.695 9.7681 13.1311Z" fill="white"/>
</svg>
