<svg width="32" height="32" viewBox="0 0 32 32" fill="none" xmlns="http://www.w3.org/2000/svg">
<path fill-rule="evenodd" clip-rule="evenodd" d="M20.1221 24.7902C18.8708 25.3802 17.473 25.7099 16 25.7099C10.6458 25.7099 6.29008 21.3542 6.29008 16C6.29008 10.6458 10.6458 6.29008 16 6.29008C21.3542 6.29008 25.7099 10.6458 25.7099 16C25.7099 18.226 24.9569 20.2797 23.691 21.9194C22.7521 23.1386 21.5292 24.128 20.1221 24.7902ZM16 4C9.38351 4 4 9.38351 4 16C4 22.6166 9.38351 28 16 28C17.4473 28 18.836 27.7426 20.1221 27.2708C22.3664 26.4473 24.2983 24.9716 25.6879 23.0736C27.1417 21.0885 28 18.6427 28 16C28 9.38351 22.6165 4 16 4Z" fill="#1C879C"/>
<mask id="mask0" mask-type="alpha" maskUnits="userSpaceOnUse" x="4" y="4" width="24" height="24">
<path d="M4 28H28V4H4V28Z" fill="white"/>
</mask>
<g mask="url(#mask0)">
<path fill-rule="evenodd" clip-rule="evenodd" d="M13.9847 17.0076H16.7328V9.67938H13.9847V17.0076Z" fill="#1C879C"/>
<path fill-rule="evenodd" clip-rule="evenodd" d="M13.9489 16.8997L15.8921 14.9566L21.0739 20.1384L19.1307 22.0816L13.9489 16.8997Z" fill="#1C879C"/>
</g>
</svg>
