<svg width="48" height="48" viewBox="0 0 48 48" fill="none" xmlns="http://www.w3.org/2000/svg">
<g filter="url(#filter0_d)">
<path d="M7.01892 26.3921H21.5488V40.9221H7.01892V26.3921ZM11.8622 31.2354V36.0787H16.7055V31.2354H11.8622ZM7.01892 7.01892H21.5488V21.5488H7.01892V7.01892ZM11.8622 11.8622V16.7055H16.7055V11.8622H11.8622ZM23.3829 14.2839L33.6571 4.00967L43.9313 14.2839L33.6571 24.5581L23.3829 14.2839ZM30.2324 14.2839L33.6571 17.7086L37.0818 14.2839L33.6571 10.8591L30.2324 14.2839ZM26.3921 26.3921H40.9221V40.9221H26.3921V26.3921ZM31.2354 31.2354V36.0787H36.0788V31.2354H31.2354Z" fill="black"/>
</g>
<path d="M7.01892 26.3921H21.5488V40.9221H7.01892V26.3921ZM11.8622 31.2354V36.0787H16.7055V31.2354H11.8622ZM7.01892 7.01892H21.5488V21.5488H7.01892V7.01892ZM11.8622 11.8622V16.7055H16.7055V11.8622H11.8622ZM23.3829 14.2839L33.6571 4.00967L43.9313 14.2839L33.6571 24.5581L23.3829 14.2839ZM30.2324 14.2839L33.6571 17.7086L37.0818 14.2839L33.6571 10.8591L30.2324 14.2839ZM26.3921 26.3921H40.9221V40.9221H26.3921V26.3921ZM31.2354 31.2354V36.0787H36.0788V31.2354H31.2354Z" fill="#505050"/>
<defs>
<filter id="filter0_d" x="5.01892" y="4.00967" width="40.9124" height="40.9124" filterUnits="userSpaceOnUse" color-interpolation-filters="sRGB">
<feFlood flood-opacity="0" result="BackgroundImageFix"/>
<feColorMatrix in="SourceAlpha" type="matrix" values="0 0 0 0 0 0 0 0 0 0 0 0 0 0 0 0 0 0 127 0"/>
<feOffset dy="2"/>
<feGaussianBlur stdDeviation="1"/>
<feColorMatrix type="matrix" values="0 0 0 0 0 0 0 0 0 0 0 0 0 0 0 0 0 0 0.102382 0"/>
<feBlend mode="normal" in2="BackgroundImageFix" result="effect1_dropShadow"/>
<feBlend mode="normal" in="SourceGraphic" in2="effect1_dropShadow" result="shape"/>
</filter>
</defs>
</svg>
