<svg width="16" height="16" viewBox="0 0 16 16" fill="none" xmlns="http://www.w3.org/2000/svg">
<path d="M10.7298 3.61333V2.28H9.72982V3.61333H6.39648V2.28H5.39648V3.61333H2.89315C2.76143 3.61333 2.6351 3.66566 2.54195 3.7588C2.44881 3.85195 2.39648 3.97828 2.39648 4.11V13.17C2.39648 13.3017 2.44881 13.4281 2.54195 13.5212C2.6351 13.6143 2.76143 13.6667 2.89315 13.6667H3.33315L13.2365 13.6167C13.3676 13.6158 13.4931 13.5631 13.5855 13.47C13.678 13.377 13.7298 13.2512 13.7298 13.12V4.12C13.7298 3.98828 13.6775 3.86195 13.5843 3.7688C13.4912 3.67566 13.3649 3.62333 13.2332 3.62333L10.7298 3.61333ZM12.7298 12.6133H3.39648V7.78H12.7298V12.6133ZM12.7298 6.78H3.39648V4.61333H5.39648V5.61333H6.39648V4.61333H9.72982V5.61333H10.7298V4.61333H12.7298V6.78Z" fill="#666666"/>
</svg>
