<svg width="48" height="48" viewBox="0 0 48 48" fill="none" xmlns="http://www.w3.org/2000/svg">
<g filter="url(#filter0_d)">
<path d="M11.1429 13.392H36.8571V41.0909H11.1429V13.392ZM15.4286 17.6534V36.8295H32.5714V17.6534H15.4286ZM17.5714 21.9148H21.8571V32.5682H17.5714V21.9148ZM26.1429 21.9148H30.4286V32.5682H26.1429V21.9148ZM9 13.392H39V17.6534H9V13.392ZM17.5714 7H30.4286V11.2614H17.5714V7Z" fill="black"/>
</g>
<path d="M11.1429 13.392H36.8571V41.0909H11.1429V13.392ZM15.4286 17.6534V36.8295H32.5714V17.6534H15.4286ZM17.5714 21.9148H21.8571V32.5682H17.5714V21.9148ZM26.1429 21.9148H30.4286V32.5682H26.1429V21.9148ZM9 13.392H39V17.6534H9V13.392ZM17.5714 7H30.4286V11.2614H17.5714V7Z" fill="#505050"/>
<defs>
<filter id="filter0_d" x="7" y="7" width="34" height="38.0909" filterUnits="userSpaceOnUse" color-interpolation-filters="sRGB">
<feFlood flood-opacity="0" result="BackgroundImageFix"/>
<feColorMatrix in="SourceAlpha" type="matrix" values="0 0 0 0 0 0 0 0 0 0 0 0 0 0 0 0 0 0 127 0"/>
<feOffset dy="2"/>
<feGaussianBlur stdDeviation="1"/>
<feColorMatrix type="matrix" values="0 0 0 0 0 0 0 0 0 0 0 0 0 0 0 0 0 0 0.102382 0"/>
<feBlend mode="normal" in2="BackgroundImageFix" result="effect1_dropShadow"/>
<feBlend mode="normal" in="SourceGraphic" in2="effect1_dropShadow" result="shape"/>
</filter>
</defs>
</svg>
