<?xml version="1.0" encoding="UTF-8"?>
<svg width="14px" height="14px" viewBox="0 0 14 14" version="1.1" xmlns="http://www.w3.org/2000/svg" xmlns:xlink="http://www.w3.org/1999/xlink">
    <title>图标_部门</title>
    <g id="图标_部门" stroke="none" stroke-width="1" fill="none" fill-rule="evenodd">
        <g id="编组-12">
            <g id="事业部" transform="translate(1.000000, 1.000000)" fill="#999999" fill-rule="nonzero">
                <g id="编组">
                    <path d="M6.93050176,0.00550175506 C7.51390114,0.00550175506 7.98683979,0.4784404 7.98683979,1.06183978 L7.98683979,2.93965669 C7.98683979,3.52305607 7.51390114,3.99599472 6.93050176,3.99599472 L6.51958627,3.99599472 L6.51958627,4.79810739 L8.83860035,4.79810739 C9.68467665,4.79810803 10.3814872,5.46282969 10.4213468,6.30796655 L10.4231074,6.38261443 L10.4227553,7.69317782 L10.9209947,7.69317782 C11.5043941,7.69317782 11.9773328,8.16611646 11.9773328,8.74951585 L11.9773328,10.6276849 C11.9773328,11.2110842 11.5043941,11.6840229 10.9209947,11.6840229 L9.04317782,11.6840229 C8.45977843,11.6840229 7.98683979,11.2110842 7.98683979,10.6276849 L7.98683979,8.74951585 C7.98683979,8.16611646 8.45977843,7.69317782 9.04317782,7.69317782 L9.36641725,7.69317782 L9.36676936,6.38719191 L9.36430458,6.33191021 C9.33818778,6.06111674 9.11065032,5.85445847 8.83860035,5.85444542 L3.08050176,5.85479754 C2.78895246,5.86712149 2.56289612,6.11360036 2.57557218,6.42733275 L2.57522007,7.69317782 L2.93965669,7.69317782 C3.52305607,7.69317782 3.99599472,8.16611646 3.99599472,8.74951585 L3.99599472,10.6276849 C3.99599472,11.2110842 3.52305607,11.6840229 2.93965669,11.6840229 L1.06183978,11.6840229 C0.4784404,11.6840229 0.00550175506,11.2110842 0.00550175506,10.6276849 L0.00550175506,8.74951585 C0.00550175506,8.16611646 0.4784404,7.69317782 1.06183978,7.69317782 L1.51888204,7.69317782 L1.51958627,6.44951585 C1.48387858,5.60412303 2.11870717,4.87984484 2.96148768,4.80444542 L3.03578345,4.79951585 C3.05807152,4.79857547 3.08037696,4.79810588 3.10268485,4.79810739 L5.46324824,4.79810739 L5.46324824,3.99599472 L5.05233275,3.99599472 C4.46893336,3.99599472 3.99599472,3.52305607 3.99599472,2.93965669 L3.99599472,1.06183978 C3.99599472,0.4784404 4.46893336,0.00550175506 5.05233275,0.00550175506 L6.93050176,0.00550175506 Z M2.93965669,8.74951585 L1.06183978,8.74951585 L1.06183978,10.6276849 L2.93965669,10.6276849 L2.93965669,8.74951585 L2.93965669,8.74951585 Z M10.9209947,8.74951585 L9.04317782,8.74951585 L9.04317782,10.6276849 L10.9209947,10.6276849 L10.9209947,8.74951585 Z M6.93050176,1.06183978 L5.05233275,1.06183978 L5.05233275,2.93965669 L6.93050176,2.93965669 L6.93050176,1.06183978 Z" id="形状"></path>
                </g>
            </g>
            <rect id="矩形" x="0" y="0" width="14" height="14"></rect>
        </g>
    </g>
</svg>