<svg width="16" height="16" viewBox="0 0 16 16" fill="none" xmlns="http://www.w3.org/2000/svg">
<path fill-rule="evenodd" clip-rule="evenodd" d="M3.6665 2.33333H12.3332V13H13.3332V1.83333C13.3332 1.70073 13.2805 1.57355 13.1867 1.47978C13.093 1.38601 12.9658 1.33333 12.8332 1.33333H3.1665C3.0339 1.33333 2.90672 1.38601 2.81295 1.47978C2.71918 1.57355 2.6665 1.70073 2.6665 1.83333V13.5C2.6665 13.6326 2.71918 13.7598 2.81295 13.8536C2.90672 13.9473 3.0339 14 3.1665 14H12.8332C12.9658 14 13.093 13.9473 13.1867 13.8536C13.2805 13.7598 13.3332 13.6326 13.3332 13.5V13H3.6665V2.33333Z" fill="#666666"/>
<path d="M10.6668 4.66667H5.3335V5.66667H10.6668V4.66667Z" fill="#666666"/>
<path d="M10.6668 7H5.3335V8H10.6668V7Z" fill="#666666"/>
<path d="M8.3335 9.33333H5.3335V10.3333H8.3335V9.33333Z" fill="#666666"/>
</svg>
