<svg width="24" height="24" viewBox="0 0 24 24" fill="none" xmlns="http://www.w3.org/2000/svg">
<mask id="mask0" mask-type="alpha" maskUnits="userSpaceOnUse" x="3" y="3" width="16" height="19">
<path d="M3 3.17926H18.6481V21.8781H3V3.17926Z" fill="white"/>
</mask>
<g mask="url(#mask0)">
<path fill-rule="evenodd" clip-rule="evenodd" d="M15.1277 9.43851H6.52036C5.89479 9.43851 5.34809 8.89001 5.34809 8.26445C5.34809 7.63888 5.89479 7.09039 6.52036 7.09039H15.1277C15.7533 7.09039 16.3 7.63888 16.3 8.26445C16.3 8.89001 15.7533 9.43851 15.1277 9.43851ZM15.1277 14.1329H6.52036C5.89479 14.1329 5.34809 13.5844 5.34809 12.9589C5.34809 12.3333 5.89479 11.7848 6.52036 11.7848H15.1277C15.7533 11.7848 16.3 12.3333 16.3 12.9589C16.3 13.5844 15.7533 14.1329 15.1277 14.1329ZM2.99998 3.17926V21.8781L5.89479 19.7648L8.32016 21.5644L10.5892 19.7648L13.3281 21.5644C13.5667 21.3718 13.8095 21.1845 14.0456 20.9887C14.1179 20.9288 14.3003 20.826 14.3342 20.7374C14.3735 20.6354 14.2908 20.43 14.2736 20.3217C14.0499 18.9082 14.1465 17.2407 15.0022 16.0365C15.8411 14.8607 17.1944 14.1652 18.6284 14.1652H18.6481V3.17926H2.99998Z" fill="#0C6B7E"/>
</g>
<mask id="mask1" mask-type="alpha" maskUnits="userSpaceOnUse" x="15" y="14" width="7" height="9">
<path d="M15.2965 14.8413H21.9439V22.4896H15.2965V14.8413Z" fill="white"/>
</mask>
<g mask="url(#mask1)">
<path fill-rule="evenodd" clip-rule="evenodd" d="M21.944 18.9208C21.9217 19.5512 21.7174 20.1617 21.3557 20.6784C20.2768 22.192 18.1753 22.5446 16.6616 21.4657C16.6612 21.4655 16.6609 21.4651 16.6605 21.465L15.9426 22.4897L15.5089 20.1493L17.8564 19.7564L17.1391 20.7808C18.2748 21.5888 19.8502 21.3251 20.6607 20.1911C20.8936 19.8562 21.0402 19.4691 21.0877 19.064L21.944 18.9208ZM20.1015 16.5499C18.9658 15.7418 17.3904 16.0057 16.5799 17.1396C16.3449 17.4733 16.1979 17.8609 16.1529 18.2667L15.2965 18.4099C15.3185 17.7797 15.5227 17.1693 15.8838 16.6524C16.964 15.1389 19.066 14.7872 20.5801 15.8666L21.2978 14.8413L21.7314 17.1817L19.3838 17.5746L20.1015 16.5499Z" fill="#0C6B7E"/>
</g>
</svg>
