<svg width="24" height="24" viewBox="0 0 24 24" fill="none" xmlns="http://www.w3.org/2000/svg">
<path d="M4.00624 2H19.9743V21.0818L16.8605 18.9261L14.5452 20.7625L11.7508 18.9261L9.43538 20.7625L6.96033 18.9261L4.00624 21.0818V2ZM7.59906 5.99202C6.96033 5.99202 6.40145 6.5509 6.40145 7.18962C6.40145 7.82834 6.96033 8.38723 7.59906 8.38723H16.3815C17.0202 8.38723 17.5791 7.82834 17.5791 7.18962C17.5791 6.5509 17.0202 5.99202 16.3815 5.99202H7.59906ZM7.59906 10.7824C6.96033 10.7824 6.40145 11.3413 6.40145 11.98C6.40145 12.6188 6.96033 13.1776 7.59906 13.1776H16.3815C17.0202 13.1776 17.5791 12.6188 17.5791 11.98C17.5791 11.3413 17.0202 10.7824 16.3815 10.7824H7.59906Z" fill="#0C6B7E"/>
</svg>
