<svg width="16" height="16" viewBox="0 0 16 16" fill="none" xmlns="http://www.w3.org/2000/svg">
<path d="M5.25684 10.6667L7.66684 10.4433L14.0002 4.12667L11.7902 1.93667L5.4735 8.27L5.25684 10.6667ZM6.49017 8.73334L11.7902 3.43334L12.4868 4.13L7.18684 9.43L6.4235 9.5L6.49017 8.73334Z" fill="#333333"/>
<path d="M12.4732 13.3933H2.61983V3.54H7.19317V2.48666H2.06317C1.99637 2.48664 1.93024 2.5 1.86869 2.52596C1.80715 2.55192 1.75142 2.58994 1.70481 2.63779C1.65821 2.68564 1.62166 2.74235 1.59733 2.80456C1.573 2.86677 1.56138 2.93322 1.56317 3V13.9467C1.56317 14.0793 1.61584 14.2065 1.70961 14.3002C1.80338 14.394 1.93056 14.4467 2.06317 14.4467H13.0265C13.1591 14.4467 13.2863 14.394 13.38 14.3002C13.4738 14.2065 13.5265 14.0793 13.5265 13.9467V8.11333H12.4732V13.3933Z" fill="#333333"/>
</svg>
