<svg width="48" height="48" viewBox="0 0 48 48" fill="none" xmlns="http://www.w3.org/2000/svg">
<g filter="url(#filter0_d)">
<path d="M16.7829 6.41395V11.5984C12.5411 13.955 9.71318 18.6682 9.71318 23.8527C9.71318 31.6295 16.076 37.9922 23.8527 37.9922C31.6295 37.9922 37.9922 31.6295 37.9922 23.8527C37.9922 18.6682 35.1643 13.955 30.9225 11.5984V6.41395C37.7566 9.24186 42.7054 16.076 42.7054 23.8527C42.7054 34.2217 34.2217 42.7054 23.8527 42.7054C13.4837 42.7054 5 34.2217 5 23.8527C5 15.8403 9.94884 9.24186 16.7829 6.41395ZM21.4961 5H26.2093V16.7829H21.4961V5Z" fill="black"/>
</g>
<path d="M16.7829 6.41395V11.5984C12.5411 13.955 9.71318 18.6682 9.71318 23.8527C9.71318 31.6295 16.076 37.9922 23.8527 37.9922C31.6295 37.9922 37.9922 31.6295 37.9922 23.8527C37.9922 18.6682 35.1643 13.955 30.9225 11.5984V6.41395C37.7566 9.24186 42.7054 16.076 42.7054 23.8527C42.7054 34.2217 34.2217 42.7054 23.8527 42.7054C13.4837 42.7054 5 34.2217 5 23.8527C5 15.8403 9.94884 9.24186 16.7829 6.41395ZM21.4961 5H26.2093V16.7829H21.4961V5Z" fill="#505050"/>
<defs>
<filter id="filter0_d" x="3" y="5" width="41.7054" height="41.7054" filterUnits="userSpaceOnUse" color-interpolation-filters="sRGB">
<feFlood flood-opacity="0" result="BackgroundImageFix"/>
<feColorMatrix in="SourceAlpha" type="matrix" values="0 0 0 0 0 0 0 0 0 0 0 0 0 0 0 0 0 0 127 0"/>
<feOffset dy="2"/>
<feGaussianBlur stdDeviation="1"/>
<feColorMatrix type="matrix" values="0 0 0 0 0 0 0 0 0 0 0 0 0 0 0 0 0 0 0.102382 0"/>
<feBlend mode="normal" in2="BackgroundImageFix" result="effect1_dropShadow"/>
<feBlend mode="normal" in="SourceGraphic" in2="effect1_dropShadow" result="shape"/>
</filter>
</defs>
</svg>
