<svg width="32" height="32" viewBox="0 0 32 32" fill="none" xmlns="http://www.w3.org/2000/svg">
<path d="M4.00006 4.11327H22.9734C23.0677 4.11326 23.1583 4.15027 23.2256 4.21635C23.2929 4.28242 23.3316 4.37229 23.3334 4.4666V5.41994C23.3345 5.63758 23.2616 5.84915 23.1267 6.01994L16.8001 13.9266C16.7639 13.9724 16.7429 14.0283 16.7401 14.0866V27.5933C16.7401 27.7011 16.6972 27.8046 16.6209 27.8808C16.5447 27.9571 16.4412 27.9999 16.3334 27.9999H15.4067C15.2832 28.004 15.1602 27.9824 15.0454 27.9365C14.9307 27.8906 14.8267 27.8214 14.7401 27.7333L11.0667 24.0599C11.0205 24.0148 10.9837 23.9609 10.9585 23.9014C10.9333 23.8418 10.9203 23.7779 10.9201 23.7133V14.0933C10.9213 14.029 10.8973 13.9668 10.8534 13.9199L3.71339 5.92661C3.61684 5.81808 3.56243 5.67851 3.56006 5.53327V4.5266C3.56089 4.47029 3.57304 4.41472 3.59578 4.36319C3.61852 4.31166 3.6514 4.26524 3.69245 4.22668C3.7335 4.18811 3.78189 4.1582 3.83473 4.13872C3.88758 4.11924 3.9438 4.11058 4.00006 4.11327Z" fill="url(#paint0_linear)"/>
<path d="M26.46 14.6667H20.2067C20.0925 14.6667 20 14.7592 20 14.8733V16.46C20 16.5741 20.0925 16.6667 20.2067 16.6667H26.46C26.5741 16.6667 26.6667 16.5741 26.6667 16.46V14.8733C26.6667 14.7592 26.5741 14.6667 26.46 14.6667Z" fill="url(#paint1_linear)"/>
<path d="M26.46 18.3333H20.2067C20.0925 18.3333 20 18.4259 20 18.54V20.1267C20 20.2408 20.0925 20.3333 20.2067 20.3333H26.46C26.5741 20.3333 26.6667 20.2408 26.6667 20.1267V18.54C26.6667 18.4259 26.5741 18.3333 26.46 18.3333Z" fill="url(#paint2_linear)"/>
<path d="M26.46 22H20.2067C20.0925 22 20 22.0925 20 22.2067V23.7933C20 23.9075 20.0925 24 20.2067 24H26.46C26.5741 24 26.6667 23.9075 26.6667 23.7933V22.2067C26.6667 22.0925 26.5741 22 26.46 22Z" fill="url(#paint3_linear)"/>
<defs>
<linearGradient id="paint0_linear" x1="13.4467" y1="4.11279" x2="13.4467" y2="28.0004" gradientUnits="userSpaceOnUse">
<stop stop-color="#FAFAFA"/>
<stop offset="1" stop-color="#CECECE"/>
</linearGradient>
<linearGradient id="paint1_linear" x1="23.3333" y1="14.6667" x2="23.3333" y2="16.6667" gradientUnits="userSpaceOnUse">
<stop stop-color="#FAFAFA"/>
<stop offset="1" stop-color="#CECECE"/>
</linearGradient>
<linearGradient id="paint2_linear" x1="23.3333" y1="18.3333" x2="23.3333" y2="20.3333" gradientUnits="userSpaceOnUse">
<stop stop-color="#FAFAFA"/>
<stop offset="1" stop-color="#CECECE"/>
</linearGradient>
<linearGradient id="paint3_linear" x1="23.3333" y1="22" x2="23.3333" y2="24" gradientUnits="userSpaceOnUse">
<stop stop-color="#FAFAFA"/>
<stop offset="1" stop-color="#CECECE"/>
</linearGradient>
</defs>
</svg>
