<svg width="48" height="48" viewBox="0 0 48 48" fill="none" xmlns="http://www.w3.org/2000/svg">
<path fill-rule="evenodd" clip-rule="evenodd" d="M33.44 32.86V28.95V25.94L24.41 34.97L33.44 44V40.99V37.08H43V32.86H33.44Z" fill="#505050"/>
<path fill-rule="evenodd" clip-rule="evenodd" d="M28.19 21.59H23.88V16.39H27.27V14.2H23.88V9.56H21.54V21.56H18.36L19.58 20.51C19.2825 19.8686 19.0513 19.1984 18.89 18.51L17.59 19.59V14.18H13.41V16.36H15.46V20.29C15.3684 21.2856 14.8997 22.2085 14.15 22.87C14.6888 23.2256 15.1737 23.6567 15.59 24.15C16.3122 23.3085 17.1199 22.5444 18 21.87V23.82H28.19V21.59Z" fill="#505050"/>
<path fill-rule="evenodd" clip-rule="evenodd" d="M18.2901 11.77C17.7201 11.16 16.5301 10.16 15.7701 9.48001L14.4301 11C15.1901 11.75 16.3401 12.83 16.8701 13.47L18.2901 11.77Z" fill="#505050"/>
<path fill-rule="evenodd" clip-rule="evenodd" d="M11.5 7H34.5V24H38.5V3H7.5V44.5H24V40.5H11.5V7Z" fill="#505050"/>
<path d="M25 27H14V31H25V27Z" fill="#505050"/>
<path d="M23 34H14V38H23V34Z" fill="#505050"/>
</svg>
