<svg width="24" height="24" viewBox="0 0 24 24" fill="none" xmlns="http://www.w3.org/2000/svg">
<path d="M11.9424 12.951L15.2537 16.2623L16.7989 14.7171L14.1499 12.068V7.43228H11.9424V12.951ZM2.00862 5.22478L5.87176 9.08791L6.64438 9.86054C7.52739 7.21153 10.066 5.22478 13.0461 5.22478C16.6885 5.22478 19.6687 8.20491 19.6687 11.8473C19.6687 15.4897 16.6885 18.4698 13.0461 18.4698C9.73489 18.4698 6.97551 16.0416 6.53401 12.8407L4.3265 10.6332C4.21613 11.0747 4.21613 11.4058 4.21613 11.8473C4.21613 16.7038 8.18964 20.6773 13.0461 20.6773C17.9027 20.6773 21.8762 16.7038 21.8762 11.8473C21.8762 6.99078 17.9027 3.01727 13.0461 3.01727C10.2868 3.01727 7.85851 4.34178 6.20288 6.32853L5.09913 5.22478H2.00862Z" fill="#0C6B7E"/>
</svg>
