<svg width="48" height="48" viewBox="0 0 48 48" fill="none" xmlns="http://www.w3.org/2000/svg">
<g filter="url(#filter0_d)">
<path fill-rule="evenodd" clip-rule="evenodd" d="M36.7605 33.6064L35.1165 33.367C34.9928 33.3497 34.886 33.2719 34.8312 33.1594L34.0957 31.6682C33.9745 31.4232 33.6257 31.4232 33.5016 31.6712L32.7547 33.1854C32.7055 33.2805 32.6132 33.3497 32.5066 33.3641L30.8366 33.6064C30.5684 33.6468 30.4588 33.9785 30.6551 34.1687L31.8634 35.3484C31.9412 35.4235 31.9759 35.533 31.9585 35.6398L31.673 37.3039C31.6269 37.5721 31.9096 37.7768 32.1518 37.6499L33.6458 36.8655C33.7409 36.8135 33.8562 36.8135 33.9515 36.8655L35.4455 37.6499C35.6877 37.7768 35.9704 37.5721 35.9243 37.3039L35.6386 35.6398C35.6214 35.533 35.6561 35.4235 35.7339 35.3484L36.9422 34.1687C37.1384 33.9785 37.0316 33.6468 36.7605 33.6064Z" fill="#505050"/>
<mask id="mask0" mask-type="alpha" maskUnits="userSpaceOnUse" x="5" y="3" width="24" height="34">
<path d="M5 3.13398H28.8922V36.2122H5V3.13398Z" fill="white"/>
</mask>
<g mask="url(#mask0)">
<path fill-rule="evenodd" clip-rule="evenodd" d="M23.5057 32.5367H8.67551V30.2158C12.8819 29.5762 15.0266 29.0064 16.2137 28.0747C16.1126 28.1538 16.9801 27.5179 17.2999 27.1981C17.9889 26.5127 18.3913 25.6747 18.5311 24.7374C18.5935 24.3167 18.599 24.1237 18.599 23.3482C18.6014 21.1705 17.9566 19.0412 16.7467 17.2304L16.471 16.8188L16.096 16.4935C15.8942 16.3191 15.7054 16.1302 15.5311 15.9284C13.5397 13.6251 13.7927 10.1434 16.096 8.15215C18.3995 6.16089 21.881 6.41397 23.8722 8.71726C25.8636 11.0207 25.6106 14.5023 23.3073 16.4935L22.9324 16.8188L22.6567 17.2304C21.4567 19.0296 20.8042 21.1429 20.8042 23.3482C20.8042 24.0446 20.808 24.2046 20.8539 24.5721C20.9572 25.4496 21.3346 26.2721 21.9327 26.9225C22.1586 27.1705 22.7357 27.6539 22.8369 27.7568C23.34 28.2536 23.9347 28.6481 24.5881 28.9182C25.1257 27.7726 25.8292 26.7126 26.6758 25.7721H26.6739C26.0619 25.581 25.6576 25.3881 25.4611 25.1859C24.4778 24.1806 24.4778 24.6878 24.4778 23.3482C24.4767 21.8969 24.9072 20.4781 25.7147 19.272C26.0496 18.9824 26.3632 18.6688 26.653 18.3337C29.9728 14.4957 29.5528 8.69301 25.7147 5.37312C21.8766 2.05336 16.0739 2.47337 12.754 6.31148C9.43421 10.1496 9.85422 15.9523 13.6923 19.272C14.4698 20.4391 14.9236 21.8413 14.9236 23.3482C14.9236 24.6878 14.9236 24.4121 13.9404 25.1859C13.2844 25.7004 10.3037 26.3143 4.99992 27.0237V36.2122H23.5057C23.3313 34.9932 23.3313 33.7556 23.5057 32.5367Z" fill="#505050"/>
</g>
<mask id="mask1" mask-type="alpha" maskUnits="userSpaceOnUse" x="5" y="39" width="23" height="5">
<path d="M5 39.8875H27.2381V43.563H5V39.8875Z" fill="white"/>
</mask>
<g mask="url(#mask1)">
<path fill-rule="evenodd" clip-rule="evenodd" d="M4.99993 39.8875V43.563H27.2381C26.1612 42.5082 25.2699 41.2657 24.6157 39.8875H4.99993Z" fill="#505050"/>
</g>
<mask id="mask2" mask-type="alpha" maskUnits="userSpaceOnUse" x="24" y="25" width="20" height="19">
<path d="M24.5547 25.3424H43.0432V43.8309H24.5547V25.3424Z" fill="white"/>
</mask>
<g mask="url(#mask2)">
<path fill-rule="evenodd" clip-rule="evenodd" d="M33.799 41.1514C30.1791 41.1514 27.2342 38.2065 27.2342 34.5867C27.2342 30.9668 30.1791 28.0219 33.799 28.0219C37.4188 28.0219 40.3637 30.9668 40.3637 34.5867C40.3637 38.2065 37.4188 41.1514 33.799 41.1514ZM33.799 25.3424C28.7016 25.3424 24.5547 29.4893 24.5547 34.5867C24.5547 39.684 28.7016 43.8309 33.799 43.8309C38.8963 43.8309 43.0432 39.684 43.0432 34.5867C43.0432 29.4893 38.8963 25.3424 33.799 25.3424Z" fill="#505050"/>
</g>
</g>
<defs>
<filter id="filter0_d" x="3" y="3.13398" width="42.0432" height="44.6969" filterUnits="userSpaceOnUse" color-interpolation-filters="sRGB">
<feFlood flood-opacity="0" result="BackgroundImageFix"/>
<feColorMatrix in="SourceAlpha" type="matrix" values="0 0 0 0 0 0 0 0 0 0 0 0 0 0 0 0 0 0 127 0"/>
<feOffset dy="2"/>
<feGaussianBlur stdDeviation="1"/>
<feColorMatrix type="matrix" values="0 0 0 0 0 0 0 0 0 0 0 0 0 0 0 0 0 0 0.102382 0"/>
<feBlend mode="normal" in2="BackgroundImageFix" result="effect1_dropShadow"/>
<feBlend mode="normal" in="SourceGraphic" in2="effect1_dropShadow" result="shape"/>
</filter>
</defs>
</svg>
