<svg width="24" height="24" viewBox="0 0 24 24" fill="none" xmlns="http://www.w3.org/2000/svg">
<path fill-rule="evenodd" clip-rule="evenodd" d="M12.562 14.6966V15.9266C12.5576 17.495 13.121 18.9886 14.116 20.1495H2V17.317C2.32948 16.3758 2.85006 15.5752 3.49803 15.003C3.67595 14.845 3.86815 14.7033 4.07133 14.5781C6.18549 13.0877 7.92734 12.2399 10.4929 12.2399C12.2106 12.2399 13.5658 12.6199 14.9046 13.3194L12.7938 14.331C12.6521 14.3969 12.5609 14.5395 12.562 14.6966Z" fill="#0C6B7E"/>
<path fill-rule="evenodd" clip-rule="evenodd" d="M19.0326 18.255V18.5153L18.9281 18.4186C18.9661 18.3659 19.0005 18.311 19.0326 18.255Z" fill="#2C2C2C"/>
<mask id="mask0" mask-type="alpha" maskUnits="userSpaceOnUse" x="5" y="1" width="11" height="11">
<path d="M5.28366 1.1098H15.518V11.3454H5.28366V1.1098Z" fill="white"/>
</mask>
<g mask="url(#mask0)">
<path fill-rule="evenodd" clip-rule="evenodd" d="M5.28366 6.22761C5.28333 9.05367 7.57398 11.345 10.4002 11.3454C13.2262 11.3458 15.5175 9.05499 15.518 6.22893V6.22761C15.5182 3.40155 13.2275 1.11024 10.4015 1.1098C7.5753 1.10947 5.28399 3.40013 5.28366 6.22629V6.22761Z" fill="#0C6B7E"/>
</g>
<mask id="mask1" mask-type="alpha" maskUnits="userSpaceOnUse" x="13" y="13" width="8" height="9">
<path d="M13.2636 13.0701H20.9729V21.5147H13.2636V13.0701Z" fill="white"/>
</mask>
<g mask="url(#mask1)">
<path fill-rule="evenodd" clip-rule="evenodd" d="M20.7762 14.7475L17.2645 13.1032C17.1718 13.0588 17.0638 13.059 16.9712 13.1038L13.4602 14.7867C13.34 14.8428 13.2633 14.9635 13.2636 15.0962V16.1373C13.2579 17.9905 14.1919 19.7203 15.7445 20.7323L16.7325 21.3826C16.8602 21.4678 17.0101 21.5138 17.1637 21.5147C17.1637 21.5147 17.2301 21.5159 17.332 21.4924C17.3862 21.4815 17.4389 21.4649 17.4894 21.4429C17.5323 21.4242 17.5769 21.4104 17.6167 21.3838L17.6861 21.3368L17.6866 21.3361L18.5637 20.7433C18.7119 20.6459 18.8537 20.5393 18.9884 20.4241C18.9944 20.4193 18.9969 20.4114 19.0023 20.4065L19.0155 20.3964C19.0155 20.3964 19.2858 20.1358 19.597 19.7829C19.4632 19.8712 19.2857 19.8528 19.1729 19.7389L18.1638 18.7285C17.891 18.9113 17.571 19.0109 17.2427 19.015H17.2259C16.4119 19.0136 15.7114 18.439 15.5509 17.641C15.3943 16.8411 15.8226 16.0418 16.575 15.7289C17.3292 15.4198 18.1969 15.6849 18.6494 16.3628C19.0246 16.9292 19.0221 17.6778 18.6488 18.2455L19.6579 19.2551C19.7551 19.3526 19.784 19.4992 19.7309 19.6261C19.7285 19.6327 19.7213 19.6358 19.7182 19.6413C20.0362 19.266 20.3666 18.8167 20.4849 18.4475V18.4383C20.8051 17.7289 20.9713 16.9597 20.9729 16.1813V15.0588C20.9731 14.9258 20.8965 14.8045 20.7762 14.7475Z" fill="#0C6B7E"/>
</g>
<path fill-rule="evenodd" clip-rule="evenodd" d="M19.0326 18.255V18.5153L18.9281 18.4186C18.9661 18.3659 19.0005 18.311 19.0326 18.255Z" fill="#2D8CF0"/>
<path fill-rule="evenodd" clip-rule="evenodd" d="M16.2342 17.231C16.1413 17.7045 16.3945 18.1782 16.8398 18.3643C17.2863 18.549 17.8013 18.3937 18.071 17.9928C18.3376 17.5902 18.2854 17.0558 17.9455 16.7128C17.5508 16.3164 16.9096 16.3149 16.5132 16.7096C16.3704 16.8517 16.2732 17.0333 16.2342 17.231Z" fill="#0C6B7E"/>
</svg>
