<svg width="20" height="20" viewBox="0 0 20 20" fill="none" xmlns="http://www.w3.org/2000/svg">
<path d="M13.1343 14.0667C14.6569 12.1052 14.3923 9.29797 12.53 7.65552C10.6677 6.01308 7.84938 6.1014 6.09355 7.85722C4.33773 9.61305 4.24941 12.4314 5.89185 14.2937C7.5343 16.156 10.3415 16.4206 12.3031 14.898L13.9497 16.5447C14.0973 16.6975 14.3159 16.7588 14.5215 16.705C14.727 16.6512 14.8875 16.4907 14.9413 16.2851C14.9951 16.0796 14.9338 15.861 14.781 15.7134L13.1343 14.0667ZM0.0126343 2.95208H18.8251C19.4745 2.95208 20.0009 3.4785 20.0009 4.12786V18.8251C20.0009 19.4745 19.4745 20.0009 18.8251 20.0009H1.18841C0.539048 20.0009 0.0126343 19.4745 0.0126343 18.8251V2.95208ZM1.18841 0.0126343H8.43885C8.69326 0.0126343 8.9408 0.0951479 9.14432 0.24779L11.1825 1.7763H0.0126343V1.18841C0.0126343 0.539048 0.539048 0.0126343 1.18841 0.0126343ZM9.41887 14.7099C7.47077 14.7099 5.89153 13.1306 5.89153 11.1825C5.89153 9.23444 7.47077 7.6552 9.41887 7.6552C11.367 7.6552 12.9462 9.23444 12.9462 11.1825C12.9462 13.1306 11.367 14.7099 9.41887 14.7099Z" fill="#9E9E9E"/>
</svg>
