<svg width="32" height="32" viewBox="0 0 32 32" fill="none" xmlns="http://www.w3.org/2000/svg">
<path d="M19.1343 20.0667C20.6569 18.1052 20.3923 15.298 18.53 13.6555C16.6677 12.0131 13.8494 12.1014 12.0936 13.8572C10.3377 15.6131 10.2494 18.4314 11.8919 20.2937C13.5343 22.156 16.3415 22.4206 18.3031 20.898L19.9497 22.5447C20.0973 22.6975 20.3159 22.7588 20.5215 22.705C20.727 22.6512 20.8875 22.4907 20.9413 22.2851C20.9951 22.0796 20.9338 21.861 20.781 21.7134L19.1343 20.0667ZM6.01263 8.95208H24.8251C25.4745 8.95208 26.0009 9.4785 26.0009 10.1279V24.8251C26.0009 25.4745 25.4745 26.0009 24.8251 26.0009H7.18841C6.53905 26.0009 6.01263 25.4745 6.01263 24.8251V8.95208ZM7.18841 6.01263H14.4389C14.6933 6.01263 14.9408 6.09515 15.1443 6.24779L17.1825 7.7763H6.01263V7.18841C6.01263 6.53905 6.53905 6.01263 7.18841 6.01263ZM15.4189 20.7099C13.4708 20.7099 11.8915 19.1306 11.8915 17.1825C11.8915 15.2344 13.4708 13.6552 15.4189 13.6552C17.367 13.6552 18.9462 15.2344 18.9462 17.1825C18.9462 19.1306 17.367 20.7099 15.4189 20.7099Z" fill="#1C879C"/>
</svg>
