<svg width="32" height="32" viewBox="0 0 32 32" fill="none" xmlns="http://www.w3.org/2000/svg">
<mask id="mask0" mask-type="alpha" maskUnits="userSpaceOnUse" x="6" y="5" width="10" height="23">
<path d="M6 5.12344H15.9494V27.6728H6V5.12344Z" fill="white"/>
</mask>
<g mask="url(#mask0)">
<path fill-rule="evenodd" clip-rule="evenodd" d="M7.67405 10.8506C7.34072 17.658 9.97541 22.5642 15.6345 25.6913L15.8629 25.8148L15.9037 25.7938C15.9185 25.7851 15.9345 25.7765 15.9494 25.7679V27.6321L15.8716 27.6728L15.4926 27.479C8.71492 24.0135 5.54813 18.2629 6.05183 10.3765L6.07899 9.99872L6.11739 9.50983L15.9494 5.12341V6.92465L7.68763 10.6111L7.67405 10.8506Z" fill="black"/>
</g>
<mask id="mask1" mask-type="alpha" maskUnits="userSpaceOnUse" x="15" y="5" width="11" height="23">
<path d="M15.9494 5.12347H25.8988V27.6728H15.9494V5.12347Z" fill="white"/>
</mask>
<g mask="url(#mask1)">
<path fill-rule="evenodd" clip-rule="evenodd" d="M16.4062 27.479L16.0272 27.6729L15.9494 27.6321V25.7679C15.9642 25.7766 15.9803 25.7852 15.9951 25.7938L16.0358 25.8148L16.2642 25.6914C21.9234 22.5642 24.558 17.658 24.2247 10.8506L24.2111 10.6111L15.9494 6.92471V5.12347L25.7814 9.50989L25.8198 9.99878L25.8469 10.3766C26.3506 18.263 23.1838 24.0136 16.4062 27.479Z" fill="black"/>
</g>
<path fill-rule="evenodd" clip-rule="evenodd" d="M18.042 14.8666C18.042 16.3839 16.8111 17.6136 15.2951 17.6136H15.2914C13.7766 17.6136 12.5468 16.3827 12.5468 14.8666C12.5482 13.3494 13.7778 12.121 15.2951 12.1222C16.8111 12.1222 18.042 13.3506 18.042 14.8666Z" fill="#1C879C"/>
<mask id="mask2" mask-type="alpha" maskUnits="userSpaceOnUse" x="6" y="5" width="20" height="23">
<path d="M6 5.12344H25.8987V27.6728H6V5.12344Z" fill="white"/>
</mask>
<g mask="url(#mask2)">
<path fill-rule="evenodd" clip-rule="evenodd" d="M11.9283 17.2395C10.6186 15.3802 11.0629 12.8111 12.9235 11.5C13.6174 11.0111 14.4458 10.7481 15.2951 10.7481C17.5703 10.7481 19.416 12.5913 19.416 14.8666C19.416 15.7234 19.1481 16.5605 18.6506 17.258L21.7518 19.8839L20.9308 21.095L17.6691 18.2358C15.8087 19.5444 13.2382 19.1 11.9283 17.2395ZM25.8469 10.3765L25.8198 9.99872L25.7814 9.50983L15.9493 5.12341L6.11736 9.50983L6.07896 9.99872L6.0518 10.3765C5.5481 18.2629 8.71489 24.0135 15.4925 27.479L15.8716 27.6728L15.9493 27.6321L16.0271 27.6728L16.4062 27.479C23.1839 24.0135 26.3506 18.2629 25.8469 10.3765Z" fill="#1C879C"/>
</g>
</svg>
