<?xml version="1.0" encoding="UTF-8"?>
<svg width="12px" height="12px" viewBox="0 0 12 12" version="1.1" xmlns="http://www.w3.org/2000/svg" xmlns:xlink="http://www.w3.org/1999/xlink">
    <title>图标_发出</title>
    <g id="领料执行" stroke="none" stroke-width="1" fill="none" fill-rule="evenodd">
        <g id="待发出" transform="translate(-1348.000000, -207.000000)" fill="#FEFFFF" fill-rule="nonzero">
            <g id="编组-11" transform="translate(1348.000000, 207.000000)">
                <path d="M10.0122411,9.94746253 C9.96195209,9.94746253 9.91166307,9.94095964 9.86180758,9.92882092 L4.57842608,8.6169712 C4.38247232,8.56841629 4.22770353,8.41711571 4.17481336,8.22246253 C4.12192319,8.02824288 4.17828157,7.81928334 4.32177868,7.67795386 L7.37770353,4.67882092 C7.50689429,4.55266485 7.71238562,4.555266 7.83767463,4.68315618 C7.96339718,4.81147988 7.96166307,5.01740473 7.83333937,5.14312727 L4.89620064,8.02607525 L10.0183105,9.2984741 L11.2365186,0.799630164 L0.668888506,6.91061282 L0.600391396,7.29384982 L0.678859604,6.97824288 L3.21628735,7.60815618 C3.39056481,7.65150878 3.49677868,7.82752034 3.45342608,8.00179779 C3.410507,8.17650878 3.23146076,8.28272265 3.05978446,8.23893652 L0.521923188,7.60945675 C0.248368274,7.54139317 0.0463451531,7.31726022 0.00689428602,7.03893652 C-0.032556581,6.76061282 0.0996688525,6.48879201 0.342876945,6.34789606 L11.2057382,0.0661041529 C11.3674434,-0.0284045177 11.5655648,-0.0210345755 11.7207671,0.0847457713 C11.8759694,0.190092592 11.9553047,0.370872939 11.9284261,0.556422072 L10.6317498,9.41292496 C10.6057382,9.58763594 10.5073278,9.74413883 10.3612295,9.84168219 C10.2571833,9.91104635 10.1353625,9.94746253 10.0122411,9.94746253 Z" id="形状"></path>
                <path d="M4.56932203,11.8627805 C4.51036249,11.8627805 4.45183648,11.8515088 4.3954781,11.8272313 C4.23290585,11.7578672 4.12799255,11.5987631 4.12799255,11.421451 L4.12799255,8.15960126 C4.12799255,7.98012149 4.27365729,7.83445675 4.45313706,7.83445675 C4.63261683,7.83445675 4.77828157,7.98012149 4.77828157,8.15960126 L4.77828157,10.9341677 L6.30125845,9.48619086 C6.43088273,9.36263594 6.63724111,9.36740473 6.76122955,9.49789606 C6.88478446,9.62795386 6.87958215,9.83344519 6.74952434,9.95786716 L4.87409082,11.7409596 C4.78998677,11.821162 4.68030469,11.8627805 4.56932203,11.8627805 Z" id="形状"></path>
            </g>
        </g>
    </g>
</svg>