<svg width="24" height="24" viewBox="0 0 24 24" fill="none" xmlns="http://www.w3.org/2000/svg">
<path d="M3.50968 13.1714L11.1102 16.8152C11.6213 17.1528 12.2846 17.1528 12.7957 16.8152L20.3963 13.1714C20.7718 12.9837 20.9059 12.1074 20.9059 11.6379L19.7122 12.2728L11.9418 16.0865L4.19373 12.2728C4.22055 12.2728 3.50968 11.9464 3 11.6379C3 12.0984 3.1073 12.9434 3.50968 13.1714ZM3.50968 9.35329L11.1102 12.9971C11.6213 13.3347 12.2846 13.3347 12.7957 12.9971L20.3963 9.35329C20.9551 9.07609 20.973 7.89131 20.3963 7.56493L12.7868 3.27734C12.285 2.90983 11.603 2.90983 11.1013 3.27734L3.50074 7.55599C2.93294 7.9539 2.91505 9.01797 3.50968 9.35329ZM11.9418 19.9046L4.19373 16.0865C4.22055 16.0865 3.50968 15.7601 3 15.4516C3 15.8987 3.1073 16.7571 3.50968 16.9851L11.1102 20.6289C11.6213 20.9665 12.2846 20.9665 12.7957 20.6289L20.3963 16.9851C20.7718 16.7973 20.9059 15.921 20.9059 15.4516L19.7122 16.0865L11.9418 19.9046Z" fill="#0C6B7E"/>
</svg>
