<svg width="32" height="32" viewBox="0 0 32 32" fill="none" xmlns="http://www.w3.org/2000/svg">
<path d="M25.3194 13.7705C25.6899 13.7705 25.9354 14.0151 25.9354 14.3837L25.9489 25.3276C25.9489 25.6962 25.7026 25.9408 25.3348 25.9408H6.63645C6.26779 25.9408 6.02051 25.6962 6.02051 25.3276V13.266C6.02051 12.8991 6.12377 12.6527 6.49243 12.6527H7.11471V7.12104C7.11471 6.01416 7.11018 6.01416 8.24696 6.01416H21.5024C22.631 6.01416 22.6075 6.01416 22.6075 7.12104V9.33753H23.7207C24.8303 9.33753 24.8403 9.31307 24.8276 10.477L24.8303 13.7705H25.3194ZM23.7207 13.7705V10.4435H10.4345V12.6537H13.093C13.2778 12.6537 13.4625 12.7143 13.6464 12.7759L15.6147 13.6482C15.8004 13.708 15.9834 13.7705 16.1672 13.7705H23.7198H23.7207ZM8.21435 7.12104V12.6537H9.32486V10.4979C9.32486 9.333 9.29496 9.34206 10.3448 9.34206H21.5042V7.12104H8.21344H8.21435ZM9.75058 18.1899H14.4499C14.6826 18.1899 14.8665 17.9209 14.8665 17.6201C14.8665 17.3194 14.6836 17.0821 14.4499 17.0821H9.75149C9.5196 17.0821 9.33663 17.3511 9.33663 17.6527C9.33663 17.9517 9.5196 18.1899 9.75149 18.1899H9.75058ZM9.76326 20.4046C9.53138 20.4046 9.34931 20.6537 9.34931 20.9562C9.34931 21.2551 9.53047 21.5114 9.76326 21.5114H18.8493C19.0821 21.5114 19.266 21.2759 19.266 20.9743C19.266 20.6727 19.0821 20.4046 18.8493 20.4046H9.76417H9.76326Z" fill="#1C879C"/>
</svg>
