<?xml version="1.0" encoding="UTF-8"?>
<svg width="14px" height="14px" viewBox="0 0 14 14" version="1.1" xmlns="http://www.w3.org/2000/svg" xmlns:xlink="http://www.w3.org/1999/xlink">
    <title>图标_定位</title>
    <g id="图标_定位" stroke="none" stroke-width="1" fill="none" fill-rule="evenodd">
        <g id="编组">
            <path d="M6.97727273,2.78733916 C7.77732867,2.78733916 8.53911888,3.08031818 9.12244755,3.61229021 C9.7746993,4.20714336 10.145049,5.01889161 10.1652448,5.8979965 C10.1854965,6.77771678 9.85408392,7.60473776 9.2320979,8.22666783 C8.72496503,8.7338007 7.75595804,9.94353497 6.99965035,10.9122622 C6.22667133,9.9478986 5.23696503,8.74118531 4.72244755,8.22666783 C4.10046154,7.60468182 3.76904895,6.77771678 3.7893007,5.8979965 C3.8094965,5.01894755 4.17984615,4.2071993 4.8320979,3.61229021 C5.41542657,3.08031818 6.17721678,2.78733916 6.97727273,2.78733916 M6.97727273,2.00412238 C6.01704895,2.00412238 5.05682517,2.34728322 4.30432168,3.03366084 C2.61867133,4.5710035 2.57346853,7.18538112 4.1686014,8.78056993 C4.69895105,9.31091958 5.81262937,10.6819965 6.47668531,11.5123741 C6.60368346,11.6720551 6.79674406,11.7648759 7.00076923,11.7643484 C7.19841958,11.7643484 7.39601399,11.6779685 7.53022378,11.5056049 C8.1799021,10.6713671 9.26683916,9.29961888 9.78588811,8.78056993 C11.3810769,7.18543706 11.3358182,4.57105944 9.65016783,3.03366084 C8.89772028,2.34728322 7.9374965,2.00412238 6.97727273,2.00412238 L6.97727273,2.00412238 Z" id="形状" fill="#999999" fill-rule="nonzero"></path>
            <path d="M6.97727273,4.74107343 C7.53251748,4.74107343 7.98426573,5.19282168 7.98426573,5.74806643 C7.98426573,6.30331119 7.53251748,6.75505944 6.97727273,6.75505944 C6.42202797,6.75505944 5.97027972,6.30331119 5.97027972,5.74806643 C5.97027972,5.19282168 6.42202797,4.74107343 6.97727273,4.74107343 M6.97727273,3.95785664 C5.98857343,3.95785664 5.18706294,4.75936713 5.18706294,5.74806643 C5.18706294,6.73676573 5.98857343,7.53827622 6.97727273,7.53827622 C7.96597203,7.53827622 8.76748252,6.73676573 8.76748252,5.74806643 C8.76748252,4.75936713 7.96597203,3.95785664 6.97727273,3.95785664 Z" id="形状" fill="#999999" fill-rule="nonzero"></path>
            <rect id="矩形" x="0" y="0" width="14" height="14"></rect>
        </g>
    </g>
</svg>