<svg width="32" height="32" viewBox="0 0 32 32" fill="none" xmlns="http://www.w3.org/2000/svg">
<path d="M15.9844 26.8149C9.95873 22.4559 7.01001 18.2251 7.01001 13.9944C7.01001 8.99438 10.9844 5.02002 15.9844 5.02002C20.9844 5.02002 24.9587 8.99438 24.9587 13.9944C24.9587 18.2251 22.01 22.4559 15.9844 26.8149ZM15.9844 23.2251C20.2151 20.02 22.3946 16.9431 22.3946 13.9944C22.3946 10.4046 19.5741 7.58412 15.9844 7.58412C12.3946 7.58412 9.57411 10.4046 9.57411 13.9944C9.57411 16.9431 11.7536 20.02 15.9844 23.2251ZM15.9844 17.8405C13.8049 17.8405 12.1382 16.1739 12.1382 13.9944C12.1382 11.8149 13.8049 10.1482 15.9844 10.1482C18.1639 10.1482 19.8305 11.8149 19.8305 13.9944C19.8305 16.1739 18.1639 17.8405 15.9844 17.8405ZM15.9844 15.2764C16.7536 15.2764 17.2664 14.7636 17.2664 13.9944C17.2664 13.2251 16.7536 12.7123 15.9844 12.7123C15.2151 12.7123 14.7023 13.2251 14.7023 13.9944C14.7023 14.7636 15.2151 15.2764 15.9844 15.2764Z" fill="#1C879C"/>
</svg>
