<svg width="24" height="24" viewBox="0 0 24 24" fill="none" xmlns="http://www.w3.org/2000/svg">
<path d="M5 9.46154H19V20.2308H5V9.46154ZM7.33333 11.6154V18.0769H16.6667V11.6154H7.33333ZM7.33333 10.5385H5V9.46154H7.33333V7.30769C7.33333 4.93846 9.43333 3 12 3C14.5667 3 16.6667 4.93846 16.6667 7.30769V9.46154H19V10.5385H14.3333V7.30769C14.3333 6.12308 13.2833 5.15385 12 5.15385C10.7167 5.15385 9.66667 6.12308 9.66667 7.30769V10.5385H7.33333ZM12 15.9231C11.3 15.9231 10.8333 15.4923 10.8333 14.8462C10.8333 14.2 11.3 13.7692 12 13.7692C12.7 13.7692 13.1667 14.2 13.1667 14.8462C13.1667 15.4923 12.7 15.9231 12 15.9231Z" fill="#0C6B7E"/>
</svg>
