<?xml version="1.0" encoding="UTF-8"?>
<svg width="24px" height="24px" viewBox="0 0 24 24" version="1.1" xmlns="http://www.w3.org/2000/svg" xmlns:xlink="http://www.w3.org/1999/xlink">
    <title>批次_未选中</title>
    <g id="批次_未选中" stroke="none" stroke-width="1" fill="none" fill-rule="evenodd">
        <g id="编组" transform="translate(2.000000, 4.000000)" fill="#999999" fill-rule="nonzero">
            <path d="M1.24289773,0 L0.177556818,0 C0.0799005682,0 0,0.0799005682 0,0.177556818 L0,15.4474432 C0,15.5450994 0.0799005682,15.625 0.177556818,15.625 L1.24289773,15.625 C1.34055398,15.625 1.42045455,15.5450994 1.42045455,15.4474432 L1.42045455,0.177556818 C1.42045455,0.0799005682 1.34055398,0 1.24289773,0 Z M19.7310014,0 L18.6656605,0 C18.5680043,0 18.4881037,0.0799005682 18.4881037,0.177556818 L18.4881037,15.4474432 C18.4881037,15.5450994 18.5680043,15.625 18.6656605,15.625 L19.7310014,15.625 C19.8286577,15.625 19.9085582,15.5450994 19.9085582,15.4474432 L19.9085582,0.177556818 C19.9085582,0.0799005682 19.8286577,0 19.7310014,0 Z M3.01846591,12.7840909 L5.50426136,12.7840909 C5.60191761,12.7840909 5.68181818,12.7041903 5.68181818,12.6065341 L5.68181818,0.177556818 C5.68181818,0.0799005682 5.60191761,0 5.50426136,0 L3.01846591,0 C2.92080966,0 2.84090909,0.0799005682 2.84090909,0.177556818 L2.84090909,12.6065341 C2.84090909,12.7041903 2.92080966,12.7840909 3.01846591,12.7840909 Z M10.1429332,12.7840909 L11.2082741,12.7840909 C11.3059304,12.7840909 11.385831,12.7041903 11.385831,12.6065341 L11.385831,0.177556818 C11.385831,0.0799005682 11.3059304,0 11.2082741,0 L10.1429332,0 C10.045277,0 9.96537642,0.0799005682 9.96537642,0.177556818 L9.96537642,12.6065341 C9.96537642,12.7041903 10.045277,12.7840909 10.1429332,12.7840909 Z M12.9394531,12.7840909 L16.8900923,12.7840909 C16.9877486,12.7840909 17.0676491,12.7041903 17.0676491,12.6065341 L17.0676491,0.177556818 C17.0676491,0.0799005682 16.9877486,0 16.8900923,0 L12.9394531,0 C12.8417969,0 12.7618963,0.0799005682 12.7618963,0.177556818 L12.7618963,12.6065341 C12.7618963,12.7041903 12.8417969,12.7840909 12.9394531,12.7840909 Z M7.27982955,12.7840909 L8.34517045,12.7840909 C8.4428267,12.7840909 8.52272727,12.7041903 8.52272727,12.6065341 L8.52272727,0.177556818 C8.52272727,0.0799005682 8.4428267,0 8.34517045,0 L7.27982955,0 C7.1821733,0 7.10227273,0.0799005682 7.10227273,0.177556818 L7.10227273,12.6065341 C7.10227273,12.7041903 7.1821733,12.7840909 7.27982955,12.7840909 Z M5.52645597,14.2045455 L3.04066051,14.2045455 C2.94300426,14.2045455 2.86310369,14.284446 2.86310369,14.3821023 L2.86310369,15.4474432 C2.86310369,15.5450994 2.94300426,15.625 3.04066051,15.625 L5.52645597,15.625 C5.62411222,15.625 5.70401278,15.5450994 5.70401278,15.4474432 L5.70401278,14.3821023 C5.70401278,14.284446 5.62411222,14.2045455 5.52645597,14.2045455 Z M11.2304688,14.2045455 L10.1651278,14.2045455 C10.0674716,14.2045455 9.98757102,14.284446 9.98757102,14.3821023 L9.98757102,15.4474432 C9.98757102,15.5450994 10.0674716,15.625 10.1651278,15.625 L11.2304688,15.625 C11.328125,15.625 11.4080256,15.5450994 11.4080256,15.4474432 L11.4080256,14.3821023 C11.4080256,14.284446 11.328125,14.2045455 11.2304688,14.2045455 Z M16.9122869,14.2045455 L12.9616477,14.2045455 C12.8639915,14.2045455 12.7840909,14.284446 12.7840909,14.3821023 L12.7840909,15.4474432 C12.7840909,15.5450994 12.8639915,15.625 12.9616477,15.625 L16.9122869,15.625 C17.0099432,15.625 17.0898438,15.5450994 17.0898438,15.4474432 L17.0898438,14.3821023 C17.0898438,14.284446 17.0099432,14.2045455 16.9122869,14.2045455 Z M8.36736506,14.2045455 L7.30202415,14.2045455 C7.2043679,14.2045455 7.12446733,14.284446 7.12446733,14.3821023 L7.12446733,15.4474432 C7.12446733,15.5450994 7.2043679,15.625 7.30202415,15.625 L8.36736506,15.625 C8.46502131,15.625 8.54492188,15.5450994 8.54492188,15.4474432 L8.54492188,14.3821023 C8.54492188,14.284446 8.46502131,14.2045455 8.36736506,14.2045455 Z" id="形状"></path>
        </g>
    </g>
</svg>