<svg width="24" height="24" viewBox="0 0 24 24" fill="none" xmlns="http://www.w3.org/2000/svg">
<path d="M3.2429 4H2.17756C2.0799 4 2 4.0799 2 4.17756V19.4474C2 19.5451 2.0799 19.625 2.17756 19.625H3.2429C3.34055 19.625 3.42045 19.5451 3.42045 19.4474V4.17756C3.42045 4.0799 3.34055 4 3.2429 4ZM21.731 4H20.6657C20.568 4 20.4881 4.0799 20.4881 4.17756V19.4474C20.4881 19.5451 20.568 19.625 20.6657 19.625H21.731C21.8287 19.625 21.9086 19.5451 21.9086 19.4474V4.17756C21.9086 4.0799 21.8287 4 21.731 4ZM5.01847 16.7841H7.50426C7.60192 16.7841 7.68182 16.7042 7.68182 16.6065V4.17756C7.68182 4.0799 7.60192 4 7.50426 4H5.01847C4.92081 4 4.84091 4.0799 4.84091 4.17756V16.6065C4.84091 16.7042 4.92081 16.7841 5.01847 16.7841ZM12.1429 16.7841H13.2083C13.3059 16.7841 13.3858 16.7042 13.3858 16.6065V4.17756C13.3858 4.0799 13.3059 4 13.2083 4H12.1429C12.0453 4 11.9654 4.0799 11.9654 4.17756V16.6065C11.9654 16.7042 12.0453 16.7841 12.1429 16.7841ZM14.9395 16.7841H18.8901C18.9877 16.7841 19.0676 16.7042 19.0676 16.6065V4.17756C19.0676 4.0799 18.9877 4 18.8901 4H14.9395C14.8418 4 14.7619 4.0799 14.7619 4.17756V16.6065C14.7619 16.7042 14.8418 16.7841 14.9395 16.7841ZM9.27983 16.7841H10.3452C10.4428 16.7841 10.5227 16.7042 10.5227 16.6065V4.17756C10.5227 4.0799 10.4428 4 10.3452 4H9.27983C9.18217 4 9.10227 4.0799 9.10227 4.17756V16.6065C9.10227 16.7042 9.18217 16.7841 9.27983 16.7841ZM7.52646 18.2045H5.04066C4.943 18.2045 4.8631 18.2844 4.8631 18.3821V19.4474C4.8631 19.5451 4.943 19.625 5.04066 19.625H7.52646C7.62411 19.625 7.70401 19.5451 7.70401 19.4474V18.3821C7.70401 18.2844 7.62411 18.2045 7.52646 18.2045ZM13.2305 18.2045H12.1651C12.0675 18.2045 11.9876 18.2844 11.9876 18.3821V19.4474C11.9876 19.5451 12.0675 19.625 12.1651 19.625H13.2305C13.3281 19.625 13.408 19.5451 13.408 19.4474V18.3821C13.408 18.2844 13.3281 18.2045 13.2305 18.2045ZM18.9123 18.2045H14.9616C14.864 18.2045 14.7841 18.2844 14.7841 18.3821V19.4474C14.7841 19.5451 14.864 19.625 14.9616 19.625H18.9123C19.0099 19.625 19.0898 19.5451 19.0898 19.4474V18.3821C19.0898 18.2844 19.0099 18.2045 18.9123 18.2045ZM10.3674 18.2045H9.30202C9.20437 18.2045 9.12447 18.2844 9.12447 18.3821V19.4474C9.12447 19.5451 9.20437 19.625 9.30202 19.625H10.3674C10.465 19.625 10.5449 19.5451 10.5449 19.4474V18.3821C10.5449 18.2844 10.465 18.2045 10.3674 18.2045Z" fill="white"/>
</svg>
