<svg width="32" height="32" viewBox="0 0 32 32" fill="none" xmlns="http://www.w3.org/2000/svg">
<path d="M5.4921 6H4.21316C4.09592 6 4 6.09592 4 6.21316V24.5447C4 24.6619 4.09592 24.7578 4.21316 24.7578H5.4921C5.60934 24.7578 5.70526 24.6619 5.70526 24.5447V6.21316C5.70526 6.09592 5.60934 6 5.4921 6ZM27.6871 6H26.4081C26.2909 6 26.195 6.09592 26.195 6.21316V24.5447C26.195 24.6619 26.2909 24.7578 26.4081 24.7578H27.6871C27.8043 24.7578 27.9002 24.6619 27.9002 24.5447V6.21316C27.9002 6.09592 27.8043 6 27.6871 6ZM7.62367 21.3473H10.6079C10.7251 21.3473 10.821 21.2514 10.821 21.1342V6.21316C10.821 6.09592 10.7251 6 10.6079 6H7.62367C7.50644 6 7.41051 6.09592 7.41051 6.21316V21.1342C7.41051 21.2514 7.50644 21.3473 7.62367 21.3473ZM16.1766 21.3473H17.4555C17.5728 21.3473 17.6687 21.2514 17.6687 21.1342V6.21316C17.6687 6.09592 17.5728 6 17.4555 6H16.1766C16.0594 6 15.9634 6.09592 15.9634 6.21316V21.1342C15.9634 21.2514 16.0594 21.3473 16.1766 21.3473ZM19.5338 21.3473H24.2766C24.3938 21.3473 24.4897 21.2514 24.4897 21.1342V6.21316C24.4897 6.09592 24.3938 6 24.2766 6H19.5338C19.4166 6 19.3207 6.09592 19.3207 6.21316V21.1342C19.3207 21.2514 19.4166 21.3473 19.5338 21.3473ZM12.7394 21.3473H14.0184C14.1356 21.3473 14.2315 21.2514 14.2315 21.1342V6.21316C14.2315 6.09592 14.1356 6 14.0184 6H12.7394C12.6222 6 12.5263 6.09592 12.5263 6.21316V21.1342C12.5263 21.2514 12.6222 21.3473 12.7394 21.3473ZM10.6345 23.0526H7.65032C7.53308 23.0526 7.43716 23.1485 7.43716 23.2657V24.5447C7.43716 24.6619 7.53308 24.7578 7.65032 24.7578H10.6345C10.7518 24.7578 10.8477 24.6619 10.8477 24.5447V23.2657C10.8477 23.1485 10.7518 23.0526 10.6345 23.0526ZM17.4822 23.0526H16.2032C16.086 23.0526 15.9901 23.1485 15.9901 23.2657V24.5447C15.9901 24.6619 16.086 24.7578 16.2032 24.7578H17.4822C17.5994 24.7578 17.6953 24.6619 17.6953 24.5447V23.2657C17.6953 23.1485 17.5994 23.0526 17.4822 23.0526ZM24.3032 23.0526H19.5605C19.4432 23.0526 19.3473 23.1485 19.3473 23.2657V24.5447C19.3473 24.6619 19.4432 24.7578 19.5605 24.7578H24.3032C24.4205 24.7578 24.5164 24.6619 24.5164 24.5447V23.2657C24.5164 23.1485 24.4205 23.0526 24.3032 23.0526ZM14.045 23.0526H12.7661C12.6489 23.0526 12.5529 23.1485 12.5529 23.2657V24.5447C12.5529 24.6619 12.6489 24.7578 12.7661 24.7578H14.045C14.1623 24.7578 14.2582 24.6619 14.2582 24.5447V23.2657C14.2582 23.1485 14.1623 23.0526 14.045 23.0526Z" fill="#1C879C"/>
</svg>
