<svg width="16" height="16" viewBox="0 0 16 16" fill="none" xmlns="http://www.w3.org/2000/svg">
<path d="M12.6035 5.18667H9.00016V2.89667C9.00016 2.74726 8.94081 2.60398 8.83517 2.49833C8.72952 2.39269 8.58623 2.33334 8.43683 2.33334H3.39683C3.24742 2.33334 3.10414 2.39269 2.99849 2.49833C2.89285 2.60398 2.8335 2.74726 2.8335 2.89667V13.5H13.1668V5.75C13.1668 5.6006 13.1075 5.45731 13.0018 5.35167C12.8962 5.24602 12.7529 5.18667 12.6035 5.18667ZM8.00016 12.5H3.8335V3.33334H8.00016V12.5ZM12.1668 12.5H9.00016V6.18667H12.1668V12.5Z" fill="#333333"/>
<path d="M7.16683 5.33334H4.8335V6.16667H7.16683V5.33334Z" fill="#333333"/>
<path d="M7.16683 7.5H4.8335V8.33333H7.16683V7.5Z" fill="#333333"/>
<path d="M7.16683 9.66666H4.8335V10.5H7.16683V9.66666Z" fill="#333333"/>
</svg>
