<svg width="24" height="24" viewBox="0 0 24 24" fill="none" xmlns="http://www.w3.org/2000/svg">
<path d="M4.1875 19.6923V6.84091C4.1846 6.32559 4.51439 5.86722 5.00391 5.70619L13.2999 3.0706C13.6572 2.95753 14.047 3.02078 14.3502 3.24104C14.6534 3.4613 14.8341 3.81242 14.8371 4.18718V5.17017L20.1528 8.21314C20.5163 8.4263 20.7416 8.81432 20.7465 9.2357V19.6923H21.3403C21.6682 19.6923 21.934 19.9581 21.934 20.2861C21.934 20.614 21.6682 20.8798 21.3403 20.8798H3.59375C3.26583 20.8798 3 20.614 3 20.2861C3 19.9581 3.26583 19.6923 3.59375 19.6923H4.1875ZM14.8305 19.6923H19.5524V9.2357L14.8305 6.53414V19.6906V19.6923ZM7.73516 10.8306C7.41125 10.8341 7.14851 11.0939 7.14141 11.4177V12.0115C7.14141 12.2236 7.25457 12.4196 7.43828 12.5257C7.62199 12.6317 7.84832 12.6317 8.03203 12.5257C8.21574 12.4196 8.32891 12.2236 8.32891 12.0115V11.4177C8.32528 11.0924 8.06051 10.8306 7.73516 10.8306ZM10.6825 10.8306C10.3585 10.8341 10.0958 11.0939 10.0887 11.4177V12.0115C10.0887 12.3394 10.3545 12.6052 10.6825 12.6052C11.0104 12.6052 11.2762 12.3394 11.2762 12.0115V11.4177C11.2764 11.2564 11.2103 11.1021 11.0933 10.9911C10.9763 10.88 10.8188 10.822 10.6577 10.8306H10.6825ZM7.73518 13.7911C7.41126 13.7946 7.14852 14.0544 7.14143 14.3782V14.972C7.14143 15.2999 7.40726 15.5657 7.73518 15.5657C8.06309 15.5657 8.32893 15.2999 8.32893 14.972V14.3782C8.32531 14.0529 8.06054 13.7911 7.73518 13.7911ZM10.6825 13.7911C10.3586 13.7946 10.0958 14.0544 10.0887 14.3782V14.972C10.0887 15.2999 10.3546 15.5657 10.6825 15.5657C11.0104 15.5657 11.2762 15.2999 11.2762 14.972V14.3782C11.2765 14.2169 11.2103 14.0626 11.0933 13.9516C10.9763 13.8405 10.8188 13.7825 10.6577 13.7911H10.6825ZM7.73518 16.7434C7.40874 16.7469 7.14499 17.0107 7.14143 17.3371V17.9309C7.14143 18.2588 7.40726 18.5246 7.73518 18.5246C8.06309 18.5246 8.32893 18.2588 8.32893 17.9309V17.3371C8.32893 17.0092 8.06309 16.7434 7.73518 16.7434ZM10.6825 16.7434C10.356 16.7469 10.0923 17.0107 10.0887 17.3371V17.9309C10.0887 18.2588 10.3546 18.5246 10.6825 18.5246C11.0104 18.5246 11.2762 18.2588 11.2762 17.9309V17.3371C11.2783 17.1747 11.2129 17.0186 11.0957 16.9061C10.9785 16.7936 10.82 16.7347 10.6577 16.7434H10.6825ZM10.6577 7.88163C10.3338 7.88511 10.0711 8.14493 10.064 8.46877V9.06252C10.064 9.39044 10.3298 9.65627 10.6577 9.65627C10.9857 9.65627 11.2515 9.39044 11.2515 9.06252V8.46877C11.2533 8.31135 11.1911 8.15993 11.0792 8.04923C10.9672 7.93853 10.8151 7.87804 10.6577 7.88163Z" fill="#0C6B7E"/>
<path d="M17.2813 10.6327C17.7185 10.6327 18.073 10.8985 18.073 11.2265V11.8202V11.8185C18.073 12.1465 17.7185 12.4123 17.2813 12.4123C16.8441 12.4123 16.4897 12.1465 16.4897 11.8185V11.2248C16.4944 10.8984 16.8461 10.6346 17.2813 10.631V10.6327ZM17.2813 13.5932C17.7185 13.5932 18.073 13.859 18.073 14.187V14.7724C18.073 15.1004 17.7185 15.3662 17.2813 15.3662C16.8441 15.3662 16.4897 15.1004 16.4897 14.7724V14.187C16.4944 13.8605 16.8461 13.5968 17.2813 13.5932ZM17.2813 16.5537C17.7151 16.5537 18.0682 16.8155 18.073 17.1409V17.7346C18.073 18.0625 17.7185 18.3284 17.2813 18.3284C16.8441 18.3284 16.4897 18.0625 16.4897 17.7346V17.1409C16.4945 16.8155 16.8475 16.5537 17.2813 16.5537Z" fill="#0C6B7E"/>
</svg>
