<svg width="48" height="48" viewBox="0 0 48 48" fill="none" xmlns="http://www.w3.org/2000/svg">
<g clip-path="url(#clip0)">
<g filter="url(#filter0_d)">
<path fill-rule="evenodd" clip-rule="evenodd" d="M25.48 25.05L25.39 25C24.86 24.47 24.63 24.39 24.54 24.16C24.5123 23.8506 24.5123 23.5394 24.54 23.23C24.5363 21.7781 24.9645 20.3579 25.77 19.15C29.1792 16.1799 29.9214 11.1711 27.52 7.34C27.3693 7.0981 27.2057 6.86443 27.03 6.64C27.0282 6.60785 27.0179 6.57677 27 6.55C26.9 6.42 26.81 6.29 26.71 6.17L26.46 5.91L26.4 5.85C26.2 5.64333 25.99 5.44333 25.77 5.25C25.54 5.06 25.31 4.87 25.07 4.7H25.01C24.79 4.55 24.55 4.4 24.32 4.27L24.19 4.2C23.9805 4.07939 23.7634 3.9725 23.54 3.88L23.34 3.79C23.14 3.7 22.94 3.63 22.74 3.56L22.39 3.4L21.85 3.25L21.5 3.18C21.34 3.18 21.17 3.12 21 3.09H20.61H20.14H19.28H18.82H18.42L17.92 3.18L17.57 3.25L17 3.4L16.72 3.49C16.5194 3.55622 16.3225 3.633 16.13 3.72C16.0854 3.74817 16.0421 3.7782 16 3.81C15.7767 3.9025 15.5595 4.00939 15.35 4.13L15.23 4.2C14.99 4.33 14.76 4.48 14.53 4.63H14.48C14.23 4.8 14 4.99 13.77 5.18C13.5449 5.367 13.3311 5.56736 13.13 5.78L13 5.91L12.74 6.17C12.64 6.29 12.55 6.42 12.45 6.55C12.4454 6.5731 12.4454 6.59689 12.45 6.62C12.2743 6.84443 12.1108 7.0781 11.96 7.32C9.54945 11.1455 10.2835 16.1566 13.69 19.13C14.4956 20.3379 14.9237 21.7581 14.92 23.21C14.9477 23.5194 14.9477 23.8306 14.92 24.14C14.83 24.37 14.6 24.45 14.07 24.98L13.98 25.05C13.33 25.56 10.34 26.17 5.04001 26.88V36.07H24.23L24.94 35.42L25.02 34.88L23.91 32.88L23.55 32.43H8.68001V30.08C10.7623 29.8334 12.8134 29.3709 14.8 28.7V28.78C15.2634 28.5798 15.6974 28.3174 16.09 28H16.2C16.2 28 17 27.41 17.3 27.11C17.6902 26.7212 17.9995 26.259 18.21 25.75C18.2787 25.5934 18.3388 25.4332 18.39 25.27C18.4669 25.0182 18.5237 24.7607 18.56 24.5C18.5881 24.0938 18.5881 23.6862 18.56 23.28C18.5629 21.1018 17.919 18.9718 16.71 17.16L16.43 16.75L16.05 16.42C15.7874 16.1891 15.5464 15.9347 15.33 15.66C15.2833 15.599 15.2399 15.5356 15.2 15.47C15.0212 15.2346 14.8639 14.9836 14.73 14.72V14.61C14.5916 14.3166 14.4779 14.0122 14.39 13.7C14.3088 13.3713 14.252 13.0371 14.22 12.7C14.1918 12.3673 14.1918 12.0327 14.22 11.7C14.2624 11.3606 14.336 11.0258 14.44 10.7V10.62C14.5426 10.3056 14.6731 10.0011 14.83 9.71L15 9.41C15.1616 9.13535 15.3456 8.87447 15.55 8.63L15.71 8.46C15.9042 8.25065 16.1113 8.05361 16.33 7.87L16.61 7.68C16.8103 7.53486 17.0208 7.40452 17.24 7.29L17.57 7.14C17.7809 7.04527 17.9981 6.96508 18.22 6.9L18.63 6.81C18.8315 6.7662 19.0351 6.73283 19.24 6.71C19.4099 6.70002 19.5802 6.70002 19.75 6.71C19.9199 6.70002 20.0902 6.70002 20.26 6.71C20.47 6.71 20.67 6.77 20.88 6.81C21.09 6.85 21.15 6.81 21.28 6.9C21.5019 6.96508 21.7191 7.04527 21.93 7.14L22.26 7.29C22.4792 7.40452 22.6898 7.53486 22.89 7.68L23.17 7.87C23.391 8.05102 23.5983 8.24823 23.79 8.46L23.95 8.63C24.1544 8.87447 24.3384 9.13535 24.5 9.41L24.57 9.52C24.7269 9.81108 24.8574 10.1156 24.96 10.43V10.51C25.0689 10.8345 25.1427 11.1697 25.18 11.51C25.2083 11.8427 25.2083 12.1773 25.18 12.51C25.1574 12.8482 25.1004 13.1833 25.01 13.51C24.9249 13.8231 24.8111 14.1278 24.67 14.42C24.6515 14.4558 24.6348 14.4925 24.62 14.53C24.4859 14.7913 24.3321 15.042 24.16 15.28L24.02 15.47C23.8064 15.7471 23.5652 16.0018 23.3 16.23L22.92 16.56L22.65 16.97C21.4375 18.7807 20.7901 20.9108 20.79 23.09C20.7619 23.4962 20.7619 23.9038 20.79 24.31C20.8298 24.571 20.89 24.8284 20.97 25.08C21.0177 25.243 21.0745 25.4033 21.14 25.56C21.3541 26.067 21.663 26.5286 22.05 26.92C22.33 27.2 23.05 27.72 23.14 27.8L23.26 27.88C23.6445 28.188 24.0682 28.4436 24.52 28.64C24.52 28.64 24.61 28.64 24.62 28.64C25.2737 28.8598 25.942 29.0335 26.62 29.16L28.36 29.23L28.8 28.91L29.44 26.7L29.52 26.25C26.23 25.89 26 25.45 25.48 25.05Z" fill="#515050"/>
<path fill-rule="evenodd" clip-rule="evenodd" d="M26.43 41.7L26.75 42.14L26.7 43.42H5V39.75H23.9L24.21 41.05L26.43 41.7Z" fill="#515050"/>
<path d="M41.2 36.94L42.61 35.64L42.09 33.51L40.27 33L39.27 31.61L39.34 29.7L37.49 28.55L35.81 29.47L34.12 29.19L32.82 27.79L30.69 28.3L30.15 30.13L28.76 31.13L26.84 31L25.69 32.9L26.61 34.57L26.33 36.27L24.93 37.57L25.44 39.7L27.28 40.23L28.28 41.62L28.21 43.53L30.07 44.68L31.75 43.76L33.44 44.04L34.74 45.44L36.87 44.93L37.4 43.1L38.78 42.1L40.7 42.17L41.85 40.31L40.93 38.63L41.2 36.94ZM33.77 40.78C31.4682 40.7525 29.6218 38.869 29.6401 36.5671C29.6584 34.2651 31.5345 32.4113 33.8365 32.4203C36.1384 32.4294 37.9998 34.298 38 36.6C38 38.9085 36.1285 40.78 33.82 40.78H33.77Z" fill="#515050"/>
<path d="M35.64 36.6C35.64 37.3604 35.182 38.0459 34.4794 38.3369C33.7769 38.6279 32.9683 38.467 32.4306 37.9294C31.893 37.3917 31.7321 36.5831 32.0231 35.8806C32.3141 35.178 32.9996 34.72 33.76 34.72C34.2603 34.72 34.7401 34.9194 35.0929 35.2742C35.4458 35.6289 35.6427 36.1097 35.64 36.61V36.6Z" fill="#515050"/>
</g>
</g>
<defs>
<filter id="filter0_d" x="3" y="3.09" width="41.61" height="46.35" filterUnits="userSpaceOnUse" color-interpolation-filters="sRGB">
<feFlood flood-opacity="0" result="BackgroundImageFix"/>
<feColorMatrix in="SourceAlpha" type="matrix" values="0 0 0 0 0 0 0 0 0 0 0 0 0 0 0 0 0 0 127 0"/>
<feOffset dy="2"/>
<feGaussianBlur stdDeviation="1"/>
<feColorMatrix type="matrix" values="0 0 0 0 0 0 0 0 0 0 0 0 0 0 0 0 0 0 0.102382 0"/>
<feBlend mode="normal" in2="BackgroundImageFix" result="effect1_dropShadow"/>
<feBlend mode="normal" in="SourceGraphic" in2="effect1_dropShadow" result="shape"/>
</filter>
<clipPath id="clip0">
<rect width="48" height="48" fill="white"/>
</clipPath>
</defs>
</svg>
