<svg width="32" height="32" viewBox="0 0 32 32" fill="none" xmlns="http://www.w3.org/2000/svg">
<path d="M16.0334 10.08C17.2926 10.08 18.3134 9.05923 18.3134 7.80002C18.3134 6.54081 17.2926 5.52002 16.0334 5.52002C14.7742 5.52002 13.7534 6.54081 13.7534 7.80002C13.7534 9.05923 14.7742 10.08 16.0334 10.08Z" fill="#666666"/>
<path d="M16.0334 18.28C17.2926 18.28 18.3134 17.2592 18.3134 16C18.3134 14.7408 17.2926 13.72 16.0334 13.72C14.7742 13.72 13.7534 14.7408 13.7534 16C13.7534 17.2592 14.7742 18.28 16.0334 18.28Z" fill="#666666"/>
<path d="M15.9668 26.4799C17.226 26.4799 18.2468 25.4591 18.2468 24.1999C18.2468 22.9407 17.226 21.9199 15.9668 21.9199C14.7076 21.9199 13.6868 22.9407 13.6868 24.1999C13.6868 25.4591 14.7076 26.4799 15.9668 26.4799Z" fill="#666666"/>
</svg>
