<svg width="32" height="32" viewBox="0 0 32 32" fill="none" xmlns="http://www.w3.org/2000/svg">
<path d="M28 7.77777H4V23.7778H28V7.77777Z" stroke="#1C879C" stroke-width="3"/>
<path d="M10.1216 13.5144V18.6H8.7072V11.6632H10.6L13.356 16.832V11.6632H14.76V18.6H12.9504L10.1216 13.5144ZM19.2192 11.6216C19.9126 11.6216 20.5227 11.7395 21.0496 11.9752C21.6667 12.2595 22.1 12.7344 22.3496 13.4C22.5438 13.92 22.6408 14.5301 22.6408 15.2304C22.6408 15.9376 22.523 16.5512 22.2872 17.0712C21.9891 17.6883 21.5315 18.1216 20.9144 18.3712C20.4568 18.5515 19.9299 18.6416 19.3336 18.6416C18.5502 18.6416 17.8707 18.496 17.2952 18.2048C16.8099 17.9621 16.439 17.5808 16.1824 17.0608C15.9259 16.5408 15.7976 15.9099 15.7976 15.168C15.7976 13.8437 16.127 12.9008 16.7856 12.3392C17.3403 11.8677 18.1515 11.6285 19.2192 11.6216ZM19.2296 12.7864C18.5502 12.7864 18.0648 13.0083 17.7736 13.452C17.5379 13.7987 17.42 14.3568 17.42 15.1264C17.42 15.9376 17.5656 16.5339 17.8568 16.9152C18.148 17.2896 18.6091 17.4768 19.24 17.4768C19.8502 17.4768 20.2974 17.2861 20.5816 16.9048C20.8728 16.5235 21.0184 15.9341 21.0184 15.1368C21.0184 14.4088 20.9006 13.8541 20.6648 13.4728C20.3944 13.0221 19.916 12.7933 19.2296 12.7864ZM24.7591 17.248V18.6H23.5007V17.248H24.7591Z" fill="#1C879C"/>
</svg>
