<svg width="24" height="24" viewBox="0 0 24 24" fill="none" xmlns="http://www.w3.org/2000/svg">
<path d="M20.9116 13.1342C21.5401 13.1342 21.8544 13.4485 21.8544 14.0769V20.9116C21.8544 21.5401 21.5401 21.8544 20.9116 21.8544H14.0769C13.4485 21.8544 13.1342 21.5401 13.1342 20.9116V14.0769C13.1342 13.4485 13.4485 13.1342 14.0769 13.1342H20.9116ZM6.53519 13.7234V17.1408L9.245 17.14L9.24551 15.6089L11.9664 18.3298L9.24551 21.0507L9.245 19.497L5.91418 19.4976C4.9558 19.4969 4.17905 18.7202 4.1784 17.7618V13.7234H6.53519ZM10.7774 3C11.4059 3 11.7201 3.31424 11.7201 3.94272V10.7774C11.7201 11.4059 11.4059 11.7201 10.7774 11.7201H3.94272C3.31424 11.7201 3 11.4059 3 10.7774V3.94272C3 3.31424 3.31424 3 3.94272 3H10.7774ZM15.491 9.26672L12.7701 6.5458L15.491 3.82488L15.491 5.356L18.9402 5.3568C19.8986 5.35745 20.6753 6.1342 20.676 7.09258V11.1309H18.3192V7.71359L15.491 7.713L15.491 9.26672Z" fill="#0C6B7E"/>
</svg>
