<?xml version="1.0" encoding="UTF-8"?>
<svg width="9px" height="12px" viewBox="0 0 9 12" version="1.1" xmlns="http://www.w3.org/2000/svg" xmlns:xlink="http://www.w3.org/1999/xlink">
    <title>图标_部门备份</title>
    <g id="领料单平台" stroke="none" stroke-width="1" fill="none" fill-rule="evenodd">
        <g id="领料执行_待发出" transform="translate(-273.000000, -289.000000)" fill="#999999" fill-rule="nonzero">
            <g id="编组-5备份-4" transform="translate(224.000000, 243.000000)">
                <g id="编组" transform="translate(49.000000, 46.000000)">
                    <path d="M8.84765625,2.86090353 L6.10648777,0.119735054 C6.03006114,0.0433084239 5.92688519,0 5.81861413,0 L0.407608696,0 C0.182150136,0 0,0.182150136 0,0.407608696 L0,11.0054348 C0,11.2308933 0.182150136,11.4130435 0.407608696,11.4130435 L8.55978261,11.4130435 C8.78524117,11.4130435 8.9673913,11.2308933 8.9673913,11.0054348 L8.9673913,3.15005095 C8.9673913,3.04177989 8.92408288,2.93733016 8.84765625,2.86090353 Z M8.02734375,3.3372962 L5.63009511,3.3372962 L5.63009511,0.940047554 L8.02734375,3.3372962 Z M8.05027174,10.4959239 L0.917119565,10.4959239 L0.917119565,0.917119565 L4.76392663,0.917119565 L4.76392663,3.66847826 C4.76392663,3.96399457 5.00339674,4.20346467 5.29891304,4.20346467 L8.05027174,4.20346467 L8.05027174,10.4959239 Z" id="形状"></path>
                    <path d="M4.38179348,7.05672554 L2.03804348,7.05672554 C1.98199728,7.05672554 1.9361413,7.10258152 1.9361413,7.15862772 L1.9361413,7.77004076 C1.9361413,7.82608696 1.98199728,7.87194293 2.03804348,7.87194293 L4.38179348,7.87194293 C4.43783967,7.87194293 4.48369565,7.82608696 4.48369565,7.77004076 L4.48369565,7.15862772 C4.48369565,7.10258152 4.43783967,7.05672554 4.38179348,7.05672554 Z M1.9361413,5.42629076 L1.9361413,6.0377038 C1.9361413,6.09375 1.98199728,6.13960598 2.03804348,6.13960598 L6.92934783,6.13960598 C6.98539402,6.13960598 7.03125,6.09375 7.03125,6.0377038 L7.03125,5.42629076 C7.03125,5.37024457 6.98539402,5.32438859 6.92934783,5.32438859 L2.03804348,5.32438859 C1.98199728,5.32438859 1.9361413,5.37024457 1.9361413,5.42629076 Z" id="形状"></path>
                </g>
            </g>
        </g>
    </g>
</svg>