<svg width="16" height="16" viewBox="0 0 16 16" fill="none" xmlns="http://www.w3.org/2000/svg">
<path d="M10.9998 3.33333V2.5C10.9998 2.36739 10.9472 2.24021 10.8534 2.14645C10.7596 2.05268 10.6324 2 10.4998 2H5.53317C5.40056 2 5.27339 2.05268 5.17962 2.14645C5.08585 2.24021 5.03317 2.36739 5.03317 2.5V3.33333H3.1665C3.0339 3.33333 2.90672 3.38601 2.81295 3.47978C2.71918 3.57355 2.6665 3.70072 2.6665 3.83333V13.8333C2.6665 13.9659 2.71918 14.0931 2.81295 14.1869C2.90672 14.2807 3.0339 14.3333 3.1665 14.3333H12.8332C12.9658 14.3333 13.093 14.2807 13.1867 14.1869C13.2805 14.0931 13.3332 13.9659 13.3332 13.8333V3.83333C13.3332 3.70072 13.2805 3.57355 13.1867 3.47978C13.093 3.38601 12.9658 3.33333 12.8332 3.33333H10.9998ZM6.03317 3H9.99984V4.31333H6.03317V3ZM12.3332 13.3333H3.6665V4.33333H5.03317V4.81333C5.03317 4.94594 5.08585 5.07312 5.17962 5.16689C5.27339 5.26065 5.40056 5.31333 5.53317 5.31333H10.4998C10.6324 5.31333 10.7596 5.26065 10.8534 5.16689C10.9472 5.07312 10.9998 4.94594 10.9998 4.81333V4.33333H12.3332V13.3333Z" fill="#333333"/>
<path d="M10.6668 7.33334H5.3335V8.33334H10.6668V7.33334Z" fill="#333333"/>
<path d="M8.00016 9.66666H5.3335V10.6667H8.00016V9.66666Z" fill="#333333"/>
</svg>
