<svg width="24" height="24" viewBox="0 0 24 24" fill="none" xmlns="http://www.w3.org/2000/svg">
<path d="M16.5 5V3.75C16.5 3.55109 16.421 3.36032 16.2803 3.21967C16.1397 3.07902 15.9489 3 15.75 3H8.3C8.10109 3 7.91032 3.07902 7.76967 3.21967C7.62902 3.36032 7.55 3.55109 7.55 3.75V5H4.75C4.55109 5 4.36032 5.07902 4.21967 5.21967C4.07902 5.36032 4 5.55109 4 5.75V20.75C4 20.9489 4.07902 21.1397 4.21967 21.2803C4.36032 21.421 4.55109 21.5 4.75 21.5H19.25C19.4489 21.5 19.6397 21.421 19.7803 21.2803C19.921 21.1397 20 20.9489 20 20.75V5.75C20 5.55109 19.921 5.36032 19.7803 5.21967C19.6397 5.07902 19.4489 5 19.25 5H16.5ZM9.05 4.5H15V6.47H9.05V4.5ZM18.5 20H5.5V6.5H7.55V7.22C7.55 7.41891 7.62902 7.60968 7.76967 7.75033C7.91032 7.89098 8.10109 7.97 8.3 7.97H15.75C15.9489 7.97 16.1397 7.89098 16.2803 7.75033C16.421 7.60968 16.5 7.41891 16.5 7.22V6.5H18.5V20Z" fill="white" fill-opacity="0.6"/>
<path d="M16 11H8V12.5H16V11Z" fill="white" fill-opacity="0.6"/>
<path d="M12 14.5H8V16H12V14.5Z" fill="white" fill-opacity="0.6"/>
</svg>
