<svg width="16" height="16" viewBox="0 0 16 16" fill="none" xmlns="http://www.w3.org/2000/svg">
<path d="M13.2468 9.33334H12.3335V7.64667C12.3335 7.56357 12.3005 7.48387 12.2417 7.42511C12.183 7.36635 12.1033 7.33334 12.0202 7.33334H8.61016V6.66667H9.58016C9.67909 6.66667 9.77705 6.64718 9.86845 6.60933C9.95985 6.57147 10.0429 6.51598 10.1128 6.44602C10.1828 6.37607 10.2383 6.29302 10.2762 6.20162C10.314 6.11023 10.3335 6.01226 10.3335 5.91334V3.08667C10.3335 2.88687 10.2541 2.69526 10.1128 2.55398C9.97157 2.4127 9.77996 2.33334 9.58016 2.33334H6.7535C6.5537 2.33334 6.36209 2.4127 6.22081 2.55398C6.07953 2.69526 6.00016 2.88687 6.00016 3.08667V5.91334C6.00016 6.11313 6.07953 6.30475 6.22081 6.44602C6.36209 6.5873 6.5537 6.66667 6.7535 6.66667H7.61016V7.33334H4.2035C4.12039 7.33334 4.0407 7.36635 3.98194 7.42511C3.92317 7.48387 3.89016 7.56357 3.89016 7.64667V9.33334H3.08683C2.9879 9.33334 2.88994 9.35282 2.79854 9.39068C2.70714 9.42854 2.6241 9.48403 2.55414 9.55398C2.48419 9.62394 2.4287 9.70698 2.39084 9.79838C2.35298 9.88978 2.3335 9.98774 2.3335 10.0867V12.9133C2.3335 13.1131 2.41286 13.3047 2.55414 13.446C2.69542 13.5873 2.88703 13.6667 3.08683 13.6667H5.9135C6.11329 13.6667 6.30491 13.5873 6.44618 13.446C6.58746 13.3047 6.66683 13.1131 6.66683 12.9133V10.0867C6.66683 9.98774 6.64734 9.88978 6.60949 9.79838C6.57163 9.70698 6.51614 9.62394 6.44618 9.55398C6.37623 9.48403 6.29318 9.42854 6.20178 9.39068C6.11039 9.35282 6.01243 9.33334 5.9135 9.33334H4.89016V8.33334H11.3335V9.33334H10.4202C10.3212 9.33334 10.2233 9.35282 10.1319 9.39068C10.0405 9.42854 9.95743 9.48403 9.88748 9.55398C9.81752 9.62394 9.76203 9.70698 9.72417 9.79838C9.68632 9.88978 9.66683 9.98774 9.66683 10.0867V12.9133C9.66683 13.1131 9.7462 13.3047 9.88748 13.446C10.0288 13.5873 10.2204 13.6667 10.4202 13.6667H13.2468C13.4466 13.6667 13.6382 13.5873 13.7795 13.446C13.9208 13.3047 14.0002 13.1131 14.0002 12.9133V10.0867C14.0002 9.98774 13.9807 9.88978 13.9428 9.79838C13.905 9.70698 13.8495 9.62394 13.7795 9.55398C13.7096 9.48403 13.6265 9.42854 13.5351 9.39068C13.4437 9.35282 13.3458 9.33334 13.2468 9.33334ZM7.00016 5.66667V3.33334H9.3335V5.66667H7.00016ZM5.66683 12.6667H3.3335V10.3333H5.66683V12.6667ZM13.0002 12.6667H10.6668V10.3333H13.0002V12.6667Z" fill="#333333"/>
</svg>
