<?xml version="1.0" encoding="UTF-8"?>
<svg width="14px" height="14px" viewBox="0 0 14 14" version="1.1" xmlns="http://www.w3.org/2000/svg" xmlns:xlink="http://www.w3.org/1999/xlink">
    <title>图标_合格数量</title>
    <g id="图标_合格数量" stroke="none" stroke-width="1" fill="none" fill-rule="evenodd">
        <g id="编组" transform="translate(3.000000, 2.000000)" fill="#999999" fill-rule="nonzero">
            <path d="M3.89263937,0 L0.194631969,0 C0.0875843859,0 0,0.087890625 0,0.1953125 L0,3.90625 C0,4.01367188 0.0875843859,4.1015625 0.194631969,4.1015625 L3.89263937,4.1015625 C3.99968696,4.1015625 4.08727134,4.01367188 4.08727134,3.90625 L4.08727134,0.1953125 C4.08727134,0.087890625 3.99968696,0 3.89263937,0 Z M3.26008547,3.27148437 L0.827185867,3.27148437 L0.827185867,0.830078125 L3.26008547,0.830078125 L3.26008547,3.27148437 Z M8.75843859,0 L5.06043118,0 C4.9533836,0 4.86579922,0.087890625 4.86579922,0.1953125 L4.86579922,3.90625 C4.86579922,4.01367188 4.9533836,4.1015625 5.06043118,4.1015625 L8.75843859,4.1015625 C8.86548617,4.1015625 8.95307056,4.01367188 8.95307056,3.90625 L8.95307056,0.1953125 C8.95307056,0.087890625 8.86548617,0 8.75843859,0 Z M8.12588469,3.27148437 L5.69298508,3.27148437 L5.69298508,0.830078125 L8.12588469,0.830078125 L8.12588469,3.27148437 Z M3.89263937,4.8828125 L0.194631969,4.8828125 C0.0875843859,4.8828125 0,4.97070313 0,5.078125 L0,8.7890625 C0,8.89648438 0.0875843859,8.984375 0.194631969,8.984375 L3.89263937,8.984375 C3.99968696,8.984375 4.08727134,8.89648438 4.08727134,8.7890625 L4.08727134,5.078125 C4.08727134,4.97070313 3.99968696,4.8828125 3.89263937,4.8828125 Z M3.26008547,8.15429688 L0.827185867,8.15429688 L0.827185867,5.71289062 L3.26008547,5.71289062 L3.26008547,8.15429688 Z M8.75843859,4.8828125 L5.06043118,4.8828125 C4.9533836,4.8828125 4.86579922,4.97070313 4.86579922,5.078125 L4.86579922,8.7890625 C4.86579922,8.89648438 4.9533836,8.984375 5.06043118,8.984375 L8.75843859,8.984375 C8.86548617,8.984375 8.95307056,8.89648438 8.95307056,8.7890625 L8.95307056,5.078125 C8.95307056,4.97070313 8.86548617,4.8828125 8.75843859,4.8828125 Z M8.12588469,8.15429688 L5.69298508,8.15429688 L5.69298508,5.71289062 L8.12588469,5.71289062 L8.12588469,8.15429688 Z" id="形状"></path>
        </g>
    </g>
</svg>