<svg width="49" height="49" viewBox="0 0 49 49" fill="none" xmlns="http://www.w3.org/2000/svg">
<g clip-path="url(#clip0)">
<path d="M24 5V5.3C27.6972 5.29409 31.3132 6.38428 34.3911 8.43281C37.4689 10.4813 39.8704 13.3963 41.2921 16.8092C42.7138 20.2222 43.0919 23.98 42.3786 27.6077C41.6653 31.2355 39.8926 34.5704 37.2846 37.191C34.6765 39.8117 31.3502 41.6004 27.7259 42.3311C24.1016 43.0618 20.342 42.7018 16.9222 41.2965C13.5025 39.8913 10.5761 37.5038 8.51275 34.4359C6.44944 31.3679 5.34187 27.7572 5.33 24.06C5.32733 19.1021 7.29158 14.3456 10.7917 10.8341C14.2919 7.32274 19.0421 5.34324 24 5.33V5ZM24 5C18.9609 5 14.1282 7.00178 10.565 10.565C7.00178 14.1282 5 18.9609 5 24C5 29.0391 7.00178 33.8718 10.565 37.435C14.1282 40.9982 18.9609 43 24 43C29.0391 43 33.8718 40.9982 37.435 37.435C40.9982 33.8718 43 29.0391 43 24C43 18.9609 40.9982 14.1282 37.435 10.565C33.8718 7.00178 29.0391 5 24 5Z" fill="#C1BFBF"/>
<path d="M24 43C20.2422 43 16.5687 41.8857 13.4442 39.7979C10.3196 37.7102 7.88435 34.7428 6.44629 31.271C5.00822 27.7992 4.63196 23.9789 5.36508 20.2933C6.0982 16.6077 7.90777 13.2222 10.565 10.565C13.2222 7.90778 16.6076 6.09821 20.2933 5.36509C23.9789 4.63197 27.7992 5.00823 31.271 6.4463C34.7428 7.88436 37.7102 10.3196 39.7979 13.4442C41.8857 16.5687 43 20.2422 43 24C43 29.0391 40.9982 33.8718 37.435 37.435C33.8718 40.9982 29.0391 43 24 43ZM24 8.00001C20.8355 8.00001 17.7421 8.93839 15.1109 10.6965C12.4797 12.4546 10.4289 14.9535 9.21793 17.8771C8.00693 20.8007 7.69007 24.0178 8.30744 27.1215C8.9248 30.2251 10.4487 33.0761 12.6863 35.3137C14.9239 37.5514 17.7749 39.0752 20.8786 39.6926C23.9823 40.3099 27.1993 39.9931 30.1229 38.7821C33.0466 37.5711 35.5454 35.5203 37.3035 32.8891C39.0616 30.2579 40 27.1645 40 24C40 19.7565 38.3143 15.6869 35.3137 12.6863C32.3131 9.68572 28.2435 8.00001 24 8.00001Z" fill="#333333"/>
<path d="M21.53 17.03H18.53V31.03H21.53V17.03Z" fill="#333333"/>
<path d="M29.53 17.03H26.53V31.03H29.53V17.03Z" fill="#333333"/>
</g>
<defs>
<clipPath id="clip0">
<rect width="48.07" height="48.07" fill="white"/>
</clipPath>
</defs>
</svg>
