<svg width="48" height="48" viewBox="0 0 48 48" fill="none" xmlns="http://www.w3.org/2000/svg">
<g filter="url(#filter0_d)">
<path d="M36.7036 38.8852C33.3951 41.9573 28.9051 43.8479 23.9424 43.8479C18.9797 43.8479 14.4897 41.9573 11.1812 38.8852C12.8354 38.4125 14.017 36.9946 14.2533 35.3404C16.8528 37.7036 20.1613 39.1215 23.7061 39.1215C27.2509 39.1215 30.7956 37.7036 33.1588 35.3404C33.8678 36.9946 35.0494 38.4125 36.7036 38.8852ZM41.6663 31.323C40.9573 30.3777 39.5394 29.6688 38.1215 29.6688H37.1762C37.6489 28.2509 38.1215 26.5966 38.1215 24.9424C38.1215 18.3255 33.6315 12.8902 27.7235 11.2359C28.1961 10.527 28.6688 9.5817 28.6688 8.40011C28.6688 7.69115 28.4324 7.21852 28.1961 6.50956C36.7036 8.40011 42.8479 15.9623 42.8479 24.9424C42.8479 27.3056 42.3752 29.4324 41.6663 31.323ZM6.21852 31.323C5.50956 29.4324 5.03693 27.3056 5.03693 24.9424C5.03693 15.9623 11.1812 8.40011 19.6887 6.50956C19.4523 7.21852 19.216 7.69115 19.216 8.40011C19.216 9.5817 19.6887 10.527 20.1613 11.2359C14.2533 12.8902 9.76329 18.3255 9.76329 24.9424C9.76329 26.5966 9.99961 28.2509 10.7086 29.6688H9.76329C8.34538 29.6688 6.92747 30.3777 6.21852 31.323ZM23.9424 10.7633C22.5245 10.7633 21.5792 9.81802 21.5792 8.40011C21.5792 6.9822 22.5245 6.03693 23.9424 6.03693C25.3603 6.03693 26.3056 6.9822 26.3056 8.40011C26.3056 9.81802 25.3603 10.7633 23.9424 10.7633ZM9.76329 36.7583C8.34538 36.7583 7.40011 35.813 7.40011 34.3951C7.40011 32.9772 8.34538 32.032 9.76329 32.032C11.1812 32.032 12.1265 32.9772 12.1265 34.3951C12.1265 35.813 11.1812 36.7583 9.76329 36.7583ZM38.1215 36.7583C36.7036 36.7583 35.7583 35.813 35.7583 34.3951C35.7583 32.9772 36.7036 32.032 38.1215 32.032C39.5394 32.032 40.4847 32.9772 40.4847 34.3951C40.4847 35.813 39.5394 36.7583 38.1215 36.7583Z" fill="#505050"/>
</g>
<defs>
<filter id="filter0_d" x="3.03693" y="6.03693" width="41.8109" height="41.8109" filterUnits="userSpaceOnUse" color-interpolation-filters="sRGB">
<feFlood flood-opacity="0" result="BackgroundImageFix"/>
<feColorMatrix in="SourceAlpha" type="matrix" values="0 0 0 0 0 0 0 0 0 0 0 0 0 0 0 0 0 0 127 0"/>
<feOffset dy="2"/>
<feGaussianBlur stdDeviation="1"/>
<feColorMatrix type="matrix" values="0 0 0 0 0 0 0 0 0 0 0 0 0 0 0 0 0 0 0.102382 0"/>
<feBlend mode="normal" in2="BackgroundImageFix" result="effect1_dropShadow"/>
<feBlend mode="normal" in="SourceGraphic" in2="effect1_dropShadow" result="shape"/>
</filter>
</defs>
</svg>
