<svg width="32" height="32" viewBox="0 0 32 32" fill="none" xmlns="http://www.w3.org/2000/svg">
<rect width="32" height="32" fill="white"/>
<g clip-path="url(#clip0)">
<path d="M29.4035 6.36879C29.0063 5.57447 28.6092 4.78014 28.0134 4.1844C26.6234 2.79433 25.2333 2.19858 23.4461 2C21.6588 2.19858 20.2688 2.79433 18.8787 3.98582L17.29 5.77305C16.8929 5.97163 16.6943 6.36879 16.6943 6.96454C16.6943 7.3617 16.8929 7.75887 17.29 8.15603C17.4886 8.55319 17.8858 8.55319 18.4815 8.55319C19.0773 8.55319 19.2758 8.55319 19.673 8.15603L21.4602 6.36879C22.056 5.77305 22.8503 5.57447 23.6446 5.57447C24.439 5.57447 25.0347 6.17021 25.6305 6.56738C25.829 6.76596 26.2262 7.16312 26.2262 7.56028C26.4248 7.95745 26.4248 8.35461 26.4248 8.75177C26.4248 9.14894 26.4248 9.5461 26.2262 9.94326C26.0276 10.3404 25.829 10.7376 25.6305 10.9362L19.8716 16.4965C18.6801 17.8865 17.6872 18.2837 17.0915 18.0851C16.4957 17.8865 15.9 17.6879 15.7014 17.2908C15.3042 17.0922 14.9071 16.8936 14.5099 16.8936C14.1127 16.8936 13.517 17.0922 13.3184 17.4894C12.9212 17.6879 12.7227 18.0851 12.7227 18.6809C12.7227 19.2766 12.9212 19.4752 13.3184 19.8723C13.9141 20.4681 14.5099 20.8652 15.1056 21.0638C15.7014 21.2624 16.4957 21.461 17.0915 21.461C17.8858 21.461 18.8787 21.2624 19.673 20.8652C20.4673 20.4681 21.4602 19.8723 22.2546 18.8794L27.8149 13.5177C28.4106 12.922 28.8078 12.1277 29.2049 11.3333C29.6021 10.539 29.8007 9.74468 29.8007 8.95036C29.8007 7.95745 29.6021 7.16312 29.4035 6.36879Z" fill="#999999"/>
<path d="M13.3191 23.8458C12.922 23.8458 12.5248 24.0444 12.1277 24.243L10.7376 25.6331C10.1418 26.2288 9.34752 26.4274 8.55319 26.4274C7.75887 26.4274 6.96454 26.2288 6.36879 25.6331C6.17021 25.4345 5.77305 25.0373 5.77305 24.6401C5.57447 24.243 5.57447 23.8458 5.57447 23.4487C5.57447 23.0515 5.57447 22.6543 5.77305 22.2572C5.97163 21.86 6.17021 21.4628 6.36879 21.2643L11.5319 16.1011C12.1277 15.5054 12.7234 15.1082 13.7163 14.5125C14.5106 14.1153 15.305 14.3139 16.0993 15.1082C16.4965 15.5054 16.8936 15.5054 17.2908 15.5054C17.6879 15.5054 18.0851 15.3068 18.4823 14.9097C18.8794 14.5125 19.078 14.1153 19.078 13.7182C19.078 13.321 18.8794 12.9238 18.4823 12.5267C17.2908 11.3352 15.7021 10.7394 14.1135 10.938C12.3262 11.1366 10.7376 12.1295 9.14894 13.7182L3.98582 18.8813C3.39007 19.477 2.79433 20.2714 2.59574 21.0657C2.39716 21.86 2 22.6543 2 23.4487C2 24.243 2.19858 25.2359 2.59574 26.0302C2.99291 26.8245 3.39007 27.4203 3.98582 28.016C4.58156 28.6118 5.37589 29.2075 6.17021 29.4061C6.96454 29.6047 7.75887 30.0018 8.55319 30.0018C9.34752 30.0018 10.1418 29.8033 10.9362 29.6047C11.9291 29.2075 12.5248 28.8104 13.1206 28.016L14.5106 26.626C14.9078 26.2288 15.1064 25.8316 15.1064 25.4345C15.1064 25.0373 14.9078 24.6401 14.5106 24.243C14.3121 23.8458 13.9149 23.8458 13.3191 23.8458Z" fill="#999999"/>
</g>
<defs>
<clipPath id="clip0">
<rect width="28" height="28" fill="white" transform="translate(2 2)"/>
</clipPath>
</defs>
</svg>
