<svg width="24" height="24" viewBox="0 0 24 24" fill="none" xmlns="http://www.w3.org/2000/svg">
<path d="M18.9124 18.0325C18.4663 17.7336 17.8628 17.4752 17.1187 17.2643C16.4234 17.0673 15.6184 16.9148 14.7461 16.8117C14.9624 16.4898 15.1732 16.1642 15.3784 15.8352C16.2072 14.5056 16.8691 13.2289 17.3456 12.0407C17.9559 10.5189 18.2654 9.12928 18.2654 7.91046C18.2654 7.10904 18.097 6.33173 17.7647 5.60011C17.4456 4.89733 16.9898 4.26718 16.41 3.72714C15.8337 3.1904 15.1636 2.76935 14.418 2.47564C13.6489 2.1727 12.8327 2.01904 11.9922 2.01904C11.1517 2.01904 10.3355 2.1727 9.56637 2.47567C8.82087 2.76935 8.15065 3.1904 7.57441 3.72714C6.99461 4.26718 6.5388 4.89733 6.2197 5.60011C5.88745 6.33173 5.719 7.10904 5.719 7.91046C5.719 9.1293 6.02845 10.5189 6.63878 12.0407C7.11532 13.229 7.77719 14.5056 8.60601 15.8352C8.81129 16.1643 9.02211 16.4899 9.23841 16.8118C8.36681 16.915 7.56238 17.0674 6.86751 17.2643C6.12341 17.4752 5.51994 17.7336 5.07383 18.0325C4.19561 18.6208 4.01126 19.3035 4.01126 19.7726C4.01126 20.2416 4.19561 20.9243 5.07381 21.5127C5.51991 21.8115 6.12339 22.07 6.86751 22.2808C8.25259 22.6733 10.0729 22.8895 11.9931 22.8895C13.9133 22.8895 15.7337 22.6733 17.1187 22.2808C17.8628 22.07 18.4663 21.8115 18.9124 21.5127C19.7906 20.9243 19.975 20.2416 19.975 19.7726C19.975 19.3035 19.7906 18.6208 18.9124 18.0325ZM11.9922 5.15393C13.5355 5.15393 14.787 6.40535 14.787 7.94866C14.787 9.49199 13.5355 10.7434 11.9922 10.7434C10.4489 10.7434 9.19745 9.49199 9.19745 7.94866C9.19745 6.40535 10.4489 5.15393 11.9922 5.15393ZM11.9931 21.6962C8.24382 21.6962 5.20445 20.835 5.20445 19.7726C5.20445 18.9046 7.23356 18.171 10.021 17.9315C10.8171 19.027 11.4123 19.7202 11.45 19.764L11.9922 20.3927L12.5344 19.764C12.5721 19.7202 13.1673 19.0269 13.9636 17.9314C16.7518 18.1707 18.7817 18.9044 18.7817 19.7726C18.7817 20.835 15.7423 21.6962 11.9931 21.6962Z" fill="#0C6B7E"/>
</svg>
