<svg width="48" height="48" viewBox="0 0 48 48" fill="none" xmlns="http://www.w3.org/2000/svg">
<g clip-path="url(#clip0)">
<g filter="url(#filter0_d)">
<path fill-rule="evenodd" clip-rule="evenodd" d="M24.48 25.05L24.39 25C23.86 24.47 23.63 24.39 23.54 24.16C23.5123 23.8506 23.5123 23.5394 23.54 23.23C23.5363 21.7781 23.9644 20.3579 24.77 19.15C28.1792 16.1799 28.9214 11.1711 26.52 7.34C26.3692 7.0981 26.2057 6.86443 26.03 6.64C26.0282 6.60785 26.0179 6.57677 26 6.55C25.9 6.42 25.81 6.29 25.71 6.17L25.46 5.91L25.4 5.85C25.2 5.64333 24.99 5.44333 24.77 5.25C24.54 5.06 24.31 4.87 24.07 4.7H24.01C23.79 4.55 23.55 4.4 23.32 4.27L23.19 4.2C22.9805 4.07939 22.7634 3.9725 22.54 3.88L22.34 3.79C22.14 3.7 21.94 3.63 21.74 3.56L21.39 3.4L20.85 3.25L20.5 3.18C20.34 3.18 20.17 3.12 20 3.09H19.61H19.14H18.28H17.82H17.42L16.92 3.18L16.57 3.25L16 3.4L15.72 3.49C15.5194 3.55622 15.3225 3.633 15.13 3.72C15.0854 3.74817 15.0421 3.7782 15 3.81C14.7766 3.9025 14.5595 4.00939 14.35 4.13L14.23 4.2C13.99 4.33 13.76 4.48 13.53 4.63H13.48C13.23 4.8 13 4.99 12.77 5.18C12.5448 5.367 12.3311 5.56736 12.13 5.78L12 5.91L11.74 6.17C11.64 6.29 11.55 6.42 11.45 6.55C11.4454 6.5731 11.4454 6.59689 11.45 6.62C11.2743 6.84443 11.1107 7.0781 10.96 7.32C8.54944 11.1455 9.28349 16.1566 12.69 19.13C13.4955 20.3379 13.9237 21.7581 13.92 23.21C13.9477 23.5194 13.9477 23.8306 13.92 24.14C13.83 24.37 13.6 24.45 13.07 24.98L12.98 25.05C12.33 25.56 9.33999 26.17 4.03999 26.88V36.07H15.17V32.4H7.67999V30.08C9.71823 29.8526 11.7284 29.4204 13.68 28.79H13.79C14.2579 28.5883 14.6954 28.3224 15.09 28H15.2C15.2 28 16 27.41 16.3 27.11C16.6902 26.7212 16.9995 26.259 17.21 25.75C17.2787 25.5934 17.3388 25.4332 17.39 25.27C17.4668 25.0182 17.5237 24.7607 17.56 24.5C17.5881 24.0938 17.5881 23.6862 17.56 23.28C17.5629 21.1018 16.919 18.9718 15.71 17.16L15.43 16.75L15.05 16.42C14.7873 16.1891 14.5463 15.9347 14.33 15.66C14.2833 15.599 14.2399 15.5356 14.2 15.47C14.0212 15.2346 13.8639 14.9836 13.73 14.72V14.61C13.5916 14.3166 13.4779 14.0122 13.39 13.7C13.3088 13.3713 13.2519 13.0371 13.22 12.7C13.1917 12.3673 13.1917 12.0327 13.22 11.7C13.2624 11.3606 13.336 11.0258 13.44 10.7V10.62C13.5426 10.3056 13.6731 10.0011 13.83 9.71L14 9.41C14.1616 9.13535 14.3456 8.87447 14.55 8.63L14.71 8.46C14.9042 8.25065 15.1113 8.05361 15.33 7.87L15.61 7.68C15.8102 7.53486 16.0208 7.40452 16.24 7.29L16.57 7.14C16.7809 7.04527 16.9981 6.96508 17.22 6.9L17.63 6.81C17.8315 6.7662 18.0351 6.73283 18.24 6.71C18.4098 6.70002 18.5801 6.70002 18.75 6.71C18.9198 6.70002 19.0901 6.70002 19.26 6.71C19.47 6.71 19.67 6.77 19.88 6.81C20.09 6.85 20.15 6.81 20.28 6.9C20.5019 6.96508 20.7191 7.04527 20.93 7.14L21.26 7.29C21.4792 7.40452 21.6897 7.53486 21.89 7.68L22.17 7.87C22.391 8.05102 22.5982 8.24823 22.79 8.46L22.95 8.63C23.1544 8.87447 23.3384 9.13535 23.5 9.41L23.57 9.52C23.7269 9.81108 23.8574 10.1156 23.96 10.43V10.51C24.0689 10.8345 24.1427 11.1697 24.18 11.51C24.2082 11.8427 24.2082 12.1773 24.18 12.51C24.1574 12.8482 24.1004 13.1833 24.01 13.51C23.9249 13.8231 23.811 14.1278 23.67 14.42C23.6514 14.4558 23.6348 14.4925 23.62 14.53C23.4859 14.7913 23.3321 15.042 23.16 15.28L23.02 15.47C22.8064 15.7471 22.5652 16.0018 22.3 16.23L21.92 16.56L21.65 16.97C20.4375 18.7807 19.7901 20.9108 19.79 23.09C19.7619 23.4962 19.7619 23.9038 19.79 24.31C19.8298 24.571 19.89 24.8284 19.97 25.08C20.0177 25.243 20.0745 25.4033 20.14 25.56C20.3541 26.067 20.663 26.5286 21.05 26.92C21.33 27.2 22.05 27.72 22.14 27.8L22.26 27.88C22.6445 28.188 23.0682 28.4436 23.52 28.64C25.1092 29.3566 26.793 29.8415 28.52 30.08L29.65 30.26H33.32V26.88C28.0867 26.1733 25.14 25.5633 24.48 25.05Z" fill="#515050"/>
<path d="M15.17 39.75H4V43.42H15.17V39.75Z" fill="#515050"/>
<path d="M44.35 31.56V45.33H16.31V31.56H44.35ZM22.902 34.396H18.906V42.4H20.61V39.604H23.346C24.042 39.604 24.042 39.604 24.444 39.484C24.846 39.364 24.846 39.364 25.206 39.052C25.602 38.704 25.602 38.704 25.824 38.158C26.046 37.612 26.046 37.612 26.046 37C26.046 36.268 26.046 36.268 25.71 35.644C25.254 34.816 25.254 34.816 24.462 34.552C24.046 34.4133 24.046 34.4133 23.137 34.3979L22.902 34.396ZM30.642 34.348C28.806 34.348 28.806 34.348 27.834 35.176C26.694 36.16 26.694 36.16 26.694 38.44C26.694 39.748 26.694 39.748 27.174 40.684C27.81 41.908 27.81 41.908 29.154 42.22C29.67 42.34 29.67 42.34 30.042 42.37C30.414 42.4 30.414 42.4 31.422 42.4H35.07V40.972H33.714C34.602 39.88 34.602 39.88 34.602 38.344C34.602 37.348 34.602 37.348 34.254 36.4C34.038 35.788 34.038 35.788 33.678 35.404C33.318 35.02 33.318 35.02 32.754 34.756C31.854 34.348 31.854 34.348 30.642 34.348ZM42.282 34.396H39.57C38.37 34.396 38.37 34.396 37.608 34.732C36.846 35.068 36.846 35.068 36.39 35.8C35.766 36.808 35.766 36.808 35.766 38.416C35.766 39.76 35.766 39.76 36.174 40.672C36.798 42.028 36.798 42.028 38.274 42.316C38.634 42.388 38.634 42.388 39.2673 42.3983L39.486 42.4H42.282V40.972H39.834C38.814 40.972 38.814 40.972 38.334 40.588C37.65 40.036 37.65 40.036 37.65 38.26C37.65 36.94 37.65 36.94 38.094 36.436C38.5692 35.8852 38.5692 35.8852 39.5401 35.8301L39.762 35.824H42.282V34.396ZM30.654 35.692C31.794 35.704 31.794 35.704 32.286 36.484C32.718 37.192 32.718 37.192 32.718 38.32C32.718 39.556 32.718 39.556 32.358 40.204C31.89 41.056 31.89 41.056 30.666 41.056C29.358 41.056 29.358 41.056 28.914 40.132C28.578 39.424 28.578 39.424 28.578 38.284C28.578 36.976 28.578 36.976 29.088 36.334C29.598 35.692 29.598 35.692 30.654 35.692ZM22.962 35.824C23.406 35.824 23.406 35.824 23.61 35.908C24.174 36.136 24.174 36.136 24.174 36.94C24.174 37.684 24.174 37.684 23.802 37.984C23.55 38.176 23.55 38.176 22.926 38.176H20.61V35.824H22.962Z" fill="#515050"/>
</g>
</g>
<defs>
<filter id="filter0_d" x="2" y="3.09" width="44.35" height="46.24" filterUnits="userSpaceOnUse" color-interpolation-filters="sRGB">
<feFlood flood-opacity="0" result="BackgroundImageFix"/>
<feColorMatrix in="SourceAlpha" type="matrix" values="0 0 0 0 0 0 0 0 0 0 0 0 0 0 0 0 0 0 127 0"/>
<feOffset dy="2"/>
<feGaussianBlur stdDeviation="1"/>
<feColorMatrix type="matrix" values="0 0 0 0 0 0 0 0 0 0 0 0 0 0 0 0 0 0 0.102382 0"/>
<feBlend mode="normal" in2="BackgroundImageFix" result="effect1_dropShadow"/>
<feBlend mode="normal" in="SourceGraphic" in2="effect1_dropShadow" result="shape"/>
</filter>
<clipPath id="clip0">
<rect width="48" height="48" fill="white"/>
</clipPath>
</defs>
</svg>
