<svg width="24" height="24" viewBox="0 0 24 24" fill="none" xmlns="http://www.w3.org/2000/svg">
<path d="M13.5376 20.2393C13.2225 19.8924 12.9934 19.4713 12.8821 18.99C12.8274 18.7533 12.819 18.5408 12.8485 18.3863C12.8884 17.9552 13.151 17.5862 13.5334 17.3796C13.3275 17.2693 13.1342 17.0788 13.006 16.8402C12.8905 16.6296 12.8316 16.399 12.8316 16.1744C12.8316 16.1042 12.8359 16.042 12.838 16.0019C12.8674 15.7352 12.922 15.5346 12.88 15.7893C12.9472 15.4083 13.1069 15.0553 13.3296 14.7625L13.3233 14.0606C13.3233 14.0606 14.2163 13.3868 14.4958 11.2611C15.0547 11.4215 15.2417 10.6133 15.2732 10.0959C15.3047 9.59655 15.6031 8.04034 14.9202 8.17872C15.0589 7.13991 15.1681 6.19936 15.1198 5.70202C14.9496 3.95529 13.733 2.13436 10.659 2C8.0473 2.13436 6.35376 3.9573 6.18147 5.70202C6.13104 6.19936 6.2319 7.1379 6.37267 8.17872C5.6919 8.03834 5.98396 9.59655 6.01548 10.0959C6.04909 10.6113 6.2319 11.4235 6.79291 11.2631C7.07236 13.3888 7.96536 14.0666 7.96536 14.0666L7.94224 16.3268C7.94224 16.3268 7.37703 16.6677 4.99011 17.6483C4.28412 17.9371 3.85128 18.0735 3.54241 18.1457H3.48568C3.48568 18.1457 2.82801 18.278 1.94552 18.9338C1.05673 19.5976 1 20.48 1 20.48H13.9663L13.96 20.478C13.7225 20.3958 13.4809 20.2033 13.5376 20.2393ZM15.9272 13.7779C15.9272 13.8035 15.9372 13.8291 15.9472 13.8497C15.9572 13.8599 15.9572 13.8702 15.9672 13.8779C15.9572 13.8625 15.9472 13.842 15.9272 13.7779Z" fill="#0C6B7E"/>
<path d="M22.835 18.8203C22.8029 18.7945 22.7664 18.7686 22.7214 18.745C22.5327 18.6761 22.3805 18.5599 22.2668 18.4006C22.151 18.2392 22.0931 18.052 22.0931 17.8389V17.8303C22.0931 17.6087 22.1725 17.4042 22.2153 17.3762C22.344 17.1524 22.5477 16.9781 22.7471 16.9028C22.8265 16.8812 22.8951 16.8339 22.9444 16.7672C22.9916 16.7069 23.0087 16.623 22.9959 16.5175C22.9723 16.3346 22.923 16.1538 22.8501 15.9752C22.7771 15.7966 22.6935 15.661 22.6077 15.5792C22.5606 15.5276 22.4941 15.4931 22.419 15.4867C22.4062 15.4845 22.3933 15.4845 22.3805 15.4845C22.3268 15.4845 22.2754 15.4996 22.2346 15.5254C22.0459 15.6136 21.8422 15.6502 21.645 15.6352C21.4198 15.6287 21.2161 15.534 21.1218 15.4307C20.9524 15.2887 20.8344 15.0885 20.798 14.8604C20.7894 14.8044 20.783 14.7485 20.783 14.6904C20.783 14.5397 20.8151 14.3977 20.8366 14.346C20.8709 14.2879 20.8966 14.2234 20.9073 14.1524C20.9116 14.1373 20.9138 14.1201 20.9138 14.1029V14.0964C20.8537 13.9694 20.7851 13.8468 20.6779 13.7585C20.5943 13.6896 20.4999 13.6337 20.4013 13.5885C20.3005 13.5455 20.1976 13.5089 20.0946 13.483C19.9917 13.4572 19.8974 13.4465 19.8095 13.4465C19.7516 13.4465 19.6979 13.4723 19.7601 13.44C19.6636 13.4981 19.5843 13.5799 19.565 13.5605C19.5114 13.8016 19.3699 14.0103 19.1705 14.1524C19.0011 14.275 18.8081 14.3374 18.5894 14.3374H18.5722C18.3663 14.3374 18.1776 14.2643 18.034 14.1437C17.8774 14.0146 17.7638 13.8661 17.7145 13.7757C17.6995 13.681 17.6566 13.5971 17.5944 13.5304C17.5494 13.4766 17.4829 13.4508 17.4014 13.4508C17.3392 13.4508 17.2535 13.4615 17.1484 13.483C17.0412 13.5046 16.9318 13.539 16.8182 13.582C16.7045 13.6251 16.5995 13.681 16.5737 13.7112C16.4536 13.7628 16.3571 13.8575 16.3014 13.978C16.2885 14.0039 16.2821 14.034 16.2821 14.0641V14.0663C16.3057 14.1846 16.3314 14.3008 16.3421 14.4278C16.3464 14.4795 16.3507 14.5311 16.3507 14.5828C16.3507 14.7506 16.325 14.912 16.2993 14.9594C16.2778 15.1036 16.2113 15.2327 16.1599 15.2822C16.0141 15.4501 15.8104 15.5663 15.5745 15.6007C15.3708 15.6287 15.1756 15.605 14.987 15.5297C14.9312 15.5103 14.8797 15.4996 14.8326 15.4931C14.824 15.4931 14.8176 15.491 14.809 15.491C14.7618 15.491 14.7211 15.506 14.7854 15.4781C14.7446 15.4931 14.7125 15.5103 14.6889 15.5211C14.5645 15.6524 14.4466 15.7901 14.3694 15.9644C14.3287 16.0591 14.2965 16.156 14.2708 16.2571C14.245 16.3583 14.2343 16.4487 14.2343 16.5283C14.2343 16.6101 14.2557 16.6875 14.2901 16.7521C14.3287 16.8231 14.3737 16.8705 14.2 16.8167C14.4895 16.8791 14.7468 17.034 14.9398 17.2492C15.092 17.4128 15.1649 17.6043 15.1649 17.8239C15.1649 18.0477 15.0792 18.2521 14.9398 18.4049C14.7897 18.5793 14.6203 18.7019 14.4316 18.7794C14.3265 18.816 14.2643 18.9042 14.245 19.0398C14.2407 19.0721 14.2386 19.1044 14.2386 19.1367V19.1453C14.275 19.4487 14.3737 19.7328 14.5066 19.9243C14.5474 20.0233 14.6224 20.103 14.7189 20.146C14.7682 20.1675 14.8218 20.1804 14.8776 20.1804C14.9162 20.1804 14.9526 20.174 14.9848 20.1654C15.122 20.1223 15.2571 20.0965 15.3858 20.09C15.4072 20.09 15.4287 20.0879 15.4501 20.0879C15.5552 20.0879 15.6581 20.1008 15.6881 20.1116C15.8361 20.1288 15.969 20.1998 16.0355 20.2751C16.1835 20.4129 16.2842 20.6022 16.3057 20.8153C16.31 20.8497 16.3121 20.8863 16.3121 20.9208C16.3121 21.0628 16.28 21.1984 16.2371 21.2974C16.1899 21.377 16.162 21.4674 16.1577 21.5621C16.1577 21.6223 16.177 21.6783 16.1127 21.5556C16.1384 21.6159 16.1685 21.6697 16.1878 21.702C16.3336 21.8548 16.4987 21.9882 16.7024 22.0764C16.8117 22.1238 16.9211 22.1625 17.0069 22.1862C17.1077 22.2206 17.2149 22.2379 17.3264 22.24H17.3307C17.4057 22.24 17.4765 22.2206 17.5022 22.2034C17.5815 22.169 17.6437 22.1044 17.6266 22.1819C17.6845 21.9193 17.8303 21.6891 18.0361 21.5255C18.1905 21.3921 18.3921 21.3124 18.6129 21.3124H18.6258C18.8445 21.3124 19.0418 21.3921 19.0547 21.4265C19.2777 21.5642 19.4514 21.773 19.5457 22.0312L19.5371 21.9753C19.5543 22.0528 19.5993 22.1216 19.6594 22.1733C19.7087 22.2163 19.7623 22.24 19.7966 22.24C19.8931 22.24 19.9831 22.2249 20.0668 22.2056C20.2791 22.1539 20.4699 22.0807 20.5278 22.0183C20.6564 21.9774 20.7679 21.9 20.8516 21.7967C20.8945 21.7364 20.9202 21.6632 20.9202 21.5836C20.9202 21.5233 20.9052 21.4652 20.8816 21.4244C20.8194 21.2888 20.7851 21.1403 20.7851 20.981C20.7851 20.9315 20.7894 20.8842 20.7894 20.8971C20.8044 20.6647 20.9052 20.4559 21.0081 20.3655C21.0789 20.2622 21.1818 20.1826 21.1925 20.1826C21.3169 20.1288 21.452 20.0943 21.5935 20.0793C21.6257 20.075 21.66 20.075 21.6943 20.075C21.8444 20.0836 21.9923 20.103 22.1081 20.1352C22.1703 20.1611 22.2368 20.1761 22.2947 20.1783C22.3719 20.1761 22.4448 20.1568 22.4126 20.1632C22.537 20.1223 22.6421 20.0427 22.5992 20.0857C22.7814 19.8705 22.9101 19.6101 22.9658 19.3174C22.9766 19.2615 22.983 19.2055 22.983 19.1453C22.983 19.1065 22.9809 19.0699 22.9851 19.0829C22.9701 18.9795 22.9144 18.887 22.835 18.8203ZM20.62 18.2285C20.5364 18.6352 20.3369 18.9989 20.0582 19.283C19.6915 19.6575 19.1812 19.8877 18.6172 19.8877H18.6001C18.0361 19.8877 17.5279 19.6553 17.1613 19.283C16.9768 19.0936 16.831 18.8762 16.7238 18.6266C16.6166 18.3791 16.563 18.1122 16.563 17.8282V17.8153C16.563 17.5312 16.6209 17.2622 16.6531 17.2148C16.8332 16.6445 17.2535 16.1796 17.796 15.9429C18.0383 15.8353 18.3085 15.7772 18.5915 15.7772H18.6129C19.0354 15.7772 19.4278 15.9063 19.7558 16.1258C20.0775 16.3454 20.3348 16.6531 20.4956 17.0276C20.6028 17.2772 20.6564 17.5419 20.6564 17.826C20.6543 18.1122 20.6007 18.3791 20.62 18.2285Z" fill="#0C6B7E"/>
</svg>
