<svg width="24" height="24" viewBox="0 0 24 24" fill="none" xmlns="http://www.w3.org/2000/svg">
<path fill-rule="evenodd" clip-rule="evenodd" d="M4.78125 20.4529H19.4477V18.1758H4.78125V20.4529Z" fill="#9E9E9E"/>
<path fill-rule="evenodd" clip-rule="evenodd" d="M9.54785 8.77911H16.2057V6.50195H9.54785V8.77911Z" fill="#9E9E9E"/>
<path fill-rule="evenodd" clip-rule="evenodd" d="M13.2567 19.4794L11.0926 20.188L10.4338 18.1764L7.89919 10.4367L7.18555 8.25762L7.20099 8.25261C7.36965 8.49983 7.65372 8.66249 7.97483 8.66249C8.49086 8.66249 8.91079 8.24259 8.91079 7.72654C8.91079 7.71518 8.91059 7.70398 8.91001 7.69277L9.34962 7.54883L9.54762 8.15343L9.75218 8.77828L9.99823 9.52936L12.83 18.1764L13.2567 19.4794Z" fill="#9E9E9E"/>
<path fill-rule="evenodd" clip-rule="evenodd" d="M7.97504 8.66294C7.65392 8.66294 7.36985 8.50026 7.20119 8.25305C7.09891 8.10311 7.03908 7.9219 7.03908 7.72699C7.03908 7.21096 7.45901 6.79104 7.97504 6.79104C8.47968 6.79104 8.89246 7.19282 8.91022 7.69322C8.91079 7.70441 8.91099 7.7156 8.91099 7.72699C8.91099 8.24302 8.49106 8.66294 7.97504 8.66294ZM10.3933 6.50157C9.94517 5.62062 9.02928 5.01562 7.97504 5.01562C6.48002 5.01562 5.26367 6.23198 5.26367 7.72699C5.26367 9.19672 6.43911 10.397 7.89939 10.4372C7.92448 10.438 7.94976 10.4384 7.97504 10.4384C8.7786 10.4384 9.50151 10.0869 9.99843 9.52981C10.1957 9.30884 10.3572 9.05546 10.4741 8.77873C10.6108 8.4551 10.6864 8.09983 10.6864 7.72699C10.6864 7.28622 10.5806 6.86977 10.3933 6.50157Z" fill="#9E9E9E"/>
<mask id="mask0" mask-type="alpha" maskUnits="userSpaceOnUse" x="14" y="3" width="6" height="8">
<path d="M14.2793 3.95703H19.9584V10.8592H14.2793V3.95703Z" fill="white"/>
</mask>
<g mask="url(#mask0)">
<path fill-rule="evenodd" clip-rule="evenodd" d="M17.7304 10.8592C17.3167 10.8592 16.903 10.7018 16.5881 10.3868L14.7517 8.55041C14.1218 7.92057 14.1218 6.89569 14.7517 6.26584L16.5881 4.42941C17.218 3.79956 18.2428 3.79958 18.8727 4.42941L19.6462 5.20291C19.9853 5.54205 19.9853 6.09189 19.6462 6.43101C19.307 6.77012 18.7572 6.77014 18.418 6.43099L17.7304 5.74333L16.0656 7.40813L17.7304 9.07292L18.4759 8.32737C18.8151 7.98822 19.3649 7.98824 19.704 8.32735C20.0432 8.66647 20.0432 9.21631 19.7041 9.55545L18.8727 10.3868C18.5578 10.7018 18.1441 10.8592 17.7304 10.8592Z" fill="#9E9E9E"/>
</g>
</svg>
