<svg width="32" height="32" viewBox="0 0 32 32" fill="none" xmlns="http://www.w3.org/2000/svg">
<path fill-rule="evenodd" clip-rule="evenodd" d="M6.375 27.2711H25.9303V24.2349H6.375V27.2711Z" fill="#1C879C"/>
<path fill-rule="evenodd" clip-rule="evenodd" d="M12.7305 11.7041H21.6075V8.66785H12.7305V11.7041Z" fill="#1C879C"/>
<path fill-rule="evenodd" clip-rule="evenodd" d="M17.6759 25.9722L14.7905 26.9171L13.912 24.2349L10.5326 13.9154L9.58104 11.0098L9.60162 11.0032C9.82651 11.3328 10.2053 11.5497 10.6334 11.5497C11.3215 11.5497 11.8814 10.9898 11.8814 10.3017C11.8814 10.2866 11.8811 10.2717 11.8803 10.2567L12.4665 10.0648L12.7305 10.8709L13.0032 11.7041L13.3313 12.7055L17.107 24.2349L17.6759 25.9722Z" fill="#1C879C"/>
<path fill-rule="evenodd" clip-rule="evenodd" d="M10.6334 11.5497C10.2053 11.5497 9.8265 11.3328 9.60162 11.0032C9.46525 10.8032 9.38548 10.5616 9.38548 10.3017C9.38548 9.6137 9.94538 9.0538 10.6334 9.0538C11.3063 9.0538 11.8567 9.58951 11.8803 10.2567C11.8811 10.2716 11.8814 10.2866 11.8814 10.3017C11.8814 10.9898 11.3215 11.5497 10.6334 11.5497ZM13.8577 8.66784C13.2603 7.49324 12.0391 6.68658 10.6334 6.68658C8.64007 6.68658 7.01826 8.30839 7.01826 10.3017C7.01826 12.2614 8.58552 13.8618 10.5326 13.9153C10.566 13.9164 10.5997 13.9169 10.6334 13.9169C11.7048 13.9169 12.6687 13.4483 13.3313 12.7055C13.5942 12.4109 13.8096 12.073 13.9655 11.7041C14.1477 11.2726 14.2486 10.7989 14.2486 10.3017C14.2486 9.71405 14.1076 9.15878 13.8577 8.66784Z" fill="#1C879C"/>
<mask id="mask0" mask-type="alpha" maskUnits="userSpaceOnUse" x="19" y="5" width="8" height="10">
<path d="M19.0388 5.27573H26.6109V14.4787H19.0388V5.27573Z" fill="white"/>
</mask>
<g mask="url(#mask0)">
<path fill-rule="evenodd" clip-rule="evenodd" d="M23.6402 14.4787C23.0886 14.4787 22.5371 14.2687 22.1172 13.8488L19.6686 11.4002C18.8288 10.5604 18.8288 9.19394 19.6686 8.35414L22.1172 5.90556C22.957 5.06577 24.3235 5.06579 25.1633 5.90556L26.1946 6.9369C26.6468 7.38909 26.6468 8.12221 26.1946 8.57437C25.7424 9.02651 25.0093 9.02653 24.5571 8.57434L23.6402 7.65746L21.4205 9.87719L23.6402 12.0969L24.6343 11.1028C25.0865 10.6507 25.8196 10.6507 26.2718 11.1028C26.724 11.555 26.724 12.2881 26.2718 12.7403L25.1633 13.8488C24.7434 14.2687 24.1918 14.4787 23.6402 14.4787Z" fill="#1C879C"/>
</g>
</svg>
