<?xml version="1.0" encoding="UTF-8"?>
<svg width="11px" height="12px" viewBox="0 0 11 12" version="1.1" xmlns="http://www.w3.org/2000/svg" xmlns:xlink="http://www.w3.org/1999/xlink">
    <title>形状</title>
    <g id="供应总览" stroke="none" stroke-width="1" fill="none" fill-rule="evenodd">
        <g id="异常订单_核企侧_变更订单" transform="translate(-454.000000, -575.000000)" fill="#FF8B5E" fill-rule="nonzero">
            <g id="编组-4备份-4" transform="translate(209.000000, 547.000000)">
                <g id="编组-5" transform="translate(0.000000, 0.000000)">
                    <path d="M245.637865,28 C245.333717,28 245,28.2859831 245,28.6395545 L245,39.1884025 C245,39.5407066 245.326114,39.827957 245.629416,39.827957 C245.933564,39.827957 246.267281,39.5407066 246.267281,39.1884025 L246.267281,28.639977 C246.267281,28.2859831 245.941167,28 245.637865,28 Z M253.384754,28.8461213 C251.312327,28.8461213 251.312327,28 249.240745,28 C248.044009,28 247.120584,28.555914 247.120584,28.555914 L247.112135,34.8902074 C247.112135,34.8902074 248.044432,34.3351382 249.240323,34.3351382 C251.312327,34.3351382 251.312327,35.1812596 253.384332,35.1812596 C254.681605,35.1812596 255.983103,34.5032642 255.983103,34.5032642 L255.983103,28.1689708 C255.983103,28.1689708 254.681183,28.8456989 253.384754,28.8456989 L253.384754,28.8461213 Z" id="形状"></path>
                </g>
            </g>
        </g>
    </g>
</svg>