<svg width="52" height="49" viewBox="0 0 52 49" fill="none" xmlns="http://www.w3.org/2000/svg">
<g filter="url(#filter0_d)">
<path d="M29.31 13.25L30.49 12.79L29.4 12.13L29.32 10.88L28.37 11.7L27.14 11.38L27.64 12.55L26.95 13.62L28.22 13.52L29.03 14.49L29.31 13.25Z" fill="#4CAF50"/>
<path d="M24.31 35.25L25.49 34.78L24.4 34.13L24.32 32.88L23.37 33.7L22.14 33.38L22.64 34.55L21.95 35.62L23.22 35.52L24.03 36.49L24.31 35.25Z" fill="#4CAF50"/>
<path d="M40.36 20.43C40.26 20 40.14 19.57 40.01 19.16C39.8207 18.5791 39.5935 18.0112 39.33 17.46C38.3903 15.4859 37.0172 13.7493 35.313 12.3796C33.6089 11.0099 31.6176 10.0424 29.4875 9.54935C27.3575 9.05625 25.1436 9.0502 23.0109 9.53165C20.8782 10.0131 18.8816 10.9697 17.17 12.33C16.692 12.7082 16.2409 13.1192 15.82 13.56C15.4293 13.9689 15.0621 14.3996 14.72 14.85L15.8 15.1C16.1681 14.6477 16.5692 14.2232 17 13.83C17.4542 13.3921 17.9424 12.9908 18.46 12.63C19.9007 11.6263 21.5196 10.9068 23.23 10.51C25.2204 10.0499 27.2896 10.0499 29.28 10.51C31.1329 10.9382 32.8746 11.7528 34.3911 12.9005C35.9075 14.0481 37.1646 15.503 38.08 17.17C38.3863 17.7212 38.6471 18.2964 38.86 18.89C39.0719 19.4262 39.2424 19.9778 39.37 20.54L40.45 20.79C40.41 20.67 40.39 20.55 40.36 20.43ZM36.66 32.24C36.2859 32.6871 35.8852 33.1112 35.46 33.51C35.0037 33.9456 34.5157 34.3467 34 34.71C32.4454 35.8041 30.6775 36.5578 28.8117 36.9218C26.9459 37.2858 25.0243 37.252 23.1725 36.8226C21.3207 36.3931 19.5803 35.5777 18.0652 34.4296C16.5501 33.2815 15.2943 31.8266 14.38 30.16C14.0745 29.607 13.8105 29.0321 13.59 28.44C13.3859 27.9021 13.2189 27.3508 13.09 26.79L12 26.54C12 26.66 12 26.79 12.07 26.91C12.17 27.34 12.29 27.77 12.42 28.18C13.4632 31.4267 15.6248 34.1979 18.52 36C19.8792 36.8579 21.3736 37.48 22.94 37.84C25.0763 38.3269 27.2951 38.3244 29.4304 37.8326C31.5656 37.3408 33.5619 36.3724 35.27 35C35.746 34.623 36.1969 34.2155 36.62 33.78C37.0155 33.3755 37.383 32.9445 37.72 32.49L36.66 32.24Z" fill="#4CAF50"/>
<path d="M46.5 20.66C46.4266 20.118 46.3231 19.5805 46.19 19.05C45.3271 15.3097 43.4308 11.8869 40.7173 9.17184C38.0038 6.45675 34.5822 4.55849 30.8424 3.69337C27.1026 2.82824 23.1949 3.03105 19.5647 4.27868C15.9346 5.52631 12.7278 7.76858 10.31 10.75C9.95351 11.1685 9.6197 11.6058 9.31 12.06C7.86653 14.1601 6.83492 16.5151 6.27 19V19.09C5.70123 21.5768 5.60961 24.149 6 26.67C6.0734 27.212 6.1769 27.7495 6.31 28.28C7.16956 32.0213 9.06331 35.4457 11.7752 38.1625C14.4872 40.8794 17.9081 42.7794 21.6478 43.6458C25.3875 44.5122 29.2954 44.31 32.9258 43.0625C36.5562 41.8149 39.7628 39.5722 42.18 36.59C42.53 36.17 42.86 35.73 43.18 35.28C44.5833 33.2464 45.6003 30.9718 46.18 28.57L46.28 28.14C46.82 25.6823 46.8946 23.1452 46.5 20.66ZM43.38 33.8L39.84 33C39.5324 33.4557 39.1985 33.8931 38.84 34.31C38.4703 34.7515 38.0763 35.1721 37.66 35.57C35.683 37.4766 33.2606 38.8585 30.6132 39.59C27.9658 40.3215 25.1775 40.3793 22.5021 39.7581C19.8267 39.137 17.3491 37.8566 15.2948 36.0336C13.2405 34.2105 11.6747 31.9026 10.74 29.32C10.5307 28.7786 10.357 28.2241 10.22 27.66C10.0827 27.1299 9.97582 26.5923 9.9 26.05L6.36 25.23L9.07 13.54L12.6 14.36C12.9076 13.9043 13.2415 13.4669 13.6 13.05C13.9705 12.6029 14.3679 12.1788 14.79 11.78C16.767 9.87547 19.1883 8.49466 21.8341 7.7628C24.4799 7.03094 27.2666 6.97119 29.9413 7.58897C32.6161 8.20676 35.0943 9.48252 37.1511 11.3006C39.208 13.1186 40.7784 15.4214 41.72 18C41.9215 18.5432 42.0918 19.0974 42.23 19.66C42.3673 20.1901 42.4742 20.7277 42.55 21.27L46.09 22.09L43.38 33.8Z" fill="#4CAF50"/>
<path fill-rule="evenodd" clip-rule="evenodd" d="M17.26 22.35L16.2 26.93L17.8 27.3L17.88 26.91L21.73 27.8L21.65 28.15L23.33 28.53L24.38 24L17.26 22.35ZM22.07 26.35L18.22 25.46L18.54 24.06L22.39 24.95L22.07 26.35ZM22.81 19L23.28 18.6L22.05 17.6C20.3009 18.9561 18.2031 19.7883 16 20C16.3461 20.5307 16.6186 21.1059 16.81 21.71C17.3103 21.6 17.8044 21.4631 18.29 21.3L18.18 21.81L23.54 23.05L23.7 22.34C24.13 22.73 24.55 23.08 24.98 23.4C25.3684 22.9234 25.8392 22.5203 26.37 22.21C24.9721 21.4005 23.7594 20.307 22.81 19ZM19.9 20.71C20.4829 20.4417 21.0504 20.1412 21.6 19.81C21.9567 20.3567 22.351 20.878 22.78 21.37L19.9 20.71ZM37.25 22.57L36.41 21.77H36.14L33.84 21.23C33.99 21.04 34.13 20.86 34.26 20.66L33 20C32.4152 20.9048 31.6054 21.6422 30.65 22.14C30.8719 22.6112 31.0558 23.0994 31.2 23.6C31.4066 23.4876 31.6069 23.3641 31.8 23.23C31.9556 23.5451 32.1327 23.8491 32.33 24.14C31.7409 24.2655 31.142 24.3391 30.54 24.36C30.35 24 29.99 23.36 29.76 22.97L30.42 23.13L30.65 22.13L30.75 21.68L29.9 21.48L30.35 19.48L28.87 19.14L28.42 21.14L27.24 20.87L26.91 22.3L27.91 22.54C27.4283 23.6516 26.7509 24.6678 25.91 25.54C26.0673 26.1158 26.1711 26.705 26.22 27.3C26.6583 26.8238 27.0376 26.2967 27.35 25.73L26.51 29.35L27.99 29.69L29.2 24.51C29.29 24.86 29.38 25.19 29.43 25.45L30 25C30.0952 25.2895 30.1622 25.5876 30.2 25.89H30.31L29.38 29.89L30.85 30.23L30.98 29.64L33.34 30.18L33.21 30.73L34.77 31.09L35.69 27L30.85 25.88C31.7295 25.8238 32.5974 25.6489 33.43 25.36C34.1894 26.0854 35.0563 26.6892 36 27.15C36.222 26.6602 36.5042 26.2 36.84 25.78C36.1335 25.5034 35.4621 25.1443 34.84 24.71C35.7889 24.1797 36.6112 23.4495 37.25 22.57ZM31.47 27.45L33.83 28L33.62 28.87L31.27 28.33L31.47 27.45ZM32.98 22.45L34.9 22.89C34.5434 23.1858 34.1501 23.4345 33.73 23.63C33.4303 23.2781 33.1844 22.8838 33 22.46L32.98 22.45ZM37.25 22.56L36.41 21.76H36.14L33.84 21.22C33.99 21.03 34.13 20.85 34.26 20.65L33 20C32.4152 20.9048 31.6054 21.6422 30.65 22.14C30.8719 22.6112 31.0558 23.0994 31.2 23.6C31.4066 23.4876 31.6069 23.3641 31.8 23.23C31.9556 23.5451 32.1327 23.8491 32.33 24.14C31.7409 24.2655 31.142 24.3391 30.54 24.36C30.35 24 29.99 23.36 29.76 22.97L30.42 23.13L30.65 22.13L30.75 21.68L29.9 21.48L30.35 19.48L28.87 19.14L28.42 21.14L27.24 20.87L26.91 22.3L27.91 22.54C27.4283 23.6516 26.7509 24.6678 25.91 25.54C26.0673 26.1158 26.1711 26.705 26.22 27.3C26.6583 26.8238 27.0376 26.2967 27.35 25.73L26.51 29.35L27.99 29.69L29.2 24.51C29.29 24.86 29.38 25.19 29.43 25.45L30 25C30.0952 25.2895 30.1622 25.5876 30.2 25.89H30.31L29.38 29.89L30.85 30.23L30.98 29.64L33.34 30.18L33.21 30.73L34.77 31.09L35.69 27L30.85 25.88C31.7295 25.8238 32.5974 25.6489 33.43 25.36C34.1894 26.0854 35.0563 26.6892 36 27.15C36.222 26.6602 36.5042 26.2 36.84 25.78C36.1335 25.5034 35.4621 25.1443 34.84 24.71C35.7889 24.1797 36.6112 23.4495 37.25 22.57V22.56ZM31.47 27.44L33.83 27.99L33.62 28.86L31.27 28.32L31.47 27.44ZM32.98 22.44L34.9 22.88C34.5434 23.1758 34.1501 23.4245 33.73 23.62C33.4312 23.2711 33.1852 22.8803 33 22.46L32.98 22.44ZM22.81 19L23.28 18.6L22.05 17.6C20.3009 18.9561 18.2031 19.7883 16 20C16.3461 20.5307 16.6186 21.1059 16.81 21.71C17.3103 21.6 17.8044 21.4631 18.29 21.3L18.18 21.81L23.54 23.05L23.7 22.34C24.13 22.73 24.55 23.08 24.98 23.4C25.3684 22.9234 25.8392 22.5203 26.37 22.21C24.9721 21.4005 23.7594 20.307 22.81 19ZM19.9 20.71C20.4829 20.4417 21.0504 20.1412 21.6 19.81C21.9567 20.3567 22.351 20.878 22.78 21.37L19.9 20.71ZM17.26 22.35L16.2 26.93L17.8 27.3L17.88 26.91L21.73 27.8L21.65 28.15L23.33 28.53L24.38 24L17.26 22.35ZM22.07 26.35L18.22 25.46L18.54 24.06L22.39 24.95L22.07 26.35ZM17.26 22.35L16.2 26.93L17.8 27.3L17.88 26.91L21.73 27.8L21.65 28.15L23.33 28.53L24.38 24L17.26 22.35ZM22.07 26.35L18.22 25.46L18.54 24.06L22.39 24.95L22.07 26.35ZM22.81 19L23.28 18.6L22.05 17.6C20.3009 18.9561 18.2031 19.7883 16 20C16.3461 20.5307 16.6186 21.1059 16.81 21.71C17.3103 21.6 17.8044 21.4631 18.29 21.3L18.18 21.81L23.54 23.05L23.7 22.34C24.13 22.73 24.55 23.08 24.98 23.4C25.3684 22.9234 25.8392 22.5203 26.37 22.21C24.9721 21.4005 23.7594 20.307 22.81 19ZM19.9 20.71C20.4829 20.4417 21.0504 20.1412 21.6 19.81C21.9567 20.3567 22.351 20.878 22.78 21.37L19.9 20.71ZM37.25 22.57L36.41 21.77H36.14L33.84 21.23C33.99 21.04 34.13 20.86 34.26 20.66L33 20C32.4152 20.9048 31.6054 21.6422 30.65 22.14C30.8719 22.6112 31.0558 23.0994 31.2 23.6C31.4066 23.4876 31.6069 23.3641 31.8 23.23C31.9556 23.5451 32.1327 23.8491 32.33 24.14C31.7409 24.2655 31.142 24.3391 30.54 24.36C30.35 24 29.99 23.36 29.76 22.97L30.42 23.13L30.65 22.13L30.75 21.68L29.9 21.48L30.35 19.48L28.87 19.14L28.42 21.14L27.24 20.87L26.91 22.3L27.91 22.54C27.4283 23.6516 26.7509 24.6678 25.91 25.54C26.0673 26.1158 26.1711 26.705 26.22 27.3C26.6583 26.8238 27.0376 26.2967 27.35 25.73L26.51 29.35L27.99 29.69L29.2 24.51C29.29 24.86 29.38 25.19 29.43 25.45L30 25C30.0952 25.2895 30.1622 25.5876 30.2 25.89H30.31L29.38 29.89L30.85 30.23L30.98 29.64L33.34 30.18L33.21 30.73L34.77 31.09L35.69 27L30.85 25.88C31.7295 25.8238 32.5974 25.6489 33.43 25.36C34.1894 26.0854 35.0563 26.6892 36 27.15C36.222 26.6602 36.5042 26.2 36.84 25.78C36.1335 25.5034 35.4621 25.1443 34.84 24.71C35.7889 24.1797 36.6112 23.4495 37.25 22.57ZM31.47 27.45L33.83 28L33.62 28.87L31.27 28.33L31.47 27.45ZM32.98 22.45L34.9 22.89C34.5434 23.1858 34.1501 23.4345 33.73 23.63C33.4303 23.2781 33.1844 22.8838 33 22.46L32.98 22.45ZM37.25 22.56L36.41 21.76H36.14L33.84 21.22C33.99 21.03 34.13 20.85 34.26 20.65L33 20C32.4152 20.9048 31.6054 21.6422 30.65 22.14C30.8719 22.6112 31.0558 23.0994 31.2 23.6C31.4066 23.4876 31.6069 23.3641 31.8 23.23C31.9556 23.5451 32.1327 23.8491 32.33 24.14C31.7409 24.2655 31.142 24.3391 30.54 24.36C30.35 24 29.99 23.36 29.76 22.97L30.42 23.13L30.65 22.13L30.75 21.68L29.9 21.48L30.35 19.48L28.87 19.14L28.42 21.14L27.24 20.87L26.91 22.3L27.91 22.54C27.4283 23.6516 26.7509 24.6678 25.91 25.54C26.0673 26.1158 26.1711 26.705 26.22 27.3C26.6583 26.8238 27.0376 26.2967 27.35 25.73L26.51 29.35L27.99 29.69L29.2 24.51C29.29 24.86 29.38 25.19 29.43 25.45L30 25C30.0952 25.2895 30.1622 25.5876 30.2 25.89H30.31L29.38 29.89L30.85 30.23L30.98 29.64L33.34 30.18L33.21 30.73L34.77 31.09L35.69 27L30.85 25.88C31.7295 25.8238 32.5974 25.6489 33.43 25.36C34.1894 26.0854 35.0563 26.6892 36 27.15C36.222 26.6602 36.5042 26.2 36.84 25.78C36.1335 25.5034 35.4621 25.1443 34.84 24.71C35.7889 24.1797 36.6112 23.4495 37.25 22.57V22.56ZM31.47 27.44L33.83 27.99L33.62 28.86L31.27 28.32L31.47 27.44ZM32.98 22.44L34.9 22.88C34.5434 23.1758 34.1501 23.4245 33.73 23.62C33.4312 23.2711 33.1852 22.8803 33 22.46L32.98 22.44ZM22.81 19L23.28 18.6L22.05 17.6C20.3009 18.9561 18.2031 19.7883 16 20C16.3461 20.5307 16.6186 21.1059 16.81 21.71C17.3103 21.6 17.8044 21.4631 18.29 21.3L18.18 21.81L23.54 23.05L23.7 22.34C24.13 22.73 24.55 23.08 24.98 23.4C25.3684 22.9234 25.8392 22.5203 26.37 22.21C24.9721 21.4005 23.7594 20.307 22.81 19ZM19.9 20.71C20.4829 20.4417 21.0504 20.1412 21.6 19.81C21.9567 20.3567 22.351 20.878 22.78 21.37L19.9 20.71ZM17.26 22.35L16.2 26.93L17.8 27.3L17.88 26.91L21.73 27.8L21.65 28.15L23.33 28.53L24.38 24L17.26 22.35ZM22.07 26.35L18.22 25.46L18.54 24.06L22.39 24.95L22.07 26.35ZM17.26 22.35L16.2 26.93L17.8 27.3L17.88 26.91L21.73 27.8L21.65 28.15L23.33 28.53L24.38 24L17.26 22.35ZM22.07 26.35L18.22 25.46L18.54 24.06L22.39 24.95L22.07 26.35ZM22.81 19L23.28 18.6L22.05 17.6C20.3009 18.9561 18.2031 19.7883 16 20C16.3461 20.5307 16.6186 21.1059 16.81 21.71C17.3103 21.6 17.8044 21.4631 18.29 21.3L18.18 21.81L23.54 23.05L23.7 22.34C24.13 22.73 24.55 23.08 24.98 23.4C25.3684 22.9234 25.8392 22.5203 26.37 22.21C24.9721 21.4005 23.7594 20.307 22.81 19ZM19.9 20.71C20.4829 20.4417 21.0504 20.1412 21.6 19.81C21.9567 20.3567 22.351 20.878 22.78 21.37L19.9 20.71ZM37.25 22.57L36.41 21.77H36.14L33.84 21.23C33.99 21.04 34.13 20.86 34.26 20.66L33 20C32.4152 20.9048 31.6054 21.6422 30.65 22.14C30.8719 22.6112 31.0558 23.0994 31.2 23.6C31.4066 23.4876 31.6069 23.3641 31.8 23.23C31.9556 23.5451 32.1327 23.8491 32.33 24.14C31.7409 24.2655 31.142 24.3391 30.54 24.36C30.35 24 29.99 23.36 29.76 22.97L30.42 23.13L30.65 22.13L30.75 21.68L29.9 21.48L30.35 19.48L28.87 19.14L28.42 21.14L27.24 20.87L26.91 22.3L27.91 22.54C27.4283 23.6516 26.7509 24.6678 25.91 25.54C26.0673 26.1158 26.1711 26.705 26.22 27.3C26.6583 26.8238 27.0376 26.2967 27.35 25.73L26.51 29.35L27.99 29.69L29.2 24.51C29.29 24.86 29.38 25.19 29.43 25.45L30 25C30.0952 25.2895 30.1622 25.5876 30.2 25.89H30.31L29.38 29.89L30.85 30.23L30.98 29.64L33.34 30.18L33.21 30.73L34.77 31.09L35.69 27L30.85 25.88C31.7295 25.8238 32.5974 25.6489 33.43 25.36C34.1894 26.0854 35.0563 26.6892 36 27.15C36.222 26.6602 36.5042 26.2 36.84 25.78C36.1335 25.5034 35.4621 25.1443 34.84 24.71C35.7889 24.1797 36.6112 23.4495 37.25 22.57ZM31.47 27.45L33.83 28L33.62 28.87L31.27 28.33L31.47 27.45ZM32.98 22.45L34.9 22.89C34.5434 23.1858 34.1501 23.4345 33.73 23.63C33.4303 23.2781 33.1844 22.8838 33 22.46L32.98 22.45ZM37.25 22.56L36.41 21.76H36.14L33.84 21.22C33.99 21.03 34.13 20.85 34.26 20.65L33 20C32.4152 20.9048 31.6054 21.6422 30.65 22.14C30.8719 22.6112 31.0558 23.0994 31.2 23.6C31.4066 23.4876 31.6069 23.3641 31.8 23.23C31.9556 23.5451 32.1327 23.8491 32.33 24.14C31.7409 24.2655 31.142 24.3391 30.54 24.36C30.35 24 29.99 23.36 29.76 22.97L30.42 23.13L30.65 22.13L30.75 21.68L29.9 21.48L30.35 19.48L28.87 19.14L28.42 21.14L27.24 20.87L26.91 22.3L27.91 22.54C27.4283 23.6516 26.7509 24.6678 25.91 25.54C26.0673 26.1158 26.1711 26.705 26.22 27.3C26.6583 26.8238 27.0376 26.2967 27.35 25.73L26.51 29.35L27.99 29.69L29.2 24.51C29.29 24.86 29.38 25.19 29.43 25.45L30 25C30.0952 25.2895 30.1622 25.5876 30.2 25.89H30.31L29.38 29.89L30.85 30.23L30.98 29.64L33.34 30.18L33.21 30.73L34.77 31.09L35.69 27L30.85 25.88C31.7295 25.8238 32.5974 25.6489 33.43 25.36C34.1894 26.0854 35.0563 26.6892 36 27.15C36.222 26.6602 36.5042 26.2 36.84 25.78C36.1335 25.5034 35.4621 25.1443 34.84 24.71C35.7889 24.1797 36.6112 23.4495 37.25 22.57V22.56ZM31.47 27.44L33.83 27.99L33.62 28.86L31.27 28.32L31.47 27.44ZM32.98 22.44L34.9 22.88C34.5434 23.1758 34.1501 23.4245 33.73 23.62C33.4312 23.2711 33.1852 22.8803 33 22.46L32.98 22.44ZM22.81 19L23.28 18.6L22.05 17.6C20.3009 18.9561 18.2031 19.7883 16 20C16.3461 20.5307 16.6186 21.1059 16.81 21.71C17.3103 21.6 17.8044 21.4631 18.29 21.3L18.18 21.81L23.54 23.05L23.7 22.34C24.13 22.73 24.55 23.08 24.98 23.4C25.3684 22.9234 25.8392 22.5203 26.37 22.21C24.9721 21.4005 23.7594 20.307 22.81 19ZM19.9 20.71C20.4829 20.4417 21.0504 20.1412 21.6 19.81C21.9567 20.3567 22.351 20.878 22.78 21.37L19.9 20.71ZM17.26 22.35L16.2 26.93L17.8 27.3L17.88 26.91L21.73 27.8L21.65 28.15L23.33 28.53L24.38 24L17.26 22.35ZM22.07 26.35L18.22 25.46L18.54 24.06L22.39 24.95L22.07 26.35ZM17.26 22.35L16.2 26.93L17.8 27.3L17.88 26.91L21.73 27.8L21.65 28.15L23.33 28.53L24.38 24L17.26 22.35ZM22.07 26.35L18.22 25.46L18.54 24.06L22.39 24.95L22.07 26.35ZM22.81 19L23.28 18.6L22.05 17.6C20.3009 18.9561 18.2031 19.7883 16 20C16.3461 20.5307 16.6186 21.1059 16.81 21.71C17.3103 21.6 17.8044 21.4631 18.29 21.3L18.18 21.81L23.54 23.05L23.7 22.34C24.13 22.73 24.55 23.08 24.98 23.4C25.3684 22.9234 25.8392 22.5203 26.37 22.21C24.9721 21.4005 23.7594 20.307 22.81 19ZM19.9 20.71C20.4829 20.4417 21.0504 20.1412 21.6 19.81C21.9567 20.3567 22.351 20.878 22.78 21.37L19.9 20.71ZM37.25 22.57L36.41 21.77H36.14L33.84 21.23C33.99 21.04 34.13 20.86 34.26 20.66L33 20C32.4152 20.9048 31.6054 21.6422 30.65 22.14C30.8719 22.6112 31.0558 23.0994 31.2 23.6C31.4066 23.4876 31.6069 23.3641 31.8 23.23C31.9556 23.5451 32.1327 23.8491 32.33 24.14C31.7409 24.2655 31.142 24.3391 30.54 24.36C30.35 24 29.99 23.36 29.76 22.97L30.42 23.13L30.65 22.13L30.75 21.68L29.9 21.48L30.35 19.48L28.87 19.14L28.42 21.14L27.24 20.87L26.91 22.3L27.91 22.54C27.4283 23.6516 26.7509 24.6678 25.91 25.54C26.0673 26.1158 26.1711 26.705 26.22 27.3C26.6583 26.8238 27.0376 26.2967 27.35 25.73L26.51 29.35L27.99 29.69L29.2 24.51C29.29 24.86 29.38 25.19 29.43 25.45L30 25C30.0952 25.2895 30.1622 25.5876 30.2 25.89H30.31L29.38 29.89L30.85 30.23L30.98 29.64L33.34 30.18L33.21 30.73L34.77 31.09L35.69 27L30.85 25.88C31.7295 25.8238 32.5974 25.6489 33.43 25.36C34.1894 26.0854 35.0563 26.6892 36 27.15C36.222 26.6602 36.5042 26.2 36.84 25.78C36.1335 25.5034 35.4621 25.1443 34.84 24.71C35.7889 24.1797 36.6112 23.4495 37.25 22.57ZM31.47 27.45L33.83 28L33.62 28.87L31.27 28.33L31.47 27.45ZM32.98 22.45L34.9 22.89C34.5434 23.1858 34.1501 23.4345 33.73 23.63C33.4303 23.2781 33.1844 22.8838 33 22.46L32.98 22.45ZM37.25 22.56L36.41 21.76H36.14L33.84 21.22C33.99 21.03 34.13 20.85 34.26 20.65L33 20C32.4152 20.9048 31.6054 21.6422 30.65 22.14C30.8719 22.6112 31.0558 23.0994 31.2 23.6C31.4066 23.4876 31.6069 23.3641 31.8 23.23C31.9556 23.5451 32.1327 23.8491 32.33 24.14C31.7409 24.2655 31.142 24.3391 30.54 24.36C30.35 24 29.99 23.36 29.76 22.97L30.42 23.13L30.65 22.13L30.75 21.68L29.9 21.48L30.35 19.48L28.87 19.14L28.42 21.14L27.24 20.87L26.91 22.3L27.91 22.54C27.4283 23.6516 26.7509 24.6678 25.91 25.54C26.0673 26.1158 26.1711 26.705 26.22 27.3C26.6583 26.8238 27.0376 26.2967 27.35 25.73L26.51 29.35L27.99 29.69L29.2 24.51C29.29 24.86 29.38 25.19 29.43 25.45L30 25C30.0952 25.2895 30.1622 25.5876 30.2 25.89H30.31L29.38 29.89L30.85 30.23L30.98 29.64L33.34 30.18L33.21 30.73L34.77 31.09L35.69 27L30.85 25.88C31.7295 25.8238 32.5974 25.6489 33.43 25.36C34.1894 26.0854 35.0563 26.6892 36 27.15C36.222 26.6602 36.5042 26.2 36.84 25.78C36.1335 25.5034 35.4621 25.1443 34.84 24.71C35.7889 24.1797 36.6112 23.4495 37.25 22.57V22.56ZM31.47 27.44L33.83 27.99L33.62 28.86L31.27 28.32L31.47 27.44ZM32.98 22.44L34.9 22.88C34.5434 23.1758 34.1501 23.4245 33.73 23.62C33.4312 23.2711 33.1852 22.8803 33 22.46L32.98 22.44ZM22.81 19L23.28 18.6L22.05 17.6C20.3009 18.9561 18.2031 19.7883 16 20C16.3461 20.5307 16.6186 21.1059 16.81 21.71C17.3103 21.6 17.8044 21.4631 18.29 21.3L18.18 21.81L23.54 23.05L23.7 22.34C24.13 22.73 24.55 23.08 24.98 23.4C25.3684 22.9234 25.8392 22.5203 26.37 22.21C24.9721 21.4005 23.7594 20.307 22.81 19ZM19.9 20.71C20.4829 20.4417 21.0504 20.1412 21.6 19.81C21.9567 20.3567 22.351 20.878 22.78 21.37L19.9 20.71ZM17.26 22.35L16.2 26.93L17.8 27.3L17.88 26.91L21.73 27.8L21.65 28.15L23.33 28.53L24.38 24L17.26 22.35ZM22.07 26.35L18.22 25.46L18.54 24.06L22.39 24.95L22.07 26.35ZM17.26 22.35L16.2 26.93L17.8 27.3L17.88 26.91L21.73 27.8L21.65 28.15L23.33 28.53L24.38 24L17.26 22.35ZM22.07 26.35L18.22 25.46L18.54 24.06L22.39 24.95L22.07 26.35ZM22.81 19L23.28 18.6L22.05 17.6C20.3009 18.9561 18.2031 19.7883 16 20C16.3461 20.5307 16.6186 21.1059 16.81 21.71C17.3103 21.6 17.8044 21.4631 18.29 21.3L18.18 21.81L23.54 23.05L23.7 22.34C24.13 22.73 24.55 23.08 24.98 23.4C25.3684 22.9234 25.8392 22.5203 26.37 22.21C24.9721 21.4005 23.7594 20.307 22.81 19ZM19.9 20.71C20.4829 20.4417 21.0504 20.1412 21.6 19.81C21.9567 20.3567 22.351 20.878 22.78 21.37L19.9 20.71ZM37.25 22.57L36.41 21.77H36.14L33.84 21.23C33.99 21.04 34.13 20.86 34.26 20.66L33 20C32.4152 20.9048 31.6054 21.6422 30.65 22.14C30.8719 22.6112 31.0558 23.0994 31.2 23.6C31.4066 23.4876 31.6069 23.3641 31.8 23.23C31.9556 23.5451 32.1327 23.8491 32.33 24.14C31.7409 24.2655 31.142 24.3391 30.54 24.36C30.35 24 29.99 23.36 29.76 22.97L30.42 23.13L30.65 22.13L30.75 21.68L29.9 21.48L30.35 19.48L28.87 19.14L28.42 21.14L27.24 20.87L26.91 22.3L27.91 22.54C27.4283 23.6516 26.7509 24.6678 25.91 25.54C26.0673 26.1158 26.1711 26.705 26.22 27.3C26.6583 26.8238 27.0376 26.2967 27.35 25.73L26.51 29.35L27.99 29.69L29.2 24.51C29.29 24.86 29.38 25.19 29.43 25.45L30 25C30.0952 25.2895 30.1622 25.5876 30.2 25.89H30.31L29.38 29.89L30.85 30.23L30.98 29.64L33.34 30.18L33.21 30.73L34.77 31.09L35.69 27L30.85 25.88C31.7295 25.8238 32.5974 25.6489 33.43 25.36C34.1894 26.0854 35.0563 26.6892 36 27.15C36.222 26.6602 36.5042 26.2 36.84 25.78C36.1335 25.5034 35.4621 25.1443 34.84 24.71C35.7889 24.1797 36.6112 23.4495 37.25 22.57ZM31.47 27.45L33.83 28L33.62 28.87L31.27 28.33L31.47 27.45ZM32.98 22.45L34.9 22.89C34.5434 23.1858 34.1501 23.4345 33.73 23.63C33.4303 23.2781 33.1844 22.8838 33 22.46L32.98 22.45ZM37.25 22.56L36.41 21.76H36.14L33.84 21.22C33.99 21.03 34.13 20.85 34.26 20.65L33 20C32.4152 20.9048 31.6054 21.6422 30.65 22.14C30.8719 22.6112 31.0558 23.0994 31.2 23.6C31.4066 23.4876 31.6069 23.3641 31.8 23.23C31.9556 23.5451 32.1327 23.8491 32.33 24.14C31.7409 24.2655 31.142 24.3391 30.54 24.36C30.35 24 29.99 23.36 29.76 22.97L30.42 23.13L30.65 22.13L30.75 21.68L29.9 21.48L30.35 19.48L28.87 19.14L28.42 21.14L27.24 20.87L26.91 22.3L27.91 22.54C27.4283 23.6516 26.7509 24.6678 25.91 25.54C26.0673 26.1158 26.1711 26.705 26.22 27.3C26.6583 26.8238 27.0376 26.2967 27.35 25.73L26.51 29.35L27.99 29.69L29.2 24.51C29.29 24.86 29.38 25.19 29.43 25.45L30 25C30.0952 25.2895 30.1622 25.5876 30.2 25.89H30.31L29.38 29.89L30.85 30.23L30.98 29.64L33.34 30.18L33.21 30.73L34.77 31.09L35.69 27L30.85 25.88C31.7295 25.8238 32.5974 25.6489 33.43 25.36C34.1894 26.0854 35.0563 26.6892 36 27.15C36.222 26.6602 36.5042 26.2 36.84 25.78C36.1335 25.5034 35.4621 25.1443 34.84 24.71C35.7889 24.1797 36.6112 23.4495 37.25 22.57V22.56ZM31.47 27.44L33.83 27.99L33.62 28.86L31.27 28.32L31.47 27.44ZM32.98 22.44L34.9 22.88C34.5434 23.1758 34.1501 23.4245 33.73 23.62C33.4312 23.2711 33.1852 22.8803 33 22.46L32.98 22.44ZM22.81 19L23.28 18.6L22.05 17.6C20.3009 18.9561 18.2031 19.7883 16 20C16.3461 20.5307 16.6186 21.1059 16.81 21.71C17.3103 21.6 17.8044 21.4631 18.29 21.3L18.18 21.81L23.54 23.05L23.7 22.34C24.13 22.73 24.55 23.08 24.98 23.4C25.3684 22.9234 25.8392 22.5203 26.37 22.21C24.9721 21.4005 23.7594 20.307 22.81 19ZM19.9 20.71C20.4829 20.4417 21.0504 20.1412 21.6 19.81C21.9567 20.3567 22.351 20.878 22.78 21.37L19.9 20.71ZM17.26 22.35L16.2 26.93L17.8 27.3L17.88 26.91L21.73 27.8L21.65 28.15L23.33 28.53L24.38 24L17.26 22.35ZM22.07 26.35L18.22 25.46L18.54 24.06L22.39 24.95L22.07 26.35ZM17.26 22.35L16.2 26.93L17.8 27.3L17.88 26.91L21.73 27.8L21.65 28.15L23.33 28.53L24.38 24L17.26 22.35ZM22.07 26.35L18.22 25.46L18.54 24.06L22.39 24.95L22.07 26.35ZM22.81 19L23.28 18.6L22.05 17.6C20.3009 18.9561 18.2031 19.7883 16 20C16.3461 20.5307 16.6186 21.1059 16.81 21.71C17.3103 21.6 17.8044 21.4631 18.29 21.3L18.18 21.81L23.54 23.05L23.7 22.34C24.13 22.73 24.55 23.08 24.98 23.4C25.3684 22.9234 25.8392 22.5203 26.37 22.21C24.9721 21.4005 23.7594 20.307 22.81 19ZM19.9 20.71C20.4829 20.4417 21.0504 20.1412 21.6 19.81C21.9567 20.3567 22.351 20.878 22.78 21.37L19.9 20.71ZM37.25 22.57L36.41 21.77H36.14L33.84 21.23C33.99 21.04 34.13 20.86 34.26 20.66L33 20C32.4152 20.9048 31.6054 21.6422 30.65 22.14C30.8719 22.6112 31.0558 23.0994 31.2 23.6C31.4066 23.4876 31.6069 23.3641 31.8 23.23C31.9556 23.5451 32.1327 23.8491 32.33 24.14C31.7409 24.2655 31.142 24.3391 30.54 24.36C30.35 24 29.99 23.36 29.76 22.97L30.42 23.13L30.65 22.13L30.75 21.68L29.9 21.48L30.35 19.48L28.87 19.14L28.42 21.14L27.24 20.87L26.91 22.3L27.91 22.54C27.4283 23.6516 26.7509 24.6678 25.91 25.54C26.0673 26.1158 26.1711 26.705 26.22 27.3C26.6583 26.8238 27.0376 26.2967 27.35 25.73L26.51 29.35L27.99 29.69L29.2 24.51C29.29 24.86 29.38 25.19 29.43 25.45L30 25C30.0952 25.2895 30.1622 25.5876 30.2 25.89H30.31L29.38 29.89L30.85 30.23L30.98 29.64L33.34 30.18L33.21 30.73L34.77 31.09L35.69 27L30.85 25.88C31.7295 25.8238 32.5974 25.6489 33.43 25.36C34.1894 26.0854 35.0563 26.6892 36 27.15C36.222 26.6602 36.5042 26.2 36.84 25.78C36.1335 25.5034 35.4621 25.1443 34.84 24.71C35.7889 24.1797 36.6112 23.4495 37.25 22.57ZM31.47 27.45L33.83 28L33.62 28.87L31.27 28.33L31.47 27.45ZM32.98 22.45L34.9 22.89C34.5434 23.1858 34.1501 23.4345 33.73 23.63C33.4303 23.2781 33.1844 22.8838 33 22.46L32.98 22.45ZM37.25 22.56L36.41 21.76H36.14L33.84 21.22C33.99 21.03 34.13 20.85 34.26 20.65L33 20C32.4152 20.9048 31.6054 21.6422 30.65 22.14C30.8719 22.6112 31.0558 23.0994 31.2 23.6C31.4066 23.4876 31.6069 23.3641 31.8 23.23C31.9556 23.5451 32.1327 23.8491 32.33 24.14C31.7409 24.2655 31.142 24.3391 30.54 24.36C30.35 24 29.99 23.36 29.76 22.97L30.42 23.13L30.65 22.13L30.75 21.68L29.9 21.48L30.35 19.48L28.87 19.14L28.42 21.14L27.24 20.87L26.91 22.3L27.91 22.54C27.4283 23.6516 26.7509 24.6678 25.91 25.54C26.0673 26.1158 26.1711 26.705 26.22 27.3C26.6583 26.8238 27.0376 26.2967 27.35 25.73L26.51 29.35L27.99 29.69L29.2 24.51C29.29 24.86 29.38 25.19 29.43 25.45L30 25C30.0952 25.2895 30.1622 25.5876 30.2 25.89H30.31L29.38 29.89L30.85 30.23L30.98 29.64L33.34 30.18L33.21 30.73L34.77 31.09L35.69 27L30.85 25.88C31.7295 25.8238 32.5974 25.6489 33.43 25.36C34.1894 26.0854 35.0563 26.6892 36 27.15C36.222 26.6602 36.5042 26.2 36.84 25.78C36.1335 25.5034 35.4621 25.1443 34.84 24.71C35.7889 24.1797 36.6112 23.4495 37.25 22.57V22.56ZM31.47 27.44L33.83 27.99L33.62 28.86L31.27 28.32L31.47 27.44ZM32.98 22.44L34.9 22.88C34.5434 23.1758 34.1501 23.4245 33.73 23.62C33.4312 23.2711 33.1852 22.8803 33 22.46L32.98 22.44ZM22.81 19L23.28 18.6L22.05 17.6C20.3009 18.9561 18.2031 19.7883 16 20C16.3461 20.5307 16.6186 21.1059 16.81 21.71C17.3103 21.6 17.8044 21.4631 18.29 21.3L18.18 21.81L23.54 23.05L23.7 22.34C24.13 22.73 24.55 23.08 24.98 23.4C25.3684 22.9234 25.8392 22.5203 26.37 22.21C24.9721 21.4005 23.7594 20.307 22.81 19ZM19.9 20.71C20.4829 20.4417 21.0504 20.1412 21.6 19.81C21.9567 20.3567 22.351 20.878 22.78 21.37L19.9 20.71ZM16.2 26.93L17.8 27.3L17.88 26.91L21.73 27.8L21.65 28.15L23.33 28.53L24.38 24L17.26 22.35L16.2 26.93ZM18.54 24.08L22.39 24.97L22.07 26.37L18.22 25.48L18.54 24.08ZM46.54 20.66L42.27 19.66L40 19.16L38.83 18.89L17 13.83L15.84 13.56L13.62 13.05L9.35 12.05L7.96 11.73L6.27 19V19.09L4.56 26.35L6 26.67L10.27 27.67L12.49 28.19L13.64 28.45L35.51 33.52L36.67 33.79L38.89 34.3L43.17 35.3L44.55 35.62L46.18 28.62L46.28 28.19L47.89 21L46.54 20.66ZM39.84 33L37.72 32.51L36.66 32.26L13.09 26.79L12 26.54L9.9 26.05L6.36 25.23L9.07 13.54L12.6 14.36L14.72 14.85L15.8 15.1L39.35 20.54L40.43 20.79L42.55 21.28L46.09 22.1L43.38 33.8L39.84 33ZM37.25 22.57L36.41 21.77H36.14L33.84 21.23C33.99 21.04 34.13 20.86 34.26 20.66L33 20C32.4152 20.9048 31.6054 21.6422 30.65 22.14C30.8719 22.6112 31.0558 23.0994 31.2 23.6C31.4066 23.4876 31.6069 23.3641 31.8 23.23C31.9556 23.5451 32.1327 23.8491 32.33 24.14C31.7409 24.2655 31.142 24.3391 30.54 24.36C30.35 24 29.99 23.36 29.76 22.97L30.42 23.13L30.65 22.13L30.75 21.68L29.9 21.48L30.35 19.48L28.87 19.14L28.42 21.14L27.24 20.87L26.91 22.3L27.91 22.54C27.4283 23.6516 26.7509 24.6678 25.91 25.54C26.0673 26.1158 26.1711 26.705 26.22 27.3C26.6583 26.8238 27.0376 26.2967 27.35 25.73L26.51 29.35L27.99 29.69L29.2 24.51C29.29 24.86 29.38 25.19 29.43 25.45L30 25C30.0952 25.2895 30.1622 25.5876 30.2 25.89H30.31L29.38 29.89L30.85 30.23L30.98 29.64L33.34 30.18L33.21 30.73L34.77 31.09L35.69 27L30.85 25.88C31.7295 25.8238 32.5974 25.6489 33.43 25.36C34.1894 26.0854 35.0563 26.6892 36 27.15C36.222 26.6602 36.5042 26.2 36.84 25.78C36.1335 25.5034 35.4621 25.1443 34.84 24.71C35.7889 24.1797 36.6112 23.4495 37.25 22.57ZM31.47 27.45L33.83 28L33.62 28.87L31.27 28.33L31.47 27.45ZM33.73 23.64C33.4295 23.285 33.1835 22.8873 33 22.46L34.92 22.9C34.5572 23.1973 34.1571 23.446 33.73 23.64ZM22.81 19L23.28 18.6L22.05 17.6C20.3009 18.9561 18.2031 19.7883 16 20C16.3461 20.5307 16.6186 21.1059 16.81 21.71C17.3103 21.6 17.8044 21.4631 18.29 21.3L18.18 21.81L23.54 23.05L23.7 22.34C24.13 22.73 24.55 23.08 24.98 23.4C25.3684 22.9234 25.8392 22.5203 26.37 22.21C24.9721 21.4005 23.7594 20.307 22.81 19ZM19.9 20.71C20.4829 20.4417 21.0504 20.1412 21.6 19.81C21.9567 20.3567 22.351 20.878 22.78 21.37L19.9 20.71ZM16.2 26.93L17.8 27.3L17.88 26.91L21.73 27.8L21.65 28.15L23.33 28.53L24.38 24L17.26 22.35L16.2 26.93ZM18.54 24.08L22.39 24.97L22.07 26.37L18.22 25.48L18.54 24.08ZM17.26 22.35L16.2 26.93L17.8 27.3L17.88 26.91L21.73 27.8L21.65 28.15L23.33 28.53L24.38 24L17.26 22.35ZM22.07 26.35L18.22 25.46L18.54 24.06L22.39 24.95L22.07 26.35ZM22.81 19L23.28 18.6L22.05 17.6C20.3009 18.9561 18.2031 19.7883 16 20C16.3461 20.5307 16.6186 21.1059 16.81 21.71C17.3103 21.6 17.8044 21.4631 18.29 21.3L18.18 21.81L23.54 23.05L23.7 22.34C24.13 22.73 24.55 23.08 24.98 23.4C25.3684 22.9234 25.8392 22.5203 26.37 22.21C24.9721 21.4005 23.7594 20.307 22.81 19ZM19.9 20.71C20.4829 20.4417 21.0504 20.1412 21.6 19.81C21.9567 20.3567 22.351 20.878 22.78 21.37L19.9 20.71ZM37.25 22.57L36.41 21.77H36.14L33.84 21.23C33.99 21.04 34.13 20.86 34.26 20.66L33 20C32.4152 20.9048 31.6054 21.6422 30.65 22.14C30.8719 22.6112 31.0558 23.0994 31.2 23.6C31.4066 23.4876 31.6069 23.3641 31.8 23.23C31.9556 23.5451 32.1327 23.8491 32.33 24.14C31.7409 24.2655 31.142 24.3391 30.54 24.36C30.35 24 29.99 23.36 29.76 22.97L30.42 23.13L30.65 22.13L30.75 21.68L29.9 21.48L30.35 19.48L28.87 19.14L28.42 21.14L27.24 20.87L26.91 22.3L27.91 22.54C27.4283 23.6516 26.7509 24.6678 25.91 25.54C26.0673 26.1158 26.1711 26.705 26.22 27.3C26.6583 26.8238 27.0376 26.2967 27.35 25.73L26.51 29.35L27.99 29.69L29.2 24.51C29.29 24.86 29.38 25.19 29.43 25.45L30 25C30.0952 25.2895 30.1622 25.5876 30.2 25.89H30.31L29.38 29.89L30.85 30.23L30.98 29.64L33.34 30.18L33.21 30.73L34.77 31.09L35.69 27L30.85 25.88C31.7295 25.8238 32.5974 25.6489 33.43 25.36C34.1894 26.0854 35.0563 26.6892 36 27.15C36.222 26.6602 36.5042 26.2 36.84 25.78C36.1335 25.5034 35.4621 25.1443 34.84 24.71C35.7889 24.1797 36.6112 23.4495 37.25 22.57ZM31.47 27.45L33.83 28L33.62 28.87L31.27 28.33L31.47 27.45ZM32.98 22.45L34.9 22.89C34.5434 23.1858 34.1501 23.4345 33.73 23.63C33.4303 23.2781 33.1844 22.8838 33 22.46L32.98 22.45ZM37.25 22.56L36.41 21.76H36.14L33.84 21.22C33.99 21.03 34.13 20.85 34.26 20.65L33 20C32.4152 20.9048 31.6054 21.6422 30.65 22.14C30.8719 22.6112 31.0558 23.0994 31.2 23.6C31.4066 23.4876 31.6069 23.3641 31.8 23.23C31.9556 23.5451 32.1327 23.8491 32.33 24.14C31.7409 24.2655 31.142 24.3391 30.54 24.36C30.35 24 29.99 23.36 29.76 22.97L30.42 23.13L30.65 22.13L30.75 21.68L29.9 21.48L30.35 19.48L28.87 19.14L28.42 21.14L27.24 20.87L26.91 22.3L27.91 22.54C27.4283 23.6516 26.7509 24.6678 25.91 25.54C26.0673 26.1158 26.1711 26.705 26.22 27.3C26.6583 26.8238 27.0376 26.2967 27.35 25.73L26.51 29.35L27.99 29.69L29.2 24.51C29.29 24.86 29.38 25.19 29.43 25.45L30 25C30.0952 25.2895 30.1622 25.5876 30.2 25.89H30.31L29.38 29.89L30.85 30.23L30.98 29.64L33.34 30.18L33.21 30.73L34.77 31.09L35.69 27L30.85 25.88C31.7295 25.8238 32.5974 25.6489 33.43 25.36C34.1894 26.0854 35.0563 26.6892 36 27.15C36.222 26.6602 36.5042 26.2 36.84 25.78C36.1335 25.5034 35.4621 25.1443 34.84 24.71C35.7889 24.1797 36.6112 23.4495 37.25 22.57V22.56ZM31.47 27.44L33.83 27.99L33.62 28.86L31.27 28.32L31.47 27.44ZM32.98 22.44L34.9 22.88C34.5434 23.1758 34.1501 23.4245 33.73 23.62C33.4312 23.2711 33.1852 22.8803 33 22.46L32.98 22.44ZM22.81 19L23.28 18.6L22.05 17.6C20.3009 18.9561 18.2031 19.7883 16 20C16.3461 20.5307 16.6186 21.1059 16.81 21.71C17.3103 21.6 17.8044 21.4631 18.29 21.3L18.18 21.81L23.54 23.05L23.7 22.34C24.13 22.73 24.55 23.08 24.98 23.4C25.3684 22.9234 25.8392 22.5203 26.37 22.21C24.9721 21.4005 23.7594 20.307 22.81 19ZM19.9 20.71C20.4829 20.4417 21.0504 20.1412 21.6 19.81C21.9567 20.3567 22.351 20.878 22.78 21.37L19.9 20.71ZM17.26 22.35L16.2 26.93L17.8 27.3L17.88 26.91L21.73 27.8L21.65 28.15L23.33 28.53L24.38 24L17.26 22.35ZM22.07 26.35L18.22 25.46L18.54 24.06L22.39 24.95L22.07 26.35ZM17.26 22.35L16.2 26.93L17.8 27.3L17.88 26.91L21.73 27.8L21.65 28.15L23.33 28.53L24.38 24L17.26 22.35ZM22.07 26.35L18.22 25.46L18.54 24.06L22.39 24.95L22.07 26.35ZM22.81 19L23.28 18.6L22.05 17.6C20.3009 18.9561 18.2031 19.7883 16 20C16.3461 20.5307 16.6186 21.1059 16.81 21.71C17.3103 21.6 17.8044 21.4631 18.29 21.3L18.18 21.81L23.54 23.05L23.7 22.34C24.13 22.73 24.55 23.08 24.98 23.4C25.3684 22.9234 25.8392 22.5203 26.37 22.21C24.9721 21.4005 23.7594 20.307 22.81 19ZM19.9 20.71C20.4829 20.4417 21.0504 20.1412 21.6 19.81C21.9567 20.3567 22.351 20.878 22.78 21.37L19.9 20.71ZM37.25 22.57L36.41 21.77H36.14L33.84 21.23C33.99 21.04 34.13 20.86 34.26 20.66L33 20C32.4152 20.9048 31.6054 21.6422 30.65 22.14C30.8719 22.6112 31.0558 23.0994 31.2 23.6C31.4066 23.4876 31.6069 23.3641 31.8 23.23C31.9556 23.5451 32.1327 23.8491 32.33 24.14C31.7409 24.2655 31.142 24.3391 30.54 24.36C30.35 24 29.99 23.36 29.76 22.97L30.42 23.13L30.65 22.13L30.75 21.68L29.9 21.48L30.35 19.48L28.87 19.14L28.42 21.14L27.24 20.87L26.91 22.3L27.91 22.54C27.4283 23.6516 26.7509 24.6678 25.91 25.54C26.0673 26.1158 26.1711 26.705 26.22 27.3C26.6583 26.8238 27.0376 26.2967 27.35 25.73L26.51 29.35L27.99 29.69L29.2 24.51C29.29 24.86 29.38 25.19 29.43 25.45L30 25C30.0952 25.2895 30.1622 25.5876 30.2 25.89H30.31L29.38 29.89L30.85 30.23L30.98 29.64L33.34 30.18L33.21 30.73L34.77 31.09L35.69 27L30.85 25.88C31.7295 25.8238 32.5974 25.6489 33.43 25.36C34.1894 26.0854 35.0563 26.6892 36 27.15C36.222 26.6602 36.5042 26.2 36.84 25.78C36.1335 25.5034 35.4621 25.1443 34.84 24.71C35.7889 24.1797 36.6112 23.4495 37.25 22.57ZM31.47 27.45L33.83 28L33.62 28.87L31.27 28.33L31.47 27.45ZM32.98 22.45L34.9 22.89C34.5434 23.1858 34.1501 23.4345 33.73 23.63C33.4303 23.2781 33.1844 22.8838 33 22.46L32.98 22.45ZM37.25 22.56L36.41 21.76H36.14L33.84 21.22C33.99 21.03 34.13 20.85 34.26 20.65L33 20C32.4152 20.9048 31.6054 21.6422 30.65 22.14C30.8719 22.6112 31.0558 23.0994 31.2 23.6C31.4066 23.4876 31.6069 23.3641 31.8 23.23C31.9556 23.5451 32.1327 23.8491 32.33 24.14C31.7409 24.2655 31.142 24.3391 30.54 24.36C30.35 24 29.99 23.36 29.76 22.97L30.42 23.13L30.65 22.13L30.75 21.68L29.9 21.48L30.35 19.48L28.87 19.14L28.42 21.14L27.24 20.87L26.91 22.3L27.91 22.54C27.4283 23.6516 26.7509 24.6678 25.91 25.54C26.0673 26.1158 26.1711 26.705 26.22 27.3C26.6583 26.8238 27.0376 26.2967 27.35 25.73L26.51 29.35L27.99 29.69L29.2 24.51C29.29 24.86 29.38 25.19 29.43 25.45L30 25C30.0952 25.2895 30.1622 25.5876 30.2 25.89H30.31L29.38 29.89L30.85 30.23L30.98 29.64L33.34 30.18L33.21 30.73L34.77 31.09L35.69 27L30.85 25.88C31.7295 25.8238 32.5974 25.6489 33.43 25.36C34.1894 26.0854 35.0563 26.6892 36 27.15C36.222 26.6602 36.5042 26.2 36.84 25.78C36.1335 25.5034 35.4621 25.1443 34.84 24.71C35.7889 24.1797 36.6112 23.4495 37.25 22.57V22.56ZM31.47 27.44L33.83 27.99L33.62 28.86L31.27 28.32L31.47 27.44ZM32.98 22.44L34.9 22.88C34.5434 23.1758 34.1501 23.4245 33.73 23.62C33.4312 23.2711 33.1852 22.8803 33 22.46L32.98 22.44ZM22.81 19L23.28 18.6L22.05 17.6C20.3009 18.9561 18.2031 19.7883 16 20C16.3461 20.5307 16.6186 21.1059 16.81 21.71C17.3103 21.6 17.8044 21.4631 18.29 21.3L18.18 21.81L23.54 23.05L23.7 22.34C24.13 22.73 24.55 23.08 24.98 23.4C25.3684 22.9234 25.8392 22.5203 26.37 22.21C24.9721 21.4005 23.7594 20.307 22.81 19ZM19.9 20.71C20.4829 20.4417 21.0504 20.1412 21.6 19.81C21.9567 20.3567 22.351 20.878 22.78 21.37L19.9 20.71ZM17.26 22.35L16.2 26.93L17.8 27.3L17.88 26.91L21.73 27.8L21.65 28.15L23.33 28.53L24.38 24L17.26 22.35ZM22.07 26.35L18.22 25.46L18.54 24.06L22.39 24.95L22.07 26.35ZM17.26 22.35L16.2 26.93L17.8 27.3L17.88 26.91L21.73 27.8L21.65 28.15L23.33 28.53L24.38 24L17.26 22.35ZM22.07 26.35L18.22 25.46L18.54 24.06L22.39 24.95L22.07 26.35ZM22.81 19L23.28 18.6L22.05 17.6C20.3009 18.9561 18.2031 19.7883 16 20C16.3461 20.5307 16.6186 21.1059 16.81 21.71C17.3103 21.6 17.8044 21.4631 18.29 21.3L18.18 21.81L23.54 23.05L23.7 22.34C24.13 22.73 24.55 23.08 24.98 23.4C25.3684 22.9234 25.8392 22.5203 26.37 22.21C24.9721 21.4005 23.7594 20.307 22.81 19ZM19.9 20.71C20.4829 20.4417 21.0504 20.1412 21.6 19.81C21.9567 20.3567 22.351 20.878 22.78 21.37L19.9 20.71ZM37.25 22.57L36.41 21.77H36.14L33.84 21.23C33.99 21.04 34.13 20.86 34.26 20.66L33 20C32.4152 20.9048 31.6054 21.6422 30.65 22.14C30.8719 22.6112 31.0558 23.0994 31.2 23.6C31.4066 23.4876 31.6069 23.3641 31.8 23.23C31.9556 23.5451 32.1327 23.8491 32.33 24.14C31.7409 24.2655 31.142 24.3391 30.54 24.36C30.35 24 29.99 23.36 29.76 22.97L30.42 23.13L30.65 22.13L30.75 21.68L29.9 21.48L30.35 19.48L28.87 19.14L28.42 21.14L27.24 20.87L26.91 22.3L27.91 22.54C27.4283 23.6516 26.7509 24.6678 25.91 25.54C26.0673 26.1158 26.1711 26.705 26.22 27.3C26.6583 26.8238 27.0376 26.2967 27.35 25.73L26.51 29.35L27.99 29.69L29.2 24.51C29.29 24.86 29.38 25.19 29.43 25.45L30 25C30.0952 25.2895 30.1622 25.5876 30.2 25.89H30.31L29.38 29.89L30.85 30.23L30.98 29.64L33.34 30.18L33.21 30.73L34.77 31.09L35.69 27L30.85 25.88C31.7295 25.8238 32.5974 25.6489 33.43 25.36C34.1894 26.0854 35.0563 26.6892 36 27.15C36.222 26.6602 36.5042 26.2 36.84 25.78C36.1335 25.5034 35.4621 25.1443 34.84 24.71C35.7889 24.1797 36.6112 23.4495 37.25 22.57ZM31.47 27.45L33.83 28L33.62 28.87L31.27 28.33L31.47 27.45ZM32.98 22.45L34.9 22.89C34.5434 23.1858 34.1501 23.4345 33.73 23.63C33.4303 23.2781 33.1844 22.8838 33 22.46L32.98 22.45ZM37.25 22.56L36.41 21.76H36.14L33.84 21.22C33.99 21.03 34.13 20.85 34.26 20.65L33 20C32.4152 20.9048 31.6054 21.6422 30.65 22.14C30.8719 22.6112 31.0558 23.0994 31.2 23.6C31.4066 23.4876 31.6069 23.3641 31.8 23.23C31.9556 23.5451 32.1327 23.8491 32.33 24.14C31.7409 24.2655 31.142 24.3391 30.54 24.36C30.35 24 29.99 23.36 29.76 22.97L30.42 23.13L30.65 22.13L30.75 21.68L29.9 21.48L30.35 19.48L28.87 19.14L28.42 21.14L27.24 20.87L26.91 22.3L27.91 22.54C27.4283 23.6516 26.7509 24.6678 25.91 25.54C26.0673 26.1158 26.1711 26.705 26.22 27.3C26.6583 26.8238 27.0376 26.2967 27.35 25.73L26.51 29.35L27.99 29.69L29.2 24.51C29.29 24.86 29.38 25.19 29.43 25.45L30 25C30.0952 25.2895 30.1622 25.5876 30.2 25.89H30.31L29.38 29.89L30.85 30.23L30.98 29.64L33.34 30.18L33.21 30.73L34.77 31.09L35.69 27L30.85 25.88C31.7295 25.8238 32.5974 25.6489 33.43 25.36C34.1894 26.0854 35.0563 26.6892 36 27.15C36.222 26.6602 36.5042 26.2 36.84 25.78C36.1335 25.5034 35.4621 25.1443 34.84 24.71C35.7889 24.1797 36.6112 23.4495 37.25 22.57V22.56ZM31.47 27.44L33.83 27.99L33.62 28.86L31.27 28.32L31.47 27.44ZM32.98 22.44L34.9 22.88C34.5434 23.1758 34.1501 23.4245 33.73 23.62C33.4312 23.2711 33.1852 22.8803 33 22.46L32.98 22.44ZM22.81 19L23.28 18.6L22.05 17.6C20.3009 18.9561 18.2031 19.7883 16 20C16.3461 20.5307 16.6186 21.1059 16.81 21.71C17.3103 21.6 17.8044 21.4631 18.29 21.3L18.18 21.81L23.54 23.05L23.7 22.34C24.13 22.73 24.55 23.08 24.98 23.4C25.3684 22.9234 25.8392 22.5203 26.37 22.21C24.9721 21.4005 23.7594 20.307 22.81 19ZM19.9 20.71C20.4829 20.4417 21.0504 20.1412 21.6 19.81C21.9567 20.3567 22.351 20.878 22.78 21.37L19.9 20.71ZM17.26 22.35L16.2 26.93L17.8 27.3L17.88 26.91L21.73 27.8L21.65 28.15L23.33 28.53L24.38 24L17.26 22.35ZM22.07 26.35L18.22 25.46L18.54 24.06L22.39 24.95L22.07 26.35ZM17.26 22.35L16.2 26.93L17.8 27.3L17.88 26.91L21.73 27.8L21.65 28.15L23.33 28.53L24.38 24L17.26 22.35ZM22.07 26.35L18.22 25.46L18.54 24.06L22.39 24.95L22.07 26.35ZM22.81 19L23.28 18.6L22.05 17.6C20.3009 18.9561 18.2031 19.7883 16 20C16.3461 20.5307 16.6186 21.1059 16.81 21.71C17.3103 21.6 17.8044 21.4631 18.29 21.3L18.18 21.81L23.54 23.05L23.7 22.34C24.13 22.73 24.55 23.08 24.98 23.4C25.3684 22.9234 25.8392 22.5203 26.37 22.21C24.9721 21.4005 23.7594 20.307 22.81 19ZM19.9 20.71C20.4829 20.4417 21.0504 20.1412 21.6 19.81C21.9567 20.3567 22.351 20.878 22.78 21.37L19.9 20.71ZM37.25 22.57L36.41 21.77H36.14L33.84 21.23C33.99 21.04 34.13 20.86 34.26 20.66L33 20C32.4152 20.9048 31.6054 21.6422 30.65 22.14C30.8719 22.6112 31.0558 23.0994 31.2 23.6C31.4066 23.4876 31.6069 23.3641 31.8 23.23C31.9556 23.5451 32.1327 23.8491 32.33 24.14C31.7409 24.2655 31.142 24.3391 30.54 24.36C30.35 24 29.99 23.36 29.76 22.97L30.42 23.13L30.65 22.13L30.75 21.68L29.9 21.48L30.35 19.48L28.87 19.14L28.42 21.14L27.24 20.87L26.91 22.3L27.91 22.54C27.4283 23.6516 26.7509 24.6678 25.91 25.54C26.0673 26.1158 26.1711 26.705 26.22 27.3C26.6583 26.8238 27.0376 26.2967 27.35 25.73L26.51 29.35L27.99 29.69L29.2 24.51C29.29 24.86 29.38 25.19 29.43 25.45L30 25C30.0952 25.2895 30.1622 25.5876 30.2 25.89H30.31L29.38 29.89L30.85 30.23L30.98 29.64L33.34 30.18L33.21 30.73L34.77 31.09L35.69 27L30.85 25.88C31.7295 25.8238 32.5974 25.6489 33.43 25.36C34.1894 26.0854 35.0563 26.6892 36 27.15C36.222 26.6602 36.5042 26.2 36.84 25.78C36.1335 25.5034 35.4621 25.1443 34.84 24.71C35.7889 24.1797 36.6112 23.4495 37.25 22.57ZM31.47 27.45L33.83 28L33.62 28.87L31.27 28.33L31.47 27.45ZM32.98 22.45L34.9 22.89C34.5434 23.1858 34.1501 23.4345 33.73 23.63C33.4303 23.2781 33.1844 22.8838 33 22.46L32.98 22.45ZM37.25 22.56L36.41 21.76H36.14L33.84 21.22C33.99 21.03 34.13 20.85 34.26 20.65L33 20C32.4152 20.9048 31.6054 21.6422 30.65 22.14C30.8719 22.6112 31.0558 23.0994 31.2 23.6C31.4066 23.4876 31.6069 23.3641 31.8 23.23C31.9556 23.5451 32.1327 23.8491 32.33 24.14C31.7409 24.2655 31.142 24.3391 30.54 24.36C30.35 24 29.99 23.36 29.76 22.97L30.42 23.13L30.65 22.13L30.75 21.68L29.9 21.48L30.35 19.48L28.87 19.14L28.42 21.14L27.24 20.87L26.91 22.3L27.91 22.54C27.4283 23.6516 26.7509 24.6678 25.91 25.54C26.0673 26.1158 26.1711 26.705 26.22 27.3C26.6583 26.8238 27.0376 26.2967 27.35 25.73L26.51 29.35L27.99 29.69L29.2 24.51C29.29 24.86 29.38 25.19 29.43 25.45L30 25C30.0952 25.2895 30.1622 25.5876 30.2 25.89H30.31L29.38 29.89L30.85 30.23L30.98 29.64L33.34 30.18L33.21 30.73L34.77 31.09L35.69 27L30.85 25.88C31.7295 25.8238 32.5974 25.6489 33.43 25.36C34.1894 26.0854 35.0563 26.6892 36 27.15C36.222 26.6602 36.5042 26.2 36.84 25.78C36.1335 25.5034 35.4621 25.1443 34.84 24.71C35.7889 24.1797 36.6112 23.4495 37.25 22.57V22.56ZM31.47 27.44L33.83 27.99L33.62 28.86L31.27 28.32L31.47 27.44ZM32.98 22.44L34.9 22.88C34.5434 23.1758 34.1501 23.4245 33.73 23.62C33.4312 23.2711 33.1852 22.8803 33 22.46L32.98 22.44ZM22.81 19L23.28 18.6L22.05 17.6C20.3009 18.9561 18.2031 19.7883 16 20C16.3461 20.5307 16.6186 21.1059 16.81 21.71C17.3103 21.6 17.8044 21.4631 18.29 21.3L18.18 21.81L23.54 23.05L23.7 22.34C24.13 22.73 24.55 23.08 24.98 23.4C25.3684 22.9234 25.8392 22.5203 26.37 22.21C24.9721 21.4005 23.7594 20.307 22.81 19ZM19.9 20.71C20.4829 20.4417 21.0504 20.1412 21.6 19.81C21.9567 20.3567 22.351 20.878 22.78 21.37L19.9 20.71ZM17.26 22.35L16.2 26.93L17.8 27.3L17.88 26.91L21.73 27.8L21.65 28.15L23.33 28.53L24.38 24L17.26 22.35ZM22.07 26.35L18.22 25.46L18.54 24.06L22.39 24.95L22.07 26.35ZM17.26 22.35L16.2 26.93L17.8 27.3L17.88 26.91L21.73 27.8L21.65 28.15L23.33 28.53L24.38 24L17.26 22.35ZM22.07 26.35L18.22 25.46L18.54 24.06L22.39 24.95L22.07 26.35ZM22.81 19L23.28 18.6L22.05 17.6C20.3009 18.9561 18.2031 19.7883 16 20C16.3461 20.5307 16.6186 21.1059 16.81 21.71C17.3103 21.6 17.8044 21.4631 18.29 21.3L18.18 21.81L23.54 23.05L23.7 22.34C24.13 22.73 24.55 23.08 24.98 23.4C25.3684 22.9234 25.8392 22.5203 26.37 22.21C24.9721 21.4005 23.7594 20.307 22.81 19ZM19.9 20.71C20.4829 20.4417 21.0504 20.1412 21.6 19.81C21.9567 20.3567 22.351 20.878 22.78 21.37L19.9 20.71ZM37.25 22.57L36.41 21.77H36.14L33.84 21.23C33.99 21.04 34.13 20.86 34.26 20.66L33 20C32.4152 20.9048 31.6054 21.6422 30.65 22.14C30.8719 22.6112 31.0558 23.0994 31.2 23.6C31.4066 23.4876 31.6069 23.3641 31.8 23.23C31.9556 23.5451 32.1327 23.8491 32.33 24.14C31.7409 24.2655 31.142 24.3391 30.54 24.36C30.35 24 29.99 23.36 29.76 22.97L30.42 23.13L30.65 22.13L30.75 21.68L29.9 21.48L30.35 19.48L28.87 19.14L28.42 21.14L27.24 20.87L26.91 22.3L27.91 22.54C27.4283 23.6516 26.7509 24.6678 25.91 25.54C26.0673 26.1158 26.1711 26.705 26.22 27.3C26.6583 26.8238 27.0376 26.2967 27.35 25.73L26.51 29.35L27.99 29.69L29.2 24.51C29.29 24.86 29.38 25.19 29.43 25.45L30 25C30.0952 25.2895 30.1622 25.5876 30.2 25.89H30.31L29.38 29.89L30.85 30.23L30.98 29.64L33.34 30.18L33.21 30.73L34.77 31.09L35.69 27L30.85 25.88C31.7295 25.8238 32.5974 25.6489 33.43 25.36C34.1894 26.0854 35.0563 26.6892 36 27.15C36.222 26.6602 36.5042 26.2 36.84 25.78C36.1335 25.5034 35.4621 25.1443 34.84 24.71C35.7889 24.1797 36.6112 23.4495 37.25 22.57ZM31.47 27.45L33.83 28L33.62 28.87L31.27 28.33L31.47 27.45ZM32.98 22.45L34.9 22.89C34.5434 23.1858 34.1501 23.4345 33.73 23.63C33.4303 23.2781 33.1844 22.8838 33 22.46L32.98 22.45ZM37.25 22.56L36.41 21.76H36.14L33.84 21.22C33.99 21.03 34.13 20.85 34.26 20.65L33 20C32.4152 20.9048 31.6054 21.6422 30.65 22.14C30.8719 22.6112 31.0558 23.0994 31.2 23.6C31.4066 23.4876 31.6069 23.3641 31.8 23.23C31.9556 23.5451 32.1327 23.8491 32.33 24.14C31.7409 24.2655 31.142 24.3391 30.54 24.36C30.35 24 29.99 23.36 29.76 22.97L30.42 23.13L30.65 22.13L30.75 21.68L29.9 21.48L30.35 19.48L28.87 19.14L28.42 21.14L27.24 20.87L26.91 22.3L27.91 22.54C27.4283 23.6516 26.7509 24.6678 25.91 25.54C26.0673 26.1158 26.1711 26.705 26.22 27.3C26.6583 26.8238 27.0376 26.2967 27.35 25.73L26.51 29.35L27.99 29.69L29.2 24.51C29.29 24.86 29.38 25.19 29.43 25.45L30 25C30.0952 25.2895 30.1622 25.5876 30.2 25.89H30.31L29.38 29.89L30.85 30.23L30.98 29.64L33.34 30.18L33.21 30.73L34.77 31.09L35.69 27L30.85 25.88C31.7295 25.8238 32.5974 25.6489 33.43 25.36C34.1894 26.0854 35.0563 26.6892 36 27.15C36.222 26.6602 36.5042 26.2 36.84 25.78C36.1335 25.5034 35.4621 25.1443 34.84 24.71C35.7889 24.1797 36.6112 23.4495 37.25 22.57V22.56ZM31.47 27.44L33.83 27.99L33.62 28.86L31.27 28.32L31.47 27.44ZM32.98 22.44L34.9 22.88C34.5434 23.1758 34.1501 23.4245 33.73 23.62C33.4312 23.2711 33.1852 22.8803 33 22.46L32.98 22.44ZM22.81 19L23.28 18.6L22.05 17.6C20.3009 18.9561 18.2031 19.7883 16 20C16.3461 20.5307 16.6186 21.1059 16.81 21.71C17.3103 21.6 17.8044 21.4631 18.29 21.3L18.18 21.81L23.54 23.05L23.7 22.34C24.13 22.73 24.55 23.08 24.98 23.4C25.3684 22.9234 25.8392 22.5203 26.37 22.21C24.9721 21.4005 23.7594 20.307 22.81 19ZM19.9 20.71C20.4829 20.4417 21.0504 20.1412 21.6 19.81C21.9567 20.3567 22.351 20.878 22.78 21.37L19.9 20.71ZM17.26 22.35L16.2 26.93L17.8 27.3L17.88 26.91L21.73 27.8L21.65 28.15L23.33 28.53L24.38 24L17.26 22.35ZM22.07 26.35L18.22 25.46L18.54 24.06L22.39 24.95L22.07 26.35Z" fill="white"/>
<path d="M46.19 19.05L41.72 18.05L39.33 17.5L38.06 17.21L18.44 12.63L17.17 12.33L14.79 11.78L10.31 10.78L6.82 9.94L2.76 27.47L6.26 28.28L10.74 29.28L13.11 29.83L14.38 30.12L34 34.71L35.27 35L37.66 35.55L42.13 36.55L45.63 37.36L49.69 19.82L46.19 19.05ZM43.38 33.8L39.84 33L37.72 32.51L36.66 32.26L13.09 26.79L12 26.54L9.9 26.05L6.36 25.23L9.07 13.54L12.6 14.36L14.72 14.85L15.8 15.1L39.35 20.54L40.43 20.79L42.55 21.28L46.09 22.1L43.38 33.8Z" fill="#4CAF50"/>
<path d="M17.26 22.35L16.2 26.93L17.8 27.3L17.88 26.91L21.73 27.8L21.65 28.15L23.33 28.53L24.38 24L17.26 22.35ZM22.07 26.35L18.22 25.46L18.54 24.06L22.39 24.95L22.07 26.35ZM22.81 19L23.28 18.6L22.05 17.6C20.3009 18.9561 18.2031 19.7883 16 20C16.3461 20.5307 16.6186 21.1059 16.81 21.71C17.3103 21.6 17.8044 21.4631 18.29 21.3L18.18 21.81L23.54 23.05L23.7 22.34C24.13 22.73 24.55 23.08 24.98 23.4C25.3684 22.9234 25.8392 22.5203 26.37 22.21C24.9721 21.4005 23.7594 20.307 22.81 19ZM19.9 20.71C20.4829 20.4417 21.0504 20.1412 21.6 19.81C21.9567 20.3567 22.351 20.878 22.78 21.37L19.9 20.71Z" fill="#4CAF50"/>
<path d="M37.25 22.57L36.41 21.77H36.14L33.84 21.23C33.99 21.04 34.13 20.86 34.26 20.66L33 20C32.4152 20.9048 31.6054 21.6422 30.65 22.14C30.8719 22.6113 31.0558 23.0995 31.2 23.6C31.4066 23.4876 31.6068 23.3641 31.8 23.23C31.9556 23.5451 32.1327 23.8492 32.33 24.14C31.7409 24.2655 31.1419 24.3391 30.54 24.36C30.35 24 29.99 23.36 29.76 22.97L30.42 23.13L30.65 22.13L30.75 21.68L29.9 21.48L30.35 19.48L28.87 19.14L28.42 21.14L27.24 20.87L26.91 22.3L27.91 22.54C27.4283 23.6517 26.7509 24.6678 25.91 25.54C26.0673 26.1159 26.1711 26.7051 26.22 27.3C26.6583 26.8239 27.0376 26.2968 27.35 25.73L26.51 29.35L27.99 29.69L29.2 24.51C29.29 24.86 29.38 25.19 29.43 25.45L30 25C30.0952 25.2895 30.1622 25.5876 30.2 25.89H30.31L29.38 29.89L30.85 30.23L30.98 29.64L33.34 30.18L33.21 30.73L34.77 31.09L35.69 27L30.85 25.88C31.7295 25.8238 32.5974 25.6489 33.43 25.36C34.1894 26.0854 35.0563 26.6892 36 27.15C36.222 26.6602 36.5042 26.2 36.84 25.78C36.1335 25.5035 35.4621 25.1443 34.84 24.71C35.7889 24.1798 36.6112 23.4496 37.25 22.57ZM31.47 27.45L33.83 28L33.62 28.87L31.27 28.33L31.47 27.45ZM32.98 22.45L34.9 22.89C34.5434 23.1859 34.1501 23.4346 33.73 23.63C33.4303 23.2781 33.1844 22.8839 33 22.46L32.98 22.45Z" fill="#4CAF50"/>
</g>
<defs>
<filter id="filter0_d" x="0" y="0" width="52" height="52" filterUnits="userSpaceOnUse" color-interpolation-filters="sRGB">
<feFlood flood-opacity="0" result="BackgroundImageFix"/>
<feColorMatrix in="SourceAlpha" type="matrix" values="0 0 0 0 0 0 0 0 0 0 0 0 0 0 0 0 0 0 127 0"/>
<feOffset dy="2"/>
<feGaussianBlur stdDeviation="1"/>
<feColorMatrix type="matrix" values="0 0 0 0 0.298039 0 0 0 0 0.686275 0 0 0 0 0.313726 0 0 0 0.11 0"/>
<feBlend mode="normal" in2="BackgroundImageFix" result="effect1_dropShadow"/>
<feBlend mode="normal" in="SourceGraphic" in2="effect1_dropShadow" result="shape"/>
</filter>
</defs>
</svg>
