<svg width="48" height="48" viewBox="0 0 48 48" fill="none" xmlns="http://www.w3.org/2000/svg">
<g filter="url(#filter0_d)">
<path d="M30.7903 27.5348L26.9229 30.2139L34.644 41.3693L38.5115 38.6902L30.7903 27.5348Z" fill="#515050"/>
<path d="M22.3621 34.831C19.8666 34.8232 17.4109 34.2049 15.209 33.0299C13.0071 31.8549 11.1259 30.159 9.72942 28.0899C8.33291 26.0209 7.46345 23.6415 7.19683 21.1593C6.93022 18.677 7.27454 16.1672 8.19978 13.8485C9.23229 11.2683 10.948 9.01826 13.1625 7.34006C15.377 5.66187 18.0067 4.61895 20.7691 4.32335C23.5315 4.02774 26.3221 4.49062 28.8414 5.66225C31.3606 6.83388 33.5132 8.67 35.0678 10.9734C36.6225 13.2767 37.5205 15.9603 37.6655 18.7358C37.8104 21.5113 37.1967 24.2739 35.8904 26.7268C34.5841 29.1797 32.6345 31.2302 30.251 32.658C27.8675 34.0859 25.1402 34.8371 22.3621 34.831ZM22.3821 8.99258C20.2873 8.99773 18.2416 9.62801 16.5069 10.8028C14.7722 11.9775 13.4273 13.6433 12.6442 15.5871C11.867 17.5108 11.6774 19.622 12.0995 21.6535C12.5216 23.685 13.5364 25.5458 15.0155 27.0003C16.4946 28.4549 18.3717 29.438 20.4093 29.8254C22.4469 30.2127 24.5536 29.9869 26.463 29.1764C28.3723 28.366 29.9986 27.0073 31.1361 25.2723C32.2736 23.5372 32.8712 21.5036 32.8535 19.4288C32.8357 17.3539 32.2034 15.3309 31.0363 13.6155C29.8693 11.9002 28.2201 10.5696 26.2972 9.79191C25.0553 9.27714 23.7262 9.00578 22.3821 8.99258Z" fill="#515050"/>
</g>
<defs>
<filter id="filter0_d" x="-2" y="0" width="52" height="52" filterUnits="userSpaceOnUse" color-interpolation-filters="sRGB">
<feFlood flood-opacity="0" result="BackgroundImageFix"/>
<feColorMatrix in="SourceAlpha" type="matrix" values="0 0 0 0 0 0 0 0 0 0 0 0 0 0 0 0 0 0 127 0"/>
<feOffset dy="2"/>
<feGaussianBlur stdDeviation="1"/>
<feColorMatrix type="matrix" values="0 0 0 0 0 0 0 0 0 0 0 0 0 0 0 0 0 0 0.102382 0"/>
<feBlend mode="normal" in2="BackgroundImageFix" result="effect1_dropShadow"/>
<feBlend mode="normal" in="SourceGraphic" in2="effect1_dropShadow" result="shape"/>
</filter>
</defs>
</svg>
