<svg width="24" height="24" viewBox="0 0 24 24" fill="none" xmlns="http://www.w3.org/2000/svg">
<path d="M18.079 5.00348H5.83947C4.82607 5.00494 4.00491 5.8261 4.00345 6.8395V16.6304C4.00491 17.6438 4.82607 18.465 5.83947 18.4665H9.87041L11.5261 20.123C11.6406 20.2386 11.7966 20.3035 11.9592 20.3035C12.1219 20.3035 12.2779 20.2386 12.3924 20.123L14.0481 18.4665H18.079C19.0921 18.4645 19.9127 17.6435 19.9142 16.6304V6.8395C19.9127 5.82644 19.0921 5.00543 18.079 5.00348ZM8.59395 12.3467C8.10609 12.3205 7.72397 11.9172 7.72397 11.4287C7.72397 10.9401 8.10609 10.5369 8.59395 10.5107C9.0818 10.5369 9.46392 10.9401 9.46392 11.4287C9.46392 11.9172 9.0818 12.3205 8.59395 12.3467ZM12.2651 12.3467C11.7773 12.3205 11.3951 11.9172 11.3951 11.4287C11.3951 10.9401 11.7773 10.5369 12.2651 10.5107C12.753 10.5369 13.1351 10.9401 13.1351 11.4287C13.1351 11.9172 12.753 12.3205 12.2651 12.3467ZM15.9363 12.3467C15.4484 12.3205 15.0663 11.9172 15.0663 11.4287C15.0663 10.9401 15.4484 10.5369 15.9363 10.5107C16.4241 10.5369 16.8062 10.9401 16.8062 11.4287C16.8062 11.9172 16.4241 12.3205 15.9363 12.3467Z" fill="#0C6B7E"/>
</svg>
