<svg width="56" height="56" viewBox="0 0 56 56" fill="none" xmlns="http://www.w3.org/2000/svg">
<path d="M22.2193 3.3062L22.0807 32.9517L48.6788 43.5495L48.4705 13.6963L22.2193 3.3062Z" fill="#056672"/>
<path d="M36.2956 13.5718V22.7979C36.2989 22.8556 36.3114 22.9125 36.3327 22.9663C36.3557 23.0252 36.3867 23.0807 36.4247 23.1313C36.4631 23.1825 36.5082 23.2284 36.5588 23.2676C36.6058 23.3047 36.6582 23.3343 36.7143 23.3552L45.9253 27.0767C45.9681 27.0978 46.0151 27.1088 46.0628 27.1088C46.1105 27.1088 46.1575 27.0978 46.2003 27.0767C46.2375 27.0518 46.2675 27.0176 46.2872 26.9773C46.3069 26.9371 46.3157 26.8924 46.3126 26.8478V17.6194C46.321 17.5632 46.318 17.5059 46.3036 17.451C46.2874 17.389 46.2616 17.33 46.2272 17.2759C46.1919 17.2188 46.1487 17.167 46.0987 17.1221C46.0514 17.0797 45.9976 17.045 45.9393 17.0194L36.7143 13.2934C36.6607 13.2653 36.6014 13.2495 36.5409 13.2474C36.4896 13.245 36.4388 13.2585 36.3955 13.2861C36.3547 13.3144 36.3242 13.3551 36.3085 13.4023C36.2907 13.4569 36.2863 13.515 36.2956 13.5718ZM38.297 15.9626L44.3583 18.4118V24.458L38.297 22.0094V15.9626Z" fill="white"/>
<path d="M24.3525 8.74687V17.973C24.3565 18.0887 24.3957 18.2005 24.4647 18.2935C24.5335 18.3924 24.6285 18.4702 24.7392 18.518L33.9546 22.2395C33.9974 22.2602 34.0444 22.2707 34.0919 22.2702C34.1394 22.2697 34.1861 22.2583 34.2285 22.2367C34.2657 22.212 34.2958 22.1778 34.3155 22.1377C34.3352 22.0975 34.3439 22.0529 34.3407 22.0083V12.7821C34.349 12.7248 34.3453 12.6663 34.3301 12.6104C34.313 12.5468 34.2859 12.4864 34.2498 12.4314C34.2132 12.3736 34.1679 12.3217 34.1157 12.2776C34.0679 12.2359 34.0134 12.2025 33.9546 12.1788L24.7409 8.45559C24.6893 8.43279 24.6333 8.42186 24.577 8.42359C24.5287 8.42485 24.4819 8.4407 24.4428 8.46905C24.4052 8.4972 24.3773 8.53646 24.3631 8.5813C24.3466 8.63488 24.3429 8.69161 24.3525 8.74687ZM26.3218 11.1254L32.3832 13.5741V19.6202L26.3218 17.1738V11.1254Z" fill="white"/>
<path d="M36.3411 25.892V35.1181C36.341 35.2345 36.3764 35.348 36.4426 35.4437C36.5099 35.5476 36.6036 35.6317 36.7143 35.6872L45.9253 39.4088C45.9673 39.4308 46.0137 39.4434 46.0611 39.4456C46.1085 39.4478 46.1558 39.4397 46.1997 39.4217C46.238 39.4018 46.2702 39.372 46.2929 39.3353C46.3156 39.2987 46.328 39.2566 46.3288 39.2135V29.9278C46.3238 29.8159 46.2846 29.7082 46.2166 29.6192C46.1503 29.5239 46.0588 29.449 45.9522 29.4031L36.7289 25.6754C36.6868 25.6553 36.6408 25.6449 36.5942 25.6449C36.5476 25.6449 36.5016 25.6553 36.4595 25.6754C36.4225 25.698 36.3921 25.7299 36.3713 25.7679C36.3505 25.8059 36.3401 25.8487 36.3411 25.892ZM38.297 28.2346L44.3583 30.6838V36.73L38.297 34.2808V28.2346Z" fill="white"/>
<path d="M28.697 30.0445L30.6681 30.8404V32.7963L28.697 31.9999V30.0445Z" fill="white"/>
<path d="M24.7409 28.4457V29.9391C24.7419 30.0079 24.7546 30.076 24.7785 30.1406C24.8051 30.2119 24.8411 30.2793 24.8857 30.3409C24.9313 30.4041 24.9853 30.4607 25.0462 30.5093C25.1027 30.5547 25.166 30.5908 25.2337 30.6165L26.7266 31.2198V29.2482L24.7409 28.4457Z" fill="white"/>
<path d="M24.7409 21.5638V26.4752L30.7125 28.8885V27.5741L32.6386 28.3525V33.6225L33.5927 34.0086C33.6463 34.0344 33.705 34.0478 33.7644 34.0478C33.8239 34.0478 33.8826 34.0344 33.9362 34.0086C33.9837 33.9793 34.0226 33.9378 34.0488 33.8885C34.0751 33.8392 34.0877 33.7838 34.0855 33.728V25.3392C34.0799 25.1923 34.0295 25.0505 33.9412 24.9329C33.8538 24.8073 33.7331 24.7086 33.5927 24.6478L28.0241 22.3978V27.1453L26.0537 26.3495V21.602L25.2337 21.2709C25.1792 21.2446 25.1194 21.2314 25.059 21.2321C24.9985 21.2327 24.939 21.2474 24.8852 21.2748C24.8377 21.3059 24.7994 21.3491 24.774 21.3998C24.7487 21.4506 24.7373 21.5072 24.7409 21.5638Z" fill="white"/>
<path d="M41.3271 21.5317C40.602 21.2388 40.0138 20.4126 40.0138 19.687C40.0138 18.9613 40.602 18.6111 41.3271 18.904C42.0522 19.197 42.6409 20.0231 42.6409 20.7488C42.6409 21.4745 42.0528 21.8247 41.3271 21.5317Z" fill="white"/>
<path d="M41.3271 33.7863C40.602 33.4934 40.0138 32.6672 40.0138 31.9421C40.0138 31.217 40.602 30.8657 41.3271 31.1564C42.0522 31.4471 42.6409 32.2755 42.6409 33.0012C42.6409 33.7268 42.0528 34.0821 41.3271 33.7863Z" fill="white"/>
<path d="M29.384 16.7063C28.6583 16.4133 28.0702 15.5872 28.0702 14.8615C28.0702 14.1359 28.6583 13.7856 29.384 14.0758C30.1096 14.366 30.6995 15.1977 30.6995 15.9234C30.6995 16.6491 30.1096 16.9993 29.384 16.7063Z" fill="white"/>
<path d="M20.8515 1.49733V33.5618L49.6429 45.1939V13.1295L20.8515 1.49733ZM22.7131 4.25748L47.7796 14.3844V42.436L22.7131 32.3091V4.25748Z" fill="#056672"/>
<path d="M20.8515 1.49733L49.6412 13.1295L50.4387 12.795L21.8904 1.49733H20.8515Z" fill="#055052"/>
<path d="M49.6412 13.1295V45.1962L50.4387 44.7961V12.795L49.6412 13.1295Z" fill="#003839"/>
<path opacity="0.44" d="M18.1487 11.942L51.1055 25.6648V23.7509L18.1487 10.0282V11.942Z" fill="#E60012"/>
<path opacity="0.08" d="M18.1487 24.8947L51.1055 38.6169V25.7371L18.1487 12.015V24.8947Z" fill="#E60012"/>
<path d="M4.46128 25.457C4.48597 25.7203 4.55781 26.0346 4.65771 26.4628C4.91756 27.5707 5.80095 28.2464 6.89143 29.0776C8.6436 30.4122 8.23839 33.5326 8.12614 35.4717C7.95777 38.3986 8.00435 41.3321 8.02849 44.2612C8.05318 47.2273 7.94206 50.2165 8.42584 53.1545C8.70646 54.8483 10.9318 54.845 12.254 54.7389C13.8489 54.6097 15.3759 54.0376 16.6631 53.0872C17.3074 52.6062 18.1004 51.8255 17.8641 50.9349C17.7839 50.6335 17.5717 50.3837 17.3366 50.1794C17.1084 49.9938 16.8642 49.8287 16.607 49.6861L16.4829 49.6131L16.4739 49.6075C16.2801 49.4957 16.0927 49.3729 15.9127 49.2399C15.8134 49.1645 15.7196 49.0819 15.6321 48.993C15.5473 48.9064 15.4721 48.811 15.4076 48.7084C15.2553 48.4621 15.1529 48.1883 15.1062 47.9025C15.1062 47.9025 15.1062 47.8991 15.1062 47.8969C14.948 46.9753 15.2611 45.9326 15.3459 45.0447C15.3683 44.8101 15.3893 44.5755 15.4087 44.3409C15.5154 43.0849 15.59 41.826 15.6562 40.5672C15.8111 37.6224 15.9206 34.6703 16.2893 31.7423C16.3213 31.4858 16.3623 31.2305 16.415 30.9773L16.4319 30.8977C16.4965 30.5826 16.5836 30.2726 16.6923 29.9699C16.7029 29.9407 16.7142 29.9138 16.7259 29.8818L16.7316 29.8678C16.8696 29.5129 17.0435 29.1731 17.2507 28.8536C17.3989 28.6291 18.1257 27.7637 18.7402 26.9926C18.8468 26.859 18.9507 26.7277 19.0466 26.6031L19.0831 26.5554C19.2515 26.3337 19.3991 26.135 19.499 25.9835C19.604 25.823 19.6584 25.7141 19.6365 25.6815L18.3204 23.7071L14.8408 22.2182C14.8408 22.2182 5.22905 23.6572 4.7795 24.3329C4.50281 24.7504 4.42199 25.0378 4.46128 25.457Z" fill="#B3B3B3"/>
<path d="M8.31754 52.2588C8.34335 52.5597 8.37815 52.8582 8.42978 53.1568C8.7104 54.8501 10.9363 54.8473 12.258 54.7412C13.8525 54.6111 15.3792 54.0389 16.6665 53.0889C17.3108 52.6085 18.1038 51.8272 17.8664 50.9366C17.7867 50.6352 17.5751 50.3854 17.3388 50.1806C17.2337 50.0913 17.1233 50.0085 17.0083 49.9325C16.9852 51.2233 13.3473 52.2661 8.86362 52.2661C8.67841 52.2644 8.49657 52.2628 8.31754 52.2588Z" fill="#878687"/>
<path d="M4.34625 24.2829C4.34625 24.3452 4.34625 24.4087 4.34625 24.4721C4.35428 24.7695 4.38599 25.0659 4.4411 25.3583C4.44784 25.3903 4.45401 25.4222 4.46074 25.4542C4.52464 25.7699 4.61706 26.0791 4.73687 26.378C4.83473 26.6254 4.953 26.8642 5.09045 27.0919C5.79255 28.2554 6.80951 28.8626 8.14918 29.0478C9.66732 29.2577 11.296 29.1286 12.8136 28.976C12.8899 28.9687 12.9663 28.9603 13.042 28.9513C14.1424 28.8171 15.2238 28.5574 16.2652 28.1773L16.2803 28.1717C16.6508 28.0363 17.015 27.8857 17.3731 27.7199C17.8421 27.5024 18.2985 27.2589 18.7402 26.9903C18.8777 26.9073 19.0147 26.822 19.1483 26.7322L19.2442 26.6693C19.43 26.5453 19.6118 26.4168 19.7914 26.2832C21.263 25.1854 22.4932 23.7795 23.3137 22.0981C23.3946 21.9336 23.472 21.7613 23.5461 21.5879C23.5932 21.4756 23.6393 21.3634 23.683 21.2461C23.9805 20.4654 24.1881 19.6151 24.2044 18.803C24.2044 18.7694 24.2044 18.7357 24.2044 18.7031C24.2044 18.6706 24.2044 18.6397 24.2044 18.6089C24.2044 18.578 24.2044 18.5499 24.2044 18.5207C24.2044 18.4916 24.2044 18.4646 24.2011 18.4366C24.1819 18.0339 24.0978 17.6371 23.9519 17.2613C23.7378 16.7335 23.3895 16.2707 22.9416 15.9189L22.9372 15.9155C22.1795 15.3054 21.1799 14.9692 20.2241 14.7897C18.5966 14.4838 16.8994 14.5152 15.2634 14.7195C14.9934 14.7526 14.724 14.8009 14.4552 14.8604C13.6385 15.0493 12.8445 15.3261 12.0874 15.6859C12.038 15.7084 11.9886 15.7314 11.9398 15.755C11.869 15.7892 11.7989 15.8234 11.7287 15.8588C10.9235 16.264 10.1495 16.7285 9.41308 17.2484C8.43387 17.9326 7.53074 18.7196 6.71915 19.5961C6.232 20.1242 5.7151 20.6894 5.29867 21.3017C5.29867 21.3017 5.29249 21.3106 5.28969 21.3157C5.13197 21.547 4.99039 21.7889 4.86596 22.0397C4.55731 22.6765 4.38253 23.3699 4.35243 24.077C4.35243 24.0955 4.35243 24.114 4.35243 24.1331V24.1892V24.2027C4.34681 24.2291 4.34625 24.2554 4.34625 24.2829Z" fill="#B3B3B3"/>
<path d="M5.01799 22.7412C5.02361 23.2115 5.17963 23.642 5.64545 23.9097C5.9126 24.0635 6.21847 24.1342 6.52154 24.1954C10.4115 24.9721 14.6774 24.2633 18.0325 22.1227C19.8335 20.9692 21.3024 19.3657 22.2939 17.4707C22.3383 17.387 22.3809 17.3023 22.4224 17.2175C22.4348 17.1928 22.4471 17.167 22.4589 17.1418C22.4707 17.1165 22.4853 17.0856 22.4982 17.0593C22.6211 16.7972 22.7351 16.5205 22.8349 16.2348C22.8724 16.1312 22.907 16.0266 22.9388 15.9211L22.9343 15.9183C22.1766 15.3082 21.1771 14.972 20.2218 14.7919C18.5943 14.486 16.8971 14.5174 15.2605 14.7217C14.9906 14.7554 14.7217 14.8031 14.4529 14.8626C13.6362 15.0519 12.8423 15.3289 12.0851 15.6887C12.0351 15.7112 11.9863 15.7342 11.9375 15.7578C11.8667 15.7914 11.7966 15.8257 11.7264 15.861C10.9212 16.2664 10.1471 16.7311 9.41078 17.2512C8.43135 17.9349 7.52819 18.7217 6.71685 19.5983C6.23026 20.1264 5.71336 20.6916 5.29693 21.3044C5.18131 21.672 5.05503 22.1059 5.0236 22.5246C5.0236 22.5554 5.01968 22.5852 5.01855 22.6155C5.01743 22.6593 5.01743 22.7002 5.01799 22.7412Z" fill="#E9E9E9"/>
<path d="M4.3468 24.1988C4.35466 24.233 4.36364 24.2667 4.37318 24.2998L4.38497 24.3374C4.3917 24.3598 4.39844 24.3817 4.40629 24.4025C4.41415 24.4233 4.41808 24.4367 4.42425 24.4536C4.45112 24.5266 4.48184 24.5982 4.51629 24.668C4.52976 24.6955 4.54323 24.7241 4.55783 24.7482C4.57242 24.7723 4.59262 24.8116 4.61395 24.8425C4.62293 24.8582 4.63247 24.8734 4.64201 24.8885C4.65155 24.9037 4.66222 24.9211 4.67288 24.9368C4.69196 24.966 4.71217 24.9929 4.73237 25.0238L4.7638 25.0676L4.79691 25.1108C4.81936 25.14 4.84237 25.1669 4.86538 25.1955C4.87661 25.209 4.88839 25.2236 4.9013 25.237C4.91421 25.2505 4.92487 25.2651 4.93722 25.2786C4.96135 25.3061 4.98605 25.3347 5.01243 25.3588L5.05059 25.3981C5.15787 25.5079 5.27243 25.6102 5.3935 25.7046C5.4182 25.7242 5.44458 25.7438 5.46983 25.7607H5.47264L5.5456 25.8129C5.57198 25.8314 5.60172 25.8499 5.62642 25.869L5.71004 25.9223L5.7207 25.9296L5.78749 25.9706L5.82734 25.9942L5.91489 26.0435C5.94408 26.0598 5.97102 26.0761 6.00301 26.0912C6.11525 26.1507 6.2275 26.2035 6.3448 26.254C6.44301 26.2961 6.54179 26.3337 6.64057 26.3663L6.72251 26.3943C6.79996 26.4196 6.87685 26.4426 6.9543 26.4633C8.31529 26.8287 9.76047 26.6878 11.1478 26.6508C13.6566 26.5818 16.2242 26.0031 18.3732 24.6668C18.4933 24.5916 18.6128 24.5147 18.7307 24.4362C18.7672 24.412 18.8036 24.3879 18.8396 24.3626C18.8912 24.3278 18.9423 24.2925 18.9922 24.2571C19.2324 24.0888 19.4665 23.9153 19.696 23.7341C19.7319 23.7066 19.7673 23.6779 19.8026 23.6493C19.8554 23.6072 19.9082 23.564 19.9604 23.5208C20.0541 23.4439 20.1472 23.3648 20.241 23.2851L20.2937 23.2391C20.3695 23.1739 20.4441 23.1077 20.5182 23.0404C20.5923 22.973 20.6546 22.9175 20.7219 22.8552L20.7781 22.8019C20.8426 22.7418 20.9066 22.6817 20.97 22.6206C21.0879 22.5083 21.2042 22.394 21.3191 22.2777C21.3792 22.2187 21.4381 22.1598 21.4965 22.0997L21.5223 22.0728C21.5907 22.0028 21.6586 21.9319 21.726 21.8601C21.9022 21.6753 22.0755 21.4873 22.2457 21.2961L22.372 21.1552C22.6627 20.8252 22.9471 20.4898 23.2251 20.1489C23.325 20.0277 23.4226 19.9064 23.5208 19.7841L23.6331 19.6455C23.7229 19.5332 23.8115 19.421 23.9002 19.3087C24.0007 19.1796 24.1017 19.0511 24.201 18.922C24.201 18.8833 24.2038 18.8435 24.205 18.8042C24.2061 18.7649 24.205 18.7374 24.205 18.7043C24.205 18.6712 24.205 18.6409 24.205 18.61C24.205 18.5791 24.205 18.5511 24.205 18.5219C24.205 18.4927 24.205 18.4658 24.201 18.4383C24.201 18.3861 24.1949 18.3339 24.1904 18.2822C24.1904 18.257 24.1859 18.2312 24.1831 18.2053C24.1803 18.1795 24.1775 18.1537 24.1747 18.1284C24.1747 18.1217 24.1747 18.115 24.1719 18.1082C24.1662 18.0673 24.1606 18.0263 24.1539 17.9859C24.1455 17.9298 24.1354 17.8736 24.1242 17.8215L24.1107 17.7586C24.1068 17.7412 24.1028 17.7244 24.0983 17.707C24.0938 17.6896 24.0854 17.6542 24.0781 17.6284C24.0708 17.6026 24.0641 17.5768 24.0568 17.5509C24.0543 17.5412 24.0513 17.5317 24.0478 17.5223C24.0422 17.501 24.0355 17.4802 24.0287 17.4589C24.0057 17.3871 23.9805 17.3163 23.9524 17.2462C23.7379 16.7184 23.3898 16.2556 22.9422 15.9032C22.941 15.9079 22.9395 15.9126 22.9377 15.9172C22.9052 16.0221 22.8704 16.126 22.8344 16.2292C22.7323 16.5143 22.6184 16.7905 22.4949 17.0526C22.4842 17.0767 22.4724 17.1003 22.4612 17.1238C22.45 17.1474 22.4371 17.1749 22.4247 17.1996C22.3817 17.2883 22.337 17.3762 22.2906 17.4634C21.2991 19.3538 19.8324 20.9535 18.0348 22.1048C14.6774 24.2453 10.4115 24.9553 6.52159 24.1791C6.21852 24.1185 5.91265 24.0467 5.6455 23.8929C5.18473 23.6285 5.02814 23.2048 5.01804 22.7412C5.01804 22.7003 5.01804 22.6593 5.01804 22.6178C5.01804 22.5914 5.01804 22.5656 5.02253 22.5398C5.02197 22.5355 5.02197 22.5311 5.02253 22.5268C5.05003 22.1149 5.17238 21.685 5.28575 21.3208C5.28912 21.3101 5.29192 21.3005 5.29529 21.2904C5.13316 21.5259 4.98817 21.7728 4.86145 22.029C4.55221 22.6693 4.37853 23.3665 4.35129 24.077C4.35129 24.0955 4.35129 24.1146 4.35129 24.1331C4.35099 24.135 4.35099 24.1369 4.35129 24.1387C4.35129 24.155 4.35129 24.1718 4.35129 24.1887C4.34955 24.1919 4.34805 24.1953 4.3468 24.1988Z" fill="#E6E6E5"/>
<g style="mix-blend-mode:multiply" opacity="0.75">
<g style="mix-blend-mode:multiply" opacity="0.75">
<path d="M11.7265 15.8622C13.0948 15.8022 15.0198 15.7825 17.6195 15.8886C19.9458 15.9829 21.3202 16.506 22.1273 17.2956C22.1834 17.3518 22.2395 17.4079 22.2872 17.464C22.2893 17.4659 22.2911 17.468 22.2929 17.4702C22.9338 18.1998 23.1566 19.1286 23.2245 20.1501C23.2604 20.6962 23.252 21.2681 23.2391 21.8501C23.4175 21.4309 23.5656 20.9995 23.6825 20.5592C23.7913 20.1498 23.8634 19.7316 23.898 19.3093C23.9485 18.646 23.8845 17.9989 23.6533 17.4202C23.4716 16.9693 23.1921 16.5643 22.835 16.2343C22.834 16.2326 22.8327 16.2311 22.8311 16.2298C22.7626 16.1659 22.6919 16.1053 22.6195 16.0463C21.8433 15.4194 20.8179 15.0748 19.838 14.8902C18.174 14.577 16.4347 14.6096 14.76 14.8183C14.6578 14.8312 14.5551 14.8453 14.453 14.8621C13.6363 15.0515 12.8424 15.3284 12.0851 15.6883C12.0352 15.7107 11.9864 15.7337 11.9375 15.7573C11.8668 15.7926 11.7967 15.8269 11.7265 15.8622Z" fill="#878687"/>
</g>
</g>
<path d="M12.0851 15.6899C13.4573 15.627 15.4065 15.6046 18.055 15.7123C20.3151 15.8044 21.6772 16.2999 22.4926 17.0537L22.4982 17.0593C22.5201 17.0789 22.5415 17.0997 22.5628 17.1199C23.2554 17.7979 23.5309 18.6734 23.6319 19.6455C23.6628 19.9418 23.678 20.2466 23.6836 20.558C23.6869 20.7825 23.6836 21.0143 23.6836 21.2472C23.9805 20.466 24.1887 19.6157 24.2044 18.8036C24.2044 18.7699 24.2044 18.7368 24.2044 18.7037C24.2044 18.6706 24.2044 18.6403 24.2044 18.6094C24.2044 18.5786 24.2044 18.5505 24.2044 18.5213C24.2044 18.4921 24.2044 18.4652 24.2005 18.4377C24.1841 18.0293 24.1001 17.6265 23.9518 17.2456C23.7374 16.7179 23.3892 16.255 22.9416 15.9026C22.9404 15.9073 22.9389 15.912 22.9371 15.9166C22.1795 15.3066 21.1799 14.9704 20.2247 14.7902C18.5971 14.4843 16.8999 14.5158 15.2634 14.7201C14.9934 14.7537 14.7246 14.8014 14.4558 14.8609C13.639 15.0503 12.8452 15.3273 12.0879 15.6871L12.0851 15.6899Z" fill="#878687"/>
<path d="M4.34625 24.2824C4.35523 24.2886 4.36477 24.2948 4.37375 24.302C4.6061 24.4738 4.76662 24.7291 4.94846 24.9553C5.57536 25.7281 6.52665 26.1844 7.49983 26.3943C10.8515 27.1166 14.4743 25.9891 17.2749 24.1494L17.2816 24.1449C18.0648 23.6277 18.8031 23.0458 19.4889 22.4051C19.522 22.3736 19.5563 22.3411 19.5905 22.3097C20.1282 21.8001 21.2142 20.2056 22.07 21.0435C22.1429 21.1163 22.2025 21.2012 22.2463 21.2944C22.3845 21.5972 22.4028 21.9412 22.2973 22.2569C21.9045 23.3367 20.7955 24.1421 19.9228 24.833C17.3214 26.8905 14.036 27.9596 10.7275 27.9332C10.2695 27.9332 9.81099 27.9108 9.35471 27.8676C8.88053 27.8253 8.40984 27.7503 7.94601 27.6431C7.48878 27.5394 7.04344 27.3889 6.61701 27.1941C6.2017 27.0044 5.81681 26.7542 5.4749 26.4516C4.89233 25.9263 4.47758 25.2399 4.34681 24.4676V24.2762L4.34625 24.2824Z" fill="#040000"/>
<path d="M4.34621 24.2824C4.34621 24.2555 4.34621 24.2263 4.34621 24.2011C4.35407 24.2353 4.36305 24.269 4.37259 24.3021L4.38438 24.3397C4.39111 24.3621 4.39785 24.384 4.4057 24.4048C4.41356 24.4256 4.41693 24.439 4.42366 24.4559C4.45053 24.5289 4.48126 24.6005 4.51571 24.6703C4.52861 24.6972 4.54208 24.7236 4.55724 24.7505C4.57239 24.7774 4.59203 24.8139 4.61336 24.8448C4.62178 24.8605 4.63188 24.8757 4.64142 24.8908C4.65096 24.906 4.66163 24.9234 4.67229 24.9391C4.69137 24.9683 4.71158 24.9952 4.73178 25.0261L4.76321 25.0699C4.77387 25.0844 4.7851 25.0985 4.79632 25.1131C4.81821 25.1411 4.84122 25.1692 4.86479 25.1978C4.87602 25.2113 4.88781 25.2259 4.90071 25.2393C4.91362 25.2528 4.92429 25.2674 4.93663 25.2809C4.96077 25.3084 4.98546 25.337 5.01184 25.3611C5.02419 25.3746 5.03709 25.3875 5.05 25.4004C5.15766 25.5093 5.2724 25.6109 5.39348 25.7046C5.41873 25.7243 5.44455 25.7439 5.46981 25.7607H5.47261L5.54557 25.8129C5.57195 25.8314 5.6017 25.85 5.62639 25.869L5.71001 25.9224L5.72068 25.9297L5.78746 25.9706L5.82731 25.9942L5.91486 26.0436C5.94405 26.0599 5.97099 26.0761 6.00298 26.0913C6.11523 26.1508 6.22747 26.2035 6.34477 26.2541C6.44317 26.2956 6.54176 26.333 6.64054 26.3663L6.72248 26.3944C6.79993 26.4196 6.87682 26.4426 6.95427 26.4634C8.31527 26.8288 9.76045 26.6879 11.1478 26.6508C13.6565 26.5818 16.2242 26.0032 18.3732 24.6669C18.4933 24.5917 18.6128 24.5148 18.7307 24.4362C18.7671 24.4126 18.8036 24.388 18.8395 24.3627C18.8912 24.3279 18.9422 24.2931 18.9922 24.2572C19.2324 24.0888 19.4664 23.9154 19.696 23.7341C19.7319 23.7066 19.7673 23.678 19.8026 23.6494C19.8554 23.6073 19.9081 23.5641 19.9603 23.5208C20.0541 23.444 20.1472 23.3648 20.2409 23.2851C20.2583 23.27 20.2763 23.2554 20.2937 23.2391C20.3695 23.174 20.4441 23.1078 20.5182 23.0404C20.5923 22.9731 20.6546 22.9175 20.7219 22.8552L20.778 22.8019C20.8426 22.7419 20.9066 22.6818 20.97 22.6206C21.0878 22.5084 21.2042 22.3941 21.3191 22.2777C21.3793 22.2186 21.4384 22.1593 21.4964 22.0998L21.5222 22.0729C21.5913 22.0027 21.6586 21.932 21.726 21.8602C21.9022 21.6753 22.0754 21.4873 22.2457 21.2961L22.372 21.1552C22.3865 21.1816 22.4 21.208 22.4124 21.2349C22.4208 21.2523 22.4286 21.2703 22.4354 21.2883C22.4421 21.3062 22.4488 21.3202 22.455 21.3371C22.4715 21.3829 22.4856 21.4295 22.4971 21.4768C22.5016 21.4948 22.5055 21.5135 22.5089 21.533C22.5134 21.5515 22.5162 21.5706 22.5196 21.5891C22.5196 21.5891 22.5196 21.5941 22.5196 21.5969C22.5196 21.6143 22.5252 21.6317 22.5269 21.6486C22.5562 21.8739 22.5334 22.103 22.4601 22.3181C22.2709 22.8401 21.9308 23.293 21.5301 23.701C21.4553 23.7758 21.378 23.8507 21.2983 23.9255C21.1148 24.0939 20.9223 24.2622 20.7292 24.4171C20.6731 24.462 20.617 24.5064 20.5637 24.5501C20.4514 24.6384 20.342 24.7249 20.2353 24.8094C20.2005 24.8369 20.1657 24.8656 20.1309 24.8908C20.0961 24.9161 20.063 24.9469 20.0288 24.9722C19.8485 25.1148 19.6653 25.2524 19.4793 25.3853C19.339 25.4852 19.1987 25.5828 19.0534 25.6777C19.0057 25.7097 18.958 25.7405 18.9097 25.7714C18.7806 25.8545 18.651 25.9353 18.5168 26.0133C18.3524 26.1115 18.1868 26.2063 18.0185 26.2984L17.8501 26.3888C17.4434 26.6039 17.0268 26.7994 16.6002 26.9752C16.5054 27.0145 16.4105 27.0527 16.3145 27.0903C14.5687 27.7658 12.7128 28.1119 10.8408 28.1112H10.7213H10.5361C10.2914 28.1073 10.0573 28.0988 9.83116 28.0848C9.71891 28.0781 9.6076 28.0702 9.49723 28.0612C9.4411 28.0573 9.38498 28.0522 9.33335 28.0472C8.85164 28.0044 8.37345 27.9285 7.9022 27.8199C7.43283 27.7144 6.97575 27.5601 6.5384 27.3597C6.10708 27.1631 5.70756 26.9032 5.35307 26.5886C4.96814 26.2453 4.65659 25.8278 4.43713 25.3611C4.3815 25.0688 4.34978 24.7724 4.34229 24.4749V24.2836L4.34621 24.2824Z" fill="#E5E5E5"/>
<path d="M4.34625 24.2824C4.35523 24.2886 4.36477 24.2948 4.37375 24.302C4.6061 24.4738 4.76662 24.7291 4.94846 24.9553C5.57536 25.7281 6.52665 26.1844 7.49983 26.3943C10.8515 27.1166 14.4743 25.9891 17.2749 24.1494L17.2816 24.1449C18.0648 23.6277 18.8031 23.0458 19.4889 22.4051C19.522 22.3736 19.5563 22.3411 19.5905 22.3097C20.1282 21.8001 21.2142 20.2056 22.07 21.0435C22.1429 21.1163 22.2025 21.2012 22.2463 21.2944C22.3845 21.5972 22.4028 21.9412 22.2973 22.2569C21.9045 23.3367 20.7955 24.1421 19.9228 24.833C17.3214 26.8905 14.036 27.9596 10.7275 27.9332C10.2695 27.9332 9.81099 27.9108 9.35471 27.8676C8.88053 27.8253 8.40984 27.7503 7.94601 27.6431C7.48878 27.5394 7.04344 27.3889 6.61701 27.1941C6.2017 27.0044 5.81681 26.7542 5.4749 26.4516C4.89233 25.9263 4.47758 25.2399 4.34681 24.4676V24.2762L4.34625 24.2824Z" fill="#878687"/>
<path d="M10.3829 23.7536C11.6004 23.7447 12.8061 23.5134 13.9405 23.0712C14.793 22.7423 15.4424 22.3713 15.9834 21.9038C16.2214 21.6978 16.4627 21.4924 16.7052 21.2865C17.7586 20.3918 18.8474 19.4664 19.7628 18.4056C19.7993 18.363 19.8425 18.3113 19.8834 18.253C19.9315 18.1852 19.9716 18.1121 20.003 18.0352C20.0493 17.9304 20.0715 17.8166 20.068 17.7021C20.0645 17.5876 20.0354 17.4753 19.9828 17.3735C19.7835 17.0076 19.3323 16.9189 19.0629 16.8684C18.6235 16.7825 18.1649 16.7096 17.6991 16.6512C16.745 16.5317 15.7224 16.4761 14.4771 16.4761H14.064C13.1217 16.4845 12.0295 16.5524 11.0726 16.9981C10.1933 17.4072 9.38647 17.9569 8.684 18.6256C8.03914 19.2396 7.14902 20.1876 6.87065 21.3342C6.63774 22.2933 7.06708 23.1195 7.937 23.3911C8.72942 23.6342 9.55398 23.7565 10.3829 23.7536Z" fill="white"/>
<path d="M10.1993 23.6745C11.3844 23.6658 12.5579 23.4408 13.6621 23.0106C14.4855 22.6929 15.1096 22.3371 15.6265 21.8881C15.8656 21.6823 16.1069 21.4765 16.3505 21.2708C17.396 20.3823 18.477 19.4641 19.3811 18.4186C19.4183 18.3764 19.4533 18.3324 19.4861 18.2867C19.5227 18.2359 19.5531 18.1809 19.5764 18.1228C19.6088 18.0541 19.6251 17.9788 19.6239 17.9029C19.6227 17.8269 19.6042 17.7522 19.5697 17.6845C19.43 17.428 19.0691 17.3573 18.8306 17.3107C18.3978 17.2259 17.9449 17.1535 17.4836 17.0963C16.5418 16.9779 15.5288 16.9229 14.2947 16.9229H13.8838C12.9696 16.9307 11.9128 16.9958 11.0013 17.4201C10.1478 17.8179 9.36487 18.3523 8.68344 19.0023C8.06215 19.5932 7.20627 20.503 6.94361 21.5839C6.74213 22.4117 7.09178 23.0959 7.83373 23.3266C8.6002 23.5613 9.39772 23.679 10.1993 23.6756V23.6745Z" fill="#B3B3B3"/>
<path d="M19.2139 18.3109C19.1847 18.3518 19.1534 18.3911 19.1201 18.4287C18.0207 19.7039 16.6574 20.7831 15.3868 21.8815C14.8172 22.3731 14.1729 22.7014 13.473 22.9714C11.6681 23.6679 9.6246 23.8621 7.76074 23.2829C7.05919 23.0651 6.82179 22.4376 6.98848 21.7501C7.22476 20.7792 7.97008 19.9295 8.6778 19.2566C9.34582 18.6203 10.1127 18.0968 10.9486 17.7064C11.8106 17.3051 12.8214 17.2339 13.7587 17.2254C14.958 17.2153 16.1411 17.2456 17.3349 17.3938C17.7838 17.4499 18.2287 17.5208 18.6695 17.6065C18.9624 17.6626 19.4552 17.7614 19.2868 18.1807C19.2676 18.2268 19.2432 18.2705 19.2139 18.3109Z" fill="#DEDEDF"/>
<path d="M13.7008 44.5688V44.5845C13.7008 46.2362 13.9141 49.2282 15.9952 49.5862C16.1607 49.6126 16.3283 49.6227 16.4958 49.6165C16.1428 49.6255 15.7033 49.1838 15.5215 48.9234C15.2521 48.5384 15.1348 48.0552 15.0848 47.595C14.9844 46.6717 15.141 45.7496 15.2706 44.8382C15.3969 43.9582 15.4699 43.0697 15.5417 42.1835C15.6826 40.4499 15.7583 38.7117 15.8492 36.9753C15.9177 35.6637 16.0013 34.3521 16.1344 33.0466C16.1785 32.6111 16.2279 32.1761 16.2825 31.7418C16.3145 31.4853 16.3555 31.2299 16.4082 30.9768L16.4251 30.8971C16.492 30.5821 16.5813 30.2722 16.6922 29.9699C16.6922 29.9638 16.6967 29.957 16.6995 29.9508C16.7079 29.9278 16.7164 29.9048 16.7259 29.8818L16.7315 29.8678C16.8695 29.5129 17.0435 29.1731 17.2507 28.8536C17.3988 28.6291 18.1256 27.7637 18.7402 26.9926C18.8777 26.9095 19.0146 26.8242 19.1482 26.7344L19.2442 26.6716C19.2442 26.598 19.1706 26.5672 19.0831 26.5554C18.9934 26.5472 18.9031 26.5485 18.8137 26.5593C18.3844 26.5986 18.0083 26.7933 17.6469 27.0156C17.2941 27.2321 16.9639 27.4835 16.6614 27.766C16.5257 27.8929 16.3985 28.0284 16.2803 28.1717C15.086 29.6158 14.8357 31.7462 14.5618 33.5226C13.9977 37.1779 13.684 40.8714 13.7008 44.5688Z" fill="#E8E8E6"/>
</svg>
