<svg width="53" height="46" viewBox="0 0 53 46" fill="none" xmlns="http://www.w3.org/2000/svg">
<path d="M25.7913 25.7368H0V46H25.7913V25.7368Z" fill="#D8D8D8"/>
<path d="M25.7913 25.7426L22.8714 21.2144L2.6398 21.2728L0 25.7426H25.7913Z" fill="#E8E8E6"/>
<path d="M23.9527 30.9468H1.37685V39.1161H23.9527V30.9468Z" fill="#056672"/>
<path d="M3.31545 37.8046V34.3543C3.26989 34.3694 3.22488 34.3922 3.1721 34.41C2.97596 34.4707 2.67203 34.4784 2.20586 34.4857V33.3131C2.32643 33.3131 2.80205 33.3588 3.1571 33.1167C3.24752 33.0521 3.32882 32.9755 3.3988 32.8891C3.45407 32.8027 3.49708 32.7091 3.52659 32.6108H4.87066V37.8057L3.31545 37.8046Z" fill="white"/>
<path d="M8.19279 37.8046V34.3543C8.14778 34.3694 8.10222 34.3922 8.04943 34.41C7.85329 34.4707 7.54937 34.4784 7.08319 34.4857V33.3131C7.20376 33.3131 7.67938 33.3588 8.03443 33.1167C8.12583 33.0523 8.20807 32.9757 8.27891 32.8891C8.33419 32.8026 8.37737 32.709 8.40726 32.6108H9.75078V37.8057L8.19279 37.8046Z" fill="white"/>
<path d="M11.3488 36.0652V34.7725H13.7269V36.0652H11.3488Z" fill="white"/>
<path d="M18.008 35.4684C17.6746 35.8312 17.2301 36.1184 16.3545 36.6176C16.6189 36.6098 16.8829 36.5948 17.1551 36.5948H18.4608V37.8046H14.1575V36.8218C14.5725 36.5497 14.9882 36.2698 15.3882 35.9748C15.7373 35.7294 16.0722 35.4643 16.3911 35.1807C16.6689 34.9236 16.9651 34.6437 16.9573 34.228C16.9559 34.1459 16.9431 34.0645 16.9195 33.9859C16.8667 33.8423 16.7384 33.6231 16.3383 33.6231C16.0361 33.6231 15.6716 33.7516 15.6716 34.3944C15.6659 34.5227 15.6838 34.6509 15.7244 34.7728L14.1919 34.5836C14.1919 34.4851 14.1997 34.3871 14.2069 34.2886C14.2219 34.0994 14.2447 33.4945 14.6976 33.0643C15.166 32.6191 15.8683 32.5346 16.4645 32.5346C16.7598 32.5301 17.0544 32.5658 17.3401 32.6408C18.103 32.8523 18.5253 33.4199 18.5253 34.2057C18.5286 34.5029 18.4836 34.9542 18.008 35.4684Z" fill="white"/>
<path d="M20.7712 37.8046V34.3543C20.7262 34.3693 20.6806 34.3921 20.6278 34.4099C20.4317 34.4706 20.1277 34.4784 19.6616 34.4856V33.3131C19.7821 33.3131 20.2578 33.3587 20.6128 33.1166C20.7033 33.0523 20.7846 32.9759 20.8545 32.8896C20.91 32.8033 20.9532 32.7096 20.9829 32.6113H22.3269V37.8062L20.7712 37.8046Z" fill="white"/>
<path d="M14.9126 25.7573H10.8787V28.5448H14.9126V25.7573Z" fill="#CCCCCC"/>
<path d="M14.9126 25.7302H10.8787L12.3878 21.1953H13.7247L14.9126 25.7302Z" fill="#DEDEDF"/>
<path d="M52.9994 25.7368H27.2082V46H52.9994V25.7368Z" fill="#D8D8D8"/>
<path d="M53 25.7426L50.0802 21.2144L29.8485 21.2728L27.2082 25.7426H53Z" fill="#E8E8E6"/>
<path d="M51.1609 30.9468H28.585V39.1161H51.1609V30.9468Z" fill="#056672"/>
<path d="M30.4308 37.8046V34.3543C30.3853 34.3693 30.3402 34.3921 30.2875 34.4099C30.0913 34.4706 29.7874 34.4784 29.3212 34.4856V33.3131C29.4418 33.3131 29.9174 33.3587 30.2725 33.1166C30.3628 33.0524 30.444 32.976 30.5136 32.8896C30.5693 32.8034 30.6126 32.7097 30.642 32.6113H31.986V37.8062L30.4308 37.8046Z" fill="white"/>
<path d="M37.4223 35.4684C37.0889 35.8312 36.6444 36.1184 35.7688 36.6176C36.0332 36.6098 36.2972 36.5948 36.5689 36.5948H37.8752V37.8046H33.5718V36.8218C33.9869 36.5497 34.4025 36.2698 34.8025 35.9748C35.152 35.7295 35.4872 35.4643 35.8065 35.1807C36.0844 34.9236 36.3805 34.6437 36.3727 34.228C36.3713 34.1459 36.3586 34.0645 36.335 33.9859C36.2794 33.8423 36.1538 33.6231 35.7538 33.6231C35.4515 33.6231 35.087 33.7516 35.087 34.3944C35.0822 34.5228 35.1011 34.6511 35.1426 34.7728L33.6101 34.5836C33.6101 34.4851 33.6174 34.3871 33.6251 34.2886C33.6401 34.0994 33.6629 33.4945 34.1158 33.0643C34.5842 32.6191 35.2859 32.5346 35.8827 32.5346C36.178 32.5301 36.4726 32.5658 36.7583 32.6408C37.5207 32.8523 37.9435 33.4199 37.9435 34.2057C37.943 34.5029 37.8979 34.9542 37.4223 35.4684Z" fill="white"/>
<path d="M38.4641 36.0652V34.7725H40.8422V36.0652H38.4641Z" fill="white"/>
<path d="M45.1234 35.4684C44.79 35.8312 44.3455 36.1184 43.4698 36.6176C43.7343 36.6098 43.9982 36.5948 44.2699 36.5948H45.5762V37.8046H41.2728V36.8218C41.6879 36.5497 42.1063 36.2698 42.5036 35.9748C42.8525 35.7294 43.1871 35.4643 43.5059 35.1807C43.7837 34.9236 44.0799 34.6437 44.0721 34.228C44.0707 34.1459 44.0579 34.0645 44.0343 33.9859C43.9815 33.8423 43.8532 33.6231 43.4531 33.6231C43.1509 33.6231 42.7864 33.7516 42.7864 34.3944C42.7816 34.5228 42.8004 34.6511 42.8419 34.7728L41.3095 34.5836C41.3095 34.4851 41.3173 34.3871 41.3245 34.2886C41.3395 34.0994 41.3623 33.4945 41.8151 33.0643C42.2835 32.6191 42.9859 32.5346 43.582 32.5346C43.8774 32.5301 44.172 32.5658 44.4577 32.6408C45.22 32.8523 45.6429 33.4199 45.6429 34.2057C45.644 34.5029 45.599 34.9542 45.1234 35.4684Z" fill="white"/>
<path d="M50.4008 36.8957C49.8346 37.9619 48.5888 37.9313 48.2794 37.9313C47.766 37.9313 47.2753 37.8556 46.8297 37.5607C46.6221 37.4176 46.4471 37.2321 46.3163 37.0164C46.173 36.7593 46.1274 36.5156 46.0674 36.2301L47.6076 36.0787C47.6026 36.2004 47.6127 36.3223 47.6376 36.4416C47.6826 36.6085 47.8565 36.8868 48.2944 36.8868C48.77 36.8868 49.0645 36.5618 49.0645 36.0776C49.0572 35.5712 48.755 35.2763 48.2716 35.2763C48.2116 35.2763 47.9621 35.2763 47.7887 35.4198C47.7259 35.4718 47.6745 35.5362 47.6376 35.609L46.3396 35.4527L46.6341 32.6401H50.4769L50.3708 33.7236H47.7287L47.6609 34.4471C47.7257 34.4081 47.7939 34.3753 47.8649 34.3491C48.1816 34.2278 48.5816 34.2206 48.665 34.2206C48.9267 34.2237 49.1864 34.2671 49.4351 34.3491C50.1574 34.5907 50.6352 35.1883 50.6352 35.9669C50.6371 36.2914 50.5564 36.611 50.4008 36.8957Z" fill="white"/>
<path d="M42.1207 25.7573H38.0869V28.5448H42.1207V25.7573Z" fill="#CCCCCC"/>
<path d="M42.1213 25.7302H38.0869L39.596 21.1953H40.9334L42.1213 25.7302Z" fill="#DEDEDF"/>
<path d="M38.6981 4.5415H12.9068V24.8047H38.6981V4.5415Z" fill="#D8D8D8"/>
<path d="M38.6981 4.54774L35.7782 0.0195312L15.5466 0.0779634L12.9068 4.54774H38.6981Z" fill="#E8E8E6"/>
<path d="M36.8589 9.75146H14.2831V17.9208H36.8589V9.75146Z" fill="#056672"/>
<path d="M16.1755 16.3768V12.9265C16.13 12.9416 16.085 12.9644 16.0322 12.9822C15.8355 13.0428 15.5321 13.0501 15.0654 13.0579V11.8853C15.1865 11.8853 15.6621 11.9304 16.0172 11.6889C16.1076 11.6246 16.1887 11.5482 16.2583 11.4618C16.3141 11.3757 16.3573 11.282 16.3867 11.1836H17.7307V16.3785L16.1755 16.3768Z" fill="white"/>
<path d="M23.0837 15.8701C22.8576 16.1117 22.3442 16.5051 21.4835 16.5051C21.1668 16.5136 20.8522 16.4516 20.5623 16.3237C20.0111 16.0744 19.7244 15.6203 19.6177 15.4333C19.4593 15.155 19.2632 14.6464 19.2632 13.8601C19.2632 13.6336 19.2782 12.8395 19.6555 12.1667C19.8728 11.7784 20.2052 11.4672 20.6067 11.2763C20.9279 11.137 21.2766 11.0725 21.6263 11.0876C21.8602 11.0876 22.4414 11.1099 22.9476 11.5261C23.3399 11.8433 23.8155 12.5239 23.8155 13.7265C23.816 14.8267 23.3921 15.5374 23.0837 15.8701ZM22.2458 13.0877C22.238 13.0348 22.2158 12.702 22.1025 12.4677C22.0553 12.3625 21.979 12.2731 21.8826 12.2102C21.7861 12.1472 21.6736 12.1134 21.5585 12.1127C21.3893 12.1192 21.2295 12.1924 21.114 12.3164C21.0626 12.3786 21.0195 12.4473 20.9856 12.5206C20.819 12.8834 20.8045 13.564 20.8045 13.9575C20.8045 14.2975 20.8195 14.7967 20.9856 15.0994C21.039 15.2 21.1183 15.2846 21.2152 15.3443C21.312 15.4041 21.4231 15.4369 21.5368 15.4394C21.6259 15.4359 21.7132 15.4132 21.7927 15.3728C21.8722 15.3323 21.9421 15.2751 21.9974 15.2051C22.1708 14.9781 22.2842 14.5173 22.2842 13.8439C22.2836 13.5941 22.2686 13.337 22.2458 13.0871V13.0877Z" fill="white"/>
<path d="M24.2089 14.6359V13.3442H26.587V14.6359H24.2089Z" fill="white"/>
<path d="M28.7539 16.3765V12.9263C28.7089 12.9413 28.6634 12.9641 28.6106 12.9819C28.4144 13.0426 28.1105 13.0498 27.6443 13.0576V11.8851C27.7649 11.8851 28.2405 11.9301 28.5956 11.6886C28.6858 11.6248 28.7671 11.5492 28.8373 11.4638C28.8928 11.3775 28.936 11.2838 28.9656 11.1855H30.3091V16.3804L28.7539 16.3765Z" fill="white"/>
<path d="M35.7454 14.04C35.412 14.4034 34.9675 14.6906 34.0919 15.1898C34.3563 15.182 34.6203 15.1669 34.8925 15.1669H36.1983V16.3768H31.8932V15.394C32.3083 15.1219 32.7267 14.842 33.124 14.547C33.4732 14.3013 33.8084 14.0362 34.128 13.7529C34.4058 13.4958 34.702 13.2159 34.6942 12.8002C34.6927 12.7181 34.68 12.6367 34.6564 12.5581C34.6008 12.4145 34.4753 12.1953 34.0752 12.1953C33.7735 12.1953 33.4084 12.3238 33.4084 12.9666C33.4027 13.0947 33.4206 13.2228 33.4612 13.3444L31.9288 13.1558C31.9288 13.0573 31.9366 12.9588 31.9438 12.8608C31.9588 12.6716 31.9816 12.0667 32.4344 11.6365C32.9028 11.1913 33.6051 11.1073 34.2013 11.1073C34.4967 11.1028 34.7913 11.1386 35.077 11.2136C35.8399 11.4251 36.2627 11.9927 36.2627 12.7785C36.2666 13.0723 36.221 13.5258 35.7454 14.04Z" fill="white"/>
<path d="M27.8193 4.56201H23.7855V7.3495H27.8193V4.56201Z" fill="#CCCCCC"/>
<path d="M27.8193 4.53545H23.7855L25.294 0H26.6314L27.8193 4.53545Z" fill="#DEDEDF"/>
</svg>
