<svg width="50" height="41" viewBox="0 0 50 41" fill="none" xmlns="http://www.w3.org/2000/svg">
<path d="M48.8725 1.59961H1.1275V32.0211H48.8725V1.59961Z" fill="#046672"/>
<path d="M50 33.159H0V0.460938H50V33.159ZM2.25499 30.8813H47.745V2.73863H2.25499V30.8813Z" fill="#D3D3D3"/>
<path d="M14.9134 16.7755C14.057 17.7194 12.908 18.4668 10.6493 19.7646C11.3311 19.745 12.0128 19.7058 12.7134 19.7058H16.0818V22.8522H4.98196V20.2958C6.05335 19.5876 7.12421 18.8598 8.15574 18.0928C9.05144 17.444 9.92774 16.7755 10.7458 16.027C11.4659 15.358 12.2252 14.6302 12.2058 13.5486C12.202 13.3353 12.1694 13.1236 12.1088 12.9193C11.9724 12.5485 11.6415 11.9754 10.6095 11.9754C9.83072 11.9754 8.89569 12.3096 8.89569 13.9813C8.89569 14.4141 8.91562 14.5714 9.03204 14.965L5.07951 14.4729C5.07951 14.2176 5.09891 13.9617 5.11831 13.7059C5.15764 13.2143 5.21585 11.6401 6.38425 10.5198C7.59041 9.35975 9.40227 9.14258 10.9404 9.14258C11.2713 9.14258 12.2451 9.14258 13.1991 9.41802C15.1656 9.9689 16.2559 11.4436 16.2559 13.4893C16.2569 14.2578 16.14 15.438 14.9134 16.7755Z" fill="white"/>
<path d="M27.9787 21.7117C27.5696 22.1249 27.0248 22.3802 26.869 22.4591C25.7006 23.0296 24.3571 23.1276 23.0717 23.1276C22.7602 23.1276 22.4293 23.108 22.1372 23.0884C21.5724 23.0492 19.1386 22.9115 17.8926 20.9839C17.4253 20.2763 17.2696 19.6067 17.0944 18.8011L20.8131 18.0928C20.8325 18.2894 20.8524 18.4864 20.8912 18.6829C21.0858 19.6464 21.5923 19.9611 21.9815 20.1385C22.3313 20.2914 22.7101 20.3651 23.0911 20.3546C23.539 20.3546 25.0582 20.2763 25.0582 18.6437C25.0582 18.5844 25.0582 18.3487 24.9801 18.1718C24.5904 17.1293 22.9349 17.2279 22.799 17.2279C22.2542 17.2279 22.1173 17.2475 21.8257 17.3259V14.6514C22.1178 14.671 22.3905 14.7102 22.702 14.7102C22.9175 14.7101 23.1325 14.6904 23.3444 14.6514C23.5196 14.6313 24.4153 14.5921 24.7661 13.8643C24.8501 13.665 24.8962 13.4515 24.9019 13.235C24.9019 12.6057 24.5128 11.8191 23.0911 11.8191C21.3973 11.8191 21.2803 13.3335 21.2221 13.8251L17.5423 13.5894C17.6587 12.9008 17.7756 12.2519 18.0667 11.6226C19.0599 9.55681 21.338 9.10498 23.3434 9.10498C24.2391 9.10498 24.9009 9.2035 25.2517 9.2819C25.6996 9.38042 27.7831 9.83278 28.4837 11.6422C28.5812 11.8975 28.6982 12.2715 28.6982 12.9008C28.6982 13.3923 28.6201 14.6514 27.4322 15.4184C27.1542 15.59 26.8608 15.7347 26.556 15.8506C26.7133 15.8904 27.1795 15.9884 27.6467 16.2442C28.1916 16.5393 29.1261 17.2475 29.1261 18.8598C29.1272 19.8827 28.6992 21.0035 27.9787 21.7117Z" fill="white"/>
<path d="M35.2628 20.4848C35.1532 20.4848 34.7584 20.4848 34.4437 20.2703C34.387 20.2272 34.3332 20.1803 34.2827 20.1299V21.7778H32.8049V16.5613H34.2733V16.8569C34.3139 16.8 34.3633 16.7501 34.4196 16.7091C34.5586 16.5984 34.8438 16.4575 35.2754 16.4575C36.4606 16.4575 36.9289 17.4332 36.9289 18.4974C36.9289 19.5615 36.4407 20.4848 35.2628 20.4848ZM35.2849 17.7733C35.2373 17.7107 35.1765 17.6596 35.1069 17.6238C35.0374 17.5879 34.9607 17.5683 34.8826 17.5662C34.7805 17.5652 34.6798 17.5906 34.59 17.6398C34.2827 17.8098 34.268 18.1944 34.268 18.4974C34.268 18.8004 34.29 19.186 34.5827 19.3449C34.6624 19.3909 34.7531 19.4138 34.8449 19.4111C34.948 19.4123 35.0494 19.3842 35.1375 19.3301C35.4081 19.16 35.4448 18.7908 35.4448 18.5096C35.4459 18.2744 35.4312 17.9724 35.2849 17.7733Z" fill="white"/>
<path d="M40.7425 19.7311C40.3109 20.522 39.3008 20.5368 39.0963 20.5368C38.525 20.5364 37.9652 20.3752 37.4795 20.0712C37.3332 19.9822 37.2016 19.8715 37.06 19.7682L37.9085 18.9922C37.9814 19.059 38.0475 19.1178 38.1183 19.1771C38.2431 19.2655 38.616 19.5023 39.0769 19.5023C39.1619 19.5048 39.2465 19.4896 39.3255 19.4578C39.3656 19.4412 39.4004 19.4138 39.4262 19.3786C39.452 19.3434 39.4678 19.3017 39.4718 19.2581C39.4716 19.2262 39.4614 19.1952 39.4424 19.1697C39.3475 19.0219 39.1802 19.0367 38.8939 18.9848C38.6412 18.9377 38.3919 18.8736 38.1477 18.7931C37.7968 18.6744 37.5262 18.534 37.3579 18.1723C37.2903 18.0291 37.2545 17.8727 37.253 17.7141C37.2572 17.4705 37.3335 17.2338 37.4722 17.0345C37.6919 16.7241 38.1235 16.4062 38.972 16.4062C39.4257 16.4062 40.0036 16.5021 40.4131 16.7167C40.5425 16.7865 40.6654 16.868 40.7802 16.9603L39.9684 17.7067C39.8588 17.6325 39.4561 17.3359 38.9956 17.3359C38.9231 17.3339 38.8509 17.3465 38.7832 17.3729C38.7522 17.3876 38.7256 17.4105 38.7064 17.4391C38.6871 17.4677 38.6758 17.501 38.6736 17.5356C38.6743 17.5677 38.6843 17.5988 38.7025 17.6251C38.7208 17.6514 38.7463 17.6717 38.7759 17.6833C38.842 17.7204 38.9883 17.7501 39.1708 17.794C39.7267 17.9344 40.0487 17.9863 40.2904 18.1119C40.473 18.2044 40.6261 18.3471 40.7321 18.5235C40.8381 18.6999 40.8928 18.9029 40.8898 19.1093C40.8959 19.3261 40.845 19.5406 40.7425 19.7311Z" fill="white"/>
<path d="M44.8974 19.7758C44.6704 20.0714 44.1292 20.537 43.1857 20.537C42.7541 20.537 42.4904 20.448 42.3225 20.3744C41.2396 19.9162 41.1688 18.8007 41.1688 18.4532C41.1712 18.1921 41.2131 17.9329 41.2931 17.6846C41.7126 16.4435 42.9025 16.3916 43.2827 16.3916C43.9482 16.3916 44.3436 16.5987 44.5775 16.7624C44.7127 16.8608 44.8359 16.9749 44.9446 17.1025C45.0146 17.1938 45.078 17.2901 45.1345 17.3906L43.9933 18.0411C43.9733 17.973 43.949 17.9063 43.9204 17.8414C43.8712 17.7286 43.7903 17.6328 43.6878 17.5659C43.5853 17.4989 43.4656 17.4638 43.3436 17.4648C43.229 17.4624 43.1166 17.4959 43.0216 17.5606C42.6545 17.8117 42.6629 18.4399 42.6629 18.4993C42.6629 18.5432 42.6555 18.9352 42.8386 19.164C42.8923 19.2362 42.9663 19.2903 43.051 19.3192C43.1367 19.356 43.2285 19.3761 43.3216 19.3786C43.8114 19.3711 43.9577 18.8165 43.987 18.7281L45.1408 19.3711C45.0742 19.5144 44.9926 19.6501 44.8974 19.7758Z" fill="white"/>
<path d="M35.0714 41.0002V39.062H14.9275V41.0002H35.0714Z" fill="#E9E8E8"/>
<path d="M14.9281 39.0711L17.0257 38.0249H32.9743L35.072 39.0711H14.9281Z" fill="#868687"/>
<path d="M0.00320435 0.455008L2.10087 0H47.9014L49.999 0.455008H0.00320435Z" fill="#868687"/>
<path d="M27.5355 33.1274H22.4639V38.5478H27.5355V33.1274Z" fill="#CCCCCC"/>
</svg>
