<svg width="23" height="23" viewBox="0 0 23 23" fill="none" xmlns="http://www.w3.org/2000/svg">
<rect x="11.5" width="16" height="16" rx="2" transform="rotate(45 11.5 0)" fill="#D8D8D8"/>
<path fill-rule="evenodd" clip-rule="evenodd" d="M14.2359 8.71119C14.2363 8.71148 14.2366 8.71175 14.2369 8.71202C14.4581 8.92967 14.4714 9.27479 14.276 9.50842L10.1261 13.5846C10.0604 13.669 9.95553 13.7241 9.83826 13.7241H7.9372C7.88257 13.7241 7.83105 13.7116 7.78485 13.6908L7.77419 13.6854C7.71853 13.6579 7.67083 13.6166 7.63561 13.5655C7.63457 13.5639 7.63354 13.5625 7.63252 13.561C7.63006 13.5575 7.62773 13.5542 7.62584 13.5504C7.60824 13.5204 7.59451 13.4883 7.58498 13.4549L7.58434 13.4522C7.58189 13.4416 7.5795 13.4313 7.57787 13.4198C7.57505 13.402 7.57356 13.3841 7.57343 13.3661V11.5441C7.5578 11.4329 7.59607 11.3209 7.67648 11.2425L11.8162 7.1774C11.8174 7.17678 11.8182 7.17573 11.8189 7.17485C11.8192 7.17447 11.8194 7.17412 11.8197 7.17385C12.0453 6.95362 12.4014 6.94111 12.6419 7.14498L14.2334 8.70847C14.234 8.70971 14.235 8.71051 14.2359 8.71119ZM14.8868 14.384C14.9551 14.4511 14.9938 14.5425 14.9947 14.6382H14.9951C14.9932 14.8368 14.8309 14.9965 14.6322 14.9953H7.36378C7.16257 14.9953 7 14.8349 7 14.6382C7.00082 14.5425 7.03961 14.4511 7.10783 14.384C7.17605 14.317 7.26812 14.2798 7.36378 14.2806H14.6309C14.7265 14.2798 14.8186 14.317 14.8868 14.384Z" fill="white"/>
</svg>
