<svg width="24" height="24" viewBox="0 0 24 24" fill="none" xmlns="http://www.w3.org/2000/svg">
<path d="M17.3333 3.0018C18.8078 3.0018 20 4.12775 20 5.51671V20.1594C19.9975 20.3841 19.9027 20.5987 19.7363 20.7561C19.5699 20.9135 19.3455 21.0008 19.1124 20.9989C18.9883 20.9991 18.8655 20.9746 18.7517 20.9268L12.1439 18.1579C12.0985 18.139 12.0495 18.1292 12 18.1292C11.9505 18.1292 11.9015 18.139 11.8561 18.1579L5.24832 20.9268C5.03386 21.0178 4.79101 21.0242 4.57171 20.9447C4.3524 20.8653 4.17404 20.7063 4.07477 20.5017C4.02471 20.3941 3.99921 20.2773 4.00002 20.1594V5.51491C4.00002 4.12775 5.19226 3 6.66668 3H17.3333V3.0018Z" fill="#0C6B7E"/>
<path d="M13.616 11.3059C13.834 11.3059 14.0432 11.3951 14.1974 11.554C14.3516 11.7129 14.4382 11.9283 14.4382 12.153C14.4382 12.3776 14.3516 12.5931 14.1974 12.7519C14.0432 12.9108 13.834 13 13.616 13H8.85768C8.74971 13 8.6428 12.9781 8.54304 12.9355C8.44329 12.893 8.35265 12.8306 8.27631 12.7519C8.19996 12.6733 8.13939 12.5799 8.09808 12.4771C8.05676 12.3743 8.03549 12.2642 8.03549 12.153C8.03549 12.0417 8.05676 11.9316 8.09808 11.8288C8.13939 11.726 8.19996 11.6327 8.27631 11.554C8.35265 11.4753 8.44329 11.413 8.54304 11.3704C8.6428 11.3278 8.74971 11.3059 8.85768 11.3059H13.616ZM15.215 8.00087C15.4264 8.01072 15.626 8.10418 15.7722 8.26179C15.9184 8.4194 16 8.62903 16 8.84705C16 9.06507 15.9184 9.27469 15.7722 9.4323C15.626 9.58991 15.4264 9.68337 15.215 9.69323H8.85937C8.74838 9.6984 8.63752 9.68035 8.5335 9.64016C8.42947 9.59997 8.33443 9.53847 8.25411 9.45939C8.17379 9.3803 8.10987 9.28527 8.06619 9.18002C8.02252 9.07478 8 8.96151 8 8.84705C8 8.73259 8.02252 8.61931 8.06619 8.51407C8.10987 8.40882 8.17379 8.31379 8.25411 8.2347C8.33443 8.15562 8.42947 8.09413 8.5335 8.05393C8.63752 8.01374 8.74838 7.99569 8.85937 8.00087H15.215Z" fill="white"/>
</svg>
