<svg width="48" height="48" viewBox="0 0 48 48" fill="none" xmlns="http://www.w3.org/2000/svg">
<g filter="url(#filter0_d)">
<path d="M30.7567 41.5467L25.85 36.4267C32.25 35.5733 37.37 30.24 37.37 23.84C37.37 17.6533 32.6767 12.32 26.49 11.2533L22.01 6.77333H23.93C33.7433 6.77333 41.6367 14.4533 41.6367 23.84C41.6367 30.24 37.7967 36 32.4633 38.7733V43.04L30.7567 41.5467ZM26.0633 40.6933C25.4233 40.6933 24.57 40.9067 23.7167 40.9067C13.9033 40.9067 6.01001 33.2267 6.01001 23.84C6.01001 17.44 9.85001 11.68 15.1833 8.90667V4L17.9567 6.77333L22.2233 11.04C15.61 11.68 10.49 17.2267 10.49 23.84C10.49 30.24 15.3967 35.5733 21.7967 36.4267L26.0633 40.6933Z" fill="black"/>
</g>
<path d="M30.7567 41.5467L25.85 36.4267C32.25 35.5733 37.37 30.24 37.37 23.84C37.37 17.6533 32.6767 12.32 26.49 11.2533L22.01 6.77333H23.93C33.7433 6.77333 41.6367 14.4533 41.6367 23.84C41.6367 30.24 37.7967 36 32.4633 38.7733V43.04L30.7567 41.5467ZM26.0633 40.6933C25.4233 40.6933 24.57 40.9067 23.7167 40.9067C13.9033 40.9067 6.01001 33.2267 6.01001 23.84C6.01001 17.44 9.85001 11.68 15.1833 8.90667V4L17.9567 6.77333L22.2233 11.04C15.61 11.68 10.49 17.2267 10.49 23.84C10.49 30.24 15.3967 35.5733 21.7967 36.4267L26.0633 40.6933Z" fill="#505050"/>
<defs>
<filter id="filter0_d" x="4.01001" y="4" width="39.6267" height="43.04" filterUnits="userSpaceOnUse" color-interpolation-filters="sRGB">
<feFlood flood-opacity="0" result="BackgroundImageFix"/>
<feColorMatrix in="SourceAlpha" type="matrix" values="0 0 0 0 0 0 0 0 0 0 0 0 0 0 0 0 0 0 127 0"/>
<feOffset dy="2"/>
<feGaussianBlur stdDeviation="1"/>
<feColorMatrix type="matrix" values="0 0 0 0 0 0 0 0 0 0 0 0 0 0 0 0 0 0 0.102382 0"/>
<feBlend mode="normal" in2="BackgroundImageFix" result="effect1_dropShadow"/>
<feBlend mode="normal" in="SourceGraphic" in2="effect1_dropShadow" result="shape"/>
</filter>
</defs>
</svg>
