<svg width="32" height="32" viewBox="0 0 32 32" fill="none" xmlns="http://www.w3.org/2000/svg">
<path d="M23.8844 6.00665H8.01305C6.90554 6.00665 6.00888 6.90331 6.00888 8.01083V23.8733C6.00888 24.9808 6.90554 25.8775 8.01305 25.8775H23.8866C24.9941 25.8775 25.8908 24.9808 25.8908 23.8733V8.01304C25.8908 6.90553 24.9919 6.00665 23.8844 6.00665ZM11.5353 21.9868C10.1548 21.9868 9.02735 20.8637 9.02735 19.4832C9.02735 18.1005 10.1504 16.9819 11.5353 16.9819C12.9203 16.9819 14.0411 18.1005 14.0411 19.4766C14.0411 20.8593 12.9181 21.9868 11.5353 21.9868ZM14.8401 10.9339L11.8194 13.9501C11.6729 14.0988 11.4776 14.1654 11.2845 14.1543C11.0937 14.1654 10.8984 14.0988 10.7496 13.9501L9.46236 12.6517C9.18937 12.3787 9.18937 11.9237 9.46236 11.6507C9.73535 11.3777 10.1903 11.3777 10.4656 11.6507L11.2868 12.4697L13.8391 9.91956C14.1121 9.64657 14.5671 9.64657 14.8423 9.91956C15.1131 10.2037 15.1131 10.6609 14.8401 10.9339ZM22.2376 20.2689H17.2216C16.7888 20.2689 16.4226 19.916 16.4226 19.4699C16.4226 19.0371 16.7888 18.6709 17.2216 18.6709H22.2376C22.6815 18.6709 23.0366 19.0238 23.0366 19.4699C23.0366 19.916 22.6837 20.2689 22.2376 20.2689ZM22.2376 13.2687H17.2216C16.7888 13.2687 16.4226 12.9158 16.4226 12.4697C16.4226 12.0258 16.7888 11.6729 17.2216 11.6729H22.2376C22.6815 11.6729 23.0366 12.0258 23.0366 12.4719C23.0366 12.9158 22.6837 13.2687 22.2376 13.2687Z" fill="#1C879C"/>
<path d="M11.5353 18.3335C10.8984 18.3335 10.3812 18.8507 10.3812 19.4854C10.3812 20.1202 10.8984 20.6373 11.5353 20.6373C12.1723 20.6373 12.6872 20.1135 12.6872 19.4765C12.6872 18.844 12.1701 18.3335 11.5353 18.3335Z" fill="#1C879C"/>
</svg>
