<svg width="16" height="16" viewBox="0 0 16 16" fill="none" xmlns="http://www.w3.org/2000/svg">
<path d="M8.68994 7.33333H3.41994V2.88333C3.4195 2.83315 3.429 2.78338 3.4479 2.73689C3.4668 2.6904 3.49472 2.64812 3.53005 2.61248C3.56538 2.57684 3.60742 2.54855 3.65374 2.52924C3.70007 2.50994 3.74975 2.5 3.79994 2.5H8.68994V7.33333ZM4.41994 6.33333H7.68994V3.5H4.41994V6.33333Z" fill="#666666"/>
<path d="M12.8402 7.33333H7.56689V2.5H12.4569C12.5072 2.5 12.5571 2.50992 12.6036 2.52918C12.6501 2.54844 12.6924 2.57668 12.728 2.61228C12.7635 2.64787 12.7918 2.69013 12.811 2.73664C12.8303 2.78315 12.8402 2.83299 12.8402 2.88333V7.33333ZM8.56689 6.33333H11.8402V3.5H8.56689V6.33333Z" fill="#666666"/>
<path d="M8.68992 11.16H3.41992V6.33333H8.68992V11.16ZM4.41992 10.16H7.68992V7.33333H4.41992V10.16Z" fill="#666666"/>
<path d="M12.8402 11.16H7.56689V6.33333H12.8402V11.16ZM8.56689 10.16H11.8402V7.33333H8.56689V10.16Z" fill="#666666"/>
<path d="M13.9802 13.4133H2.2769C2.24641 13.4133 2.21623 13.4073 2.18811 13.3955C2.15998 13.3837 2.13448 13.3665 2.11307 13.3448C2.09167 13.3231 2.0748 13.2973 2.06344 13.269C2.05208 13.2408 2.04646 13.2105 2.0469 13.18V10.64C2.0469 10.579 2.07113 10.5205 2.11426 10.4774C2.1574 10.4342 2.2159 10.41 2.2769 10.41H13.9802C14.0107 10.4096 14.041 10.4152 14.0693 10.4265C14.0976 10.4379 14.1233 10.4548 14.145 10.4762C14.1667 10.4976 14.184 10.5231 14.1957 10.5512C14.2075 10.5793 14.2136 10.6095 14.2136 10.64V13.18C14.2136 13.2419 14.189 13.3012 14.1452 13.345C14.1015 13.3888 14.0421 13.4133 13.9802 13.4133ZM3.0469 12.4133H13.2136V11.4133H3.0469V12.4133Z" fill="#666666"/>
<path d="M6.6665 3.16667H5.6665V4.66667H6.6665V3.16667Z" fill="#666666"/>
<path d="M11 3.16667H10V4.66667H11V3.16667Z" fill="#666666"/>
<path d="M6.6665 6.83333H5.6665V8.33333H6.6665V6.83333Z" fill="#666666"/>
<path d="M11 6.83333H10V8.33333H11V6.83333Z" fill="#666666"/>
</svg>
