<?xml version="1.0" encoding="UTF-8"?>
<svg width="22px" height="21px" viewBox="0 0 22 21" version="1.1" xmlns="http://www.w3.org/2000/svg" xmlns:xlink="http://www.w3.org/1999/xlink">
    <title>编组</title>
    <g id="挑库" stroke="none" stroke-width="1" fill="none" fill-rule="evenodd">
        <g id="挑库_待挑库" transform="translate(-237.000000, -171.000000)" fill="#FFFFFF" fill-rule="nonzero">
            <g id="编组-5" transform="translate(227.000000, 162.000000)">
                <g id="编组" transform="translate(10.000000, 9.000000)">
                    <path d="M0.000515625,17.1046563 C0.000515625,17.4717812 0.257640625,17.7275312 0.586265625,17.7275312 L3.77489063,17.7275312 L3.77489063,20.0004063 C3.77489063,20.2575312 3.92201563,20.4775312 4.14201563,20.5875312 C4.32007391,20.6667792 4.52571449,20.6534125 4.69201562,20.5517813 C4.76489062,20.5146563 4.80201562,20.4775312 4.87489062,20.4046563 L9.89639063,16.0060313 C9.96666101,15.9351136 10.0169419,15.8468849 10.0421406,15.7502813 C10.1163906,15.5289063 10.0792656,15.3102813 9.89639063,15.1631563 L4.91201563,10.8374063 C4.80031062,10.684352 4.62550505,10.5898761 4.43626563,10.5802813 C4.06914063,10.5802813 3.81201562,10.8731562 3.81201562,11.2402813 L3.81201562,13.5117813 L0.623390625,13.5117813 C0.283632517,13.5218228 0.0105571836,13.7948981 0.000515625,14.1346562" id="路径"></path>
                    <path d="M15.9450156,6.07165625 L11.3635156,3.43303125 C11.1063906,3.28590625 10.8135156,3.35878125 10.6677656,3.61590625 L10.5935156,3.72590625 C10.4463906,3.98303125 10.5192656,4.27590625 10.7763906,4.42165625 L15.3578906,7.06165625 C15.6150156,7.20740625 15.9078906,7.13453125 16.0550156,6.87740625 L16.1278906,6.80453125 C16.2750156,6.54740625 16.1636406,6.21878125 15.9450156,6.07165625 L15.9450156,6.07165625 Z" id="路径"></path>
                    <path d="M21.9565156,15.2717813 L21.9565156,5.52165625 C21.9565156,5.26453125 21.7736406,5.04590625 21.5536406,5.00878125 L13.2335156,0.24303125 C13.075533,0.022101264 12.7824788,-0.0547748967 12.5363906,0.06015625 L3.99489063,5.00878125 C3.80653041,5.12319842 3.70518413,5.33943996 3.73776563,5.55740625 L3.73776563,10.0660313 L4.65489063,9.66315625 C4.72776563,9.59028125 4.80064063,9.55315625 4.87489063,9.48028125 L4.87489063,6.47453125 L12.2077656,10.6902813 L12.2077656,19.3032813 L9.31201562,17.6161563 L8.46914062,18.4604063 L12.3920156,20.7319063 C12.4277656,20.7676563 12.4662656,20.7676563 12.5020156,20.8047813 C12.6753054,20.9048543 12.8918032,20.8907467 13.0506406,20.7690313 C13.0877656,20.7690313 13.0877656,20.7690313 13.1248906,20.7332813 L21.5178906,15.8932813 C21.703027,15.8554951 21.8479126,15.71115 21.8863906,15.5261563 C21.9565156,15.4175313 21.9565156,15.3446563 21.9565156,15.2717813 Z M12.8663906,9.77453125 L5.42489063,5.48453125 L12.7563906,1.27015625 L20.1978906,5.55878125 L12.8663906,9.77453125 Z M20.8207656,15.0146563 L13.3792656,19.3032813 L13.3792656,10.8002813 L20.8207656,6.47453125 L20.8207656,15.0146563 L20.8207656,15.0146563 Z" id="形状"></path>
                </g>
            </g>
        </g>
    </g>
</svg>