<svg width="32" height="32" viewBox="0 0 32 32" fill="none" xmlns="http://www.w3.org/2000/svg">
<path d="M21.5761 20.7549L16.5769 17.7887L16.6196 17.7667C17.6674 17.2541 18.7272 16.7182 19.7524 16.2003L19.9483 16.1023C20.103 16.0237 20.4623 15.8277 20.6622 15.7171C20.7509 15.6671 20.851 15.641 20.9528 15.6411C21.0487 15.6416 21.1432 15.6644 21.2288 15.7077L21.814 16.0057C21.966 16.0843 22.122 16.163 22.2766 16.241C22.7321 16.4747 23.188 16.7074 23.6444 16.9389C23.9203 17.0808 24.1996 17.2195 24.4589 17.3495L24.6282 17.4341L25.2761 17.7607C25.2968 17.7721 25.3214 17.7827 25.3548 17.7961C25.5392 17.8406 25.6757 17.9961 25.6961 18.1847C25.6989 18.379 25.5714 18.5512 25.3848 18.6053L25.3688 18.6113L25.3101 18.6406C24.205 19.2685 22.9032 20.007 21.5761 20.7549Z" fill="#1C879C"/>
<path d="M25.9967 22.8879C26.0065 23.1029 25.886 23.3027 25.6914 23.3944C24.1959 24.2349 22.7019 25.0781 21.2095 25.924C21.1315 25.9706 21.043 25.9967 20.9522 26C20.8665 25.9987 20.7828 25.9733 20.7109 25.9267C19.3395 25.094 17.9652 24.2659 16.5882 23.4424C16.3425 23.3207 16.1954 23.0619 16.2163 22.7885C16.2296 21.3421 16.2296 19.8764 16.2163 18.4306L21.3488 21.4754C21.3534 22.3313 21.3534 23.1978 21.3521 24.0157V24.9488C21.758 24.7209 22.1713 24.4863 22.5246 24.2876L22.9798 24.0303C23.6777 23.6364 24.4016 23.2305 25.1128 22.8305C25.1961 22.7852 25.2208 22.7519 25.2195 22.6306C25.2155 22.1047 25.2155 21.5641 25.2155 21.0495V19.9197C25.1998 19.7759 25.2426 19.6318 25.3341 19.5198C25.4052 19.4507 25.5018 19.4143 25.6007 19.4191H25.6107C25.7457 19.4135 25.8716 19.4869 25.9333 19.6071C25.9782 19.7033 25.9988 19.809 25.9933 19.915V20.2816C25.9933 21.1355 25.9893 22.0187 25.998 22.8892L25.9967 22.8879Z" fill="#1C879C"/>
<path d="M19.2011 10.5966C19.2167 12.3743 18.5422 14.0887 17.3194 15.3791C17.1308 15.5558 16.4529 16.179 15.6437 16.8915C15.1245 17.2295 14.7739 17.7729 14.6799 18.3853C14.6932 19.8277 14.6566 21.2655 14.6432 22.7046C14.6367 22.8866 14.6405 23.0689 14.6546 23.2505C14.7172 23.8464 15.677 24.3756 15.677 24.3756C15.3658 24.3756 14.0353 24.3703 13.7334 24.3649C9.35144 24.287 6.00133 23.8044 6.00133 22.082C6.00133 20.5363 8.71688 18.4693 12.4476 17.7494C12.9408 17.6168 13.3227 17.2261 13.444 16.7299C13.5653 16.2338 13.4067 15.7109 13.0302 15.3658H13.0388C11.8234 14.0769 11.1532 12.3681 11.1685 10.5966C11.1685 7.73972 12.9615 6.00134 15.1845 6.00134C17.4074 6.00134 19.2011 7.74172 19.2011 10.5966Z" fill="#1C879C"/>
</svg>
