<svg width="20" height="20" viewBox="0 0 20 20" fill="none" xmlns="http://www.w3.org/2000/svg">
<path d="M15.5761 14.7549L10.5769 11.7888L10.6196 11.7668C11.6674 11.2542 12.7272 10.7183 13.7524 10.2004L13.9483 10.1024C14.103 10.0237 14.4623 9.82775 14.6622 9.7171C14.7509 9.66717 14.851 9.641 14.9528 9.64111C15.0487 9.64164 15.1432 9.66446 15.2288 9.70777L15.814 10.0057C15.966 10.0844 16.122 10.163 16.2766 10.241C16.7321 10.4748 17.188 10.7074 17.6444 10.9389C17.9203 11.0809 18.1996 11.2195 18.4589 11.3495L18.6282 11.4341L19.2761 11.7608C19.2968 11.7721 19.3214 11.7828 19.3548 11.7961C19.5392 11.8406 19.6757 11.9961 19.6961 12.1847C19.6989 12.379 19.5714 12.5512 19.3848 12.6053L19.3688 12.6113L19.3101 12.6406C18.205 13.2685 16.9032 14.0071 15.5761 14.7549Z" fill="#9E9E9E"/>
<path d="M19.9967 16.8879C20.0065 17.1029 19.8861 17.3027 19.6914 17.3945C18.1959 18.235 16.7019 19.0782 15.2095 19.9241C15.1315 19.9707 15.043 19.9968 14.9522 20.0001C14.8665 19.9987 14.7829 19.9733 14.7109 19.9267C13.3395 19.094 11.9653 18.2659 10.5883 17.4425C10.3426 17.3207 10.1954 17.062 10.2163 16.7886C10.2297 15.3422 10.2297 13.8764 10.2163 12.4307L15.3488 15.4755C15.3535 16.3313 15.3535 17.1979 15.3521 18.0157V18.9489C15.7581 18.7209 16.1713 18.4863 16.5246 18.2877L16.9799 18.0304C17.6777 17.6365 18.4016 17.2305 19.1128 16.8306C19.1962 16.7853 19.2208 16.7519 19.2195 16.6306C19.2155 16.1047 19.2155 15.5641 19.2155 15.0496V13.9197C19.1999 13.7759 19.2426 13.6318 19.3341 13.5198C19.4052 13.4508 19.5018 13.4144 19.6008 13.4192H19.6108C19.7457 13.4136 19.8717 13.487 19.9334 13.6071C19.9782 13.7034 19.9988 13.8091 19.9934 13.9151V14.2817C19.9934 15.1355 19.9894 16.0187 19.998 16.8893L19.9967 16.8879Z" fill="#9E9E9E"/>
<path d="M13.2011 4.59658C13.2168 6.37425 12.5422 8.08868 11.3195 9.37911C11.1308 9.55575 10.4529 10.179 9.64374 10.8915C9.12447 11.2295 8.77389 11.7729 8.6799 12.3853C8.69323 13.8277 8.65657 15.2655 8.64324 16.7046C8.63674 16.8866 8.64052 17.0689 8.65457 17.2505C8.71722 17.8464 9.67706 18.3756 9.67706 18.3756C9.36578 18.3756 8.03534 18.3703 7.73339 18.3649C3.35145 18.287 0.00134277 17.8044 0.00134277 16.082C0.00134277 14.5363 2.71689 12.4693 6.4476 11.7494C6.94086 11.6168 7.32276 11.2261 7.44402 10.7299C7.56529 10.2338 7.40667 9.71093 7.03017 9.36578H7.03884C5.82342 8.0769 5.15326 6.36808 5.16848 4.59658C5.16848 1.73972 6.96152 0.00134277 9.18448 0.00134277C11.4074 0.00134277 13.2011 1.74172 13.2011 4.59658Z" fill="#9E9E9E"/>
</svg>
