<svg width="24" height="24" viewBox="0 0 24 24" fill="none" xmlns="http://www.w3.org/2000/svg">
<path d="M15.8598 12.6058C16.4137 11.0923 16.7486 9.343 16.8568 7.94281C16.8594 7.92865 16.8594 7.91576 16.8594 7.90031C16.8594 7.56797 16.8594 7.23821 16.8169 6.94838C16.7855 6.73937 16.8979 6.53522 17.0913 6.44988C17.3618 6.33781 17.6709 6.28242 17.9788 6.28242C19.5426 6.28242 20.8848 7.8037 20.8848 9.67663C20.8848 10.8024 20.4687 12.2516 19.7435 13.2988C19.686 13.3807 19.655 13.4783 19.6546 13.5784V14.7505C19.6546 14.9347 19.7603 15.0996 19.9213 15.1756C21.1321 15.7424 21.8625 16.6364 22.7294 17.3796C22.8337 17.4711 22.8981 17.6037 22.8981 17.7454V18.2246C22.9032 18.4769 22.7034 18.6859 22.4511 18.6922H20.3257C20.2057 18.6903 20.0915 18.6401 20.0089 18.5531C19.9246 18.4647 19.8783 18.3468 19.8801 18.2246V17.2881C19.8802 17.1421 19.812 17.0044 19.6959 16.9159C18.7014 16.1649 17.6954 15.2465 16.5219 14.4955C16.3856 14.4085 16.303 14.2579 16.3029 14.0962V13.4328C16.3046 13.3444 16.2814 13.2574 16.236 13.1816C16.1187 12.991 15.9526 12.799 15.8598 12.6058ZM0.999984 17.5226C1.94294 16.7536 2.69134 15.7772 4.07865 15.1756C4.24961 15.0998 4.35937 14.9298 4.35817 14.7428V13.7149C4.35892 13.6081 4.32452 13.504 4.26027 13.4186C3.52991 12.4667 3.01594 10.9145 3.01594 9.79256C3.01594 7.80241 4.35817 6.27985 5.92195 6.27985C6.20018 6.28371 6.47584 6.32107 6.74635 6.39191C6.96533 6.4473 7.1096 6.67015 7.08126 6.90716C7.03875 7.24336 7.03875 7.58214 7.03875 7.91834C7.03875 9.38422 7.34919 11.0665 7.97007 12.5479C8.01644 12.6625 8.02159 12.7887 7.98037 12.9034C7.91668 13.0862 7.82404 13.2575 7.706 13.4109C7.63428 13.501 7.59482 13.6126 7.59393 13.7278V13.9687C7.59393 14.1335 7.51021 14.2907 7.37495 14.3718C6.10744 15.1305 5.17999 16.0619 4.18427 16.9133C4.07837 17.0042 4.01763 17.137 4.0181 17.2766V18.2259C4.02243 18.4777 3.82288 18.6859 3.57113 18.6922H1.44701C1.32654 18.6906 1.21182 18.6404 1.12884 18.5531C1.04454 18.4647 0.99829 18.3468 0.999984 18.2246V17.5226ZM15.8598 8.04071C15.8598 10.0296 15.19 12.723 13.8478 14.1284V14.2443C16.0762 14.9128 17.3966 16.2113 18.7684 17.2431C18.9084 17.3521 18.9894 17.5203 18.9874 17.6978V19.1894C18.9874 19.4986 18.7478 19.7498 18.4528 19.7498H5.5587C5.25612 19.7427 5.01636 19.492 5.02271 19.1894V17.6849C5.02271 17.5123 5.09884 17.35 5.22894 17.2431C6.36378 16.3233 7.53983 15.1821 9.36124 14.3139C9.5125 14.239 9.6231 14.1014 9.66356 13.9375C9.70402 13.7737 9.67023 13.6004 9.5712 13.4637C8.52525 12.0597 7.92627 9.77968 7.92627 8.04071C7.92627 5.34467 9.49005 3.00415 11.9491 3.00415C14.4081 3.00415 15.8598 5.22874 15.8598 8.03942V8.04071Z" fill="#0C6B7E"/>
</svg>
