<svg width="24" height="24" viewBox="0 0 24 24" fill="none" xmlns="http://www.w3.org/2000/svg">
<path d="M15.6667 10.5833V9.5H17.8333V10.5833H15.6667ZM7 9.5H20V20.3333H7V9.5ZM9.16667 11.6667V18.1667H17.8333V11.6667H9.16667ZM13.5 13.8333C14.15 13.8333 14.5833 14.2667 14.5833 14.9167C14.5833 15.5667 14.15 16 13.5 16C12.85 16 12.4167 15.5667 12.4167 14.9167C12.4167 14.2667 12.85 13.8333 13.5 13.8333ZM7.33333 3C9.71667 3 11.6667 4.95 11.6667 7.33333V10.5833H9.5V7.33333C9.5 6.14167 8.525 5.16667 7.33333 5.16667C6.14167 5.16667 5.16667 6.14167 5.16667 7.33333V8.41667H3V7.33333C3 4.95 4.95 3 7.33333 3Z" fill="#0C6B7E"/>
</svg>
