<svg width="48" height="48" viewBox="0 0 48 48" fill="none" xmlns="http://www.w3.org/2000/svg">
<path d="M27.31 13.25L28.49 12.79L27.4 12.13L27.32 10.88L26.37 11.7L25.14 11.38L25.64 12.55L24.95 13.62L26.22 13.52L27.03 14.49L27.31 13.25Z" fill="#F3511F"/>
<path d="M22.31 35.25L23.49 34.78L22.4 34.13L22.32 32.88L21.37 33.7L20.14 33.38L20.64 34.55L19.95 35.62L21.22 35.52L22.03 36.49L22.31 35.25Z" fill="#F3511F"/>
<path d="M38.36 20.43C38.26 20 38.14 19.57 38.01 19.16C37.8207 18.5791 37.5935 18.0112 37.33 17.46C36.3903 15.4859 35.0172 13.7493 33.313 12.3796C31.6089 11.0099 29.6176 10.0424 27.4875 9.54935C25.3575 9.05625 23.1436 9.0502 21.0109 9.53165C18.8782 10.0131 16.8816 10.9697 15.17 12.33C14.692 12.7082 14.2409 13.1192 13.82 13.56C13.4293 13.9689 13.0621 14.3996 12.72 14.85L13.8 15.1C14.1681 14.6477 14.5692 14.2232 15 13.83C15.4542 13.3921 15.9424 12.9908 16.46 12.63C17.9007 11.6263 19.5196 10.9068 21.23 10.51C23.2204 10.0499 25.2896 10.0499 27.28 10.51C29.1329 10.9382 30.8746 11.7528 32.3911 12.9005C33.9075 14.0481 35.1646 15.503 36.08 17.17C36.3863 17.7212 36.6471 18.2964 36.86 18.89C37.0719 19.4262 37.2424 19.9778 37.37 20.54L38.45 20.79C38.41 20.67 38.39 20.55 38.36 20.43ZM10 20.81C9.86684 21.4695 9.78327 22.138 9.75 22.81C10.0903 22.6947 10.4241 22.5612 10.75 22.41C10.815 21.6666 10.9455 20.9304 11.14 20.21C10.7767 20.4403 10.3955 20.641 10 20.81ZM38.71 22.81L37.71 22.57C37.74 23.0495 37.74 23.5305 37.71 24.01L38.25 24.13C38.0716 24.2746 37.8846 24.4082 37.69 24.53C37.6422 25.3781 37.5082 26.2191 37.29 27.04C37.564 27.2668 37.8511 27.4772 38.15 27.67C38.2995 27.1606 38.4197 26.6431 38.51 26.12L38.25 26C38.3645 25.9337 38.4747 25.8602 38.58 25.78C38.7218 24.8001 38.7653 23.8085 38.71 22.82V22.81ZM37.08 27.81C36.9458 28.2584 36.7786 28.6962 36.58 29.12C36.4609 29.4033 36.3274 29.6804 36.18 29.95C36.02 30.26 35.85 30.56 35.66 30.86C35.59 30.98 35.51 31.09 35.44 31.2L36.44 31.44V31.39C37.1281 30.3369 37.6729 29.1969 38.06 28L37.08 27.81ZM33.46 33.53C33.003 33.9587 32.515 34.3531 32 34.71C30.4454 35.8041 28.6775 36.5578 26.8117 36.9218C24.9459 37.2858 23.0243 37.252 21.1725 36.8226C19.3207 36.3931 17.5803 35.5777 16.0652 34.4296C14.5501 33.2815 13.2943 31.8266 12.38 30.16C12.0745 29.607 11.8105 29.0321 11.59 28.44C11.3859 27.9021 11.2189 27.3508 11.09 26.79L10 26.54C10 26.66 10 26.79 10.07 26.91C10.17 27.34 10.29 27.77 10.42 28.18C11.4632 31.4267 13.6248 34.1979 16.52 36C17.8792 36.8579 19.3736 37.48 20.94 37.84C23.0763 38.3269 25.2951 38.3244 27.4304 37.8326C29.5656 37.3408 31.5619 36.3724 33.27 35C33.746 34.623 34.1969 34.2155 34.62 33.78C35.0155 33.3755 35.383 32.9445 35.72 32.49L34.66 32.24C34.2859 32.6871 33.8852 33.1112 33.46 33.51V33.53ZM11.7 16.38C11.4118 16.8632 11.1546 17.3642 10.93 17.88L11.93 18.11C12.1645 17.5916 12.4352 17.0904 12.74 16.61L11.7 16.38Z" fill="#F3511F"/>
<path d="M24.12 28.26L24.26 28.85L22.61 28.47L22.62 28.37L21.81 27.69L22.84 27.47L23.01 27.05L23.65 27.2L23.77 27.4L24.82 27.48L24.12 28.26Z" fill="black"/>
<path d="M44.5 20.66C44.4266 20.118 44.3231 19.5805 44.19 19.05C43.3271 15.3097 41.4308 11.8869 38.7173 9.17184C36.0038 6.45675 32.5822 4.55849 28.8424 3.69337C25.1026 2.82824 21.1949 3.03105 17.5647 4.27868C13.9346 5.52631 10.7278 7.76858 8.31 10.75C7.95351 11.1685 7.6197 11.6058 7.31 12.06C5.86653 14.1601 4.83492 16.5151 4.27 19V19.09C3.70123 21.5768 3.60961 24.149 4 26.67C4.0734 27.212 4.1769 27.7495 4.31 28.28C5.16956 32.0213 7.06331 35.4457 9.77524 38.1625C12.4872 40.8794 15.9081 42.7794 19.6478 43.6458C23.3875 44.5122 27.2954 44.31 30.9258 43.0625C34.5562 41.8149 37.7628 39.5722 40.18 36.59C40.53 36.17 40.86 35.73 41.18 35.28C42.5833 33.2464 43.6003 30.9718 44.18 28.57L44.28 28.14C44.82 25.6823 44.8946 23.1452 44.5 20.66ZM41.38 33.8L37.84 33C37.5324 33.4557 37.1985 33.8931 36.84 34.31C36.4703 34.7515 36.0763 35.1721 35.66 35.57C33.683 37.4766 31.2606 38.8585 28.6132 39.59C25.9658 40.3215 23.1775 40.3793 20.5021 39.7581C17.8267 39.137 15.3491 37.8566 13.2948 36.0336C11.2405 34.2105 9.67473 31.9026 8.74 29.32C8.53071 28.7786 8.35701 28.2241 8.22 27.66C8.08266 27.1299 7.97582 26.5923 7.9 26.05L4.36 25.23L7.07 13.54L10.6 14.36C10.9076 13.9043 11.2415 13.4669 11.6 13.05C11.9705 12.6029 12.3679 12.1788 12.79 11.78C14.767 9.87547 17.1883 8.49466 19.8341 7.7628C22.4799 7.03094 25.2666 6.97119 27.9413 7.58897C30.6161 8.20676 33.0943 9.48252 35.1511 11.3006C37.208 13.1186 38.7784 15.4214 39.72 18C39.9215 18.5432 40.0918 19.0974 40.23 19.66C40.3673 20.1901 40.4742 20.7277 40.55 21.27L44.09 22.09L41.38 33.8Z" fill="#F3511F"/>
<path fill-rule="evenodd" clip-rule="evenodd" d="M10 20.81C9.86684 21.4695 9.78327 22.138 9.75 22.81C10.0903 22.6947 10.4241 22.5612 10.75 22.41C10.815 21.6666 10.9455 20.9304 11.14 20.21C10.7767 20.4403 10.3955 20.641 10 20.81ZM10 20.81C9.86684 21.4695 9.78327 22.138 9.75 22.81C10.0903 22.6947 10.4241 22.5612 10.75 22.41C10.815 21.6666 10.9455 20.9304 11.14 20.21C10.7767 20.4403 10.3955 20.641 10 20.81ZM10 20.81C9.86684 21.4695 9.78327 22.138 9.75 22.81C10.0903 22.6947 10.4241 22.5612 10.75 22.41C10.815 21.6666 10.9455 20.9304 11.14 20.21C10.7767 20.4403 10.3955 20.641 10 20.81ZM10 20.81C9.86684 21.4695 9.78327 22.138 9.75 22.81C10.0903 22.6947 10.4241 22.5612 10.75 22.41C10.815 21.6666 10.9455 20.9304 11.14 20.21C10.7767 20.4403 10.3955 20.641 10 20.81ZM10 20.81C9.86684 21.4695 9.78327 22.138 9.75 22.81C10.0903 22.6947 10.4241 22.5612 10.75 22.41C10.815 21.6666 10.9455 20.9304 11.14 20.21C10.7767 20.4403 10.3955 20.641 10 20.81ZM10 20.81C9.86684 21.4695 9.78327 22.138 9.75 22.81C10.0903 22.6947 10.4241 22.5612 10.75 22.41C10.815 21.6666 10.9455 20.9304 11.14 20.21C10.7767 20.4403 10.3955 20.641 10 20.81ZM10 20.81C9.86684 21.4695 9.78327 22.138 9.75 22.81C10.0903 22.6947 10.4241 22.5612 10.75 22.41C10.815 21.6666 10.9455 20.9304 11.14 20.21C10.7767 20.4403 10.3955 20.641 10 20.81ZM10 20.81C9.86684 21.4695 9.78327 22.138 9.75 22.81C10.0903 22.6947 10.4241 22.5612 10.75 22.41C10.815 21.6666 10.9455 20.9304 11.14 20.21C10.7767 20.4403 10.3955 20.641 10 20.81ZM10 20.81C9.86684 21.4695 9.78327 22.138 9.75 22.81C10.0903 22.6947 10.4241 22.5612 10.75 22.41C10.815 21.6666 10.9455 20.9304 11.14 20.21C10.7767 20.4403 10.3955 20.641 10 20.81ZM10 20.81C9.86684 21.4695 9.78327 22.138 9.75 22.81C10.0903 22.6947 10.4241 22.5612 10.75 22.41C10.815 21.6666 10.9455 20.9304 11.14 20.21C10.7767 20.4403 10.3955 20.641 10 20.81ZM44.5 20.66L40.23 19.66L38 19.16L36.83 18.89L15 13.83L13.84 13.56L11.62 13.05L7.35 12.05L5.96 11.73L4.27 19V19.09L2.56 26.35L4 26.67L8.27 27.67L10.49 28.19L11.64 28.45L33.51 33.52L34.67 33.79L36.89 34.3L41.17 35.3L42.55 35.62L44.18 28.62L44.28 28.19L45.89 21L44.5 20.66ZM37.84 33L35.72 32.51L34.66 32.26L11.09 26.79L10 26.54L7.9 26.05L4.36 25.23L7.07 13.54L10.6 14.36L12.72 14.85L13.8 15.1L37.35 20.54L38.43 20.79L40.55 21.28L44.09 22.1L41.38 33.8L37.84 33ZM36.58 29.1C36.4609 29.3833 36.3274 29.6603 36.18 29.93C36.02 30.24 35.85 30.54 35.66 30.84C35.59 30.96 35.51 31.07 35.44 31.18L36.44 31.42V31.37C37.1265 30.3231 37.6712 29.1899 38.06 28L37.06 27.78C36.9327 28.2312 36.7723 28.6724 36.58 29.1ZM9.75 22.82C10.0903 22.7047 10.4241 22.5712 10.75 22.42C10.815 21.6766 10.9455 20.9404 11.14 20.22C10.7668 20.4483 10.3755 20.6456 9.97 20.81C9.84641 21.4735 9.77287 22.1454 9.75 22.82ZM10 20.82C9.86684 21.4795 9.78327 22.148 9.75 22.82C10.0903 22.7047 10.4241 22.5712 10.75 22.42C10.815 21.6766 10.9455 20.9404 11.14 20.22C10.7764 20.4469 10.3952 20.6442 10 20.81V20.82ZM10 20.82C9.86684 21.4795 9.78327 22.148 9.75 22.82C10.0903 22.7047 10.4241 22.5712 10.75 22.42C10.815 21.6766 10.9455 20.9404 11.14 20.22C10.7764 20.4469 10.3952 20.6442 10 20.81V20.82ZM10 20.82C9.86684 21.4795 9.78327 22.148 9.75 22.82C10.0903 22.7047 10.4241 22.5712 10.75 22.42C10.815 21.6766 10.9455 20.9404 11.14 20.22C10.7764 20.4469 10.3952 20.6442 10 20.81V20.82ZM10 20.82C9.86684 21.4795 9.78327 22.148 9.75 22.82C10.0903 22.7047 10.4241 22.5712 10.75 22.42C10.815 21.6766 10.9455 20.9404 11.14 20.22C10.7764 20.4469 10.3952 20.6442 10 20.81V20.82ZM10 20.82C9.86684 21.4795 9.78327 22.148 9.75 22.82C10.0903 22.7047 10.4241 22.5712 10.75 22.42C10.815 21.6766 10.9455 20.9404 11.14 20.22C10.7764 20.4469 10.3952 20.6442 10 20.81V20.82ZM10 20.82C9.86684 21.4795 9.78327 22.148 9.75 22.82C10.0903 22.7047 10.4241 22.5712 10.75 22.42C10.815 21.6766 10.9455 20.9404 11.14 20.22C10.7764 20.4469 10.3952 20.6442 10 20.81V20.82ZM10 20.82C9.86684 21.4795 9.78327 22.148 9.75 22.82C10.0903 22.7047 10.4241 22.5712 10.75 22.42C10.815 21.6766 10.9455 20.9404 11.14 20.22C10.7764 20.4469 10.3952 20.6442 10 20.81V20.82ZM10 20.82C9.86684 21.4795 9.78327 22.148 9.75 22.82C10.0903 22.7047 10.4241 22.5712 10.75 22.42C10.815 21.6766 10.9455 20.9404 11.14 20.22C10.7764 20.4469 10.3952 20.6442 10 20.81V20.82Z" fill="white"/>
<path d="M44.19 19.05L39.72 18.05L37.33 17.5L36.06 17.21L16.44 12.63L15.17 12.33L12.79 11.78L8.31 10.78L4.82 9.94L0.759998 27.47L4.26 28.28L8.74 29.28L11.11 29.83L12.38 30.12L32 34.71L33.27 35L35.66 35.55L40.13 36.55L43.63 37.36L47.69 19.82L44.19 19.05ZM41.38 33.8L37.84 33L35.72 32.51L34.66 32.26L11.09 26.79L10 26.54L7.9 26.05L4.36 25.23L7.07 13.54L10.6 14.36L12.72 14.85L13.8 15.1L37.35 20.54L38.43 20.79L40.55 21.28L44.09 22.1L41.38 33.8Z" fill="#F3511F"/>
<path d="M15.52 19L18.82 19.76L19.19 18.16L12.73 16.66L11.73 16.43L9.81 15.98L9.44 17.58L10.96 17.93L11.96 18.16L13.49 18.52C12.8098 19.2005 12.0433 19.7889 11.21 20.27C10.8368 20.4983 10.4455 20.6956 10.04 20.86C9.43426 21.132 8.80045 21.3365 8.15 21.47C8.4454 22.0038 8.69304 22.5626 8.89 23.14C9.19 23.06 9.49 22.98 9.79 22.87C10.1303 22.7547 10.4641 22.6212 10.79 22.47C11.409 22.1846 12.0043 21.8502 12.57 21.47L11.44 26.32L13.16 26.72L14.38 21.46C15.2442 22.5603 16.0199 23.7273 16.7 24.95L18.3 24C17.4514 22.6743 16.5089 21.4111 15.48 20.22L14.48 20.7L14.71 19.7C15 19.46 15.28 19.21 15.52 19Z" fill="#F3511F"/>
<path d="M26.17 20.19L26.63 19.79L25.41 18.79C23.6885 20.1771 21.6071 21.0444 19.41 21.29C19.7436 21.8248 20.009 22.3993 20.2 23C20.7003 22.89 21.1944 22.7531 21.68 22.59L21.57 23.1L26.92 24.34L27.09 23.63C27.4971 24.0063 27.9244 24.3601 28.37 24.69C28.7584 24.2134 29.2292 23.8103 29.76 23.5C28.3413 22.6649 27.1173 21.5363 26.17 20.19ZM23.26 22C23.8407 21.7337 24.405 21.4332 24.95 21.1C25.3132 21.6447 25.7107 22.1657 26.14 22.66L23.26 22ZM20.62 23.64L19.56 28.22L21.15 28.59L21.24 28.2L22.61 28.52L24.26 28.9L25.09 29.09L25.01 29.44L26.68 29.82L27.73 25.29L20.62 23.64ZM25.42 27.64L23.65 27.23L23 27.05L21.57 26.72L21.89 25.32L25.74 26.21L25.42 27.64Z" fill="#F3511F"/>
<path d="M38.25 26C38.3645 25.9336 38.4747 25.8602 38.58 25.78C39.3664 25.2776 40.046 24.6252 40.58 23.86L39.74 23.06H39.5L38.71 22.87L37.71 22.63L37.23 22.52C37.37 22.34 37.51 22.16 37.63 21.97L36.4 21.29C35.7909 22.172 34.9641 22.8816 34 23.35C34.2219 23.8212 34.4058 24.3094 34.55 24.81C34.7566 24.6976 34.9569 24.5741 35.15 24.44C35.3056 24.7551 35.4827 25.0591 35.68 25.35C35.0904 25.4739 34.4918 25.5509 33.89 25.58C33.7 25.21 33.34 24.58 33.1 24.18L33.77 24.34L34 23.34L34.1 22.89L33.25 22.69L33.7 20.69L32.22 20.35L31.77 22.35L30.59 22.08L30.25 23.51L31.25 23.75C30.7683 24.8616 30.0909 25.8778 29.25 26.75C29.4073 27.3258 29.5111 27.915 29.56 28.51C30.0019 28.0516 30.391 27.5451 30.72 27L29.88 30.62L31.36 30.96L32.56 25.78C32.66 26.13 32.74 26.46 32.8 26.72L33.33 26.31C33.4252 26.5995 33.4922 26.8976 33.53 27.2H33.63L32.71 31.2L34.17 31.54L34.31 30.95L35.44 31.21L36.44 31.45H36.63L36.5 32L38.06 32.36L39.01 28.23L38.01 28L37.01 27.78L34.14 27.11C35.0195 27.0538 35.8874 26.8789 36.72 26.59L37.23 27.04C37.504 27.2668 37.7911 27.4772 38.09 27.67C38.4859 27.9359 38.9003 28.1732 39.33 28.38C39.5731 27.883 39.8789 27.4192 40.24 27C39.6372 26.7642 39.0607 26.4659 38.52 26.11L38.25 26ZM34.83 28.74L36.58 29.15L37.18 29.29L36.98 30.16L36.18 29.98L34.62 29.62L34.83 28.74ZM37.7 24.59C37.5057 24.7188 37.3018 24.8325 37.09 24.93C36.7824 24.5763 36.5296 24.1786 36.34 23.75L37.72 24.07L38.26 24.19C38.0803 24.3174 37.8933 24.4343 37.7 24.54V24.59Z" fill="#F3511F"/>
</svg>
