<svg width="24" height="24" viewBox="0 0 24 24" fill="none" xmlns="http://www.w3.org/2000/svg">
<path d="M11.9524 2C6.4574 2 2 6.4574 2 11.9524C2 17.4474 6.4574 21.9048 11.9524 21.9048C17.4474 21.9048 21.9048 17.4474 21.9048 11.9524C21.9048 6.4574 17.4474 2 11.9524 2ZM18.9296 17.098C18.3473 15.9757 17.5003 15.0122 16.4521 14.2817C15.6581 13.7311 14.7793 13.3288 13.8582 13.1064C15.0757 12.4394 15.891 11.1477 15.891 9.67604C15.891 7.51616 14.1334 5.7692 11.9841 5.7692C9.82427 5.7692 8.0773 7.52675 8.0773 9.67604C8.0773 11.1583 8.90314 12.4394 10.1101 13.1064C9.21018 13.3288 8.35258 13.7099 7.57969 14.2393C6.48916 14.991 5.61038 15.9863 5.01748 17.1509C4.59397 16.5898 4.24458 15.9757 3.9693 15.3193C3.51403 14.2499 3.29169 13.117 3.29169 11.9418C3.29169 10.7666 3.52462 9.63369 3.9693 8.56434C4.40339 7.53734 5.02806 6.60562 5.82214 5.81155C6.61621 5.01748 7.54792 4.39281 8.57492 3.95871C9.64428 3.50344 10.7772 3.2811 11.9524 3.2811C13.1276 3.2811 14.2605 3.51403 15.3298 3.95871C16.3568 4.39281 17.2886 5.01748 18.0826 5.81155C18.8767 6.60562 19.5014 7.53734 19.9355 8.56434C20.3907 9.63369 20.6131 10.7666 20.6131 11.9418C20.6131 13.117 20.3801 14.2499 19.9355 15.3193C19.6708 15.9545 19.332 16.5474 18.9296 17.098Z" fill="#0C6B7E"/>
</svg>
