<svg width="24" height="24" viewBox="0 0 24 24" fill="none" xmlns="http://www.w3.org/2000/svg">
<mask id="mask0" mask-type="alpha" maskUnits="userSpaceOnUse" x="2" y="2" width="19" height="8">
<path d="M2.00061 2H20.0005V9.20019H2.00061V2Z" fill="white"/>
</mask>
<g mask="url(#mask0)">
<path fill-rule="evenodd" clip-rule="evenodd" d="M3.39905 9.04874L10.9995 3.98174L18.6019 9.04874C18.7549 9.15134 18.9277 9.19994 19.0996 9.19994C19.3911 9.19994 19.6765 9.05954 19.8493 8.79944C20.1247 8.38634 20.014 7.82744 19.5991 7.55114L11.499 2.15114C11.1975 1.94954 10.8042 1.94954 10.5018 2.15114L2.40185 7.55114C1.98785 7.82744 1.87625 8.38634 2.15165 8.79944C2.42705 9.21254 2.98325 9.32504 3.39905 9.04874Z" fill="#0C6B7E"/>
</g>
<path fill-rule="evenodd" clip-rule="evenodd" d="M10.9998 5.3938L18.1998 10.5373V18.1999H19.9998V19.9999H1.99982V18.1999H3.79982V10.5373L10.9998 5.3938ZM13.25 13.2502H8.75V17.7502H13.25V13.2502Z" fill="#0C6B7E"/>
</svg>
