<svg width="24" height="24" viewBox="0 0 24 24" fill="none" xmlns="http://www.w3.org/2000/svg">
<path fill-rule="evenodd" clip-rule="evenodd" d="M15.994 17.9977C15.443 17.9977 14.995 17.5487 14.995 16.9958C14.995 16.4438 15.443 15.9948 15.994 15.9948C16.546 15.9948 16.994 16.4438 16.994 16.9958C16.994 17.5487 16.546 17.9977 15.994 17.9977ZM6.998 17.9977C6.447 17.9977 5.998 17.5487 5.998 16.9958C5.998 16.4438 6.447 15.9948 6.998 15.9948C7.549 15.9948 7.997 16.4438 7.997 16.9958C7.997 17.5487 7.549 17.9977 6.998 17.9977ZM3.999 11.4028L6.412 8.98475H6.998V12.9908H3.999V11.4028ZM22 7.98375H19.493L16.794 4.37875C16.417 3.87375 15.571 3.87375 15.195 4.37875L12.551 7.91075L10.958 4.97975H6.998V6.98175H5.584L2 10.5737V17.9977H4.183C4.598 19.1607 5.696 20.0007 6.998 20.0007C8.3 20.0007 9.398 19.1607 9.812 17.9977H13.18C13.594 19.1607 14.693 20.0007 15.994 20.0007C17.296 20.0007 18.395 19.1607 18.809 17.9977H20.888L22 7.98375Z" fill="#0C6B7E"/>
</svg>
