<svg width="25" height="26" viewBox="0 0 25 26" fill="none" xmlns="http://www.w3.org/2000/svg">
<path fill-rule="evenodd" clip-rule="evenodd" d="M10.7334 10.7733C13.4948 10.7733 15.7334 8.53474 15.7334 5.77332C15.7334 3.01189 13.4948 0.773315 10.7334 0.773315C7.97197 0.773315 5.7334 3.01189 5.7334 5.77332C5.7334 8.53474 7.97197 10.7733 10.7334 10.7733ZM15.8534 13.74C15.184 14.9171 14.9976 16.3081 15.3334 17.62L12.3534 22.18C12.1988 22.4261 12.1136 22.7094 12.1067 23H0.733398C0.733398 17.1133 4.84007 12.3333 10.7334 12.3333C12.5375 12.3179 14.3104 12.805 15.8534 13.74ZM22.2752 19.7197C22.8271 19.413 23.2957 18.9759 23.6401 18.4467C24.0523 17.8013 24.2657 17.049 24.2539 16.2833C24.242 15.5176 24.0054 14.7723 23.5734 14.14C23.3867 13.8536 23.1625 13.5935 22.9067 13.3667L22.3467 14.2133L21.4534 15.5933L20.6067 15.04L21.5001 13.6667L22.0867 12.7933C21.771 12.6437 21.4371 12.5361 21.0934 12.4733C20.4041 12.3455 19.693 12.4072 19.036 12.6518C18.379 12.8963 17.8007 13.3146 17.3627 13.8621C16.9248 14.4095 16.6436 15.0656 16.5492 15.7602C16.4548 16.4549 16.5507 17.1622 16.8267 17.8067L13.4934 22.8733C13.4408 22.9565 13.4232 23.0572 13.4444 23.1533C13.4656 23.2495 13.524 23.3333 13.6067 23.3867L16.6534 25.3867C16.7369 25.4403 16.838 25.4591 16.9351 25.4392C17.0323 25.4192 17.1178 25.3621 17.1734 25.28L20.4734 20.2067C21.1047 20.1936 21.7233 20.0265 22.2752 19.7197Z" fill="white" fill-opacity="0.6"/>
</svg>
