<svg width="32" height="32" viewBox="0 0 32 32" fill="none" xmlns="http://www.w3.org/2000/svg">
<path fill-rule="evenodd" clip-rule="evenodd" d="M10.0786 18.6609L7.14665 21.593H6.99993V27.4572H18.7284V24.5252H9.93209V22.9125L11.2515 21.593H25.912L22.98 18.6609H10.0786Z" fill="#1C879C"/>
<path fill-rule="evenodd" clip-rule="evenodd" d="M9.93202 18.6609L7.00003 21.593H21.6605L22.9799 22.9125V24.5252H14.1836V27.4572H25.9119V21.593H25.7655L22.8334 18.6609H9.93202Z" fill="#1C879C"/>
<path fill-rule="evenodd" clip-rule="evenodd" d="M16.529 14.2635C14.4777 14.2635 12.8645 12.6503 12.8645 10.5973C12.8645 8.54596 14.4777 6.93272 16.529 6.93272C18.5821 6.93272 20.1953 8.54596 20.1953 10.5973C20.1953 12.6503 18.5821 14.2635 16.529 14.2635ZM16.529 4.00003C12.8645 4.00003 9.9318 6.93272 9.9318 10.5973C9.9318 14.2635 12.8645 17.1947 16.529 17.1947C20.1953 17.1947 23.1262 14.2635 23.1262 10.5973C23.1262 6.93272 20.1953 4.00003 16.529 4.00003Z" fill="#1C879C"/>
</svg>
