<svg width="24" height="24" viewBox="0 0 24 24" fill="none" xmlns="http://www.w3.org/2000/svg">
<path d="M20.42 6.3101H15.5591C15.4055 4.45996 13.8535 3 11.964 3C10.0746 3 8.52232 4.45996 8.36873 6.3101H3.50767C2.68647 6.3101 2.02063 6.97594 2.02063 7.79714V11.8126H11.1204V9.92028C11.1204 9.62309 11.3614 9.38206 11.6586 9.38206H12.2399C12.5371 9.38206 12.7781 9.62309 12.7781 9.92028V11.8126H21.9072V7.79714C21.907 6.97594 21.2414 6.3101 20.42 6.3101ZM9.62206 6.29434C9.74701 5.11226 10.7493 4.1883 11.964 4.1883C13.1785 4.1883 14.1811 5.11226 14.306 6.29434H9.62206ZM12.7779 12.5881V14.6466C12.7779 14.9438 12.5369 15.1848 12.2397 15.1848H11.6584C11.3612 15.1848 11.1202 14.9438 11.1202 14.6466V12.5881H2.02085V20.2017C2.02085 21.0229 2.68669 21.6887 3.50789 21.6887H20.4202C21.2414 21.6887 21.9072 21.0229 21.9072 20.2017V12.5881H12.7779Z" fill="#0C6B7E"/>
</svg>
