<svg width="22" height="17" viewBox="0 0 22 17" fill="none" xmlns="http://www.w3.org/2000/svg">
<path d="M14.8598 9.60582C15.4137 8.09228 15.7486 6.343 15.8568 4.94281C15.8594 4.92865 15.8594 4.91576 15.8594 4.90031C15.8594 4.56797 15.8594 4.23821 15.8169 3.94838C15.7855 3.73937 15.8979 3.53522 16.0913 3.44988C16.3618 3.33781 16.6709 3.28242 16.9788 3.28242C18.5426 3.28242 19.8848 4.8037 19.8848 6.67663C19.8848 7.80245 19.4687 9.25159 18.7435 10.2988C18.686 10.3807 18.655 10.4783 18.6546 10.5784V11.7505C18.6546 11.9347 18.7603 12.0996 18.9213 12.1756C20.1321 12.7424 20.8625 13.6364 21.7294 14.3796C21.8337 14.4711 21.8981 14.6037 21.8981 14.7454V15.2246C21.9032 15.4769 21.7034 15.6859 21.4511 15.6922H19.3257C19.2057 15.6903 19.0915 15.6401 19.0089 15.5531C18.9246 15.4647 18.8783 15.3468 18.8801 15.2246V14.2881C18.8802 14.1421 18.812 14.0044 18.6959 13.9159C17.7014 13.1649 16.6954 12.2465 15.5219 11.4955C15.3856 11.4085 15.303 11.2579 15.3029 11.0962V10.4328C15.3046 10.3444 15.2814 10.2574 15.236 10.1816C15.1187 9.99097 14.9526 9.79904 14.8598 9.60582ZM-1.60833e-05 14.5226C0.942938 13.7536 1.69134 12.7772 3.07865 12.1756C3.24961 12.0998 3.35937 11.9298 3.35817 11.7428V10.7149C3.35892 10.6081 3.32452 10.504 3.26027 10.4186C2.52991 9.4667 2.01594 7.91452 2.01594 6.79256C2.01594 4.80241 3.35817 3.27985 4.92195 3.27985C5.20018 3.28371 5.47584 3.32107 5.74635 3.39191C5.96533 3.4473 6.1096 3.67015 6.08126 3.90716C6.03875 4.24336 6.03875 4.58214 6.03875 4.91834C6.03875 6.38422 6.34919 8.06651 6.97007 9.54786C7.01644 9.6625 7.02159 9.78873 6.98037 9.90338C6.91668 10.0862 6.82404 10.2575 6.706 10.4109C6.63428 10.501 6.59482 10.6126 6.59393 10.7278V10.9687C6.59393 11.1335 6.51021 11.2907 6.37495 11.3718C5.10744 12.1305 4.17999 13.0619 3.18427 13.9133C3.07837 14.0042 3.01763 14.137 3.0181 14.2766V15.2259C3.02243 15.4777 2.82288 15.6859 2.57113 15.6922H0.44701C0.32654 15.6906 0.211816 15.6404 0.128844 15.5531C0.0445418 15.4647 -0.00171025 15.3468 -1.60833e-05 15.2246V14.5226ZM14.8598 5.04071C14.8598 7.02957 14.19 9.72304 12.8478 11.1284V11.2443C15.0762 11.9128 16.3966 13.2113 17.7684 14.2431C17.9084 14.3521 17.9894 14.5203 17.9874 14.6978V16.1894C17.9874 16.4986 17.7478 16.7498 17.4528 16.7498H4.5587C4.25612 16.7427 4.01636 16.492 4.02271 16.1894V14.6849C4.02271 14.5123 4.09884 14.35 4.22894 14.2431C5.36378 13.3233 6.53983 12.1821 8.36124 11.3139C8.5125 11.239 8.6231 11.1014 8.66356 10.9375C8.70402 10.7737 8.67023 10.6004 8.5712 10.4637C7.52525 9.05966 6.92627 6.77968 6.92627 5.04071C6.92627 2.34467 8.49005 0.00415039 10.9491 0.00415039C13.4081 0.00415039 14.8598 2.22874 14.8598 5.03942V5.04071Z" fill="#A8A8A8"/>
</svg>
