<?xml version="1.0" encoding="UTF-8"?>
<svg width="72px" height="72px" viewBox="0 0 72 72" version="1.1" xmlns="http://www.w3.org/2000/svg" xmlns:xlink="http://www.w3.org/1999/xlink">
    <title>已报废</title>
    <g id="模具监控" stroke="none" stroke-width="1" fill="none" fill-rule="evenodd">
        <g transform="translate(-1340.000000, -170.000000)" id="编组-5备份-4">
            <g transform="translate(1192.000000, 149.000000)">
                <g id="已报废" transform="translate(148.000000, 21.000000)">
                    <circle id="椭圆形" fill="#FFF3EE" cx="36" cy="36" r="36"></circle>
                    <g id="编组" transform="translate(20.000000, 19.000000)" fill="#FF8B5E" fill-rule="nonzero">
                        <path d="M28.1407407,9.76296296 L3.67407407,9.76296296 C3.03703704,9.76296296 2.51851852,10.2814815 2.51851852,10.9185185 C2.51851852,10.9444444 2.51851852,10.9703704 2.52222222,11 L3.95185185,31.6296296 C4.01481481,32.537037 4.77037037,33.2444444 5.68148148,33.2444444 L26.1444444,33.2444444 C27.0555556,33.2444444 27.8111111,32.5407407 27.8740741,31.6296296 L29.2962963,11 C29.3407407,10.362963 28.8592593,9.81111111 28.2222222,9.76666667 C28.1962963,9.76296296 28.1666667,9.76296296 28.1407407,9.76296296 Z M22.2888889,16.1037037 L21.6555556,25.8407407 C21.6037037,26.6333333 20.9333333,27.2444444 20.1407407,27.2222222 C19.3814815,27.2 18.7851852,26.5703704 18.8074074,25.8111111 C18.8074074,25.7925926 18.8074074,25.7777778 18.8111111,25.7592593 L19.4444444,16.0222222 C19.4962963,15.2296296 20.1666667,14.6185185 20.962963,14.6407407 C21.7222222,14.662963 22.3185185,15.2925926 22.2962963,16.0518519 C22.2925926,16.0666667 22.2925926,16.0851852 22.2888889,16.1037037 Z M12.4444444,16.0185185 L13,25.7555556 C13.0444444,26.5185185 12.4592593,27.1740741 11.6962963,27.2148148 L11.6555556,27.2148148 C10.862963,27.237037 10.1962963,26.6259259 10.1518519,25.8333333 L9.5962963,16.0962963 C9.55185185,15.3333333 10.137037,14.6777778 10.9,14.637037 L10.9407407,14.637037 C11.7296296,14.6148148 12.3962963,15.2259259 12.4444444,16.0185185 L12.4444444,16.0185185 Z M22.3777778,3.89259259 L30.7740741,5.51111111 C31.3740741,5.62592593 31.8074074,6.15185185 31.8074074,6.75925926 C31.8074074,7.34074074 31.337037,7.81111111 30.7555556,7.81111111 L1.06296296,7.81111111 C0.481481481,7.81111111 0.0111111111,7.34074074 0.0111111111,6.75925926 C0.0111111111,6.14814815 0.444444444,5.62592593 1.04444444,5.51111111 L9.44074074,3.89259259 C9.81481481,3.82962963 10.1111111,3.54074074 10.2037037,3.16296296 L10.7407407,0.892592593 C10.862963,0.37037037 11.3296296,0.0037037037 11.8666667,0.0037037037 L19.9407407,0.0037037037 C20.4740741,0.0037037037 20.937037,0.37037037 21.062963,0.888888889 L21.6148148,3.17037037 C21.7037037,3.54444444 22.0037037,3.82962963 22.3777778,3.89259259 L22.3777778,3.89259259 Z" id="形状"></path>
                    </g>
                </g>
            </g>
        </g>
    </g>
</svg>