<?xml version="1.0" encoding="UTF-8"?>
<svg width="72px" height="72px" viewBox="0 0 72 72" version="1.1" xmlns="http://www.w3.org/2000/svg" xmlns:xlink="http://www.w3.org/1999/xlink">
    <title>维修中</title>
    <g id="模具监控" stroke="none" stroke-width="1" fill="none" fill-rule="evenodd">
        <g transform="translate(-1094.000000, -170.000000)" id="编组-5备份-3">
            <g transform="translate(946.000000, 149.000000)">
                <g id="维修中" transform="translate(148.000000, 21.000000)">
                    <circle id="椭圆形" fill="#EDF8F6" cx="36" cy="36" r="36"></circle>
                    <g id="编组" transform="translate(23.000000, 16.000000)" fill="#64C7BC" fill-rule="nonzero">
                        <path d="M14.8966251,35.2905918 C14.9196115,34.0263397 13.9082098,32.9919517 12.6439577,32.9689652 C11.3797056,32.9459788 10.3453175,33.9573805 10.3223311,35.2216326 C10.2993447,36.4858847 11.3107464,37.5202728 12.5749985,37.5432592 C13.8392506,37.5662456 14.8966251,36.5548439 14.8966251,35.2905918 M12.5520121,40.5774643 C9.63273905,40.5314915 7.31111245,38.1638921 7.35708526,35.244619 L7.49500367,23.3376629 C3.0126553,21.2688867 -0.0675225556,16.7175791 0.00143665012,11.4536931 C0.0703958558,6.71849428 2.71383207,2.60392834 6.598534,0.42022016 C6.598534,0.42022016 6.598534,0.397233758 6.598534,0.42022016 C6.87437082,0.236328945 7.12722124,0.00646492553 7.51799007,0.0294513274 C8.09265012,0.0294513274 8.55237816,0.512165767 8.55237816,1.08682581 C8.55237816,1.43162184 8.59835096,1.52356745 8.57536456,2.05225469 L8.46043255,11.8674483 C8.46043255,12.6949588 9.1040518,13.3615644 9.93156227,13.3845508 L15.9080268,13.45351 C16.7355372,13.4764964 17.4021429,12.8098908 17.4251293,11.9823803 L17.5400613,2.0982275 C17.6320069,2.0982275 17.4711021,2.0982275 17.5400613,2.0982275 C17.4021429,1.91433628 17.5400613,1.63849946 17.5400613,1.38564904 C17.5400613,0.765016188 18.0687485,0.259315346 18.6893814,0.259315346 C19.011191,0.259315346 19.1950822,0.351260954 19.5168919,0.581124973 C19.5168919,0.558138571 19.5168919,0.604111375 19.5168919,0.581124973 C23.355621,2.85677876 25.9071116,7.06329031 25.8381524,11.8214755 C25.7691932,17.0623751 22.5740833,21.5447235 18.0457621,23.4985677 L17.8848573,35.4055239 C17.8388845,38.3018105 15.4482987,40.6234371 12.5520121,40.5774643 L12.5520121,40.5774643 Z" id="形状"></path>
                    </g>
                </g>
            </g>
        </g>
    </g>
</svg>