<?xml version="1.0" encoding="UTF-8"?>
<svg width="72px" height="72px" viewBox="0 0 72 72" version="1.1" xmlns="http://www.w3.org/2000/svg" xmlns:xlink="http://www.w3.org/1999/xlink">
    <title>使用中</title>
    <g id="模具监控" stroke="none" stroke-width="1" fill="none" fill-rule="evenodd">
        <g transform="translate(-848.000000, -170.000000)" id="编组-5备份-2">
            <g transform="translate(700.000000, 149.000000)">
                <g id="使用中" transform="translate(148.000000, 21.000000)">
                    <circle id="椭圆形" fill="#EEEDFB" cx="36" cy="36" r="36"></circle>
                    <g id="编组" transform="translate(18.000000, 20.000000)" fill-rule="nonzero">
                        <path d="M32.8844543,32.7110168 L4.03572335,32.7110168 C1.79130711,32.7110168 0.0305203046,30.95023 0.0305203046,28.7058138 L0.0305203046,9.6282757 C0.0305203046,7.38385945 1.79130711,5.62307265 4.03572335,5.62307265 L32.8844543,5.62307265 C35.1288706,5.62307265 36.8896574,7.38385945 36.8896574,9.6282757 L36.8896574,28.7011183 C36.8896574,30.9455346 35.1288706,32.7110168 32.8844543,32.7110168 Z" id="形状" fill="#A172FC"></path>
                        <path d="M3.23280457,9.6282757 L0.392068528,8.02713357 L4.35501269,1.61786961 C5.15793147,0.655306155 6.43978426,0.0167274746 7.72163706,0.0167274746 L29.5178299,0.0167274746 C30.7996827,0.0167274746 32.0815355,0.660001586 32.8844543,1.61786961 L33.044099,1.77751428 L36.4248096,7.71253966 L33.9503173,9.30898636 L30.4803934,3.37865641 C30.3207487,3.21901174 30.0014594,3.05936707 29.6774746,3.05936707 L7.88128173,3.05936707 C7.56199239,3.05936707 7.23800761,3.21901174 7.07836294,3.37865641 L3.23280457,9.6282757 Z" id="形状" fill="#A172FC"></path>
                        <polygon id="路径" fill="#FFFFFF" points="17.0185914 26.2970574 11.7315355 21.4889356 13.9759518 19.2445194 16.8589467 21.8082249 22.9489213 15.8825904 25.1933376 18.2866513 17.0185914 26.2970574"></polygon>
                    </g>
                </g>
            </g>
        </g>
    </g>
</svg>