<?xml version="1.0" encoding="UTF-8"?>
<svg width="12px" height="12px" viewBox="0 0 12 12" version="1.1" xmlns="http://www.w3.org/2000/svg" xmlns:xlink="http://www.w3.org/1999/xlink">
    <title>路径 15</title>
    <defs>
        <path d="M17.7124545,8.63870659 L26.6221329,8.63870659 C27.147999,8.63870659 27.5742976,9.06500526 27.5742976,9.59087133 C27.5742976,9.81654954 27.4941389,10.0348914 27.3481159,10.2069609 L23.7927281,14.3965317 L23.7927281,17.7521781 C23.7927281,17.9712278 23.6797899,18.1747993 23.493941,18.2907431 L21.4876166,19.5424097 C21.1901754,19.7279715 20.798624,19.6372753 20.6130622,19.3398341 C20.5501847,19.2390465 20.5168507,19.1226374 20.5168507,19.0038446 L20.5168507,14.3959185 L16.9843766,10.2044838 C16.6454878,9.80237742 16.6967357,9.20168218 17.0988421,8.86279339 C17.2705552,8.7180763 17.4878917,8.63870659 17.7124545,8.63870659 Z M17.7124545,9.27348308 C17.6376003,9.27348308 17.5651548,9.29993965 17.507917,9.34817869 C17.3738816,9.46114162 17.3567989,9.66137336 17.4697619,9.79540881 L21.002236,13.9868435 C21.098714,14.101319 21.1516272,14.24621 21.1516272,14.3959185 L21.1516272,19.0038446 L23.1579516,17.7521781 L23.1579516,14.3965317 C23.1579516,14.2460796 23.2113907,14.1005183 23.3087394,13.9858053 L26.8641272,9.79623454 C26.9128016,9.73887803 26.9395212,9.6660974 26.9395212,9.59087133 C26.9395212,9.41558264 26.7974216,9.27348308 26.6221329,9.27348308 L17.7124545,9.27348308 Z" id="path-1"></path>
    </defs>
    <g id="供应总览" stroke="none" stroke-width="1" fill="none" fill-rule="evenodd">
        <g id="库存明细_客户侧" transform="translate(-1360.000000, -112.000000)">
            <g id="Group备份" transform="translate(1344.000000, 104.000000)">
                <mask id="mask-2" fill="white">
                    <use xlink:href="#path-1"></use>
                </mask>
                <use id="路径-15" stroke="#FFFFFF" stroke-width="0.5" fill="#FFFFFF" fill-rule="nonzero" xlink:href="#path-1"></use>
            </g>
        </g>
    </g>
</svg>