<?xml version="1.0" encoding="UTF-8"?>
<svg width="13px" height="12px" viewBox="0 0 13 12" version="1.1" xmlns="http://www.w3.org/2000/svg" xmlns:xlink="http://www.w3.org/1999/xlink">
    <title>公司</title>
    <g id="供应总览" stroke="none" stroke-width="1" fill="none" fill-rule="evenodd">
        <g id="库存明细_客户侧" transform="translate(-224.000000, -228.000000)" fill="#999999" fill-rule="nonzero">
            <g id="编组-5备份-2" transform="translate(208.000000, 149.000000)">
                <g id="编组-3" transform="translate(15.945763, 69.000000)">
                    <path d="M0.996610169,10 L9.49230487,10 L9.50743451,21.956614 L1.01173982,21.956614 L0.996610169,10 Z M2.71087876,12.8387607 L2.71087876,14.5483665 L4.4100177,14.5483665 L4.4100177,12.8387607 L2.71087876,12.8387607 Z M6.10916991,16.2579723 L6.10916991,17.9675515 L7.80830885,17.9675515 L7.80830885,16.2579457 L6.10916991,16.2579457 L6.10916991,16.2579723 Z M6.10916991,12.8387607 L6.10916991,14.5483665 L7.80830885,14.5483665 L7.80830885,12.8387607 L6.10916991,12.8387607 L6.10916991,12.8387607 Z M2.71087876,16.2579723 L2.71087876,17.9675515 L4.4100177,17.9675515 L4.4100177,16.2579457 L2.71087876,16.2579457 L2.71087876,16.2579723 Z M10.3151453,13.3842818 L12.8898395,13.4090909 L12.9163828,21.956614 L10.3416885,21.9318182 L10.3151453,13.3842818 L10.3151453,13.3842818 Z" id="公司"></path>
                </g>
            </g>
        </g>
    </g>
</svg>