<?xml version="1.0" encoding="UTF-8"?>
<svg width="16px" height="4px" viewBox="0 0 16 4" version="1.1" xmlns="http://www.w3.org/2000/svg" xmlns:xlink="http://www.w3.org/1999/xlink">
    <title>更多</title>
    <g id="供应总览" stroke="none" stroke-width="1" fill="none" fill-rule="evenodd">
        <g id="库存明细_客户侧" transform="translate(-470.000000, -194.000000)" fill="#999999" fill-rule="nonzero">
            <g id="编组-5备份-2" transform="translate(208.000000, 149.000000)">
                <g id="更多" transform="translate(262.000000, 45.000000)">
                    <path d="M3.18649822,1.59804687 C3.18649822,0.719051847 2.47625421,0.00637428977 1.60023883,0.00637428977 C0.724223445,0.00637428977 0.0139794395,0.719069602 0.0139794395,1.59804687 C0.0139794395,2.47698864 0.724223445,3.18968395 1.60023883,3.18968395 C2.47625421,3.18968395 3.18649822,2.47700639 3.18649822,1.59804687 Z M6.359017,1.59804687 C6.359017,2.47698864 7.0692787,3.18968395 7.94529408,3.18968395 C8.82130947,3.18968395 9.53155347,2.47700639 9.53155347,1.59804687 C9.53155347,0.719051847 8.82130947,0.00637428977 7.94529408,0.00637428977 C7.0692787,0.00637428977 6.359017,0.719069602 6.359017,1.59806463 L6.359017,1.59804687 Z M12.7040369,1.59804687 C12.7040369,2.47698864 13.41352,3.18968395 14.2903139,3.18968395 C15.1662939,3.18968395 15.8765733,2.47700639 15.8765733,1.59804687 C15.8765733,0.719051847 15.1663116,0.00637428977 14.2903139,0.00637428977 C13.4135377,0.00637428977 12.7040369,0.719069602 12.7040369,1.59806463 L12.7040369,1.59804687 Z" id="形状"></path>
                </g>
            </g>
        </g>
    </g>
</svg>