<?xml version="1.0" encoding="UTF-8"?>
<svg width="16px" height="17px" viewBox="0 0 16 17" version="1.1" xmlns="http://www.w3.org/2000/svg" xmlns:xlink="http://www.w3.org/1999/xlink">
    <title>零件</title>
    <g id="供应总览" stroke="none" stroke-width="1" fill="none" fill-rule="evenodd">
        <g id="库存明细_客户侧" transform="translate(-224.000000, -162.000000)" fill="#2AC5A9" fill-rule="nonzero">
            <g id="编组-5备份-2" transform="translate(208.000000, 149.000000)">
                <path d="M29.9958637,22.0137676 C30.0289119,21.7508512 30.0548784,21.4843819 30.0548784,21.2131754 C30.0548784,20.9419689 30.0289119,20.6754996 29.9958637,20.4125833 L31.727354,19.0529978 C31.8852528,18.9262322 31.9269153,18.702605 31.8253183,18.5271651 L30.1894318,15.6824574 C30.0867463,15.5048112 29.8742935,15.4313841 29.6901677,15.5048113 L27.6518012,16.3302739 C27.2274047,16.0019011 26.7624424,15.7300159 26.2684974,15.5213916 L25.9616212,13.3458179 C25.9249753,13.1471664 25.7533876,13.0022845 25.5520594,13 L22.2779257,13 C22.0771582,13.0012444 21.9063519,13.1471484 21.8730851,13.3458179 L21.5662088,15.5213916 C21.0714567,15.7283903 20.6062898,16.0003951 20.1829051,16.3302739 L18.1457188,15.5059955 C17.9586822,15.4345087 17.7475496,15.5091323 17.6464547,15.6824574 L16.0093879,18.5271651 C15.9083179,18.7026958 15.9499121,18.9259565 16.1073522,19.0529978 L17.8341214,20.4125833 C17.798287,20.6779827 17.7789714,20.945365 17.776287,21.2131754 C17.776287,21.4843819 17.8010731,21.7508512 17.8341214,22.0137676 L16.1073522,23.3733531 C15.9494535,23.5001186 15.907791,23.7237459 16.0093879,23.8991858 L17.6452744,26.7438934 C17.74796,26.9215396 17.9604128,26.9949667 18.1445385,26.9215396 L20.1829051,26.096077 C20.6042698,26.419393 21.0681251,26.6953368 21.5662088,26.9049593 L21.8730851,29.0805329 C21.9063519,29.2792025 22.0771582,29.4251065 22.2779257,29.4263508 L25.5520594,29.4263508 C25.7528269,29.4251065 25.9236331,29.2792025 25.9569,29.0805329 L26.2637762,26.9049593 C26.7585284,26.6979606 27.2236953,26.4259558 27.64708,26.096077 L29.6854466,26.9203553 C29.8695723,26.9914138 30.0820251,26.9203553 30.1847106,26.7438934 L31.8217775,23.8991858 C31.9228474,23.723655 31.8812533,23.5003944 31.7238131,23.3733531 L29.9958637,22.0137676 Z M23.9161728,24.0874929 C23.1560447,24.0884346 22.4267617,23.7859467 21.8891589,23.2467375 C21.351556,22.7075282 21.0497932,21.9758894 21.0504197,21.2131754 C21.0497937,20.4506669 21.3513946,19.719208 21.888742,19.1800328 C22.4260894,18.6408577 23.1550688,18.338231 23.9149925,18.3388591 C24.6749163,18.338231 25.4038957,18.6408577 25.9412431,19.1800328 C26.4785905,19.719208 26.7801914,20.4506669 26.7795654,21.2131754 C26.7801914,21.9756839 26.4785905,22.7071429 25.9412431,23.246318 C25.4038957,23.7854931 24.6749163,24.0881199 23.9149925,24.0874929 L23.9161728,24.0874929 Z" id="零件"></path>
            </g>
        </g>
    </g>
</svg>