<?xml version="1.0" encoding="UTF-8"?>
<svg width="11px" height="12px" viewBox="0 0 11 12" version="1.1" xmlns="http://www.w3.org/2000/svg" xmlns:xlink="http://www.w3.org/1999/xlink">
    <title>形状</title>
    <g id="供应总览" stroke="none" stroke-width="1" fill="none" fill-rule="evenodd">
        <g id="订单详情_供应商侧备份-5" transform="translate(-589.000000, -791.000000)" fill="#FF8B5E" fill-rule="nonzero">
            <g id="编组-4备份-7" transform="translate(209.000000, 763.000000)">
                <path d="M380.637865,28 C380.333717,28 380,28.2859831 380,28.6395545 L380,39.1884025 C380,39.5407066 380.326114,39.827957 380.629416,39.827957 C380.933564,39.827957 381.267281,39.5407066 381.267281,39.1884025 L381.267281,28.639977 C381.267281,28.2859831 380.941167,28 380.637865,28 Z M388.384754,28.8461213 C386.312327,28.8461213 386.312327,28 384.240745,28 C383.044009,28 382.120584,28.555914 382.120584,28.555914 L382.112135,34.8902074 C382.112135,34.8902074 383.044432,34.3351382 384.240323,34.3351382 C386.312327,34.3351382 386.312327,35.1812596 388.384332,35.1812596 C389.681605,35.1812596 390.983103,34.5032642 390.983103,34.5032642 L390.983103,28.1689708 C390.983103,28.1689708 389.681183,28.8456989 388.384754,28.8456989 L388.384754,28.8461213 Z" id="形状"></path>
            </g>
        </g>
    </g>
</svg>