<?xml version="1.0" encoding="UTF-8"?>
<svg width="40px" height="40px" viewBox="0 0 40 40" version="1.1" xmlns="http://www.w3.org/2000/svg" xmlns:xlink="http://www.w3.org/1999/xlink">
    <title>加急</title>
    <g id="供应总览" stroke="none" stroke-width="1" fill="none" fill-rule="evenodd">
        <g id="供应总览备份" transform="translate(-1226.000000, -434.000000)">
            <g id="Group-47备份-6" transform="translate(1139.000000, 426.000000)">
                <g id="Group-12">
                    <g id="编组-5">
                        <g id="路径">
                            <g id="编组-12" transform="translate(87.000000, 8.000000)">
                                <path d="M17.2726763,37 C17.1826789,37 17.1138574,36.9732013 17.0662117,36.9276467 C16.7485739,36.8338576 16.6321066,36.6462795 16.722104,36.3649124 L18.8555717,23.4166645 L9.56995813,23.4166645 C9.34231765,23.4166645 9.18085174,23.3228755 9.08820737,23.1326177 C8.95056428,22.9450396 8.97438713,22.7333443 9.15702889,22.4975318 L23.4666147,3.25737873 C23.6519035,2.97065221 23.8557211,2.92509755 24.0860085,3.11267561 C24.313649,3.16090996 24.4301162,3.35116774 24.4301162,3.67808958 L22.2966486,16.6263375 L30.4837645,16.6263375 C30.714052,16.6263375 30.8755179,16.7201265 30.9655153,16.9077046 C31.0114949,17.1177451 31.0114949,17.3354296 30.9655153,17.5454701 L17.7570741,36.7856233 C17.6324234,36.9226525 17.4566848,37.0004274 17.2726763,37 L17.2726763,37 Z" id="路径" fill="#FF8B5E" fill-rule="nonzero"></path>
                                <rect id="矩形" x="0" y="0" width="40" height="40"></rect>
                            </g>
                        </g>
                    </g>
                </g>
            </g>
        </g>
    </g>
</svg>