<?xml version="1.0" encoding="UTF-8"?>
<svg width="40px" height="40px" viewBox="0 0 40 40" version="1.1" xmlns="http://www.w3.org/2000/svg" xmlns:xlink="http://www.w3.org/1999/xlink">
    <title>不合格</title>
    <g id="供应总览" stroke="none" stroke-width="1" fill="none" fill-rule="evenodd">
        <g id="供应总览备份" transform="translate(-1226.000000, -646.000000)" fill="#FBDF59" fill-rule="nonzero">
            <g id="Group-47备份-10" transform="translate(1139.000000, 638.000000)">
                <g id="Group-12">
                    <g id="编组-5">
                        <g id="路径">
                            <g id="编组-17" transform="translate(87.000000, 8.000000)">
                                <path d="M32.2455236,12.0649545 C28.6625845,10.6018915 25.5000845,8.83612572 22.8814471,6.83249396 C21.4311829,5.72250201 19.4168746,5.72250201 17.9666104,6.83249396 C15.3480011,8.83559081 12.185473,10.6018633 8.60202703,12.0649264 C8.23944452,12.2109176 8.00141723,12.5619811 8,12.9528487 L8,20.848119 C8,27.6814804 18.6037162,34.8267226 20.4237894,34.8267226 C22.2438626,34.8267226 32.8475788,27.6810018 32.8475788,20.848119 L32.8475788,12.9528487 C32.8461684,12.5619639 32.6081267,12.2108844 32.2455236,12.0648982 L32.2455236,12.0649545 Z M21.5072635,26.2688678 C21.5072635,26.7995867 21.0770308,27.2298194 20.5463119,27.2298194 C20.015593,27.2298194 19.5853604,26.7995867 19.5853604,26.2688678 L19.5853604,25.3079163 C19.5853604,24.7771974 20.015593,24.3469647 20.5463119,24.3469647 C21.0770308,24.3469647 21.5072635,24.7771974 21.5072635,25.3079163 L21.5072635,26.2688678 L21.5072635,26.2688678 Z M21.5072635,21.7643633 C21.5072635,22.2950822 21.0770308,22.7253149 20.5463119,22.7253149 C20.015593,22.7253149 19.5853604,22.2950822 19.5853604,21.7643633 L19.5853604,15.0376741 C19.5853604,14.5069552 20.015593,14.0767226 20.5463119,14.0767226 C21.0770308,14.0767226 21.5072635,14.5069552 21.5072635,15.0376741 L21.5072635,21.7643915 L21.5072635,21.7643633 Z" id="形状"></path>
                            </g>
                        </g>
                    </g>
                </g>
            </g>
        </g>
    </g>
</svg>