<?xml version="1.0" encoding="UTF-8"?>
<svg width="40px" height="40px" viewBox="0 0 40 40" version="1.1" xmlns="http://www.w3.org/2000/svg" xmlns:xlink="http://www.w3.org/1999/xlink">
    <title>欠料</title>
    <g id="供应总览" stroke="none" stroke-width="1" fill="none" fill-rule="evenodd">
        <g id="客户协同总览" transform="translate(-1226.000000, -646.000000)" fill="#BBD751" fill-rule="nonzero">
            <g id="Group-47备份-10" transform="translate(1139.000000, 638.000000)">
                <g id="Group-12">
                    <g id="编组-5">
                        <g id="路径">
                            <g id="编组" transform="translate(87.000000, 8.000000)">
                                <g id="编组-3">
                                    <path d="M7.76278997,22.2200054 L19.1377281,27.6732846 C19.9026702,28.1785773 20.8953459,28.1785773 21.660288,27.6732846 L33.0352261,22.2200054 C33.5972819,21.9389775 33.7980161,20.627514 33.7980161,19.9249443 L32.0114817,20.8750862 L20.3822802,26.5826287 L8.78653441,20.8750862 C8.82668125,20.8750862 7.76278997,20.386633 7,19.9249443 C7,20.6141318 7.16058736,21.8787572 7.76278997,22.2200054 Z M7.76278997,16.5057717 L19.1377281,21.9590509 C19.9026702,22.4643436 20.8953459,22.4643436 21.660288,21.9590509 L33.0352261,16.5057717 C33.8716187,16.090921 33.8983832,14.3177689 33.0352261,13.8293157 L21.6469057,7.41251233 C20.8959962,6.86249589 19.8752554,6.86249589 19.1243459,7.41251233 L7.74940769,13.8159334 C6.8996329,14.4114449 6.87286834,16.0039362 7.76278997,16.5057717 Z M20.3822802,32.2968624 L8.78653441,26.5826287 C8.82668125,26.5826287 7.76278997,26.0941755 7,25.6324868 C7,26.3016008 7.16058736,27.5862997 7.76278997,27.9275479 L19.1377281,33.3808271 C19.9026702,33.8861198 20.8953459,33.8861198 21.660288,33.3808271 L33.0352261,27.9275479 C33.5972819,27.64652 33.7980161,26.3350565 33.7980161,25.6324868 L32.0114817,26.5826287 L20.3822802,32.2968624 Z" id="形状"></path>
                                </g>
                            </g>
                        </g>
                    </g>
                </g>
            </g>
        </g>
    </g>
</svg>