<?xml version="1.0" encoding="UTF-8"?>
<svg width="356px" height="184px" viewBox="0 0 356 184" version="1.1" xmlns="http://www.w3.org/2000/svg" xmlns:xlink="http://www.w3.org/1999/xlink">
    <title>框2</title>
    <defs>
        <linearGradient x1="50%" y1="0%" x2="50%" y2="98.3282343%" id="linearGradient-1">
            <stop stop-color="#3CADD9" stop-opacity="0.286604021" offset="0%"></stop>
            <stop stop-color="#3CADD9" stop-opacity="0" offset="100%"></stop>
        </linearGradient>
    </defs>
    <g id="页面-1" stroke="none" stroke-width="1" fill="none" fill-rule="evenodd">
        <g id="看板" transform="translate(-992.000000, -109.000000)">
            <g id="框2" transform="translate(993.500000, 110.000000)">
                <polygon id="Stroke-2" stroke-opacity="0.33088396" stroke="#FFFFFF" stroke-width="0.71344" points="7.8274 -6.5416462e-14 337.28184 -6.5416462e-14 337.28184 15.65424 352.93636 15.65424 352.93636 159 330.762531 182.07204 156.66308 182.07204 7.8274 182.07204 -1.42108547e-13 182.07204 -1.42108547e-13 163.79864 -1.42108547e-13 6.39268 -1.42108547e-13 -6.5416462e-14"></polygon>
                <polygon id="Stroke-2" fill="url(#linearGradient-1)" points="7.8274 -5.12056073e-14 337.28184 -5.12056073e-14 337.28184 15.65424 352.93636 15.65424 352.93636 159 330.762531 182.07204 156.66308 182.07204 7.8274 182.07204 -1.42108547e-13 182.07204 -1.42108547e-13 163.79864 -1.42108547e-13 6.39268 -1.42108547e-13 -5.12056073e-14"></polygon>
                <polygon id="Fill-10" fill-opacity="0.359238418" fill="#FFFFFF" points="325 9 328 9 328 6 325 6"></polygon>
                <polygon id="Fill-10备份-4" fill-opacity="0.359238418" fill="#FFFFFF" points="325 172 328 172 328 169 325 169"></polygon>
                <polygon id="Fill-10备份-2" fill-opacity="0.359238418" fill="#FFFFFF" points="9 9 12 9 12 6 9 6"></polygon>
                <polygon id="Fill-10备份-5" fill-opacity="0.359238418" fill="#FFFFFF" points="9 172 12 172 12 169 9 169"></polygon>
                <polygon id="Fill-10备份" fill-opacity="0.359238418" fill="#FFFFFF" points="343 24 346 24 346 21 343 21"></polygon>
                <polygon id="Fill-10备份-3" fill-opacity="0.359238418" fill="#FFFFFF" points="343 157 346 157 346 154 343 154"></polygon>
            </g>
        </g>
    </g>
</svg>