<?xml version="1.0" encoding="UTF-8"?>
<svg width="18px" height="18px" viewBox="0 0 18 18" version="1.1" xmlns="http://www.w3.org/2000/svg" xmlns:xlink="http://www.w3.org/1999/xlink">
    <title>交付率</title>
    <g id="页面-1" stroke="none" stroke-width="1" fill="none" fill-rule="evenodd">
        <g id="看板" transform="translate(-206.000000, -621.000000)" fill="#50CEFF" fill-rule="nonzero">
            <g id="编组-6" transform="translate(20.000000, 537.000000)">
                <g id="编组" transform="translate(186.000000, 84.000000)">
                    <path d="M16.3374233,8.36196319 C16.3116564,8.36196319 16.290184,8.37361963 16.2656442,8.37668712 C16.2411043,8.37361963 16.2190184,8.36196319 16.193865,8.36196319 L9.58895706,8.36196319 L9.58895706,1.69018405 C9.58895706,1.67668712 9.58220859,1.66503067 9.5809816,1.65153374 C9.58220859,1.63865031 9.58895706,1.62699387 9.58895706,1.61349693 C9.58895706,1.27467193 9.31428512,1 8.97546012,1 C4.57791411,1 1,4.57791411 1,8.97546012 C1,13.3730061 4.57791411,16.9509202 8.97546012,16.9509202 C13.3730061,16.9509202 16.9509202,13.3730061 16.9509202,8.97546012 C16.9509202,8.63663512 16.6762483,8.36196319 16.3374233,8.36196319 Z M8.97546012,15.7239264 C5.25460123,15.7239264 2.22699387,12.696319 2.22699387,8.97546012 C2.22699387,5.46134969 4.92760736,2.56932515 8.36196319,2.25828221 L8.36196319,8.97546012 C8.36196319,9.31428512 8.63663512,9.58895706 8.97546012,9.58895706 L15.692638,9.58895706 C15.3815951,13.0233129 12.4895706,15.7239264 8.97546012,15.7239264 Z M11.1546012,2.58588957 C13.0771639,3.25110272 14.6018523,4.74068901 15.3116564,6.64723926 C15.3834887,6.85790203 15.5637827,7.01313661 15.7827786,7.05287921 C16.0017745,7.09262181 16.225118,7.01063794 16.3663926,6.83864904 C16.5076671,6.66666014 16.5447106,6.43164635 16.4631902,6.22453988 C15.6378867,3.96286103 13.8311713,2.19766373 11.5509202,1.42515337 C11.2303918,1.3157129 10.8818331,1.48683351 10.7723926,1.80736196 C10.6629522,2.12789041 10.8340728,2.4764491 11.1546012,2.58588957 L11.1546012,2.58588957 Z" id="形状"></path>
                </g>
            </g>
        </g>
    </g>
</svg>