<?xml version="1.0" encoding="UTF-8"?>
<svg width="18px" height="18px" viewBox="0 0 18 18" version="1.1" xmlns="http://www.w3.org/2000/svg" xmlns:xlink="http://www.w3.org/1999/xlink">
    <title>今日领料</title>
    <g id="页面-1" stroke="none" stroke-width="1" fill="none" fill-rule="evenodd">
        <g id="看板" transform="translate(-33.000000, -673.000000)" fill="#50CEFF" fill-rule="nonzero">
            <g id="编组-6" transform="translate(20.000000, 537.000000)">
                <g id="编组" transform="translate(13.000000, 136.000000)">
                    <path d="M16,5.002875 L9,2.002875 L2,5.002875 L2,13.555875 L9,16.535875 L9.6045,16.278375 L9.7325,16.278375 L9.7325,16.223875 L16,13.556375 L16,5.002875 Z M9,7.556375 L7.226,6.801375 L12.2095,4.501375 C12.221,4.495875 12.2285,4.485875 12.2395,4.479375 L14.2275,5.331375 L9,7.556375 Z M11.011,3.952875 L5.9845,6.272875 L3.7725,5.330875 L9,3.090875 L11.011,3.952875 Z M3,6.088875 L5,6.940375 L5,10.046875 C5,10.3230174 5.22385763,10.546875 5.5,10.546875 C5.77614237,10.546875 6,10.3230174 6,10.046875 L6,7.366875 L6.001,7.366375 L8.7325,8.529375 L8.7325,15.335375 L3,12.894875 L3,6.088875 Z M9.7325,15.137375 L9.7325,8.331375 L15,6.088875 L15,12.895375 L9.7325,15.137375 L9.7325,15.137375 Z" id="形状"></path>
                </g>
            </g>
        </g>
    </g>
</svg>