<?xml version="1.0" encoding="UTF-8"?>
<svg width="18px" height="18px" viewBox="0 0 18 18" version="1.1" xmlns="http://www.w3.org/2000/svg" xmlns:xlink="http://www.w3.org/1999/xlink">
    <title>退料</title>
    <g id="页面-1" stroke="none" stroke-width="1" fill="none" fill-rule="evenodd">
        <g id="看板" transform="translate(-206.000000, -646.000000)" fill="#50CEFF" fill-rule="nonzero">
            <g id="编组-6" transform="translate(20.000000, 537.000000)">
                <g id="编组" transform="translate(186.000000, 109.000000)">
                    <path d="M4.38864943,5.90732759 L3.3829023,5.90732759 L3.3829023,3.50862069 C3.3829023,2.67543249 4.05833479,2 4.89152299,2 L14.4461207,2 C15.2793089,2 15.9547414,2.67543249 15.9547414,3.50862069 L15.9547414,13.566092 C15.9547414,14.3992802 15.2793089,15.0747126 14.4461207,15.0747126 L4.89152299,15.0747126 C4.05833479,15.0747126 3.3829023,14.3992802 3.3829023,13.566092 L3.3829023,11.5817529 L4.38864943,11.5817529 L4.38864943,13.566092 C4.38864943,13.8438214 4.61379359,14.0689655 4.89152299,14.0689655 L14.4461207,14.0689655 C14.7238501,14.0689655 14.9489943,13.8438214 14.9489943,13.566092 L14.9489943,3.50862069 C14.9489943,3.23089129 14.7238501,3.00574713 14.4461207,3.00574713 L4.89152299,3.00574713 C4.61379359,3.00574713 4.38864943,3.23089129 4.38864943,3.50862069 L4.38864943,5.90732759 Z" id="路径"></path>
                    <path d="M9.83678161,6.94777299 C9.69503818,6.83637113 9.62377446,6.65761608 9.64999762,6.47925151 C9.67622077,6.30088695 9.79591802,6.15020697 9.96372711,6.08431552 C10.1315362,6.01842407 10.3217783,6.04740413 10.4623563,6.16027299 L12.7931753,8.01235632 C13.1663075,8.30854885 12.9566092,8.90897989 12.4803879,8.90897989 L2.51594828,8.90897989 C2.23821888,8.90897989 2.01307471,8.68383572 2.01307471,8.40610632 C2.01307471,8.12837692 2.23821888,7.90323276 2.51594828,7.90323276 L11.0391523,7.90323276 L9.83728448,6.94777299 L9.83678161,6.94777299 Z" id="路径"></path>
                </g>
            </g>
        </g>
    </g>
</svg>