<?xml version="1.0" encoding="UTF-8"?>
<svg width="43px" height="43px" viewBox="0 0 43 43" version="1.1" xmlns="http://www.w3.org/2000/svg" xmlns:xlink="http://www.w3.org/1999/xlink">
    <title>退货</title>
    <defs>
        <rect id="path-1" x="-1.27897692e-13" y="-1.42108547e-14" width="41.28" height="41.28"></rect>
        <rect id="path-3" x="1.92" y="1.92" width="37.44" height="37.44"></rect>
        <filter x="-6.7%" y="-6.7%" width="113.4%" height="113.4%" filterUnits="objectBoundingBox" id="filter-4">
            <feGaussianBlur stdDeviation="2.5" in="SourceAlpha" result="shadowBlurInner1"></feGaussianBlur>
            <feOffset dx="0" dy="0" in="shadowBlurInner1" result="shadowOffsetInner1"></feOffset>
            <feComposite in="shadowOffsetInner1" in2="SourceAlpha" operator="arithmetic" k2="-1" k3="1" result="shadowInnerInner1"></feComposite>
            <feColorMatrix values="0 0 0 0 0.176470588   0 0 0 0 0.807843137   0 0 0 0 0.952941176  0 0 0 0.637838724 0" type="matrix" in="shadowInnerInner1"></feColorMatrix>
        </filter>
    </defs>
    <g id="页面-1" stroke="none" stroke-width="1" fill="none" fill-rule="evenodd">
        <g id="看板" transform="translate(-682.000000, -475.000000)">
            <g id="编组-22备份-2" transform="translate(683.000000, 474.000000)">
                <g id="编组-13" transform="translate(0.000000, 2.000000)">
                    <g id="形状结合">
                        <mask id="mask-2" fill="white">
                            <use xlink:href="#path-1"></use>
                        </mask>
                        <use id="蒙版" stroke-opacity="0.36756993" stroke="#2DCEF3" stroke-width="0.5" xlink:href="#path-1"></use>
                        <path d="M0.96,40.32 L0.96,42.24 L-0.96,42.24 L-0.96,40.32 L0.96,40.32 Z M42.24,40.32 L42.24,42.24 L40.32,42.24 L40.32,40.32 L42.24,40.32 Z M0.96,-0.96 L0.96,0.96 L-0.96,0.96 L-0.96,-0.96 L0.96,-0.96 Z M42.24,-0.96 L42.24,0.96 L40.32,0.96 L40.32,-0.96 L42.24,-0.96 Z" fill="#2DCEF3" mask="url(#mask-2)"></path>
                    </g>
                    <g id="矩形" fill="black" fill-opacity="1">
                        <use filter="url(#filter-4)" xlink:href="#path-3"></use>
                    </g>
                    <g id="编组" transform="translate(9.000000, 9.000000)" fill="#04C3D0" fill-rule="nonzero">
                        <path d="M22.5650526,4.47681871 L18.8762573,2.848 L7.22301754,8.32130994 L7.22301754,11.8424327 L5.18699415,10.9441871 L5.18699415,7.41108772 L16.8402339,1.93777778 L12.9358596,0.201169591 C12.4088889,-0.0383625731 11.5465731,-0.0383625731 11.0315789,0.201169591 L1.39040936,4.47681871 C0.623906433,4.82414035 0.00112280702,5.79424561 0.00112280702,6.63260819 L0.0250760234,16.6690058 C0.0250760234,17.519345 0.671812865,18.4894503 1.4502924,18.8128187 L11.0555322,22.9207953 C11.5585497,23.1363743 12.3969123,23.1363743 12.8999298,22.9207953 L22.5171462,18.8128187 C23.2956257,18.4774737 23.9423626,17.5073684 23.9423626,16.6690058 L23.9663158,6.63260819 C23.9543392,5.79424561 23.3315556,4.82414035 22.5650526,4.47681871 Z M21.2715789,14.8246082 C20.720655,15.6629708 20.0020585,16.357614 19.2235789,16.7648187 L15.0676959,19.0044444 C14.7563041,19.172117 14.4928187,19.0523509 14.4928187,18.7409591 C14.4928187,18.4295673 14.7443275,18.0343392 15.0676959,17.8666667 L19.2235789,15.6390175 C19.6906667,15.3875088 20.1218246,14.9683275 20.4571696,14.4653099 C20.7925146,13.9503158 20.9721637,13.423345 20.9721637,12.9562573 C20.9721637,11.986152 20.1817076,11.6268538 19.2235789,12.141848 L15.7862924,13.974269 L16.5887251,14.3455439 C16.8162807,14.4533333 16.8162807,14.8126316 16.5887251,15.1479766 C16.4809357,15.3156491 16.3252398,15.4593684 16.1815205,15.5312281 C16.0378012,15.6150643 15.8940819,15.6270409 15.7743158,15.5791345 L14.2772398,14.8844912 C14.1095673,14.800655 14.0017778,14.6329825 13.9898012,14.4054269 L13.9898012,14.3455439 L13.9898012,14.2856608 C14.0017778,14.034152 14.1095673,13.7586901 14.2772398,13.4952047 L15.7743158,11.2076725 C16.0018713,10.8603509 16.3611696,10.6687251 16.5767485,10.7765146 C16.8043041,10.8843041 16.8043041,11.2436023 16.5767485,11.5789474 L15.7743158,12.812538 L19.2116023,10.9681404 C20.5290292,10.2734971 22.0979649,10.9920936 22.0979649,12.3095205 C22.1099415,13.0999766 21.8105263,13.9862456 21.2715789,14.8246082 L21.2715789,14.8246082 Z" id="形状"></path>
                    </g>
                    <polygon id="三角形" fill="#2DCEF3" transform="translate(5.280000, 5.280000) rotate(-270.000000) translate(-5.280000, -5.280000) " points="1.92 1.92 8.64 8.64 1.92 8.64"></polygon>
                </g>
            </g>
        </g>
    </g>
</svg>