<?xml version="1.0" encoding="UTF-8"?>
<svg width="18px" height="18px" viewBox="0 0 18 18" version="1.1" xmlns="http://www.w3.org/2000/svg" xmlns:xlink="http://www.w3.org/1999/xlink">
    <title>今日需求</title>
    <g id="页面-1" stroke="none" stroke-width="1" fill="none" fill-rule="evenodd">
        <g id="看板" transform="translate(-34.000000, -646.000000)" fill="#50CEFF" fill-rule="nonzero">
            <g id="编组-6" transform="translate(20.000000, 537.000000)">
                <g id="编组" transform="translate(14.000000, 109.000000)">
                    <path d="M14.2209574,10.744748 C13.7346141,11.1433146 13.1283437,11.429609 12.3531544,11.6720152 C12.1291201,11.7419302 11.8979412,11.8067419 11.6152192,11.8802292 C11.5106018,11.9072767 11.0625332,12.0205696 10.9512816,12.0496584 C10.6785948,12.1211065 10.3996184,11.9579704 10.3281702,11.6852837 C10.2567221,11.412597 10.4198582,11.1336205 10.6925449,11.0621724 C10.8094102,11.0315527 11.2590097,10.9182597 11.3590342,10.8922329 C11.5906093,10.8331908 11.8206695,10.7683587 12.0489985,10.6977977 C12.7098742,10.4911146 13.206424,10.2568737 13.5748813,9.95526949 C14.9170457,8.8555112 16.1300969,9.06984924 16.821082,10.5707259 L16.9563191,10.8646752 L16.7486153,11.1121846 C14.448564,13.8536702 12.4684887,15.2478882 10.7440881,15.2478882 L2.00062695,15.4902943 C1.7187802,15.4902943 1.49029827,15.2618124 1.49029827,14.9799656 C1.49029827,14.6981189 1.7187802,14.4696369 2.00062695,14.4696369 L10.7440881,14.2272308 C12.0352197,14.2272308 13.7218559,13.070826 15.7463298,10.7161695 C15.3839964,10.1211263 14.9634856,10.1369465 14.2209574,10.744748 L14.2209574,10.744748 Z M2.02257108,13.0504129 C2.01947159,13.2327358 1.91933945,13.3995555 1.75989347,13.4880327 C1.60044748,13.5765099 1.40591129,13.5732028 1.24956479,13.4793571 C1.09321829,13.3855114 0.998814241,13.2153846 1.00183969,13.0330617 L1.05141561,10.1446014 L1.18563206,10.0017094 C2.54361666,8.55135531 3.88782238,7.89813461 5.21110463,8.10992101 C6.21134883,8.26965388 6.776793,8.5814647 7.56218883,9.25152625 L7.67293015,9.34644738 C8.01280905,9.6368244 8.19499639,9.77359248 8.43229922,9.89964367 C8.61193491,9.99558546 8.84719643,10.0527423 9.16411054,10.083362 C9.30802322,10.0981615 9.4162129,10.1037751 9.69893499,10.1155127 C10.8675877,10.1650146 11.3319867,10.3237268 11.3319867,11.1652588 C11.3319867,12.3134983 10.5767003,13.0422476 9.22177768,13.2708749 C8.32972316,13.4214218 7.0365503,13.0743983 5.28969525,12.2563415 C5.12460188,12.1789454 5.01333963,12.0193523 4.9978199,11.8376792 C4.98230017,11.6560061 5.06488079,11.4798536 5.21445442,11.3755766 C5.36402806,11.2712995 5.55787093,11.2547402 5.72296429,11.3321363 C7.29477661,12.0685405 8.42209265,12.3706551 9.05183823,12.2645067 C9.93368618,12.1154908 10.2960195,11.7807152 10.3108191,11.2030231 C10.2016087,11.1673001 10.0367726,11.1519902 9.65606738,11.1356597 C9.45876036,11.1298245 9.26167999,11.1179112 9.06510678,11.0999367 C8.62673444,11.0570691 8.2700147,10.9698029 7.95259027,10.8003738 C7.63210386,10.629924 7.40245596,10.4579432 7.01001321,10.122147 L6.89978221,10.0282465 C6.2445202,9.46892627 5.83472627,9.24285066 5.04984077,9.11730981 C4.15319329,8.97441778 3.16060402,9.43371359 2.06492836,10.558478 L2.02257108,13.0504129 L2.02257108,13.0504129 Z M4.10981535,6.34469413 C4.10981535,6.62654087 3.88133342,6.8550228 3.59948668,6.8550228 C3.31763994,6.8550228 3.08915801,6.62654087 3.08915801,6.34469413 L3.08915801,4.02065735 C3.08915801,3.45696386 3.54612187,3 4.10981535,3 L13.8060602,3 C14.3697536,3 14.8267175,3.45696386 14.8267175,4.02065735 L14.8267175,7.08262939 C14.8267175,7.64632288 14.3697536,8.10328674 13.8060602,8.10328674 L8.3429917,8.10328674 C8.06114496,8.10328674 7.83266303,7.87480481 7.83266303,7.59295806 C7.83266303,7.31111132 8.06114496,7.08262939 8.3429917,7.08262939 L13.8060602,7.08262939 L13.8060602,4.02065735 L4.10981535,4.02065735 L4.10981535,6.34469413 Z" id="形状"></path>
                </g>
            </g>
        </g>
    </g>
</svg>