<?xml version="1.0" encoding="UTF-8"?>
<svg width="43px" height="43px" viewBox="0 0 43 43" version="1.1" xmlns="http://www.w3.org/2000/svg" xmlns:xlink="http://www.w3.org/1999/xlink">
    <title>需求</title>
    <defs>
        <rect id="path-1" x="-1.27897692e-13" y="-1.42108547e-14" width="41.28" height="41.28"></rect>
        <rect id="path-3" x="1.92" y="1.92" width="37.44" height="37.44"></rect>
        <filter x="-6.7%" y="-6.7%" width="113.4%" height="113.4%" filterUnits="objectBoundingBox" id="filter-4">
            <feGaussianBlur stdDeviation="2.5" in="SourceAlpha" result="shadowBlurInner1"></feGaussianBlur>
            <feOffset dx="0" dy="0" in="shadowBlurInner1" result="shadowOffsetInner1"></feOffset>
            <feComposite in="shadowOffsetInner1" in2="SourceAlpha" operator="arithmetic" k2="-1" k3="1" result="shadowInnerInner1"></feComposite>
            <feColorMatrix values="0 0 0 0 0.176470588   0 0 0 0 0.807843137   0 0 0 0 0.952941176  0 0 0 0.637838724 0" type="matrix" in="shadowInnerInner1"></feColorMatrix>
        </filter>
    </defs>
    <g id="页面-1" stroke="none" stroke-width="1" fill="none" fill-rule="evenodd">
        <g id="看板" transform="translate(-818.000000, -475.000000)">
            <g id="编组-22备份-3" transform="translate(819.000000, 474.000000)">
                <g id="需求" transform="translate(0.000000, 2.000000)">
                    <g id="编组-13">
                        <g id="形状结合">
                            <mask id="mask-2" fill="white">
                                <use xlink:href="#path-1"></use>
                            </mask>
                            <use id="蒙版" stroke-opacity="0.36756993" stroke="#2DCEF3" stroke-width="0.5" xlink:href="#path-1"></use>
                            <path d="M0.96,40.32 L0.96,42.24 L-0.96,42.24 L-0.96,40.32 L0.96,40.32 Z M42.24,40.32 L42.24,42.24 L40.32,42.24 L40.32,40.32 L42.24,40.32 Z M0.96,-0.96 L0.96,0.96 L-0.96,0.96 L-0.96,-0.96 L0.96,-0.96 Z M42.24,-0.96 L42.24,0.96 L40.32,0.96 L40.32,-0.96 L42.24,-0.96 Z" fill="#2DCEF3" mask="url(#mask-2)"></path>
                        </g>
                        <g id="矩形" fill="black" fill-opacity="1">
                            <use filter="url(#filter-4)" xlink:href="#path-3"></use>
                        </g>
                        <polygon id="三角形" fill="#2DCEF3" transform="translate(5.280000, 5.280000) rotate(-270.000000) translate(-5.280000, -5.280000) " points="1.92 1.92 8.64 8.64 1.92 8.64"></polygon>
                    </g>
                    <g id="编组" transform="translate(8.000000, 6.000000)" fill="#04C3D0" fill-rule="nonzero">
                        <path d="M13.6409775,13.6314497 L13.8394737,0.0299459542 C9.40422773,-0.0653305442 5.20388563,2.01910889 2.59736842,5.60889333 C-1.81015036,11.6750587 -0.441729325,20.1833294 5.66052631,24.6164121 C10.4403529,28.0991546 16.9186037,28.1100802 21.7101504,24.6434798 L13.6409775,13.6314497 Z M22.6003759,21.4630287 C22.3792322,21.724047 22.1469362,21.9754083 21.9041354,22.2164121 C21.6350158,22.515732 21.6461926,22.9730393 21.9296131,23.2588549 C22.2130336,23.5446704 22.6702306,23.5596951 22.9718045,23.2931039 C23.2424812,23.0224271 23.5041354,22.7397204 23.7522556,22.4479911 C23.7627819,22.4329535 23.7808271,22.4149084 23.7913534,22.4013745 C23.9589727,22.1886269 24.0003599,21.9026161 23.8999247,21.6510797 C23.7994895,21.3995433 23.5724905,21.2206956 23.304436,21.1819068 C23.0363815,21.143118 22.7679953,21.250281 22.6003759,21.4630287 L22.6003759,21.4630287 Z M24.6545113,18.0449836 C24.5296992,18.360773 24.3898496,18.6765625 24.2409775,18.9818257 C24.0549447,19.3572132 24.2084471,19.8123343 24.5838346,19.998367 C24.9592221,20.1843998 25.4143432,20.0308974 25.6003759,19.6555099 C25.7716366,19.3106426 25.9276765,18.9584239 26.0680451,18.5998708 C26.2122762,18.2117987 26.0190877,17.7797103 25.6337094,17.6284289 C25.2483311,17.4771474 24.8127928,17.6624271 24.6545113,18.0449836 L24.6545113,18.0449836 Z M16.2695489,0.99836702 C16.1508024,1.39858233 16.378054,1.81946849 16.7778196,1.9397204 C17.1056391,2.03746476 17.4349624,2.15024671 17.7492481,2.2765625 C18.1375054,2.43201145 18.5782978,2.2435811 18.7342105,1.85550988 C18.8867839,1.465178 18.6943061,1.02503629 18.3041354,0.872051228 C17.9455769,0.729003382 17.5808016,0.60205956 17.2109023,0.491600084 C16.8113143,0.374495364 16.3918151,0.600327996 16.2695489,0.99836702 L16.2695489,0.99836702 Z M23.4033835,5.51566024 C23.2398486,5.63174984 23.12923,5.80814222 23.0959396,6.00591022 C23.0626491,6.20367821 23.1094233,6.40656467 23.2259398,6.56979559 C23.4214286,6.84799107 23.612406,7.13821666 23.7883459,7.43295349 C23.9988722,7.79385575 24.4650376,7.91114897 24.8259398,7.70363016 C25.1836159,7.4888505 25.302227,7.02646833 25.0921053,6.66603619 C24.8941944,6.33386528 24.6829959,6.00979355 24.4590225,5.69460762 C24.215735,5.35559595 23.7448046,5.27576586 23.4033835,5.51566024 L23.4033835,5.51566024 Z M25.4755639,14.1397204 C25.4596494,14.4815671 25.4305551,14.8226728 25.3883459,15.1622768 C25.351401,15.5040866 25.5473431,15.8284643 25.8670837,15.9548162 C26.1868243,16.0811681 26.5515774,15.9783604 26.7582707,15.7036302 C26.8315862,15.6025925 26.8781439,15.4846464 26.893609,15.360773 C26.9402256,14.9803219 26.9718045,14.5938557 26.9913534,14.2119008 C27.008347,13.7929628 26.6838663,13.4389228 26.2650376,13.4194196 C26.0645249,13.4100394 25.8685329,13.4809059 25.7203869,13.6163537 C25.5722409,13.7518015 25.4841417,13.9406755 25.4755639,14.1412242 L25.4755639,14.1397204 Z M20.1988722,2.65701362 C20.0815679,2.82064607 20.0341928,3.02422875 20.0672006,3.22283984 C20.1002084,3.42145093 20.2108861,3.59876633 20.374812,3.71566024 L20.3958646,3.73069785 C20.6755639,3.93069785 20.9492481,4.1472392 21.2078947,4.36678806 C21.5296992,4.64047227 22.006391,4.59987076 22.2755639,4.28708881 C22.5418959,3.9681408 22.5037766,3.4946594 22.1898496,3.22242715 C21.8957235,2.97292477 21.5922476,2.73465856 21.2800752,2.50814143 L21.2530075,2.48859258 C20.9150618,2.247644 20.4462717,2.32265041 20.2003759,2.65701362 L20.1988722,2.65701362 Z M25.4951128,9.23445723 C25.3023063,9.29021795 25.139797,9.42075148 25.0437669,9.59699504 C24.9477367,9.7732386 24.9261578,9.98056114 24.9838346,10.1728031 C25.081579,10.4991189 25.1642857,10.8344572 25.2364662,11.1697956 C25.2988829,11.4626224 25.5272237,11.6916265 25.8198683,11.7548922 C26.1125129,11.8181579 26.4150571,11.7039239 26.5928571,11.4630287 C26.7176274,11.2909085 26.7635345,11.0739424 26.7191729,10.8660362 C26.6411339,10.4889726 26.547824,10.1152314 26.4394737,9.74573544 C26.3177899,9.34547462 25.8967938,9.11754676 25.4951128,9.23445723 L25.4951128,9.23445723 Z" id="形状"></path>
                    </g>
                </g>
            </g>
        </g>
    </g>
</svg>