<?xml version="1.0" encoding="UTF-8"?>
<svg width="18px" height="18px" viewBox="0 0 18 18" version="1.1" xmlns="http://www.w3.org/2000/svg" xmlns:xlink="http://www.w3.org/1999/xlink">
    <title>未完需求</title>
    <g id="页面-1" stroke="none" stroke-width="1" fill="none" fill-rule="evenodd">
        <g id="看板" transform="translate(-206.000000, -673.000000)" fill="#50CEFF" fill-rule="nonzero">
            <g id="编组-6" transform="translate(20.000000, 537.000000)">
                <g id="编组" transform="translate(186.000000, 136.000000)">
                    <path d="M14.801227,12.481135 L14.0429448,11.8355828 L14.0429448,8.44171779 C14.0429448,6.12039877 12.4803681,4.16395706 10.3495399,3.56717791 C10.4215006,3.03444178 10.1776331,2.50838817 9.72457178,2.21904131 C9.2715105,1.92969445 8.69167969,1.92969445 8.2386184,2.21904131 C7.78555712,2.50838817 7.54168961,3.03444178 7.61365031,3.56717791 C5.48282209,4.16395706 3.9202454,6.12039877 3.9202454,8.44171779 L3.9202454,11.8618098 L3.16932515,12.4751534 C3.06211826,12.5624976 2.99999994,12.693465 2.99999994,12.8317485 L2.99999994,13.7460123 C2.99999994,14.000131 3.20600395,14.206135 3.4601227,14.206135 L6.16472393,14.206135 C6.20153374,14.2705521 6.23788344,14.3349693 6.27929448,14.3966258 C6.87629188,15.2937976 7.88278265,15.8325388 8.96042945,15.8317493 C10.0783416,15.8322733 11.1164801,15.2527621 11.7027607,14.3009202 C11.7216258,14.270092 11.7363497,14.2374233 11.7542945,14.206135 L14.5030675,14.206135 C14.7571862,14.206135 14.9631902,14.000131 14.9631902,13.7460123 L14.9631902,12.8317485 C14.9631902,12.6967793 14.904025,12.568595 14.801227,12.481135 Z M8.95996933,14.9110429 C8.3361702,14.9105297 7.73951995,14.6558194 7.30766871,14.2056748 L10.6122699,14.2056748 C10.1805737,14.6560435 9.58382313,14.9107967 8.95996933,14.9110429 L8.95996933,14.9110429 Z M14.0429448,13.2854294 L3.9202454,13.2854294 L3.9202454,13.0498466 L4.8404908,12.2984663 L4.8404908,8.44171779 C4.8404768,6.58547351 6.07515528,4.95578064 7.86211656,4.45337423 L8.63328221,4.23757669 L8.5256135,3.44386503 C8.5016266,3.26628632 8.58291577,3.09093511 8.7339362,2.99448616 C8.88495662,2.89803721 9.07823356,2.89803721 9.22925399,2.99448616 C9.38027442,3.09093511 9.46156359,3.26628632 9.43757669,3.44386503 L9.32990798,4.23757669 L10.1010736,4.45337423 C11.8880349,4.95578064 13.1227134,6.58547351 13.1226994,8.44171779 L13.1226994,12.2607362 L14.0429448,13.0443252 L14.0429448,13.2854294 Z" id="形状"></path>
                </g>
            </g>
        </g>
    </g>
</svg>