<?xml version="1.0" encoding="UTF-8"?>
<svg width="51px" height="52px" viewBox="0 0 51 52" version="1.1" xmlns="http://www.w3.org/2000/svg" xmlns:xlink="http://www.w3.org/1999/xlink">
    <title>用户数</title>
    <defs>
        <linearGradient x1="50%" y1="0%" x2="50%" y2="98.3282343%" id="linearGradient-1">
            <stop stop-color="#3CADD9" stop-opacity="0" offset="0%"></stop>
            <stop stop-color="#3CADD9" stop-opacity="0.338833042" offset="100%"></stop>
        </linearGradient>
    </defs>
    <g id="页面-1" stroke="none" stroke-width="1" fill="none" fill-rule="evenodd">
        <g id="看板" transform="translate(-1255.000000, -187.000000)">
            <g id="编组-27" transform="translate(1250.500000, 188.000000)">
                <g id="用户数" transform="translate(5.000000, 0.000000)">
                    <polygon id="多边形备份-2" stroke-opacity="0.278791521" stroke="#FFFFFF" fill="url(#linearGradient-1)" points="25 0 46.6506351 12.5 46.6506351 37.5 25 50 3.34936491 37.5 3.34936491 12.5"></polygon>
                    <g id="编组" transform="translate(13.000000, 13.000000)" fill="#50CEFF" fill-rule="nonzero">
                        <path d="M18.7237043,17.1990091 C15.591997,16.0429116 14.5822409,15.0770579 14.5822409,13.0136433 C14.5822409,11.7697409 15.5334604,12.179497 15.9578506,9.89657012 C16.1334604,8.94535061 16.9822409,9.88193598 17.1432165,7.71608232 C17.1432165,6.86730183 16.6895579,6.64778963 16.6895579,6.64778963 C16.6895579,6.64778963 16.9237043,5.3746189 17.0115091,4.3941311 C17.1285823,3.1648628 16.3090701,0.0185213415 11.9627287,0.0185213415 C7.6163872,0.0331554878 6.796875,3.17949695 6.91394817,4.40876524 C7.00175305,5.38925305 7.23589939,6.66242378 7.23589939,6.66242378 C7.23589939,6.66242378 6.76760671,6.88193598 6.76760671,7.73071646 C6.92858232,9.89657012 7.7773628,8.95998476 7.95297256,9.91120427 C8.3773628,12.1941311 9.32858232,11.784375 9.32858232,13.0282774 C9.32858232,15.0916921 8.33346037,16.0721799 5.1871189,17.2136433 C2.04077744,18.3697409 0.00663109756,19.5404726 0.00663109756,20.3307165 L0.00663109756,23.9307165 L23.9188262,23.9307165 L23.9188262,20.3307165 C23.9188262,19.5258384 21.8700457,18.3551067 18.7237043,17.1990091 Z" id="路径"></path>
                    </g>
                </g>
            </g>
        </g>
    </g>
</svg>