<?xml version="1.0" encoding="UTF-8"?>
<svg width="16px" height="16px" viewBox="0 0 16 16" version="1.1" xmlns="http://www.w3.org/2000/svg" xmlns:xlink="http://www.w3.org/1999/xlink">
    <title>关闭</title>
    <g id="页面-1" stroke="none" stroke-width="1" fill="none" fill-rule="evenodd">
        <g id="设备明细" transform="translate(-992.000000, -152.000000)" fill="#FFFFFF" fill-rule="nonzero">
            <g id="编组-13" transform="translate(325.000000, 132.000000)">
                <g id="编组" transform="translate(667.000000, 20.000000)">
                    <path d="M9.19718309,7.97182455 L15.6824155,1.48601456 C16.0102949,1.15562762 16.0102949,0.622619038 15.6824155,0.292232095 L15.6468431,0.256659781 C15.3163436,-0.0711284969 14.7833677,-0.0711284969 14.4528681,0.256659781 L7.96723464,6.75065284 L1.48142466,0.253932088 C1.15099449,-0.0738424757 0.618072353,-0.0738424757 0.28764219,0.253932088 L0.252069876,0.289504402 C0.0909116397,0.44632284 1.64313008e-13,0.661635527 1.64313008e-13,0.88649993 C1.64313008e-13,1.11136433 0.0909116397,1.32667702 0.252069876,1.48349546 L6.73787986,7.97182455 L0.252069876,14.4576345 C-0.0757152996,14.7880666 -0.0757152996,15.321001 0.252069876,15.651433 L0.28764219,15.6870054 C0.618029133,16.0148848 1.15103771,16.0148848 1.48142466,15.6870054 L7.96723464,9.20119537 L14.4530446,15.6870054 C14.7834993,16.0149179 15.316581,16.0149179 15.6470357,15.6870054 L15.682608,15.651433 C16.0104875,15.3210461 16.0104875,14.7880375 15.682608,14.4576506 L9.19718309,7.97182455 Z" id="关闭"></path>
                </g>
            </g>
        </g>
    </g>
</svg>