<?xml version="1.0" encoding="UTF-8"?>
<svg width="20px" height="20px" viewBox="0 0 20 20" version="1.1" xmlns="http://www.w3.org/2000/svg" xmlns:xlink="http://www.w3.org/1999/xlink">
    <title>电力</title>
    <g id="页面-1" stroke="none" stroke-width="1" fill="none" fill-rule="evenodd">
        <g id="设备明细" transform="translate(-650.000000, -305.000000)" fill="#05F8E5" fill-rule="nonzero">
            <g id="编组-13" transform="translate(325.000000, 132.000000)">
                <g id="编组" transform="translate(325.000000, 173.000000)">
                    <path d="M17.134375,5.01015625 L1.428125,5.01015625 C0.640815609,5.01357938 0.00342313277,5.65097186 0,6.43828125 L0,15.0070312 C0.00342313277,15.7943406 0.640815609,16.4317331 1.428125,16.4351562 L17.134375,16.4351562 C17.9223937,16.4334376 18.5607813,15.7950499 18.5625,15.0070312 L18.5625,6.43828125 C18.5607813,5.6502626 17.9223937,5.01187494 17.134375,5.01015625 Z M17.134375,14.2914062 C17.134375,14.6854178 16.8158828,15.0053107 16.421875,15.0070312 L2.140625,15.0070312 C1.74661716,15.0053107 1.428125,14.6854178 1.428125,14.2914062 L1.428125,7.15390625 C1.428125,6.75989465 1.74661716,6.44000182 2.140625,6.43828125 L16.421875,6.43828125 C16.8158828,6.44000182 17.134375,6.75989465 17.134375,7.15390625 L17.134375,14.2914062 Z M19.375,12.8820312 L18.571875,12.8820312 L18.571875,8.59765625 L19.375,8.59765625 C19.720178,8.59765625 20,8.87747828 20,9.22265625 L20,12.2445312 C19.9886718,12.5849065 19.7153753,12.8582031 19.375,12.8695312 L19.375,12.8820312 Z M3.584375,13.5789062 C3.1903634,13.5789062 2.87047057,13.2604141 2.86875,12.8664062 L2.86875,8.58203125 C2.89364143,8.20597265 3.20593101,7.91367026 3.5828125,7.91367026 C3.95969399,7.91367026 4.27198357,8.20597265 4.296875,8.58203125 L4.296875,12.8664062 C4.296875,13.2599091 3.97787788,13.5789062 3.584375,13.5789062 L3.584375,13.5789062 Z M6.421875,13.6132812 C6.0320044,13.613315 5.71450487,13.2999931 5.709375,12.9101562 L5.709375,8.61640625 C5.73426643,8.24034765 6.04655601,7.94804526 6.4234375,7.94804526 C6.80031899,7.94804526 7.11260857,8.24034765 7.1375,8.61640625 L7.1375,12.9101562 C7.13577943,13.3041641 6.8158866,13.6226562 6.421875,13.6226562 L6.421875,13.6132812 Z M9.278125,13.6132812 C8.8882544,13.613315 8.57075487,13.2999931 8.565625,12.9101562 L8.565625,8.61640625 C8.59051643,8.24034765 8.90280601,7.94804526 9.2796875,7.94804526 C9.65656899,7.94804526 9.96885857,8.24034765 9.99375,8.61640625 L9.99375,12.9101562 C9.99202943,13.3041641 9.6721366,13.6226562 9.278125,13.6226562 L9.278125,13.6132812 Z" id="形状"></path>
                </g>
            </g>
        </g>
    </g>
</svg>