<?xml version="1.0" encoding="UTF-8"?>
<svg width="20px" height="20px" viewBox="0 0 20 20" version="1.1" xmlns="http://www.w3.org/2000/svg" xmlns:xlink="http://www.w3.org/1999/xlink">
    <title>热处理产线</title>
    <g id="页面-1" stroke="none" stroke-width="1" fill="none" fill-rule="evenodd">
        <g id="设备总览监控平台" transform="translate(-112.000000, -180.000000)" fill-rule="nonzero">
            <g id="编组-5" transform="translate(40.000000, 94.000000)">
                <g id="编组-4" transform="translate(37.000000, 16.000000)">
                    <g id="热处理产线" transform="translate(35.000000, 70.000000)">
                        <path d="M19.9589844,0.041015625 L19.9589844,19.9570312 L0.041015625,19.9570312 L0.041015625,0.041015625 L19.9589844,0.041015625 M20,0 L0,0 L0,20 L20,20 L20,0 Z" id="形状" fill="#FF3000" opacity="0.2"></path>
                        <path d="M10,1.2890625 C11.1757813,1.2890625 12.3164063,1.51953125 13.390625,1.97265625 C14.4277344,2.41210938 15.359375,3.0390625 16.1601563,3.83984375 C16.9609375,4.640625 17.5878906,5.57226563 18.0273438,6.609375 C18.4824219,7.68359375 18.7109375,8.82421875 18.7109375,10 C18.7109375,11.1757813 18.4804688,12.3164063 18.0273438,13.390625 C17.5878906,14.4277344 16.9609375,15.359375 16.1601563,16.1601563 C15.359375,16.9609375 14.4277344,17.5878906 13.390625,18.0273438 C12.3164063,18.4824219 11.1757813,18.7109375 10,18.7109375 C8.82421875,18.7109375 7.68359375,18.4804688 6.609375,18.0273438 C5.57226563,17.5878906 4.640625,16.9609375 3.83984375,16.1601563 C3.0390625,15.359375 2.41210938,14.4277344 1.97265625,13.390625 C1.51757813,12.3164063 1.2890625,11.1757813 1.2890625,10 C1.2890625,8.82421875 1.51953125,7.68359375 1.97265625,6.609375 C2.41210938,5.57226563 3.0390625,4.640625 3.83984375,3.83984375 C4.640625,3.0390625 5.57226563,2.41210938 6.609375,1.97265625 C7.68359375,1.51953125 8.82421875,1.2890625 10,1.2890625 M10,1.25 C5.16796875,1.25 1.25,5.16796875 1.25,10 C1.25,14.8320312 5.16796875,18.75 10,18.75 C14.8320312,18.75 18.75,14.8320312 18.75,10 C18.75,5.16796875 14.8320312,1.25 10,1.25 Z" id="形状" fill="#FF3000" opacity="0.1"></path>
                        <path d="M19.9589844,0.041015625 L19.9589844,19.9570312 L0.041015625,19.9570312 L0.041015625,0.041015625 L19.9589844,0.041015625 M20,0 L0,0 L0,20 L20,20 L20,0 Z" id="形状" fill="#FF3000" opacity="0.2"></path>
                        <path d="M10,1.2890625 C11.1757813,1.2890625 12.3164063,1.51953125 13.390625,1.97265625 C14.4277344,2.41210938 15.359375,3.0390625 16.1601563,3.83984375 C16.9609375,4.640625 17.5878906,5.57226563 18.0273438,6.609375 C18.4824219,7.68359375 18.7109375,8.82421875 18.7109375,10 C18.7109375,11.1757813 18.4804688,12.3164063 18.0273438,13.390625 C17.5878906,14.4277344 16.9609375,15.359375 16.1601563,16.1601563 C15.359375,16.9609375 14.4277344,17.5878906 13.390625,18.0273438 C12.3164063,18.4824219 11.1757813,18.7109375 10,18.7109375 C8.82421875,18.7109375 7.68359375,18.4804688 6.609375,18.0273438 C5.57226563,17.5878906 4.640625,16.9609375 3.83984375,16.1601563 C3.0390625,15.359375 2.41210938,14.4277344 1.97265625,13.390625 C1.51757813,12.3164063 1.2890625,11.1757813 1.2890625,10 C1.2890625,8.82421875 1.51953125,7.68359375 1.97265625,6.609375 C2.41210938,5.57226563 3.0390625,4.640625 3.83984375,3.83984375 C4.640625,3.0390625 5.57226563,2.41210938 6.609375,1.97265625 C7.68359375,1.51953125 8.82421875,1.2890625 10,1.2890625 M10,1.25 C5.16796875,1.25 1.25,5.16796875 1.25,10 C1.25,14.8320312 5.16796875,18.75 10,18.75 C14.8320312,18.75 18.75,14.8320312 18.75,10 C18.75,5.16796875 14.8320312,1.25 10,1.25 Z" id="形状" fill="#FF3000" opacity="0.1"></path>
                        <path d="M16.8632812,10.8085938 L16.8632812,7.57617188 L12.6445312,7.57617188 L12.6445312,10.625 L12.1289062,10.625 L12.1289062,7.65429688 L7.91015625,7.65429688 L7.91015625,10.625 L4.375,10.625 C2.6484375,10.625 1.25,12.0234375 1.25,13.75 C1.25,15.4765625 2.6484375,16.875 4.375,16.875 L15.8046875,16.875 C17.53125,16.875 18.9296875,15.4765625 18.9296875,13.75 C18.9296875,12.3964844 18.0683594,11.2421875 16.8632812,10.8085938 L16.8632812,10.8085938 Z M13.8046875,8.73632812 L15.7011719,8.73632812 L15.7011719,10.625 L13.8046875,10.625 L13.8046875,8.73632812 Z M9.0703125,8.81445312 L10.9667969,8.81445312 L10.9667969,10.625 L9.0703125,10.625 L9.0703125,8.81445312 Z M15.8046875,15.4707031 L4.375,15.4707031 C3.42578125,15.4707031 2.65429688,14.6992188 2.65429688,13.75 C2.65429688,12.8007812 3.42578125,12.0292969 4.375,12.0292969 L15.8046875,12.0292969 C16.7539063,12.0292969 17.5253906,12.8007812 17.5253906,13.75 C17.5253906,14.6992188 16.7539063,15.4707031 15.8046875,15.4707031 Z" id="形状" fill="#05F8E5"></path>
                        <path d="M4.4140625,13.75 C4.4140625,14.1814725 4.76384004,14.53125 5.1953125,14.53125 C5.62678496,14.53125 5.9765625,14.1814725 5.9765625,13.75 C5.9765625,13.3185275 5.62678496,12.96875 5.1953125,12.96875 C4.76384004,12.96875 4.4140625,13.3185275 4.4140625,13.75 Z" id="路径" fill="#231815"></path>
                        <path d="M9.21875,13.75 C9.21875,14.1814725 9.56852754,14.53125 10,14.53125 C10.4314725,14.53125 10.78125,14.1814725 10.78125,13.75 C10.78125,13.3185275 10.4314725,12.96875 10,12.96875 C9.56852754,12.96875 9.21875,13.3185275 9.21875,13.75 Z" id="路径" fill="#231815"></path>
                        <path d="M11.6210938,13.75 C11.6210938,14.1814725 11.9708713,14.53125 12.4023438,14.53125 C12.8338162,14.53125 13.1835938,14.1814725 13.1835938,13.75 C13.1835938,13.3185275 12.8338162,12.96875 12.4023438,12.96875 C11.9708713,12.96875 11.6210938,13.3185275 11.6210938,13.75 Z" id="路径" fill="#231815"></path>
                        <path d="M6.81640625,13.75 C6.81640625,14.1814725 7.16618379,14.53125 7.59765625,14.53125 C8.02912871,14.53125 8.37890625,14.1814725 8.37890625,13.75 C8.37890625,13.3185275 8.02912871,12.96875 7.59765625,12.96875 C7.16618379,12.96875 6.81640625,13.3185275 6.81640625,13.75 L6.81640625,13.75 Z" id="路径" fill="#231815"></path>
                        <path d="M14.0234375,13.75 C14.0234375,14.1814725 14.373215,14.53125 14.8046875,14.53125 C15.23616,14.53125 15.5859375,14.1814725 15.5859375,13.75 C15.5859375,13.3185275 15.23616,12.96875 14.8046875,12.96875 C14.373215,12.96875 14.0234375,13.3185275 14.0234375,13.75 L14.0234375,13.75 Z" id="路径" fill="#231815"></path>
                        <path d="M7.39257812,5.12695312 L5.90820312,5.12695312 L5.90820312,3.1640625 L4.65820312,3.1640625 L4.65820312,5.12695312 L3.17382812,5.12695312 L3.17382812,9.34570312 L7.39257812,9.34570312 L7.39257812,5.12695312 Z M6.23242188,8.18359375 L4.3359375,8.18359375 L4.3359375,6.28710938 L6.23242188,6.28710938 L6.23242188,8.18359375 Z" id="形状" fill="#05F8E5"></path>
                    </g>
                </g>
            </g>
        </g>
    </g>
</svg>