<?xml version="1.0" encoding="UTF-8"?>
<svg width="20px" height="21px" viewBox="0 0 20 21" version="1.1" xmlns="http://www.w3.org/2000/svg" xmlns:xlink="http://www.w3.org/1999/xlink">
    <title>时间</title>
    <g id="页面-1" stroke="none" stroke-width="1" fill="none" fill-rule="evenodd">
        <g id="设备总览监控平台" transform="translate(-320.000000, -179.000000)">
            <g id="编组-5" transform="translate(40.000000, 94.000000)">
                <g id="编组-4" transform="translate(37.000000, 16.000000)">
                    <g id="编组" transform="translate(242.000000, 70.000000)">
                        <path d="M10.9750654,17.9188972 C7.17801867,17.9188972 3.9097331,15.2366683 3.168961,11.5125818 C2.4281889,7.78849529 4.42124557,4.05973689 7.92925751,2.60666565 C11.4372694,1.15359442 15.4832067,2.38091082 17.5927365,5.53803738 C19.7022662,8.69516394 19.2878551,12.9027972 16.6029404,15.5877174 C15.1136014,17.0852048 13.0870705,17.9246243 10.9750654,17.9188972 L10.9750654,17.9188972 Z M10.9750654,3.42882652 C7.85929132,3.42882652 5.177479,5.62997096 4.56971222,8.68589432 C3.96194543,11.7418177 5.59749496,14.8015061 8.4761274,15.9937826 C11.3547598,17.1860592 14.6747395,16.1788596 16.4057061,13.588145 C18.1366728,10.9974303 17.7965303,7.54474751 15.5932955,5.34161236 C14.370937,4.11325214 12.7079829,3.42492798 10.9750654,3.43005072 L10.9750654,3.42882652 Z" id="形状" fill="#05F8E5" fill-rule="nonzero"></path>
                        <path d="M10.9836347,10.994277 C10.5884556,10.994277 10.2680998,10.6739211 10.2680998,10.2787421 L10.2680998,6.29525086 C10.2680998,5.90007183 10.5884556,5.57971594 10.9836347,5.57971594 C11.3788137,5.57971594 11.6991696,5.90007183 11.6991696,6.29525086 L11.6991696,10.2790482 C11.6990006,10.6741077 11.3786942,10.994277 10.9836347,10.994277 Z" id="路径" fill="#05F8E5" fill-rule="nonzero"></path>
                        <path d="M8.86518612,13.2620766 C8.57582026,13.2620226 8.31497092,13.0876887 8.20424262,12.8203465 C8.09351432,12.5530043 8.15470663,12.2452866 8.35929251,12.0406474 L10.4808015,9.91883234 C10.6605365,9.73319532 10.9263946,9.65888153 11.1763373,9.72441322 C11.42628,9.78994491 11.6214762,9.98514105 11.6870078,10.2350838 C11.7525395,10.4850265 11.6782257,10.7508846 11.4925887,10.9306195 L9.37107971,13.0524346 C9.23709014,13.186889 9.05500476,13.2623448 8.86518612,13.2620766 L8.86518612,13.2620766 Z" id="路径" fill="#05F8E5" fill-rule="nonzero"></path>
                        <rect id="矩形" x="0" y="0" width="20" height="20"></rect>
                    </g>
                </g>
            </g>
        </g>
    </g>
</svg>