<?xml version="1.0" encoding="UTF-8"?>
<svg width="20px" height="20px" viewBox="0 0 20 20" version="1.1" xmlns="http://www.w3.org/2000/svg" xmlns:xlink="http://www.w3.org/1999/xlink">
    <title>工位</title>
    <g id="页面-1" stroke="none" stroke-width="1" fill="none" fill-rule="evenodd">
        <g id="设备明细" transform="translate(-504.000000, -305.000000)">
            <g id="编组-13" transform="translate(325.000000, 132.000000)">
                <g id="编组" transform="translate(179.000000, 173.000000)">
                    <path d="M5.81003067,18.9352147 C5.55520859,18.9352147 5.30166258,18.8368589 5.10652147,18.6426994 L2.29474233,15.8290552 C2.12080368,15.6544294 2.025,15.4306258 2.00644785,15.2025031 C1.9852454,14.9227485 2.08095092,14.6358282 2.29474233,14.4226258 L6.78338037,9.93035583 C6.57449693,9.29133742 6.46956442,8.63396319 6.47879141,7.98993865 C6.49616564,6.67361963 6.97410429,5.4118773 7.92448466,4.46179141 C8.89273006,3.49177914 10.1838221,3.01590184 11.5250736,3.01590184 C12.3199693,3.01590184 13.1322393,3.18404908 13.9052454,3.51337423 C14.1677239,3.62586503 14.3559939,3.8603681 14.4100798,4.1401227 C14.4649509,4.4198773 14.3765092,4.70817178 14.175184,4.90959509 L11.5218344,7.56549693 C11.4769755,7.60966871 11.4486074,7.67190184 11.4486074,7.7401227 C11.4486074,7.80981595 11.4769755,7.87195092 11.5218344,7.91671166 L13.0127791,9.40952147 C13.0574417,9.45428221 13.120362,9.48284663 13.1887791,9.48284663 C13.2583742,9.48284663 13.3199202,9.45428221 13.3645828,9.40952147 L16.0169509,6.75450307 C16.1798957,6.59106748 16.3981043,6.5030184 16.623773,6.5030184 C16.6778589,6.5030184 16.7324356,6.5076319 16.7865215,6.51842945 C17.0654908,6.57280982 17.3004847,6.76176687 17.4116994,7.02404908 C18.2997485,9.1047362 18.0066442,11.465865 16.4657362,13.0084417 C15.4968037,13.9787485 14.2064969,14.4536442 12.8660307,14.4536442 C12.2462515,14.4536442 11.6154785,14.3524417 11.0013926,14.1515092 L6.5122638,18.6425031 C6.31839877,18.8368589 6.06377301,18.9352147 5.81003067,18.9352147 Z M5.81003067,17.7158773 L10.186865,13.3360982 L10.6872822,12.835681 L11.3609509,13.0557546 C11.8575399,13.219092 12.3646319,13.3013497 12.8663252,13.3013497 C13.9481411,13.3013497 14.9370982,12.9077301 15.6504233,12.1944049 C16.7119202,11.1309448 17.0308405,9.48029448 16.5087301,7.8928589 L14.1795031,10.2255215 C13.9139816,10.4895706 13.5621779,10.6351411 13.188681,10.6351411 C12.8149877,10.6351411 12.463184,10.4897669 12.1972699,10.2249325 L10.703773,8.7289816 C10.4409018,8.46483436 10.2960184,8.11430675 10.2960184,7.7401227 C10.2960184,7.36358282 10.4432577,7.01040491 10.7065215,6.75077301 L13.0370245,4.41742331 C12.5402393,4.25428221 12.0246074,4.16839264 11.5249755,4.16839264 C10.4429632,4.16839264 9.45331902,4.56240491 8.73979755,5.2761227 C8.03854601,5.97766871 7.64473006,6.94699387 7.63108589,8.00554601 C7.62431288,8.51941104 7.70686503,9.04642945 7.87972393,9.57168098 L8.09960123,10.2442699 L7.59869325,10.744589 L3.22195706,15.1256442 L5.81003067,17.7158773" id="形状" fill="#05F8E5" fill-rule="nonzero"></path>
                    <rect id="矩形" x="0" y="0" width="20" height="20"></rect>
                </g>
            </g>
        </g>
    </g>
</svg>