<?xml version="1.0" encoding="UTF-8"?>
<svg width="14px" height="14px" viewBox="0 0 14 14" version="1.1" xmlns="http://www.w3.org/2000/svg" xmlns:xlink="http://www.w3.org/1999/xlink">
    <title>采购员</title>
    <g id="供应总览" stroke="none" stroke-width="1" fill="none" fill-rule="evenodd">
        <g id="订单进度查询" transform="translate(-738.000000, -255.000000)" fill="#999999" fill-rule="nonzero">
            <g id="编组-5" transform="translate(208.000000, 237.000000)">
                <g id="编组-8">
                    <g id="采购员" transform="translate(530.000000, 18.000000)">
                        <path d="M4.22653257,10.7362009 C4.86134262,10.7362009 5.37595785,11.2508161 5.37595785,11.8856262 C5.37595785,12.5204362 4.86134262,13.0350515 4.22653257,13.0350515 C3.59172251,13.0350515 3.07710728,12.5204362 3.07710728,11.8856262 C3.07710728,11.2508161 3.59172251,10.7362009 4.22653257,10.7362009 L4.22653257,10.7362009 Z M2.11925288,0.00823156879 C2.38767806,0.00823156879 2.62037783,0.193973381 2.67978927,0.455741141 L2.68898467,0.508614698 L2.87404214,1.92394037 L13.1728927,1.92394037 C13.413392,1.92392696 13.6399458,2.03682385 13.7847509,2.22884306 C13.929556,2.42086227 13.9758116,2.66972526 13.9096743,2.90095187 L12.8456897,6.62700551 C12.7302992,6.4736887 12.590507,6.34036834 12.4318965,6.23236949 C12.2912175,6.13461282 12.1410311,6.05130431 11.9836207,5.98371049 C11.8175867,5.91329474 11.6454836,5.8581499 11.4694444,5.81895953 C11.282059,5.77688703 11.0906136,5.75555821 10.8985632,5.75535799 C10.7545019,5.75535799 10.6081418,5.76570283 10.4590996,5.78639247 C10.2774904,5.81282926 10.1027778,5.85918941 9.93419541,5.92815494 C9.75652216,6.0004298 9.58845558,6.09437206 9.43381226,6.20784842 C9.25067051,6.34194803 9.09396552,6.50631585 8.95718391,6.70171816 C8.82770393,6.88057361 8.7265197,7.07828993 8.6571839,7.28792505 L3.57327586,7.28792505 L3.77327586,8.82049209 L8.3414751,8.82049209 L8.33572797,8.89980244 C8.33134732,9.03531128 8.34947324,9.17060835 8.38936782,9.30018559 L8.40124521,9.33505148 C8.44952107,9.4967373 8.51695403,9.64118175 8.61542145,9.7672354 L8.66829502,9.83007064 C8.6855364,9.84999402 8.70277778,9.86876796 8.72001915,9.88677563 L8.7617816,9.92738865 L8.77863984,9.96991738 L3.26867816,9.96991738 C3.00025298,9.96991738 2.76755321,9.78417557 2.70814177,9.52240781 L2.69894636,9.46953425 L1.61427204,1.15765685 L0.586685819,1.15765685 C0.290662095,1.15764264 0.0430734413,0.932773104 0.0146551657,0.638116615 L0.0119731838,0.582944203 C0.0119731838,0.286920486 0.236856924,0.0393318339 0.531513407,0.0109135506 L0.586685819,0.00823156879 L2.11925288,0.00823156879 Z" id="形状"></path>
                        <path d="M10.8981801,6.52164152 C11.0334291,6.52164152 11.168295,6.53696719 11.3016284,6.5664691 C11.4341954,6.59635416 11.5606322,6.63658404 11.6774904,6.68639249 C11.7943487,6.73735035 11.8985632,6.79482161 11.9901341,6.85880627 C12.0809387,6.92279095 12.1525862,6.98715876 12.2039272,7.05152658 C12.3257663,7.19865302 12.4146552,7.35957256 12.470977,7.5369672 C12.5265326,7.71321241 12.5667624,7.88179478 12.5901341,8.04271432 C12.6131226,8.22662236 12.6253831,8.41244612 12.6253831,8.60018559 C12.6578226,8.62330561 12.684341,8.65376244 12.7027778,8.68907448 C12.7537472,8.78400293 12.7709069,8.89344663 12.7514368,8.9994193 C12.7422414,9.09520474 12.7219349,9.17298251 12.6920498,9.23045378 C12.6662666,9.28082331 12.6317612,9.32622517 12.5901341,9.36455341 C12.5514145,9.39870071 12.5060052,9.42440652 12.4568008,9.44003232 C12.4338123,9.5178101 12.4096743,9.59175646 12.3863027,9.66072199 C12.3633142,9.71972582 12.3361111,9.77872964 12.3058429,9.83581777 C12.2751916,9.89328903 12.241092,9.93735033 12.2039272,9.96991738 C12.1150383,10.0388829 12.0430077,10.0975036 11.9863027,10.1453963 C11.9299809,10.1940553 11.8920498,10.2756645 11.8740421,10.3894576 C11.860249,10.4584231 11.854885,10.5285381 11.860249,10.5994193 C11.8652299,10.6710668 11.884387,10.741948 11.919636,10.8128293 C11.9548851,10.8837105 12.0085249,10.9519097 12.0805556,11.0158944 C12.1533525,11.0798791 12.2552682,11.1377335 12.3863027,11.1883082 C12.5031609,11.2342852 12.6315134,11.2752814 12.7694444,11.3116798 C12.9073755,11.3492277 13.0414751,11.3913733 13.1728927,11.439266 C13.3039272,11.4871588 13.419636,11.5476952 13.5207854,11.6181933 C13.6215517,11.6894576 13.6931992,11.7867756 13.7345785,11.9105304 C13.7587165,11.9840936 13.7759579,12.0752814 13.7882184,12.1825611 C13.7989464,12.290607 13.8050766,12.4001856 13.8050766,12.509381 C13.8050766,12.6197258 13.7970306,12.7227909 13.7809387,12.8197258 C13.7636973,12.9155112 13.7395594,12.9894576 13.7062261,13.0400323 C13.6832376,13.07145 13.6165709,13.104017 13.5062261,13.1358178 C13.3966475,13.1680017 13.2606322,13.198653 13.0993295,13.2285381 C12.9376437,13.2591894 12.757567,13.285243 12.5587165,13.3082316 C12.1666652,13.3521829 11.7733854,13.3843812 11.3794061,13.4047833 C11.1935824,13.4135956 11.0334291,13.4181932 10.8981801,13.4181932 C10.7621648,13.4181932 10.6035441,13.4135956 10.4242337,13.4047833 C10.2378351,13.3949811 10.0516045,13.382208 9.86561303,13.3664691 C9.67442529,13.3503772 9.48362068,13.3319863 9.29281609,13.3116798 C9.12039971,13.2928473 8.94834053,13.2708769 8.77672413,13.2457794 C8.622318,13.2227909 8.49128351,13.1998024 8.38362069,13.1779634 C8.27634099,13.1549749 8.20814176,13.1319864 8.17978928,13.1089978 C8.13342913,13.07145 8.09703065,12.9595726 8.07174329,12.7718331 C8.04568965,12.5829442 8.05641763,12.3396492 8.10316092,12.0415649 C8.12614942,11.8722162 8.19588122,11.741948 8.31005746,11.6530591 C8.425,11.5626377 8.55795018,11.4921396 8.71005748,11.439266 C8.8625479,11.3863925 9.0204023,11.3396492 9.18400383,11.2982699 C9.33753378,11.2613289 9.48446423,11.2009801 9.61963602,11.1193427 C9.7184866,11.0599557 9.79319923,11.0024844 9.84454023,10.9469289 C9.89588124,10.8921396 9.93304598,10.8365841 9.95641763,10.7821779 C9.98055556,10.7266224 9.99166668,10.6699174 9.99166666,10.6097641 C9.99166666,10.5503772 9.98975095,10.4844768 9.98477011,10.4105304 C9.97557471,10.3051664 9.93840996,10.2208753 9.87289272,10.1595726 C9.80280066,10.0934513 9.73007243,10.0301816 9.65488505,9.96991738 C9.61338747,9.9324616 9.58011835,9.88679811 9.5571839,9.83581777 C9.52878845,9.77858105 9.5028391,9.72016304 9.47940613,9.66072199 C9.45641763,9.59175647 9.43304598,9.51781011 9.40890805,9.44003232 C9.37388345,9.42930403 9.34087191,9.41286298 9.3112069,9.39137332 C9.27739636,9.36263542 9.24658739,9.33054275 9.21925287,9.29558788 C9.18083408,9.24147907 9.15253551,9.18085782 9.13572797,9.11666067 C9.10867458,9.04882212 9.09753353,8.97568439 9.10316092,8.90286758 C9.10852817,8.84637231 9.12181275,8.79091239 9.14262452,8.73811663 C9.16101533,8.68754191 9.19090038,8.63964919 9.23342912,8.59328904 C9.22934021,8.418616 9.23881952,8.24388913 9.26178161,8.07068366 C9.28335758,7.90994298 9.31730249,7.75110642 9.36331418,7.59558789 C9.41312262,7.42585609 9.48668584,7.2745151 9.58438697,7.14118175 C9.66613016,7.02112972 9.76710002,6.91537027 9.88323755,6.82815493 C9.99358237,6.74769516 10.1054598,6.68447678 10.2204023,6.63849975 C10.3345785,6.59252275 10.4495211,6.56187141 10.5644636,6.54539631 C10.6794061,6.5296875 10.7905172,6.52164152 10.8977969,6.52164152 L10.8981801,6.52164152 Z" id="路径"></path>
                    </g>
                </g>
            </g>
        </g>
    </g>
</svg>