<?xml version="1.0" encoding="UTF-8"?>
<svg width="14px" height="14px" viewBox="0 0 14 14" version="1.1" xmlns="http://www.w3.org/2000/svg" xmlns:xlink="http://www.w3.org/1999/xlink">
    <title>人员</title>
    <g id="供应总览" stroke="none" stroke-width="1" fill="none" fill-rule="evenodd">
        <g id="订单进度查询" transform="translate(-222.000000, -302.000000)">
            <g id="编组-5" transform="translate(208.000000, 237.000000)">
                <g id="编组-8">
                    <g id="编组-16" transform="translate(14.000000, 65.000000)">
                        <g id="编组" transform="translate(2.000000, 1.000000)" fill="#CACCD0" fill-rule="nonzero">
                            <path d="M6.126729,11.8916496 L3.85502049,11.8916496 C1.7001793,11.8916496 -1.00000431e-05,11.8916496 -1.00000431e-05,10.7485912 L-1.00000431e-05,10.5212602 C-0.00480276639,8.38563012 1.72099129,6.65023053 3.85502049,6.640625 L6.12512807,6.640625 C8.2607582,6.64862961 9.98495133,8.38563012 9.98015857,10.5212602 L9.98015857,10.7485912 C9.98174949,11.8916496 8.19512039,11.8916496 6.126729,11.8916496 Z M4.87800973,6.17475666 C3.17622951,6.18596311 1.7866291,4.81557377 1.77542264,3.11379355 C1.76261527,1.41361424 3.13300461,0.024013832 4.83478484,0.012807377 C6.53656506,-8.50014503e-16 7.92616547,1.37038934 7.93738453,3.07216957 L7.93738453,3.09298156 C7.94217469,4.78995902 6.57338627,6.16835297 4.87800973,6.17475666 L4.87800973,6.17475666 Z" id="形状"></path>
                        </g>
                        <rect id="矩形" x="0" y="0" width="14" height="14"></rect>
                    </g>
                </g>
            </g>
        </g>
    </g>
</svg>