<?xml version="1.0" encoding="UTF-8"?>
<svg width="14px" height="14px" viewBox="0 0 14 14" version="1.1" xmlns="http://www.w3.org/2000/svg" xmlns:xlink="http://www.w3.org/1999/xlink">
    <title>公司</title>
    <g id="供应总览" stroke="none" stroke-width="1" fill="none" fill-rule="evenodd">
        <g id="订单进度查询" transform="translate(-379.000000, -302.000000)" fill="#CACCD0" fill-rule="nonzero">
            <g id="编组" transform="translate(379.000000, 302.000000)">
                <path d="M1.01145241,1 L9.53604403,1 L9.55122514,12.956614 L1.02663352,12.956614 L1.01145241,1 Z M2.73155185,3.83876065 L2.73155185,5.54836648 L4.43647017,5.54836648 L4.43647017,3.83876065 L2.73155185,3.83876065 Z M6.14140181,7.2579723 L6.14140181,8.96755149 L7.84632013,8.96755149 L7.84632013,7.25794567 L6.14140181,7.25794567 L6.14140181,7.2579723 Z M6.14140181,3.83876065 L6.14140181,5.54836648 L7.84632013,5.54836648 L7.84632013,3.83876065 L6.14140181,3.83876065 L6.14140181,3.83876065 Z M2.73155185,7.2579723 L2.73155185,8.96755149 L4.43647017,8.96755149 L4.43647017,7.25794567 L2.73155185,7.25794567 L2.73155185,7.2579723 Z M10.3616832,4.38428178 L12.9451349,4.40909091 L12.9717685,12.956614 L10.3883168,12.9318182 L10.3616832,4.38428178 L10.3616832,4.38428178 Z" id="形状"></path>
            </g>
        </g>
    </g>
</svg>