<?xml version="1.0" encoding="UTF-8"?>
<svg width="24px" height="23px" viewBox="0 0 24 23" version="1.1" xmlns="http://www.w3.org/2000/svg" xmlns:xlink="http://www.w3.org/1999/xlink">
    <title>订单完成</title>
    <g id="供应总览" stroke="none" stroke-width="1" fill="none" fill-rule="evenodd">
        <g id="订单进度查询" transform="translate(-1109.000000, -314.000000)">
            <g id="编组-4备份" transform="translate(979.000000, 237.000000)">
                <g id="订单完成" transform="translate(130.000000, 77.000000)">
                    <rect id="矩形备份-3" fill="#2ABECF" transform="translate(12.000000, 11.313708) rotate(-315.000000) translate(-12.000000, -11.313708) " x="4" y="3.3137085" width="16" height="16" rx="2"></rect>
                    <path d="M17.1894211,8.53486894 C16.8945405,8.23998835 16.4522196,8.23998835 16.157339,8.53486894 L10.4071677,14.2850403 L7.75324247,11.631115 C7.45836189,11.3362345 7.01604101,11.3362345 6.72116044,11.631115 C6.42627985,11.9259956 6.42627985,12.3683165 6.72116044,12.6631971 L9.81740654,15.7594432 C9.96484683,15.9068835 10.1860073,15.9806036 10.3334476,15.9806036 C10.554608,15.9806036 10.7020483,15.9068835 10.8494886,15.7594432 L17.1157009,9.49323082 C17.4843017,9.27207039 17.4843017,8.82974951 17.1894211,8.53486894 Z" id="路径" fill="#FFFFFF" fill-rule="nonzero"></path>
                </g>
            </g>
        </g>
    </g>
</svg>