<?xml version="1.0" encoding="UTF-8"?>
<svg width="14px" height="14px" viewBox="0 0 14 14" version="1.1" xmlns="http://www.w3.org/2000/svg" xmlns:xlink="http://www.w3.org/1999/xlink">
    <title>定位</title>
    <g id="供应总览" stroke="none" stroke-width="1" fill="none" fill-rule="evenodd">
        <g id="订单进度查询" transform="translate(-793.000000, -301.000000)" fill="#CACCD0" fill-rule="nonzero">
            <g id="编组-5" transform="translate(208.000000, 237.000000)">
                <g id="编组-8">
                    <g id="编组" transform="translate(585.000000, 64.000000)">
                        <path d="M6.90454005,1.0113807 C4.19918492,1.0113807 2.00715358,3.1756648 2.00715358,5.84633589 C2.00715358,8.51700698 6.90454005,13.9138436 6.90454005,13.9138436 C6.90454005,13.9138436 11.8019265,8.52394379 11.8019265,5.84633589 C11.8019265,3.168728 9.60989517,1.0113807 6.90454005,1.0113807 Z M6.90454005,7.05334049 C6.0859967,7.05334049 5.42699994,6.40128053 5.42699994,5.58967399 C5.42699994,4.77806746 6.0859967,4.13294431 6.90454005,4.13294431 C7.72308339,4.13294431 8.38208015,4.78500426 8.38208015,5.5966108 C8.38208015,6.39434373 7.72308339,7.05334049 6.90454005,7.05334049 Z" id="形状"></path>
                    </g>
                </g>
            </g>
        </g>
    </g>
</svg>