<?xml version="1.0" encoding="UTF-8"?>
<svg width="196px" height="208px" viewBox="0 0 196 208" version="1.1" xmlns="http://www.w3.org/2000/svg" xmlns:xlink="http://www.w3.org/1999/xlink">
    <title>无结果</title>
    <defs>
        <linearGradient x1="63.1435376%" y1="-103.94446%" x2="82.0921092%" y2="188.801207%" id="linearGradient-1">
            <stop stop-color="#FDFEFF" offset="0%"></stop>
            <stop stop-color="#CED6DC" offset="100%"></stop>
        </linearGradient>
        <linearGradient x1="50%" y1="-42.6921416%" x2="50%" y2="149.087744%" id="linearGradient-2">
            <stop stop-color="#ABB9C5" offset="0%"></stop>
            <stop stop-color="#EFF1F3" offset="100%"></stop>
        </linearGradient>
        <path d="M163.058824,170 C167.477102,170 171.058824,173.581722 171.058824,178 L171.058824,199.058824 C171.058824,203.477102 167.477102,207.058824 163.058824,207.058824 L29,207.058824 C34.6852842,207.058824 39.2941176,202.44999 39.2941176,196.764706 L39.2941176,178 C39.2941176,173.581722 42.8758396,170 47.2941176,170 L163.058824,170 Z" id="path-3"></path>
        <linearGradient x1="50%" y1="-42.6921416%" x2="50%" y2="149.087744%" id="linearGradient-4">
            <stop stop-color="#ABB9C5" offset="0%"></stop>
            <stop stop-color="#EFF1F3" offset="100%"></stop>
        </linearGradient>
        <linearGradient x1="125.053569%" y1="51.9223376%" x2="18.3896037%" y2="48.0776624%" id="linearGradient-5">
            <stop stop-color="#BCC9D4" offset="0%"></stop>
            <stop stop-color="#BCC9D4" offset="100%"></stop>
        </linearGradient>
        <rect id="path-6" x="41.1764706" y="62.8823529" width="63" height="12.3529412" rx="4.5"></rect>
        <linearGradient x1="125.053569%" y1="50.7496876%" x2="18.3896037%" y2="49.2503124%" id="linearGradient-7">
            <stop stop-color="#BCC9D4" offset="0%"></stop>
            <stop stop-color="#BCC9D4" offset="100%"></stop>
        </linearGradient>
        <rect id="path-8" x="41.1764706" y="102" width="100.882353" height="12.3529412" rx="4.5"></rect>
        <rect id="path-9" x="41.1764706" y="141.117647" width="100.882353" height="12.3529412" rx="4.5"></rect>
        <linearGradient x1="67.8198648%" y1="-103.94446%" x2="93.5101311%" y2="188.801207%" id="linearGradient-10">
            <stop stop-color="#FDFEFF" offset="0%"></stop>
            <stop stop-color="#CED6DC" offset="100%"></stop>
        </linearGradient>
        <circle id="path-11" cx="148" cy="33" r="27"></circle>
        <linearGradient x1="67.161818%" y1="-103.94446%" x2="91.9034017%" y2="188.801207%" id="linearGradient-12">
            <stop stop-color="#FDFEFF" offset="0%"></stop>
            <stop stop-color="#CED6DC" offset="100%"></stop>
        </linearGradient>
        <linearGradient x1="122.282012%" y1="100%" x2="19.5569031%" y2="0%" id="linearGradient-13">
            <stop stop-color="#BCC9D4" offset="0%"></stop>
            <stop stop-color="#BCC9D4" offset="100%"></stop>
        </linearGradient>
        <path d="M149.043066,0.0374445266 C167.855196,0.0374445266 183.048687,15.6143676 183.048687,34.7763794 C183.048687,42.5153588 180.568428,49.6700576 176.371937,55.449592 L195.543776,75.439338 L188.622829,82.0727108 L169.715698,62.3585791 C163.990289,66.8431849 156.825678,69.5105214 149.043066,69.5105214 C130.235729,69.5105214 115.037445,53.9335984 115.037445,34.7763794 C115.037445,15.6143676 130.235729,0.0374445266 149.043066,0.0374445266 Z M149.043066,9.62324334 C135.584604,9.62324334 124.623243,20.8577996 124.623243,34.7763794 C124.623243,48.6901664 135.584604,59.9247226 149.043066,59.9247226 C162.50632,59.9247226 173.462888,48.6901664 173.462888,34.7763794 C173.462888,20.8577996 162.50632,9.62324334 149.043066,9.62324334 Z" id="path-14"></path>
    </defs>
    <g id="供应总览" stroke="none" stroke-width="1" fill="none" fill-rule="evenodd">
        <g id="订单进度查询_无结果" transform="translate(-718.000000, -354.000000)">
            <g id="编组-4" transform="translate(718.000000, 354.000000)">
                <g id="无结果">
                    <path d="M156.588235,32 C158.797374,32 160.588235,33.790861 160.588235,36 L160.588235,203 C160.588235,205.209139 158.797374,207 156.588235,207 L28.6470588,207 C25.3333503,207 22.6470588,204.313708 22.6470588,201 L22.6461176,71.117 L10.2941176,71.1176471 L10.2941176,32 L156.588235,32 Z" id="形状结合" fill="url(#linearGradient-1)"></path>
                    <g id="形状结合">
                        <use fill="#D3D7D8" xlink:href="#path-3"></use>
                        <use fill="url(#linearGradient-2)" xlink:href="#path-3"></use>
                    </g>
                    <path d="M11.3235294,32 C17.577342,32 22.6470588,37.0697168 22.6470588,43.3235294 L22.6470588,86.5882353 C22.6470588,87.14052 22.1993436,87.5882353 21.6470588,87.5882353 L3,87.5882353 C1.34314575,87.5882353 3.43777239e-15,86.2450895 0,84.5882353 L0,43.3235294 C-2.542228e-15,37.0697168 5.0697168,32 11.3235294,32 Z" id="矩形备份" fill="url(#linearGradient-4)"></path>
                    <g id="矩形">
                        <use fill="#D8D8D8" xlink:href="#path-6"></use>
                        <use fill="url(#linearGradient-5)" xlink:href="#path-6"></use>
                        <use fill="url(#linearGradient-5)" xlink:href="#path-6"></use>
                    </g>
                    <g id="矩形备份-3">
                        <use fill="#D8D8D8" xlink:href="#path-8"></use>
                        <use fill="url(#linearGradient-7)" xlink:href="#path-8"></use>
                        <use fill="url(#linearGradient-7)" xlink:href="#path-8"></use>
                    </g>
                    <g id="矩形备份-4">
                        <use fill="#D8D8D8" xlink:href="#path-9"></use>
                        <use fill="url(#linearGradient-7)" xlink:href="#path-9"></use>
                    </g>
                    <g id="椭圆形">
                        <use fill="#D8D8D8" xlink:href="#path-11"></use>
                        <use stroke="#979797" stroke-width="1" fill="url(#linearGradient-10)" xlink:href="#path-11"></use>
                    </g>
                    <g id="形状结合" fill-rule="nonzero">
                        <use fill="#FB6D57" xlink:href="#path-14"></use>
                        <use fill="url(#linearGradient-12)" xlink:href="#path-14"></use>
                        <use fill="url(#linearGradient-13)" xlink:href="#path-14"></use>
                    </g>
                </g>
            </g>
        </g>
    </g>
</svg>