<?xml version="1.0" encoding="UTF-8"?>
<svg width="32px" height="32px" viewBox="0 0 32 32" version="1.1" xmlns="http://www.w3.org/2000/svg" xmlns:xlink="http://www.w3.org/1999/xlink">
    <title>搜索@3x</title>
    <g id="供应总览" stroke="none" stroke-width="1" fill="none" fill-rule="evenodd">
        <g id="订单进度查询" transform="translate(-1357.000000, -173.000000)">
            <g id="编组-3" transform="translate(208.000000, 157.000000)">
                <g id="搜索" transform="translate(1149.000000, 16.000000)">
                    <rect id="Rectangle" fill="#D8D8D8" opacity="0.01" x="0" y="0" width="32" height="32"></rect>
                    <path d="M13.7142857,-4.0602442e-15 C21.2884766,-4.0602442e-15 27.4285714,6.14009486 27.4285714,13.7142857 C27.4285714,17.0898781 26.2090131,20.1806274 24.1864712,22.5699587 L30.3312951,28.715051 C30.5265572,28.9103131 30.5265572,29.2268956 30.3312951,29.4221578 L29.4221578,30.3312951 C29.2268956,30.5265572 28.9103131,30.5265572 28.715051,30.3312951 L22.5699587,24.1864712 C20.1806274,26.2090131 17.0898781,27.4285714 13.7142857,27.4285714 C6.14009486,27.4285714 -4.0602442e-15,21.2884766 -4.0602442e-15,13.7142857 C-4.0602442e-15,6.14009486 6.14009486,-4.0602442e-15 13.7142857,-4.0602442e-15 Z M13.7142857,2.28571429 C7.40246,2.28571429 2.28571429,7.40246 2.28571429,13.7142857 C2.28571429,20.0261114 7.40246,25.1428571 13.7142857,25.1428571 C20.0261114,25.1428571 25.1428571,20.0261114 25.1428571,13.7142857 C25.1428571,7.40246 20.0261114,2.28571429 13.7142857,2.28571429 Z" id="Oval-2" fill="#FFFFFF"></path>
                </g>
            </g>
        </g>
    </g>
</svg>