<?xml version="1.0" encoding="UTF-8"?>
<svg width="14px" height="14px" viewBox="0 0 14 14" version="1.1" xmlns="http://www.w3.org/2000/svg" xmlns:xlink="http://www.w3.org/1999/xlink">
    <title>地址</title>
    <g id="供应总览" stroke="none" stroke-width="1" fill="none" fill-rule="evenodd">
        <g id="订单进度查询" transform="translate(-630.000000, -302.000000)" fill="#CACCD0" fill-rule="nonzero">
            <g id="编组-5" transform="translate(208.000000, 237.000000)">
                <g id="编组-8">
                    <g id="编组" transform="translate(422.000000, 65.000000)">
                        <path d="M8.32786631,9.60065708 C8.35045012,9.58663597 8.5981995,9.43160182 8.67067208,9.38796047 C8.80467457,9.30692519 8.91531716,9.24615842 9.02594681,9.19629553 C9.80351045,8.84257295 10.4891349,9.09267643 11.3960317,10.1522791 C11.9570054,10.8082963 12.1229563,11.3903016 11.9063535,11.9084101 C11.7450719,12.2956333 11.4342017,12.5628751 10.8810275,12.8932119 C10.8451987,12.9142565 10.5265289,13.099687 10.4447304,13.150326 C9.15683206,13.9450279 6.20476769,12.1257761 4.08165615,9.01709954 C1.95309913,5.90062345 1.40225321,2.57767229 2.70728994,1.77129036 L2.87947537,1.66221285 L3.06645799,1.54066639 C3.72638142,1.11370809 4.14865739,0.943087748 4.64962748,1.02800341 C5.14983444,1.11370809 5.57522765,1.48379294 5.93518471,2.15772454 C6.69404491,3.58350579 6.52652887,4.25979149 5.55028974,4.87450849 C5.48018419,4.91970199 5.23085679,5.07007968 5.20748396,5.08487686 C4.96829729,5.23291339 5.37343491,6.22473872 6.31539735,7.60377432 C7.26903974,8.99839611 8.06606995,9.76116256 8.3270773,9.60065708 L8.32786631,9.60065708 Z" id="路径"></path>
                    </g>
                </g>
            </g>
        </g>
    </g>
</svg>