<?xml version="1.0" encoding="UTF-8"?>
<svg width="10px" height="12px" viewBox="0 0 10 12" version="1.1" xmlns="http://www.w3.org/2000/svg" xmlns:xlink="http://www.w3.org/1999/xlink">
    <title>筛选_未选中</title>
    <g id="模具监控" stroke="none" stroke-width="1" fill="none" fill-rule="evenodd">
        <g id="画板" transform="translate(-426.000000, -210.000000)">
            <g id="编组-2" transform="translate(426.000000, 210.000000)">
                <rect id="矩形备份" x="0" y="0" width="10" height="12"></rect>
                <path d="M4.5105565,9 L4.510523,9 C4.32727125,8.99997987 4.14235784,8.86059058 4.14235784,8.54923438 L4.14235784,5.88763907 L2.14329231,3.67719857 C2.08443734,3.61211713 2.04314372,3.54488175 2.02055049,3.47735782 C1.99074109,3.38826758 1.99340779,3.29958666 2.02824908,3.22091052 C2.06309036,3.14222767 2.12693031,3.08072272 2.21287437,3.0430387 C2.27801417,3.01448044 2.35549583,3 2.44316856,3 L7.55683709,3 C7.64450982,3 7.72199147,3.01448044 7.78712457,3.04304541 C7.87306193,3.08072272 7.93690859,3.14222767 7.97174987,3.22091052 C8.00659115,3.29958666 8.00925785,3.38826758 7.97945515,3.47735782 C7.95686192,3.54488175 7.9155683,3.61211713 7.85671333,3.67719857 L5.85762771,5.88766591 L5.85762771,7.48900883 C5.85762771,7.79166872 5.68168593,8.16489892 5.44836994,8.35717066 L4.82408784,8.87166228 C4.72076334,8.95682039 4.61527465,9 4.5105565,9 L4.5105565,9 Z" id="Fill-1-Copy-5备份-2" fill="#AAADBA"></path>
            </g>
        </g>
    </g>
</svg>