<?xml version="1.0" encoding="UTF-8"?>
<svg width="42px" height="19px" viewBox="0 0 42 19" version="1.1" xmlns="http://www.w3.org/2000/svg" xmlns:xlink="http://www.w3.org/1999/xlink">
    <!-- Generator: Sketch 55 (78076) - https://sketchapp.com -->
    <title>表格连接</title>
    <desc>Created with Sketch.</desc>
    <defs>
        <path d="M783.064735,23.9994868 C781.592131,26.9632018 778.533925,29 775,29 L757,29 C753.466075,29 750.407869,26.9632018 748.935265,23.9994868 C746.755981,23.9649087 745,22.18752 745,20 C745,17.790861 746.790861,16 749,16 C751.209139,16 753,17.790861 753,20 C753,21.5064856 752.16719,22.8184581 750.936847,23.5006417 C752.147271,25.5925926 754.409277,27 757,27 L775,27 C777.590723,27 779.852729,25.5925926 781.063153,23.5006417 C779.83281,22.8184581 779,21.5064856 779,20 C779,17.790861 780.790861,16 783,16 C785.209139,16 787,17.790861 787,20 C787,22.18752 785.244019,23.9649087 783.064735,23.9994868 Z M783.814397,21.8272242 C784.51306,21.5153575 785,20.8145441 785,20 C785,18.8954305 784.104569,18 783,18 C781.895431,18 781,18.8954305 781,20 C781,20.6605253 781.320202,21.2462633 781.813851,21.6104573 C781.935591,21.0933996 782,20.5542215 782,20 C782,19.4477153 782.447715,19 783,19 C783.552285,19 784,19.4477153 784,20 C784,20.5522847 783.552285,21 783,21 C782.447715,21 782,20.5522847 782,20 L784,20 C784,20.6260621 783.936075,21.2371939 783.814397,21.8272242 Z M748.185603,21.8272242 C748.063925,21.2371939 748,20.6260621 748,20 C748,19.4477153 748.447715,19 749,19 C749.552285,19 750,19.4477153 750,20 C750,20.5542215 750.064409,21.0933996 750.186149,21.6104573 C750.679798,21.2462633 751,20.6605253 751,20 C751,18.8954305 750.104569,18 749,18 C747.895431,18 747,18.8954305 747,20 C747,20.8145441 747.48694,21.5153575 748.185603,21.8272242 Z M758,11 L774,11 L774,13 L758,13 L758,11 Z" id="path-1"></path>
        <filter x="-1.2%" y="-2.8%" width="102.4%" height="111.1%" filterUnits="objectBoundingBox" id="filter-2">
            <feOffset dx="0" dy="1" in="SourceAlpha" result="shadowOffsetOuter1"></feOffset>
            <feColorMatrix values="0 0 0 0 0.582408373   0 0 0 0 0.612009887   0 0 0 0 0.647531703  0 0 0 1 0" type="matrix" in="shadowOffsetOuter1"></feColorMatrix>
        </filter>
    </defs>
    <g id="页面1" stroke="none" stroke-width="1" fill="none" fill-rule="evenodd">
        <g id="需求感知补货分析备份-4" transform="translate(-969.000000, -670.000000)" fill-rule="nonzero">
            <g id="编组-11" transform="translate(208.000000, 590.000000)">
                <g id="编组-8" transform="translate(16.000000, 69.000000)">
                    <g id="表格连接">
                        <use fill="black" fill-opacity="1" filter="url(#filter-2)" xlink:href="#path-1"></use>
                        <use fill="#D5DAE0" xlink:href="#path-1"></use>
                    </g>
                </g>
            </g>
        </g>
    </g>
</svg>