<?xml version="1.0" encoding="UTF-8"?>
<svg width="40px" height="40px" viewBox="0 0 40 40" version="1.1" xmlns="http://www.w3.org/2000/svg" xmlns:xlink="http://www.w3.org/1999/xlink">
    <title>绿色</title>
    <g id="控件" stroke="none" stroke-width="1" fill="none" fill-rule="evenodd">
        <g id="安灯图标_绿色" fill="#2AC5A9">
            <g id="绿色">
                <circle id="椭圆形" fill-opacity="0.0976016171" cx="20" cy="20" r="20"></circle>
                <g id="编组" transform="translate(4.000000, 4.000000)">
                    <path d="M22.38592,28 L9.08085333,28 C7.45312,28 6.13312,26.68 6.13312,25.0528 L6.13312,16.8 C6.13312,11.4981333 10.4312533,7.2 15.73312,7.2 C21.03552,7.2 25.33312,11.4981333 25.33312,16.8 L25.33312,25.0528 C25.33312,26.68 24.0136533,28 22.38592,28" id="Fill-1"></path>
                    <path d="M24,32.8 L7.46666667,32.8 C6.73013333,32.8 6.13333333,32.2032 6.13333333,31.4666667 C6.13333333,30.7301333 6.73013333,30.1333333 7.46666667,30.1333333 L24,30.1333333 C24.7365333,30.1333333 25.3333333,30.7301333 25.3333333,31.4666667 C25.3333333,32.2032 24.7365333,32.8 24,32.8" id="Fill-3"></path>
                    <path d="M30.1333333,16.2666667 L28,16.2666667 C27.1162667,16.2666667 26.4,15.5504 26.4,14.6666667 C26.4,13.7829333 27.1162667,13.0666667 28,13.0666667 L30.1333333,13.0666667 C31.0170667,13.0666667 31.7333333,13.7829333 31.7333333,14.6666667 C31.7333333,15.5504 31.0170667,16.2666667 30.1333333,16.2666667" id="Fill-5"></path>
                    <path d="M17.3333333,1.6 L17.3333333,4.26666667 C17.3333333,5.1504 16.6170667,5.86666667 15.7333333,5.86666667 C14.8496,5.86666667 14.1333333,5.1504 14.1333333,4.26666667 L14.1333333,1.6 C14.1333333,0.716266667 14.8496,0 15.7333333,0 C16.6170667,0 17.3333333,0.716266667 17.3333333,1.6" id="Fill-7"></path>
                    <path d="M7.52810667,4.19872 L9.25717333,5.92832 C9.88224,6.55285333 9.88224,7.56618667 9.25717333,8.19072 C8.63264,8.81578667 7.61984,8.81578667 6.99477333,8.19072 L5.26570667,6.46165333 C4.64064,5.83658667 4.64064,4.82325333 5.26570667,4.19872 C5.89024,3.57418667 6.90304,3.57418667 7.52810667,4.19872" id="Fill-9"></path>
                    <path d="M23.5281067,4.19872 L21.79904,5.92832 C21.1739733,6.55285333 21.1739733,7.56618667 21.79904,8.19072 C22.4235733,8.81578667 23.4363733,8.81578667 24.06144,8.19072 L25.7905067,6.46165333 C26.4155733,5.83658667 26.4155733,4.82325333 25.7905067,4.19872 C25.1659733,3.57418667 24.1531733,3.57418667 23.5281067,4.19872" id="Fill-11"></path>
                    <path d="M1.6,13.0666667 L3.73333333,13.0666667 C4.61706667,13.0666667 5.33333333,13.7829333 5.33333333,14.6666667 C5.33333333,15.5504 4.61706667,16.2666667 3.73333333,16.2666667 L1.6,16.2666667 C0.716266667,16.2666667 0,15.5504 0,14.6666667 C0,13.7829333 0.716266667,13.0666667 1.6,13.0666667" id="Fill-13"></path>
                </g>
            </g>
        </g>
    </g>
</svg>