<?xml version="1.0" encoding="UTF-8"?>
<svg width="20px" height="20px" viewBox="0 0 72 72" version="1.1" xmlns="http://www.w3.org/2000/svg" xmlns:xlink="http://www.w3.org/1999/xlink">
    <title>待使用</title>
    <g id="模具监控" stroke="none" stroke-width="1" fill="none" fill-rule="evenodd">
        <g transform="translate(-602.000000, -170.000000)" id="编组-5备份">
            <g transform="translate(454.000000, 149.000000)">
                <g id="待使用" transform="translate(148.000000, 21.000000)">
                    <circle id="椭圆形" fill="#FFFFFF" cx="36" cy="36" r="36"></circle>
                    <g id="编组" transform="translate(21.000000, 17.000000)" fill="#4f7de7" fill-rule="nonzero">
                        <path d="M25.078125,12.3319777 C26.6315497,10.7867723 27.5027825,8.69910103 27.5027825,6.51279966 L27.5027825,3.31553938 L29.9849743,3.31553938 L29.9849743,0.0114297945 L0.00963184932,0.0114297945 L0.00963184932,3.31553938 L2.49182363,3.31553938 L2.49182363,6.51279966 C2.49182363,8.69910103 3.36305651,10.7867723 4.91648116,12.3319777 L10.5055223,17.8963613 C10.9740154,18.3648545 10.9740154,19.129238 10.5055223,19.5977312 L4.91648116,25.1703339 C3.36305651,26.7155394 2.49182363,28.8114298 2.49182363,30.989512 L2.49182363,34.1867723 L0.00963184932,34.1867723 L0.00963184932,37.4908818 L29.9931935,37.4908818 L29.9931935,34.1867723 L27.5027825,34.1867723 L27.5027825,30.989512 C27.5027825,28.8032106 26.6315497,26.7155394 25.078125,25.1703339 L19.4890839,19.5977312 C19.0205908,19.129238 19.0205908,18.3648545 19.4890839,17.8963613 L25.078125,12.3319777 Z M17.4342894,21.6443065 L20.4014127,24.5949914 L9.60141267,24.5949914 L12.568536,21.6443065 C14.1712757,20.0415668 14.1712757,17.4443065 12.568536,15.8415668 L6.97949486,10.268964 C5.96853596,9.25800514 5.40963185,7.92649829 5.40963185,6.4963613 L5.40963185,2.91279966 L24.6014127,2.91279966 L24.6014127,6.51279966 C24.6014127,7.93471747 24.0425086,9.27444349 23.0315497,10.2854024 L17.4425086,15.8580051 C15.8315497,17.4525257 15.8315497,20.049786 17.4342894,21.6443065 L17.4342894,21.6443065 Z" id="形状"></path>
                    </g>
                </g>
            </g>
        </g>
    </g>
</svg>