<?xml version="1.0" encoding="UTF-8"?>
<svg width="10px" height="14px" viewBox="0 0 10 14" version="1.1" xmlns="http://www.w3.org/2000/svg" xmlns:xlink="http://www.w3.org/1999/xlink">
    <title>降序</title>
    <g id="供应总览" stroke="none" stroke-width="1" fill="none" fill-rule="evenodd">
        <g id="订单详情_供应商侧备份-5" transform="translate(-1012.000000, -232.000000)">
            <g id="编组-3" transform="translate(208.000000, 219.000000)">
                <g id="编组-6备份-2" transform="translate(804.000000, 13.000000)">
                    <rect id="矩形" x="0" y="0" width="10" height="14"></rect>
                    <path d="M5.32967126,2.06640375 L8.03986879,4.72255357 C8.19473722,4.89963023 8.19473722,5.16524522 8.117303,5.34232187 C8.03986878,5.4308602 7.96243457,5.51939852 7.80756614,5.51939852 L2.38717107,5.51939852 C2.15486842,5.51939852 2,5.34232187 2,5.07670689 C2,4.98816856 2,4.8110919 2.07743422,4.72255357 L4.78763174,2.06640375 C5.01993439,1.97786542 5.17480282,1.97786542 5.32967126,2.06640375 Z" id="路径" fill="#AAADBA" fill-rule="nonzero"></path>
                    <path d="M5.32967126,11.4529948 L8.03986879,8.79684495 C8.19473722,8.61976829 8.19473722,8.3541533 8.117303,8.17707665 C8.03986878,8.08853832 7.96243457,8 7.80756614,8 L2.38717107,8 C2.15486842,8 2,8.17707666 2,8.44269163 C2,8.53122996 2,8.70830662 2.07743422,8.79684495 L4.78763174,11.4529948 C5.01993439,11.5415331 5.17480282,11.5415331 5.32967126,11.4529948 L5.32967126,11.4529948 Z" id="路径" fill="#2AC5A9" fill-rule="nonzero"></path>
                </g>
            </g>
        </g>
    </g>
</svg>