<?xml version="1.0" encoding="UTF-8"?>
<svg width="12px" height="10px" viewBox="0 0 12 10" version="1.1" xmlns="http://www.w3.org/2000/svg" xmlns:xlink="http://www.w3.org/1999/xlink">
    <title>模具分类</title>
    <g id="模具履历" stroke="none" stroke-width="1" fill="none" fill-rule="evenodd">
        <g id="履历" transform="translate(-415.000000, -204.000000)">
            <g id="模具分类" transform="translate(414.000000, 202.000000)">
                <polygon id="Shape" points="0 0 14 0 14 14 0 14"></polygon>
                <path d="M1.75,3.5 C1.4278339,3.5 1.16666667,3.23883277 1.16666667,2.91666667 C1.16666667,2.59450056 1.4278339,2.33333333 1.75,2.33333333 C2.0721661,2.33333333 2.33333333,2.59450056 2.33333333,2.91666667 C2.33333333,3.23883277 2.0721661,3.5 1.75,3.5 Z M1.75,11.6666667 C1.4278339,11.6666667 1.16666667,11.4054994 1.16666667,11.0833333 C1.16666667,10.7611672 1.4278339,10.5 1.75,10.5 C2.0721661,10.5 2.33333333,10.7611672 2.33333333,11.0833333 C2.33333333,11.4054994 2.0721661,11.6666667 1.75,11.6666667 Z M1.75,7.58333333 C1.4278339,7.58333333 1.16666667,7.3221661 1.16666667,7 C1.16666667,6.6778339 1.4278339,6.41666667 1.75,6.41666667 C2.0721661,6.41666667 2.33333333,6.6778339 2.33333333,7 C2.33333333,7.3221661 2.0721661,7.58333333 1.75,7.58333333 Z" id="Shape" fill="#CACCD0"></path>
                <path d="M3.5,3.5 L3.5,2.33333333 L12.8333333,2.33333333 L12.8333333,3.5 L3.5,3.5 Z M3.5,11.6666667 L3.5,10.5 L12.8333333,10.5 L12.8333333,11.6666667 L3.5,11.6666667 Z M3.5,7.58333333 L3.5,6.41666667 L12.8333333,6.41666667 L12.8333333,7.58333333 L3.5,7.58333333 Z" id="Shape" fill="#CACCD0" fill-rule="nonzero"></path>
            </g>
        </g>
    </g>
</svg>