<?xml version="1.0" encoding="UTF-8"?>
<svg width="14px" height="14px" viewBox="0 0 14 14" version="1.1" xmlns="http://www.w3.org/2000/svg" xmlns:xlink="http://www.w3.org/1999/xlink">
    <title>所在位置@1x</title>
    <defs>
        <polygon id="path-1" points="0 0.472941176 9.87647059 0.472941176 9.87647059 12.941 0 12.941"></polygon>
    </defs>
    <g id="模具履历" stroke="none" stroke-width="1" fill="none" fill-rule="evenodd">
        <g id="履历" transform="translate(-414.000000, -229.000000)">
            <g id="所在位置" transform="translate(414.000000, 229.000000)">
                <g id="编组" transform="translate(2.000000, 0.115471)">
                    <mask id="mask-2" fill="white">
                        <use xlink:href="#path-1"></use>
                    </mask>
                    <g id="Clip-2"></g>
                    <path d="M4.93794118,1.64923529 C2.86382353,1.64923529 1.17617647,3.33688235 1.17617647,5.41158824 C1.17617647,6.99805882 3.60029412,9.86923529 4.93794118,11.2727647 C6.27558824,9.86864706 8.70029412,6.99629412 8.70029412,5.41158824 C8.70029412,3.33688235 7.01205882,1.64923529 4.93794118,1.64923529 L4.93794118,1.64923529 Z M4.93794118,12.941 L4.52441176,12.5321765 C4.06147059,12.0745294 -0.000294117647,7.98511765 -0.000294117647,5.41158824 C-0.000294117647,2.68864706 2.215,0.472764706 4.93794118,0.472764706 C7.66088235,0.472764706 9.87676471,2.68864706 9.87676471,5.41158824 C9.87676471,7.98511765 5.81441176,12.0745294 5.35147059,12.5321765 L4.93794118,12.941 Z" id="Fill-1" fill="#CACCD0" mask="url(#mask-2)"></path>
                </g>
                <path d="M6.93794118,4.19982353 C6.28205882,4.19982353 5.74852941,4.73335294 5.74852941,5.38982353 C5.74852941,6.04629412 6.28205882,6.57982353 6.93794118,6.57982353 C7.59441176,6.57982353 8.12794118,6.04629412 8.12794118,5.38982353 C8.12794118,4.73335294 7.59441176,4.19982353 6.93794118,4.19982353 M6.93794118,7.75629412 C5.63323529,7.75629412 4.57205882,6.69452941 4.57205882,5.38982353 C4.57205882,4.08511765 5.63323529,3.02335294 6.93794118,3.02335294 C8.24323529,3.02335294 9.30441176,4.08511765 9.30441176,5.38982353 C9.30441176,6.69452941 8.24323529,7.75629412 6.93794118,7.75629412" id="Fill-3" fill="#CACCD0"></path>
                <rect id="矩形" x="0" y="0" width="14" height="14"></rect>
            </g>
        </g>
    </g>
</svg>