<?xml version="1.0" encoding="UTF-8"?>
<svg width="25px" height="25px" viewBox="0 0 25 25" version="1.1" xmlns="http://www.w3.org/2000/svg" xmlns:xlink="http://www.w3.org/1999/xlink">
    <title>编组 6</title>
    <g id="模具履历" stroke="none" stroke-width="1" fill="none" fill-rule="evenodd">
        <g id="履历" transform="translate(-374.000000, -596.000000)">
            <g id="编组-6" transform="translate(374.500000, 596.313708)">
                <rect id="矩形备份-4" fill="#D8D8D8" transform="translate(12.000000, 12.000000) rotate(-315.000000) translate(-12.000000, -12.000000) " x="4" y="4" width="16" height="16" rx="2"></rect>
                <path d="M15.4946655,15.3244654 C15.4938444,15.2288091 15.4550558,15.1373973 15.3868335,15.0703412 C15.3186113,15.0032851 15.2265442,14.9660782 15.130888,14.9669064 L7.86377749,14.9669064 C7.76812126,14.9660782 7.67605424,15.0032851 7.60783195,15.0703412 C7.53960966,15.1373973 7.50082107,15.2288091 7.5,15.3244654 C7.5,15.521234 7.66256723,15.6815874 7.86377749,15.6815874 L15.1322205,15.6815874 C15.3308976,15.6828133 15.493156,15.5231367 15.4951097,15.3244654 L15.4946655,15.3244654 Z M14.7369068,9.3983125 C14.7360184,9.39742415 14.7342417,9.39653581 14.7333534,9.39475912 L13.1418824,7.83127101 C12.9013996,7.62740528 12.5453087,7.63990982 12.3197186,7.86014223 C12.3188303,7.86103058 12.3179419,7.86280727 12.3161652,7.86369562 L8.17647511,11.9287647 C8.09606891,12.0071565 8.05780163,12.1191543 8.07342703,12.230358 L8.07342703,14.0523547 C8.07356098,14.0703555 8.07504572,14.0883209 8.07786876,14.1060996 C8.07964545,14.1185364 8.08231048,14.1296407 8.08497552,14.1411892 C8.09450638,14.1746206 8.10823715,14.2067088 8.12583942,14.2366864 C8.12850446,14.2420164 8.13205784,14.2464582 8.13561122,14.2517882 C8.17082829,14.3029222 8.21853242,14.3442046 8.27419312,14.3717149 L8.28485327,14.377045 C8.33104723,14.3979211 8.38257127,14.4103579 8.43720452,14.4103579 L10.3382639,14.4103579 C10.4555255,14.4103579 10.5603503,14.3552805 10.6260879,14.2708877 L14.775994,10.1947143 C14.97143,9.96107938 14.9581048,9.61595715 14.7369068,9.3983125 Z" id="形状" fill="#FFFFFF" fill-rule="nonzero"></path>
            </g>
        </g>
    </g>
</svg>