<?xml version="1.0" encoding="UTF-8"?>
<svg width="12px" height="13px" viewBox="0 0 12 13" version="1.1" xmlns="http://www.w3.org/2000/svg" xmlns:xlink="http://www.w3.org/1999/xlink">
    <title>模具类型</title>
    <g id="模具履历" stroke="none" stroke-width="1" fill="none" fill-rule="evenodd">
        <g id="履历" transform="translate(-725.000000, -201.000000)">
            <g id="模具类型" transform="translate(724.000000, 201.000000)">
                <polygon id="Shape" points="0 0 14 0 14 14 0 14"></polygon>
                <path d="M7,1.91169477 L3.21029965,4.375 L7,6.83830523 L10.7897004,4.375 L7,1.91169477 Z M12.8333333,4.375 L7,8.16666667 L1.16666667,4.375 L7,0.583333333 L12.8333333,4.375 Z" id="Shape" fill="#CACCD0" fill-rule="nonzero"></path>
                <path d="M2.01670874,5.83333333 L7,9.3129163 L11.9832913,5.83333333 L12.8333333,6.42687518 L7,10.5 L1.16666667,6.42687518 L2.01670874,5.83333333 Z M2.01670874,8.16666667 L7,11.6462496 L11.9832913,8.16666667 L12.8333333,8.76020851 L7,12.8333333 L1.16666667,8.76020851 L2.01670874,8.16666667 Z" id="Shape" fill="#CACCD0" fill-rule="nonzero"></path>
            </g>
        </g>
    </g>
</svg>