<?xml version="1.0" encoding="UTF-8"?>
<svg width="10px" height="13px" viewBox="0 0 10 13" version="1.1" xmlns="http://www.w3.org/2000/svg" xmlns:xlink="http://www.w3.org/1999/xlink">
    <title>定位</title>
    <g id="发货单创建" stroke="none" stroke-width="1" fill="none" fill-rule="evenodd">
        <g id="发货单" transform="translate(-607.000000, -280.000000)" fill="#C9C9C9" fill-rule="nonzero">
            <g id="编组-4备份" transform="translate(209.000000, 241.000000)">
                <g id="编组-5" transform="translate(0.000000, 0.000000)">
                    <g id="编组-4" transform="translate(398.000000, 12.409860)">
                        <path d="M9.53776042,31.5646899 C9.53776042,28.9190933 7.6171875,27 4.97307055,27 C2.45620265,27 0.408380682,29.047822 0.408380682,31.5646899 C0.408380682,33.4231179 2.93264678,36.5703125 4.2894768,38.2615412 L4.39009233,38.385831 C4.53213778,38.5633878 4.74520597,38.665483 4.97455019,38.665483 C5.20241477,38.665483 5.41548295,38.5633878 5.55900805,38.385831 L5.65962358,38.2615412 C7.01349432,36.5703125 9.53776042,33.4231179 9.53776042,31.5646899 Z M4.94939631,32.8874882 C4.01870265,32.8874882 3.26260653,32.131392 3.26260653,31.2006984 C3.26260653,30.2700047 4.01870265,29.5139086 4.94939631,29.5139086 C5.88008996,29.5139086 6.63618608,30.2700047 6.63618608,31.2006984 C6.63618608,32.131392 5.88008996,32.8874882 4.94939631,32.8874882 Z" id="定位"></path>
                    </g>
                </g>
            </g>
        </g>
    </g>
</svg>