<?xml version="1.0" encoding="UTF-8"?>
<svg width="12px" height="12px" viewBox="0 0 12 12" version="1.1" xmlns="http://www.w3.org/2000/svg" xmlns:xlink="http://www.w3.org/1999/xlink">
    <title>生产</title>
    <g id="供应总览" stroke="none" stroke-width="1" fill="none" fill-rule="evenodd">
        <g id="订单详情_供应商侧备份-5" transform="translate(-1274.000000, -278.000000)">
            <g id="编组-4" transform="translate(1274.000000, 278.000000)">
                <g id="编组" transform="translate(1.000000, 1.000000)" fill="#333333" fill-rule="nonzero">
                    <path d="M6.46171875,9.39311384 L6.46160714,9.39311384 C6.28080357,9.39311384 6.10502232,9.31831473 5.99148437,9.19305804 C5.83674107,9.02340402 5.3466183,8.58232143 4.9453683,8.58232143 C4.54691964,8.58232143 4.04919643,9.02597098 3.90622768,9.18135045 C3.79296875,9.3044308 3.61839286,9.37797991 3.43926339,9.37797991 C3.35399554,9.37797991 3.27342634,9.36157366 3.1999442,9.32928571 L3.18714286,9.32362723 L1.96754464,8.64162946 L1.95549107,8.63316964 C1.73342634,8.47768973 1.64902902,8.17375 1.75897321,7.92609375 C1.75983259,7.92415179 1.87142857,7.66660714 1.87142857,7.43168527 C1.87142857,6.71888393 1.29159598,6.1390067 0.578627232,6.1390067 L0.535491071,6.1390067 L0.527544643,6.1391183 C0.323426339,6.1391183 0.157142857,5.95768973 0.103995536,5.67688616 C0.0998325893,5.65466518 -1.21922674e-13,5.12219866 -1.21922674e-13,4.70266741 C-1.21922674e-13,4.28311384 0.0998325893,3.75065848 0.103995536,3.72814732 C0.157767857,3.44386161 0.32765625,3.26122768 0.535491071,3.26626116 L0.578627232,3.26626116 C1.29154018,3.26626116 1.87142857,2.68626116 1.87142857,1.97340402 C1.87142857,1.73866071 1.75993304,1.4809933 1.75873884,1.47853795 C1.64886161,1.2309933 1.73388393,0.927176339 1.95679687,0.772198661 L1.9694308,0.763459821 L3.25651786,0.0564285714 L3.26988839,0.0507700893 C3.34234375,0.0198549107 3.42177455,0.00420758929 3.50582589,0.00420758929 C3.68457589,0.00420758929 3.859375,0.0760825893 3.97371652,0.196607143 C4.12606027,0.35609375 4.60760045,0.770892857 4.99743304,0.770892857 C5.38331473,0.770892857 5.86188616,0.364263393 6.01382812,0.207578125 C6.12743304,0.0895758929 6.30120536,0.0188839286 6.47811384,0.0188839286 C6.56393973,0.0188839286 6.64479911,0.0351227679 6.71840402,0.0671763393 L6.73142857,0.0728348214 L7.97457589,0.763515625 L7.98685268,0.77203125 C8.20925223,0.927287946 8.29382812,1.23122768 8.18395089,1.4791183 C8.18296875,1.48094866 8.07142857,1.73866071 8.07142857,1.97345982 C8.07142857,2.68631696 8.65126116,3.26631696 9.3641183,3.26631696 L9.40736607,3.26631696 C9.61485491,3.26157366 9.78491071,3.44386161 9.83873884,3.72820313 C9.84297991,3.75065848 9.94285714,4.28311384 9.94285714,4.70265625 C9.94285714,5.12208705 9.84296875,5.65466518 9.83873884,5.67700893 C9.78496652,5.96140625 9.61485491,6.14329241 9.40737723,6.1391183 L9.3641183,6.1391183 C8.65126116,6.1391183 8.07142857,6.7190067 8.07142857,7.43180804 C8.07142857,7.66666295 8.18296875,7.92415179 8.1841183,7.92677455 C8.29382812,8.17398438 8.20914062,8.47797991 7.98651786,8.63311384 L7.97399554,8.64174107 L6.70993304,9.34043527 L6.69679687,9.34609375 C6.62445312,9.37734375 6.5453125,9.39311384 6.46171875,9.39311384 Z M6.42331473,8.79752232 C6.42908482,8.80129464 6.44496652,8.80756696 6.46170759,8.80756696 L6.46360491,8.80756696 L7.6447433,8.15477679 C7.61622768,8.08848214 7.48577009,7.76716518 7.48577009,7.43191964 C7.48577009,6.42924107 8.27554687,5.60745536 9.26565848,5.55613839 C9.27983259,5.47745536 9.35719866,5.03483259 9.35719866,4.70265625 C9.35719866,4.37054688 9.27983259,3.92809152 9.26565848,3.84917411 C8.27554687,3.79780134 7.48577009,2.97609375 7.48577009,1.97340402 C7.48577009,1.63768973 7.61651786,1.31592634 7.64485491,1.25020089 L6.48296875,0.604665179 C6.48171875,0.604598214 6.4799442,0.604486607 6.47811384,0.604486607 C6.45834821,0.604486607 6.43983259,0.611629464 6.43377232,0.615803571 C6.41417411,0.635859375 6.24577009,0.806607143 6.00393973,0.976830357 C5.64577009,1.22883929 5.30719866,1.35655134 4.99748884,1.35655134 C4.6846317,1.35655134 4.34320312,1.22626116 3.98285714,0.969285714 C3.73959821,0.795803571 3.57022321,0.621808036 3.55080357,0.60140625 C3.54457589,0.597165179 3.5258817,0.589799107 3.5058817,0.589799107 L3.50165179,0.589910714 L2.29822545,1.25089286 C2.32702009,1.31796875 2.45703125,1.63872768 2.45703125,1.97340402 C2.45703125,2.97608259 1.66736607,3.79780134 0.677198661,3.84922991 C0.662912946,3.92797991 0.585546875,4.37054688 0.585546875,4.70272321 C0.585546875,5.03477679 0.662912946,5.47716518 0.677198661,5.55620536 C1.66737723,5.60752232 2.45703125,6.42917411 2.45703125,7.43186384 C2.45703125,7.76831473 2.32578125,8.09071429 2.29776786,8.15558036 L3.43679687,8.79248884 C3.45092471,8.79291444 3.46491024,8.78956254 3.47731027,8.78277902 C3.49862723,8.75992188 3.66879464,8.57986607 3.91388393,8.4003125 C4.27908482,8.13260045 4.62617187,7.99688616 4.94542411,7.99688616 C5.26776786,7.99688616 5.61754464,8.13516741 5.98485491,8.40791295 C6.23131696,8.59094866 6.40223214,8.7744308 6.42331473,8.79752232 L6.42331473,8.79752232 Z" id="形状"></path>
                    <path d="M4.94954241,6.41774554 C4.00029018,6.41774554 3.22800223,5.64540179 3.22800223,4.69614955 C3.22800223,3.74688616 4.00029018,2.97460937 4.94954241,2.97460937 C5.89897321,2.97460937 6.6711942,3.74688616 6.6711942,4.69614955 C6.6711942,5.64541295 5.89898437,6.41774554 4.94955357,6.41774554 L4.94954241,6.41774554 Z M4.94954241,3.56008929 C4.32320312,3.56008929 3.81353795,4.0697433 3.81353795,4.69609375 C3.81353795,5.32248884 4.32313616,5.83208705 4.94954241,5.83208705 C5.57606027,5.83208705 6.08571429,5.32248884 6.08571429,4.69609375 C6.08571429,4.06975446 5.57606027,3.56008929 4.94954241,3.56008929 L4.94954241,3.56008929 Z" id="形状"></path>
                </g>
                <rect id="矩形" x="0" y="0" width="12" height="12"></rect>
            </g>
        </g>
    </g>
</svg>