<?xml version="1.0" encoding="UTF-8"?>
<svg width="12px" height="12px" viewBox="0 0 12 12" version="1.1" xmlns="http://www.w3.org/2000/svg" xmlns:xlink="http://www.w3.org/1999/xlink">
    <title>发运</title>
    <g id="供应总览" stroke="none" stroke-width="1" fill="none" fill-rule="evenodd">
        <g id="订单详情_供应商侧备份-5" transform="translate(-1275.000000, -301.000000)" fill="#333333" fill-rule="nonzero">
            <g id="编组-9" transform="translate(1275.000000, 301.000000)">
                <path d="M2.21732032,8.83485002 L1.36304489,8.83485002 C1.15812524,8.83485002 0.995786294,8.67251108 0.995786294,8.46892207 C0.995786294,8.26932501 1.16078653,8.10299413 1.36304489,8.10299413 L2.21732032,8.10299413 C2.42223997,8.10299413 2.59256279,8.27198631 2.58457891,8.47025272 C2.58457891,8.67384172 2.42090932,8.83485002 2.21732032,8.83485002 Z M3.08490221,7.62795312 L1.36836748,7.62795312 C1.16877041,7.62795312 1.00110888,7.46428353 1.00110888,7.26202517 C1.00110888,7.05843617 1.16477847,6.89609722 1.36836748,6.89609722 L3.08490221,6.89609722 C3.29115251,6.89609722 3.46014469,7.05976681 3.45216081,7.26335582 C3.45216081,7.46694482 3.28849122,7.62795312 3.08490221,7.62795312 Z M8.44607931,7.2260977 C8.4514019,7.33254947 8.42478896,7.37246888 8.37821631,7.44299317 C8.35293401,7.47226741 8.31833719,7.50952553 8.27309519,7.55875947 C8.15732889,7.68384029 7.83797359,7.99121977 7.31502929,8.4808979 C7.17664199,8.62726908 6.93712552,8.62726908 6.79208499,8.48222854 C6.72249728,8.41382263 6.68330243,8.32033217 6.68330243,8.22275236 C6.68330243,8.12517256 6.72249728,8.0316821 6.79208499,7.96327618 L7.13805323,7.61996923 L5.66236561,7.61996923 C5.46276855,7.61996923 5.29510702,7.45629964 5.29510702,7.25404129 C5.29510702,7.05045228 5.45877661,6.88811334 5.66236561,6.88811334 L7.13805323,6.88811334 L6.79341563,6.54613704 C6.64571381,6.40774974 6.64571381,6.16956392 6.79208499,6.02585403 C6.93712552,5.88214415 7.16865811,5.88214415 7.31236799,6.02585403 C7.832651,6.51420151 8.1520063,6.82424228 8.27309519,6.95730699 C8.30902266,6.9972264 8.33829689,7.02516999 8.35958725,7.04646034 C8.41813572,7.11831528 8.43277284,7.16355729 8.44607931,7.2260977 L8.44607931,7.2260977 Z M4.39958153,6.41573363 L1.36836748,6.41573363 C1.16877041,6.41573363 1.00110888,6.25206403 1.00110888,6.04980568 C1.00110888,5.84621667 1.16477847,5.68387773 1.36836748,5.68387773 L4.39958153,5.68387773 C4.60450118,5.68387773 4.77482401,5.85286991 4.76684013,6.05113632 C4.76684013,6.25472533 4.60450118,6.41573363 4.39958153,6.41573363 L4.39958153,6.41573363 Z M1.7702229,4.66194077 L1.7702229,4.90811048 C1.7702229,5.12367531 1.59856942,5.29665943 1.38167395,5.29665943 C1.16477847,5.29665943 0.993125,5.12500596 0.993125,4.90811048 L0.993125,4.66194077 C0.993125,4.2587547 1.13816553,3.67460064 1.32711742,3.3259711 L2.16542508,1.74915431 C2.39163508,1.32733918 2.93453909,1 3.4095801,1 L8.54986978,1 C9.03023338,1 9.57446803,1.33266177 9.7940248,1.75713819 L9.96434763,2.08447737 L10.6310018,3.36855181 C10.8172924,3.7131894 10.958341,4.29468218 10.958341,4.70452148 L10.958341,9.96323875 C10.958341,10.512796 10.5099129,10.9638854 9.95769439,10.9638854 L2.00175549,10.9638854 C1.4482063,10.9638854 1.00110888,10.5167879 1.00110888,9.96323875 L1.00110888,9.58267368 C1.00110888,9.36710885 1.17276236,9.19412473 1.38965783,9.19412473 C1.60522266,9.19412473 1.77687613,9.36577821 1.77687613,9.58267368 L1.77687613,9.95525486 C1.77687613,10.0723518 1.87534402,10.173481 1.99510225,10.173481 L9.95104116,10.173481 C10.0734607,10.173481 10.1692673,10.0776744 10.1692673,9.95525486 L10.1692673,4.69653759 L10.1692673,4.66194077 L1.7702229,4.66194077 Z M10.2517674,4.05649635 L10.2145093,3.94472199 C10.1679366,3.8063347 10.1360011,3.72250393 10.0960817,3.64931834 L9.28305632,2.08447737 L9.25910468,2.03923537 C9.13668514,1.81169472 8.81200726,1.6134283 8.55652302,1.6134283 L3.4095801,1.6134283 C3.15409586,1.6134283 2.82941797,1.81169472 2.70832909,2.03790472 L1.87002143,3.61472152 C1.82611007,3.69456034 1.78219872,3.81032664 1.74360995,3.94073005 L1.73961801,3.97133493 L1.73961801,4.05649635 L10.2517674,4.05649635 L10.2517674,4.05649635 Z" id="形状"></path>
            </g>
        </g>
    </g>
</svg>