<?xml version="1.0" encoding="UTF-8"?>
<svg width="133px" height="51px" viewBox="0 0 133 51" version="1.1" xmlns="http://www.w3.org/2000/svg" xmlns:xlink="http://www.w3.org/1999/xlink">
    <title>合格率</title>
    <defs>
        <linearGradient x1="62.0144286%" y1="-11.9599443%" x2="62.0144286%" y2="130.206849%" id="linearGradient-1">
            <stop stop-color="#2FC25B" stop-opacity="0.31372924" offset="0%"></stop>
            <stop stop-color="#2FC25B" stop-opacity="0.054059222" offset="100%"></stop>
        </linearGradient>
    </defs>
    <g id="供应总览" stroke="none" stroke-width="1" fill="none" fill-rule="evenodd">
        <g id="供应总览备份" transform="translate(-836.000000, -447.000000)">
            <g id="编组-3" transform="translate(810.000000, 427.000000)">
                <g id="合格率" transform="translate(27.000000, 21.000000)">
                    <polygon id="Shape" fill="url(#linearGradient-1)" points="0 50 0 30.9979355 8.84520402 21.2135542 20.3425239 12.4772257 25.84976 25 34.5288798 22.5364005 47.8162898 27 57.3657488 20 65.5 22.5364005 74.8771368 20 84.1143162 12.4772257 93.6314103 17.6169034 103.008547 6.48648649 112.385684 12.5675676 121.762821 6.48648649 131 0 131 50"></polygon>
                    <polyline id="Shape" stroke="#2FC25B" points="0 30.9979355 8.84520402 21.2135542 20.3425239 12.4772257 25.84976 25 34.5288798 22.5364005 47.8162898 27 57.3657488 20 65.5 22.5364005 74.8771368 20 84.1143162 12.4772257 93.6314103 17.6169034 103.008547 6.48648649 112.385684 12.5675676 121.762821 6.48648649 131 0"></polyline>
                </g>
            </g>
        </g>
    </g>
</svg>