<?xml version="1.0" encoding="UTF-8"?>
<svg width="16px" height="16px" viewBox="0 0 16 16" version="1.1" xmlns="http://www.w3.org/2000/svg" xmlns:xlink="http://www.w3.org/1999/xlink">
    <title>删除</title>
    <g id="删除" stroke="none" stroke-width="1" fill="none" fill-rule="evenodd">
        <g id="编组" transform="translate(2.000000, 2.000000)" fill="#FFFFFF" fill-rule="nonzero">
            <path d="M3.91993534,9.47066272 C4.12761933,9.47044 4.29592491,9.30213442 4.29614763,9.09445043 L4.29614763,4.35894397 C4.29614763,4.15149515 4.12738416,3.98273168 3.91993534,3.98273168 C3.71248653,3.98273168 3.54372306,4.15149515 3.54372306,4.35894397 L3.54372306,9.09439655 C3.55172414,9.30066002 3.72055496,9.47066272 3.91993534,9.47066272 L3.91993534,9.47066272 Z M8.06821121,9.47066272 C8.275879,9.47043251 8.44415708,9.30211827 8.44434267,9.09445043 L8.44434267,4.35894397 C8.44434267,4.15149515 8.27566002,3.98273168 8.06821121,3.98273168 C7.86076239,3.98273168 7.69207974,4.15149515 7.69207974,4.35894397 L7.69207974,9.09439655 C7.69227269,9.30207007 7.86053777,9.47039541 8.06821121,9.47066272 L8.06821121,9.47066272 Z M5.99407328,9.47066272 C6.20175726,9.47044 6.37006284,9.30213442 6.37028556,9.09445043 L6.37028556,4.35894397 C6.37028556,4.15149515 6.20152209,3.98273168 5.99407328,3.98273168 C5.78662446,3.98273168 5.61786099,4.15149515 5.61786099,4.35894397 L5.61786099,9.09439655 C5.61809848,9.30208095 5.7863889,9.47038945 5.99407328,9.47066272 L5.99407328,9.47066272 Z" id="形状"></path>
            <path d="M11.6103448,1.48246228 L8.7380792,1.48246228 L8.7380792,0.968318966 C8.7380792,0.437149784 8.30587284,0.00494342672 7.77469019,0.00494342672 L4.22296606,0.00494342672 C3.69179687,0.00494342672 3.25959052,0.437149784 3.25959052,0.968318966 L3.25959052,1.48246228 L0.377801724,1.48246228 C0.170117739,1.482685 0.00181215726,1.65099058 0.00158943966,1.85867457 C0.00181964489,2.06634236 0.170133887,2.23462045 0.377801724,2.23480603 L1.77269666,2.23480603 L1.77269666,10.1362473 C1.77269666,10.9964574 2.47248114,11.6962554 3.33277209,11.6962554 L8.65544181,11.6962554 C9.51565194,11.6962554 10.2154364,10.9964574 10.2154364,10.1362473 L10.2154364,2.22528287 L11.6103314,2.22528287 C11.8180153,2.22506015 11.9863209,2.05675457 11.9865436,1.84907058 C11.9865436,1.64349407 11.8212284,1.48246228 11.6103314,1.48246228 L11.6103448,1.48246228 Z M4.00247917,0.968318966 C4.00185818,0.909652374 4.02488264,0.853203576 4.06636734,0.811716343 C4.10785203,0.770229111 4.16429943,0.747201204 4.22296606,0.747831358 L7.77462284,0.747831358 C7.8332918,0.747197555 7.88974269,0.770223851 7.93123032,0.811711486 C7.97271796,0.853199122 7.99574426,0.909650012 7.9951232,0.968318966 L7.9951232,1.48246228 L4.00247917,1.48246228 L4.00247917,0.968318966 Z M9.46309267,10.1362473 C9.46309267,10.5816272 9.10075431,10.943979 8.65544181,10.943979 L3.33275862,10.943979 C2.88737877,10.943979 2.52504041,10.5816406 2.52504041,10.1362473 L2.52504041,2.22528287 L9.46309267,2.22528287 L9.46309267,10.1362473 Z" id="形状"></path>
        </g>
    </g>
</svg>