<?xml version="1.0" encoding="UTF-8"?>
<svg width="16px" height="16px" viewBox="0 0 16 16" version="1.1" xmlns="http://www.w3.org/2000/svg" xmlns:xlink="http://www.w3.org/1999/xlink">
    <title>半成品</title>
    <defs>
        <polygon id="path-1" points="0 0.0088239521 5.59040479 0.0088239521 5.59040479 9.19205749 0 9.19205749"></polygon>
        <polygon id="path-3" points="0.0481365269 0.0158083832 6.00717844 0.0158083832 6.00717844 12.6466994 0.0481365269 12.6466994"></polygon>
    </defs>
    <g id="库存查询" stroke="none" stroke-width="1" fill="none" fill-rule="evenodd">
        <g id="异常订单_核企侧备份" transform="translate(-899.000000, -291.000000)">
            <g id="编组-4备份" transform="translate(209.000000, 265.000000)">
                <g id="编组-5" transform="translate(0.000000, 0.000000)">
                    <g id="编组" transform="translate(690.000000, 26.000000)">
                        <g transform="translate(2.000000, 5.505150)">
                            <mask id="mask-2" fill="white">
                                <use xlink:href="#path-1"></use>
                            </mask>
                            <g id="Clip-2"></g>
                            <path d="M-1.43712575e-05,0.0088239521 L-1.43712575e-05,6.1453509 C-1.43712575e-05,6.2962491 0.0862131737,6.43996168 0.22274012,6.50463234 L5.59040479,9.19205749 L5.59040479,2.80403353 L-1.43712575e-05,0.0088239521 Z" id="Fill-1" fill="#28BDA2" mask="url(#mask-2)"></path>
                        </g>
                        <path d="M7.80598802,2.11518563 L2.39520958,4.81698204 L7.98562874,7.61219162 L8.01221557,7.59925749 L8.01221557,2.07350898 C7.94251497,2.06847904 7.87209581,2.08213174 7.80598802,2.11518563" id="Fill-3" fill="#28BDA2"></path>
                        <g transform="translate(7.964072, 2.056048)">
                            <mask id="mask-4" fill="white">
                                <use xlink:href="#path-3"></use>
                            </mask>
                            <g id="Clip-6"></g>
                            <path d="M6.00717844,3.45628024 C6.00717844,3.45628024 0.42394491,6.25148982 0.416759281,6.25148982 L0.416759281,12.6466994 L5.78442395,9.95927425 C5.9209509,9.88741796 6.00717844,9.75089102 6.00717844,9.59999281 L6.00717844,3.45628024 Z M0.0481365269,0.0158011976 L0.0481365269,5.5415497 L5.61196886,2.75927425 L0.201190419,0.0574778443 C0.152328144,0.0330467066 0.0998730539,0.0186754491 0.0481365269,0.0158011976 L0.0481365269,0.0158011976 Z M5.71975329,3.92162156 L5.71975329,9.59999281 C5.71975329,9.64224431 5.69467545,9.68097485 5.65242395,9.70389701 L0.704184431,12.1813581 L0.704184431,6.42998084 C0.729046707,6.41762156 0.756567665,6.40389701 0.787250299,6.38866347 C0.940663473,6.31220838 1.15946587,6.20291497 1.42181317,6.0718491 C1.94622036,5.80978922 2.64487904,5.4603521 3.3432503,5.11091497 C4.27292695,4.64578922 5.20224431,4.18066347 5.71975329,3.92162156 L5.71975329,3.92162156 Z M0.335561677,0.445861078 L4.9689988,2.75948982 L0.335561677,5.07642395 L0.335561677,0.445861078 L0.335561677,0.445861078 Z" id="Fill-5" fill="#28BDA2" mask="url(#mask-4)"></path>
                        </g>
                    </g>
                </g>
            </g>
        </g>
    </g>
</svg>