<?xml version="1.0" encoding="UTF-8"?>
<svg width="16px" height="16px" viewBox="0 0 16 16" version="1.1" xmlns="http://www.w3.org/2000/svg" xmlns:xlink="http://www.w3.org/1999/xlink">
    <title>定位</title>
    <g id="页面-2" stroke="none" stroke-width="1" fill="none" fill-rule="evenodd">
        <g id="库存查询" transform="translate(-865.000000, -448.000000)" fill="#FF8B5E" fill-rule="nonzero">
            <g id="编组-4备份-4" transform="translate(209.000000, 435.000000)">
                <g id="编组-5" transform="translate(0.000000, 0.000000)">
                    <g id="编组-4" transform="translate(656.000000, 12.409860)">
                        <g id="编组-11" transform="translate(0.000000, 0.590140)">
                            <path d="M4.22948414,3 C3.92533667,3 3.59161932,3.2859831 3.59161932,3.63955453 L3.59161932,14.1884025 C3.59161932,14.5407066 3.91773298,14.827957 4.22103559,14.827957 C4.52518306,14.827957 4.85890042,14.5407066 4.85890042,14.1884025 L4.85890042,3.63997696 C4.85890042,3.2859831 4.53278674,3 4.22948414,3 Z M11.9763735,3.84612135 C9.90394651,3.84612135 9.90394651,3 7.83236432,3 C6.63562853,3 5.71220303,3.55591398 5.71220303,3.55591398 L5.70375448,9.89020737 C5.70375448,9.89020737 6.63605095,9.33513825 7.8319419,9.33513825 C9.90394651,9.33513825 9.90394651,10.1812596 11.9759511,10.1812596 C13.2732245,10.1812596 14.5747222,9.50326421 14.5747222,9.50326421 L14.5747222,3.16897081 C14.5747222,3.16897081 13.2728021,3.84569892 11.9763735,3.84569892 L11.9763735,3.84612135 Z" id="形状"></path>
                        </g>
                    </g>
                </g>
            </g>
        </g>
    </g>
</svg>