<?xml version="1.0" encoding="UTF-8"?>
<svg width="16px" height="16px" viewBox="0 0 16 16" version="1.1" xmlns="http://www.w3.org/2000/svg" xmlns:xlink="http://www.w3.org/1999/xlink">
    <title>原材料</title>
    <g id="库存查询" stroke="none" stroke-width="1" fill="none" fill-rule="evenodd">
        <g id="异常订单_核企侧备份" transform="translate(-903.000000, -365.000000)" fill="#2AC5A9" fill-rule="nonzero">
            <g id="编组-4备份-2" transform="translate(209.000000, 337.000000)">
                <g id="编组-5" transform="translate(0.000000, 0.000000)">
                    <g id="编组" transform="translate(694.000000, 28.000000)">
                        <path d="M6.03326275,4.22380917 L5.9761468,4.22380917 C5.85029583,4.17680855 5.717722,4.15029379 5.58347471,4.14527475 C5.05517891,4.11549184 4.57718254,4.45691781 4.43401638,4.96631641 C4.34120298,5.37326749 3.59869575,8.97157179 3.23458162,10.8064214 C3.78289359,10.3069 4.4922036,10.0206428 5.23363956,9.99965873 C5.34073195,9.29998845 5.776241,6.07293777 6.03326275,4.22380917 L6.03326275,4.22380917 Z M12.7372464,10.8064214 C12.3588532,8.97157179 11.630625,5.37326749 11.573509,4.96631641 C11.4282106,4.44578277 10.9341437,4.10143306 10.3954928,4.14527475 C10.2620201,4.14570209 10.129468,4.16739244 10.0028207,4.20953019 L9.94570472,4.20953019 C10.2027265,6.05865878 10.659654,9.28570946 10.7381884,9.99251924 C11.4805511,10.0154656 12.1899752,10.3043026 12.7372464,10.8064214 Z M7.95378627,8.03629825 C8.69933305,8.02374711 9.42782285,8.25987829 10.0242391,8.70741056 C9.75293842,6.7226316 9.31028988,3.33851208 9.23889494,2.99581644 C9.12444878,2.38682073 8.57192952,1.96015307 7.95378627,2.00342695 C7.34461064,1.9579477 6.79558669,2.36971566 6.66867759,2.96725846 C6.57586419,3.43132549 6.14749463,6.76546856 5.86191492,8.72882904 C6.46136938,8.26909163 7.19841987,8.02508515 7.95378627,8.03629825 L7.95378627,8.03629825 Z M12.9657101,11.9630192 C12.9014547,11.1562565 12.0018786,10.4994232 10.9238152,10.4994232 L10.8595598,10.4994232 C10.7953043,11.641742 10.2170054,12.2985754 9.24603444,12.3842493 C9.6462472,13.0543958 10.3793354,13.4537648 11.1594185,13.4266152 C12.2089239,13.4266152 13.0014076,12.7697819 12.9657101,11.9630192 L12.9657101,11.9630192 Z M5.14796566,10.4994232 L5.05515225,10.4994232 C3.99136785,10.4994232 3.07037329,11.1419776 3.01325735,11.9630192 C2.95614142,12.7840609 3.76290407,13.4266152 4.82668848,13.4266152 C5.61579886,13.4602783 6.35939637,13.0569247 6.76149099,12.3771098 C5.776241,12.3128544 5.21222108,11.6346026 5.14796566,10.4994232 Z" id="形状"></path>
                        <path d="M10.3098189,10.2424015 C10.3098189,9.25001201 9.25317394,8.42897035 7.95378627,8.42897035 C6.6543986,8.42897035 5.5906142,9.22859353 5.5906142,10.220983 C5.5906142,11.2133725 6.64725911,12.0129957 7.95378627,12.0129957 C9.26031344,12.0129957 10.3098189,11.234791 10.3098189,10.2424015 L10.3098189,10.2424015 Z" id="路径"></path>
                    </g>
                </g>
            </g>
        </g>
    </g>
</svg>