<?xml version="1.0" encoding="UTF-8"?>
<svg width="16px" height="16px" viewBox="0 0 16 16" version="1.1" xmlns="http://www.w3.org/2000/svg" xmlns:xlink="http://www.w3.org/1999/xlink">
    <title>成品</title>
    <g id="库存查询" stroke="none" stroke-width="1" fill="none" fill-rule="evenodd">
        <g id="异常订单_核企侧备份" transform="translate(-899.000000, -219.000000)" fill="#2AC5A9" fill-rule="nonzero">
            <g id="编组-4" transform="translate(209.000000, 193.000000)">
                <g id="编组-5" transform="translate(0.000000, 0.000000)">
                    <g id="编组" transform="translate(690.000000, 26.000000)">
                        <path d="M13.96264,5.44712916 L13.96264,11.5543717 C13.96264,11.6802942 13.8996787,11.869178 13.710795,11.9321393 L8.35908757,14.6394736 L8.35908757,8.280386 L13.96264,5.44712916 Z M13.5848724,4.75455526 L7.98132,7.58781211 L2.37776757,4.75455526 L7.79243621,2.04722095 C7.91835873,1.98425968 8.04428127,1.98425968 8.17020379,2.04722095 L13.5848724,4.75455526 Z M2,5.44712916 L7.60355243,8.21742474 L7.60355243,14.6394736 L2.25184504,11.9321393 C2.12592252,11.869178 2,11.7432555 2,11.5543717 L2,5.44712916 Z M3.82587663,7.9655797 L5.84063705,8.9729599 C6.02952084,9.03592117 6.28136589,8.9729599 6.34432716,8.78407611 C6.40728842,8.59519232 6.34432716,8.34334727 6.15544337,8.280386 L4.20364421,7.27300579 C4.01476042,7.21004452 3.76291536,7.27300579 3.6999541,7.46188959 C3.57403158,7.65077338 3.63699283,7.90261843 3.82587663,7.9655797 Z" id="形状"></path>
                    </g>
                </g>
            </g>
        </g>
    </g>
</svg>