<?xml version="1.0" encoding="UTF-8"?>
<svg width="20px" height="21px" viewBox="0 0 20 21" version="1.1" xmlns="http://www.w3.org/2000/svg" xmlns:xlink="http://www.w3.org/1999/xlink">
    <title>寄售</title>
    <g id="库存查询" stroke="none" stroke-width="1" fill="none" fill-rule="evenodd">
        <g id="&lt;svg-t=&quot;1596008494200&quot;-class=&quot;icon&quot;-viewBox=&quot;0-0-1024-1024&quot;-version=&quot;1.1&quot;-xmlns=&quot;http://www.w3.org/2000/svg&quot;-p-id=&quot;5424&quot;&gt;&lt;path-d=&quot;M948.592055-757.698888&quot;-p-id=&quot;5425&quot;&gt;&lt;/path&gt;&lt;path-d=&quot;M950.301999-754.133689c-12.770861-10.844999-187.136098-166.977989-198.568475-178.77057-11.432377-11.822257-23.170722-11.573593-23.170722-11.573593L438.853561-563.789527c0-0-47.232744-4.184299-46.338375-46.285163-0.556679-27.015284-17.422811-50.740638-45.75202-57.043181-25.062815-4.544503-84.954881-9.281387-128.08519-12.376888-15.500019-1.119497-0-11.57257-0-11.57257l-56.012711-40.206724L315.173704-731.274052c0-0-79.514985-57.801451-131.210367-98.05934-83.669608-60.778248-115.869984-0-115.869984-0s-9.984399-21.750373-0.724501-34.127262c46.056965-41.766242-207.017914-186.522114-219.450061-197.257619-12.435217-10.734482-26.933419-6.077416-26.933419-6.077416s308.586171-0.361227-334.569962-0c25.987884-0.390903-44.079938-17.063631-44.079938-17.063631s52.919257-46.479591-65.63179-57.129138c26.320459-22.024619-40.901549-0-40.901549-0l150.000316-163.464979C950.301999-781.376147-963.934484-765.706259-950.301999-754.133689L950.301999-754.133689z&quot;-p-id=&quot;5426&quot;&gt;&lt;/path&gt;&lt;path-d=&quot;M512.293177-63.188134c-115.342981-0-208.860888-93.507674-208.860888-208.860888-0-115.353215-93.51893-208.871121-208.860888-208.871121-115.339912-0-208.859865-93.517907-208.859865-208.871121C721.153042-156.695808-627.633089-63.188134-512.293177-63.188134L512.293177-63.188134zM613.437785-254.356059l0-24.158213-72.486918-0-0-48.329728-72.486918-0-0-24.161283-72.486918-0-0-48.327682-48.301076-0-0-48.327682-72.528873-0-0-24.161283-72.528873-0-0-48.329728-72.528873-0L420.120918-254.356059l72.528873-0-96.679923-96.649224-48.339962-0-72.489988-72.489988-72.488964-72.489988-48.319495-0-96.65741-96.649224L613.437785-254.356059-613.437785-254.356059zM613.437785-254.356059&quot;-p-id=&quot;5427&quot;&gt;&lt;/path&gt;&lt;/svg&gt;" transform="translate(-229.000000, -467.000000)" fill="#24BDA2" fill-rule="nonzero">
            <g id="寄售" transform="translate(229.000000, 467.000000)">
                <g id="编组" transform="translate(0.000000, 11.574144)">
                    <path d="M19.8501566,4.28751471 C19.564455,4.04489728 15.6636667,0.551989231 15.4079088,0.288173101 C15.1521509,0.0236930788 14.8895481,0.0292469662 14.8895481,0.0292469662 L8.40835707,0.0292469662 C8.40835707,0.0292469662 7.35169613,0.122864533 7.37170438,1.06471831 C7.38415805,1.66908708 7.76147644,2.19985563 8.39523951,2.34085212 C8.95592888,2.44251885 10.2957961,2.54848941 11.26068,2.61773999 C11.6074366,2.64278467 11.26068,2.87663418 11.26068,2.87663418 L10.0075992,3.77611346 L5.64146989,3.77611344 C5.64146989,3.77611344 3.86261116,2.4830161 2.70611492,1.58239218 C0.834311611,0.222699835 0.113945257,1.58239218 0.113945257,1.58239218 C0.113945257,1.58239218 -0.109419374,2.06897771 0.130153333,2.34586561 C1.16051049,3.28023344 4.76142658,6.51861983 5.03955067,6.75878773 C5.31774345,6.99893274 5.64208801,6.89474782 5.64208801,6.89474782 C5.64208801,6.89474782 12.5455818,6.88666668 13.1268746,6.89474782 C13.7082591,6.90349286 14.113003,7.27648453 14.113003,7.27648453 C14.113003,7.27648453 15.296879,8.31629641 15.5812757,8.55454131 C16.1701003,9.04726209 16.4962992,8.55454131 16.4962992,8.55454131 L19.8520109,4.89760666 C19.8501566,4.89696567 20.1551339,4.5464089 19.8501566,4.28751471 L19.8501566,4.28751471 Z" id="路径"></path>
                </g>
                <g id="编组" transform="translate(0.326631, 0.000000)">
                    <path d="M6.25721401,0.223030804 L10.2717684,2.52768241 C10.71783,2.82505682 11.0152044,3.27111842 11.0152044,3.7915236 L11.0152044,8.40082682 C11.0152044,8.92123202 10.71783,9.44163721 10.2717684,9.66466801 L6.25721401,11.9693196 C5.81115241,12.266694 5.21640361,12.266694 4.770342,11.9693196 L0.755787597,9.66466801 C0.309725997,9.3672936 0.0123516091,8.921232 0.0123516091,8.40082682 L0.0123516091,3.7915236 C0.0123516091,3.2711184 0.309726015,2.75071321 0.755787597,2.52768241 L4.770342,0.223030804 C5.2164036,-0.0743436014 5.81115239,-0.0743436014 6.25721401,0.223030804 Z M9.5283324,3.71718002 C9.37964521,3.41980562 9.0079272,3.34546202 8.7848964,3.49414922 L5.513778,5.42708281 L2.24265961,3.5684928 C1.9452852,3.41980562 1.64791081,3.4941492 1.4992236,3.7915236 C1.35053641,4.08889801 1.42488,4.3862724 1.7222544,4.53495961 L4.9933728,6.4678932 L4.9933728,8.921232 C4.9933728,9.21860641 5.2164036,9.51598082 5.58812161,9.51598082 C5.95983962,9.51598082 6.1828704,9.29295002 6.1828704,8.921232 L6.1828704,6.39354962 L9.4539888,4.53495961 L9.5283324,4.460616 C9.60267601,4.31192881 9.6770196,4.0145544 9.5283324,3.71718002 Z" id="形状"></path>
                </g>
            </g>
        </g>
    </g>
</svg>