<?xml version="1.0" encoding="UTF-8"?>
<svg width="16px" height="16px" viewBox="0 0 16 16" version="1.1" xmlns="http://www.w3.org/2000/svg" xmlns:xlink="http://www.w3.org/1999/xlink">
    <title>取消暂挂</title>
    <g id="取消暂挂" stroke="none" stroke-width="1" fill="none" fill-rule="evenodd">
        <g id="编组" transform="translate(3.000000, 4.000000)" fill="#000000" fill-rule="nonzero">
            <path d="M7.3590158,2.10241559 L7.32758621,2.09680316 L1.3593301,2.09680316 L3.19010417,0.673491379 C3.35286458,0.546650503 3.38204921,0.312051006 3.25520833,0.149290589 C3.12836746,-0.0134698276 2.89376796,-0.042654454 2.73100754,0.0841864224 L0.203169899,2.04853628 C-0.0246946839,2.22588901 -0.0651041667,2.5547773 0.111126078,2.7815194 C0.145923132,2.82641882 0.187455101,2.86458333 0.234599497,2.89713542 L2.75345726,4.57637392 C2.81743894,4.61902838 2.88927802,4.63923312 2.95999461,4.63923312 C3.08122306,4.63923312 3.19908405,4.58086386 3.27092313,4.47310524 C3.38541667,4.30136494 3.33939476,4.06901042 3.16765445,3.95451688 L1.50413075,2.84550108 L7.26472701,2.84550108 C8.61283226,3.08234555 9.24030172,3.866963 9.24030172,5.3127245 C9.24030172,6.75848599 8.61170977,7.54310345 7.26472701,7.77994792 L0.643184267,7.77994792 C0.436646911,7.77994792 0.269396552,7.94719828 0.269396552,8.15373563 C0.269396552,8.36027299 0.436646911,8.52752335 0.643184267,8.52752335 L7.32870869,8.52752335 L7.36013829,8.52191092 C9.07978628,8.23230963 9.98899964,7.12217134 9.98899964,5.3127245 C9.98899964,3.50327766 9.07978628,2.39313937 7.3590158,2.10241559 L7.3590158,2.10241559 Z" id="路径"></path>
        </g>
    </g>
</svg>