<?xml version="1.0" encoding="UTF-8"?>
<svg width="16px" height="16px" viewBox="0 0 16 16" version="1.1" xmlns="http://www.w3.org/2000/svg" xmlns:xlink="http://www.w3.org/1999/xlink">
    <title>预警</title>
    <g id="页面-2" stroke="none" stroke-width="1" fill="none" fill-rule="evenodd">
        <g id="库存查询" transform="translate(-756.000000, -462.000000)">
            <g id="编组-4备份-4" transform="translate(209.000000, 435.000000)">
                <g id="编组-5" transform="translate(0.000000, 0.000000)">
                    <g id="编组-8" transform="translate(547.000000, 26.000000)">
                        <g id="编组" transform="translate(0.000000, 1.000000)">
                            <path d="M8.01604278,5.19251337 C5.97860963,5.19251337 4.39037433,6.86096257 4.39037433,8.81818182 L4.39037433,12.3475936 L11.6417112,12.3475936 L11.6417112,8.81818182 C11.6417112,6.78074866 9.97326203,5.19251337 8.01604278,5.19251337 Z M7.93582888,4.47058824 C7.64705882,4.47058824 7.35828877,4.18181818 7.35828877,3.89304813 L7.35828877,2.57754011 C7.35828877,2.28877005 7.64705882,2 7.93582888,2 C8.22459893,2 8.51336898,2.28877005 8.51336898,2.57754011 L8.51336898,3.87700535 C8.51336898,4.18181818 8.30481283,4.47058824 7.93582888,4.47058824 Z M10.3262032,5.25668449 C10.1016043,5.03208556 10.1016043,4.67914439 10.3262032,4.45454545 L11.1925134,3.50802139 C11.4171123,3.28342246 11.7700535,3.28342246 11.9946524,3.50802139 C12.2192513,3.73262032 12.2192513,4.0855615 11.9946524,4.31016043 L11.1925134,5.25668449 C10.9839572,5.48128342 10.6149733,5.48128342 10.3262032,5.25668449 Z M5.54545455,5.25668449 C5.77005348,5.03208556 5.77005348,4.67914439 5.54545455,4.45454545 L4.67914439,3.50802139 C4.45454545,3.28342246 4.10160428,3.28342246 3.87700535,3.50802139 C3.65240642,3.73262032 3.65240642,4.0855615 3.87700535,4.31016043 L4.74331551,5.25668449 C4.96791444,5.48128342 5.32085561,5.48128342 5.54545455,5.25668449 Z M4.45454545,7.29411765 C4.53475936,7.00534759 4.31016043,6.63636364 4.02139037,6.57219251 L2.72192513,6.28342246 C2.43315508,6.20320856 2.06417112,6.42780749 2,6.71657754 C2,7.00534759 2.14438503,7.29411765 2.43315508,7.37433155 L3.73262032,7.74331551 C4.02139037,7.80748663 4.39037433,7.5828877 4.45454545,7.29411765 Z M11.4812834,7.29411765 C11.4010695,7.00534759 11.6256684,6.63636364 11.9144385,6.57219251 L13.2139037,6.28342246 C13.5026738,6.20320856 13.8716578,6.42780749 13.9358289,6.71657754 C14.0160428,7.00534759 13.7914439,7.37433155 13.5026738,7.43850267 L12.2032086,7.72727273 C11.9144385,7.80748663 11.5614973,7.5828877 11.4812834,7.29411765 Z M11.9304813,14.5294118 L4.11764706,14.5294118 C3.71657754,14.5294118 3.37967914,14.1925134 3.37967914,13.7914439 C3.37967914,13.3903743 3.71657754,13.0534759 4.11764706,13.0534759 L11.9304813,13.0534759 C12.3315508,13.0534759 12.6684492,13.3903743 12.6684492,13.7914439 C12.6684492,14.1925134 12.3475936,14.5294118 11.9304813,14.5294118 Z" id="形状" fill="#F13131" fill-rule="nonzero"></path>
                            <rect id="矩形" x="0" y="0" width="16" height="16"></rect>
                        </g>
                    </g>
                </g>
            </g>
        </g>
    </g>
</svg>