<?xml version="1.0" encoding="UTF-8"?>
<svg width="12px" height="12px" viewBox="0 0 12 12" version="1.1" xmlns="http://www.w3.org/2000/svg" xmlns:xlink="http://www.w3.org/1999/xlink">
    <title>形状</title>
    <g id="页面-2" stroke="none" stroke-width="1" fill="none" fill-rule="evenodd">
        <g id="库存查询" transform="translate(-868.000000, -739.000000)" fill="#FF8B5E" fill-rule="nonzero">
            <g id="编组-4备份-8" transform="translate(209.000000, 723.000000)">
                <g id="编组-5" transform="translate(0.000000, 0.000000)">
                    <g id="编组-4" transform="translate(659.000000, 12.409860)">
                        <path d="M1.22948414,3.59013968 C0.925336669,3.59013968 0.591619318,3.87612278 0.591619318,4.22969421 L0.591619318,14.7785421 C0.591619318,15.1308463 0.91773298,15.4180967 1.22103559,15.4180967 C1.52518306,15.4180967 1.85890042,15.1308463 1.85890042,14.7785421 L1.85890042,4.23011663 C1.85890042,3.87612278 1.53278674,3.59013968 1.22948414,3.59013968 Z M8.97637353,4.43626102 C6.90394651,4.43626102 6.90394651,3.59013968 4.83236432,3.59013968 C3.63562853,3.59013968 2.71220303,4.14605366 2.71220303,4.14605366 L2.70375448,10.480347 C2.70375448,10.480347 3.63605095,9.92527792 4.8319419,9.92527792 C6.90394651,9.92527792 6.90394651,10.7713993 8.97595111,10.7713993 C10.2732245,10.7713993 11.5747222,10.0934039 11.5747222,10.0934039 L11.5747222,3.75911049 C11.5747222,3.75911049 10.2728021,4.4358386 8.97637353,4.4358386 L8.97637353,4.43626102 Z" id="形状"></path>
                    </g>
                </g>
            </g>
        </g>
    </g>
</svg>