<?xml version="1.0" encoding="UTF-8"?>
<svg width="16px" height="16px" viewBox="0 0 16 16" version="1.1" xmlns="http://www.w3.org/2000/svg" xmlns:xlink="http://www.w3.org/1999/xlink">
    <title>质检信息</title>
    <g id="质检信息" stroke="none" stroke-width="1" fill="none" fill-rule="evenodd">
        <g id="编组" transform="translate(3.000000, 3.000000)" fill="#000000" fill-rule="nonzero">
            <path d="M4.97159091,0.68753683 L9.23295455,2.47626451 L9.23295455,4.79285714 C9.23295455,8.52870759 5.97100751,9.96015625 4.97159091,10.3100201 C3.97217431,9.96015625 0.710227273,8.52745536 0.710227273,4.79285714 L0.712763799,2.46883705 L4.97159091,0.68753683 M4.97159091,-4.47464344e-07 C4.87647119,-4.47464344e-07 4.7813261,0.0184151786 4.69133015,0.0564486607 L0.429966518,1.84026563 C0.168729708,1.94951674 2.53652597e-05,2.2 2.53652597e-05,2.47745536 L2.53652597e-05,4.79410938 C2.53652597e-05,9.01981585 3.73249797,10.6096596 4.72937804,10.9582589 C4.88574737,11.0138487 5.05743444,11.0138487 5.21380377,10.9582589 C6.21068385,10.6095982 9.94315645,9.01975446 9.94315645,4.79410938 L9.94315645,2.47745536 C9.94315645,2.2 9.77320921,1.94957813 9.5132153,1.84026563 L5.25185166,0.0564486607 C5.16345677,0.0191120906 5.06803444,-4.47464344e-07 4.97159091,-4.47464344e-07 Z" id="形状"></path>
            <polygon id="路径" points="3.22263088 4.88833371 5.05872058 6.6663192 4.42223011 7.28256473 2.58540483 5.50451786 3.2226182 4.88834598"></polygon>
            <polygon id="路径" points="3.7843192 6.6656808 6.90886262 3.63982143 7.54672281 4.25725781 4.42223011 7.28314174 3.7843192 6.66569308"></polygon>
        </g>
    </g>
</svg>