<?xml version="1.0" standalone="no"?><!DOCTYPE svg PUBLIC "-//W3C//DTD SVG 1.1//EN" "http://www.w3.org/Graphics/SVG/1.1/DTD/svg11.dtd"><svg t="1621414360506" class="icon" viewBox="0 0 1024 1024" version="1.1" xmlns="http://www.w3.org/2000/svg" p-id="5665" xmlns:xlink="http://www.w3.org/1999/xlink" width="200" height="200"><defs><style type="text/css"></style></defs><path d="M128 920.490667h741.674667v-115.157334H128v115.2zM369.066667 330.112h336.64V214.954667H369.066667v115.157333z" fill="#0C6B7E" p-id="5666"></path><path d="M556.586667 871.253333l-109.44 35.84-33.28-101.76-128.170667-391.338666L249.6 303.786667l0.768-0.256a47.36 47.36 0 0 0 86.442667-28.330667l22.186666-7.253333 10.026667 30.549333 10.368 31.573333 12.416 38.016 143.232 437.248 21.546667 65.92z" fill="#0C6B7E" p-id="5667"></path><path d="M289.493333 324.266667a47.36 47.36 0 1 1 0.042667-94.72 47.36 47.36 0 0 1 0 94.72z m122.282667-109.312a137.258667 137.258667 0 0 0-122.282667-75.093334A137.258667 137.258667 0 0 0 152.405333 276.906667a137.258667 137.258667 0 0 0 137.088 137.088c40.661333 0 77.226667-17.749333 102.314667-45.952a136.405333 136.405333 0 0 0 34.773333-91.178667c0-22.272-5.333333-43.306667-14.805333-61.952z" fill="#0C6B7E" p-id="5668"></path><path d="M782.805333 435.328c-20.906667 0-41.813333-7.936-57.770666-23.893333l-92.842667-92.842667a81.792 81.792 0 0 1 0-115.541333l92.842667-92.842667a81.792 81.792 0 0 1 115.541333 0l39.082667 39.125333a43.946667 43.946667 0 0 1-62.08 62.08l-34.773334-34.773333-84.181333 84.181333 84.181333 84.181334 37.674667-37.674667a43.946667 43.946667 0 1 1 62.122667 62.08l-42.026667 42.026667c-15.914667 15.957333-36.864 23.893333-57.770667 23.893333z" fill="#0C6B7E" p-id="5669"></path></svg>