<?xml version="1.0" standalone="no"?><!DOCTYPE svg PUBLIC "-//W3C//DTD SVG 1.1//EN" "http://www.w3.org/Graphics/SVG/1.1/DTD/svg11.dtd"><svg t="1621414492776" class="icon" viewBox="0 0 1024 1024" version="1.1" xmlns="http://www.w3.org/2000/svg" p-id="5666" xmlns:xlink="http://www.w3.org/1999/xlink" width="200" height="200"><defs><style type="text/css"></style></defs><path d="M426.666667 362.666667a128 128 0 1 0 0-256 128 128 0 0 0 0 256z m378.453333-10.666667h-180.906667a16.213333 16.213333 0 0 0-16.213333 16.213333v122.453334h213.333333V368.213333a16.213333 16.213333 0 0 0-16.213333-16.213333zM416 384a205.013333 205.013333 0 0 0-184.533333 106.666667h369.066666A205.013333 205.013333 0 0 0 416 384zM938.666667 576v1.066667c25.898667 29.098667 40.149333 66.688 40.106666 105.6a160.213333 160.213333 0 0 1-160 160h-597.333333c-118.613333 0-207.146667-129.066667-132.693333-254.08a138.453333 138.453333 0 0 1 119.04-65.706667h614.613333A158.976 158.976 0 0 1 938.666667 576zM351.061333 726.186667a85.333333 85.333333 0 0 0-71.168-132.48h-2.133333a85.333333 85.333333 0 1 0 73.301333 132.48z m134.485334 30.72c10.837333 4.992 22.613333 7.552 34.56 7.466666a85.333333 85.333333 0 1 0-64.426667-29.44 85.333333 85.333333 0 0 0 29.866667 21.973334z m226.944-6.912a85.333333 85.333333 0 1 0 94.805333-141.952 85.333333 85.333333 0 0 0-94.805333 141.952z" fill="#1C879C" p-id="5667"></path></svg>