<?xml version="1.0" encoding="UTF-8"?>
<svg width="10px" height="12px" viewBox="0 0 10 12" version="1.1" xmlns="http://www.w3.org/2000/svg" xmlns:xlink="http://www.w3.org/1999/xlink">
    <title>排序_正常</title>
    <g id="模具监控" stroke="none" stroke-width="1" fill="none" fill-rule="evenodd">
        <g id="画板" transform="translate(-379.000000, -210.000000)" fill="#AAADBA" fill-rule="nonzero">
            <g id="编组备份" transform="translate(379.000000, 210.000000)">
                <path d="M5.22457243,2.06430776 L7.84922441,4.63661801 C7.99920452,4.80810536 7.99920452,5.06533639 7.92421446,5.23682374 C7.8492244,5.32256741 7.77423434,5.40831108 7.62425423,5.40831108 L2.37495028,5.40831108 C2.14998011,5.40831108 2,5.23682374 2,4.97959271 C2,4.89384903 2,4.72236168 2.07499006,4.63661801 L4.69964203,2.06430776 C4.9246122,1.97856408 5.07459231,1.97856408 5.22457243,2.06430776 Z" id="路径"></path>
                <path d="M5.22457243,10.4710397 L7.84922441,7.89872943 C7.99920452,7.72724208 7.99920452,7.47001105 7.92421446,7.2985237 C7.8492244,7.21278002 7.77423434,7.12703635 7.62425423,7.12703635 L2.37495028,7.12703635 C2.14998011,7.12703635 2,7.29852371 2,7.55575472 C2,7.6414984 2,7.81298575 2.07499006,7.89872943 L4.69964203,10.4710397 C4.9246122,10.5567834 5.07459231,10.5567834 5.22457243,10.4710397 L5.22457243,10.4710397 Z" id="路径"></path>
            </g>
        </g>
    </g>
</svg>