<?xml version="1.0" encoding="UTF-8"?>
<svg width="24px" height="24px" viewBox="0 0 24 24" version="1.1" xmlns="http://www.w3.org/2000/svg" xmlns:xlink="http://www.w3.org/1999/xlink">
    <title>删除</title>
    <g id="删除" stroke="none" stroke-width="1" fill="none" fill-rule="evenodd">
        <g id="锁_锁定"></g>
        <path d="M5.14285715,6.40909091 L18.8571428,6.40909091 L18.8571428,21.1818182 L5.14285715,21.1818182 L5.14285715,6.40909091 Z M7.42857142,8.68181818 L7.42857142,18.9090909 L16.5714286,18.9090909 L16.5714286,8.68181818 L7.42857142,8.68181818 Z M8.57142858,10.9545454 L10.8571428,10.9545454 L10.8571428,16.6363636 L8.57142858,16.6363636 L8.57142858,10.9545454 Z M13.1428572,10.9545454 L15.4285714,10.9545454 L15.4285714,16.6363636 L13.1428572,16.6363636 L13.1428572,10.9545454 Z M4,6.40909091 L20,6.40909091 L20,8.68181818 L4,8.68181818 L4,6.40909091 Z M8.57142858,3 L15.4285714,3 L15.4285714,5.27272727 L8.57142858,5.27272727 L8.57142858,3 L8.57142858,3 Z" id="形状" fill="#999999" fill-rule="nonzero"></path>
    </g>
</svg>