<?xml version="1.0" encoding="UTF-8"?>
<svg width="32px" height="32px" viewBox="0 0 32 32" version="1.1" xmlns="http://www.w3.org/2000/svg" xmlns:xlink="http://www.w3.org/1999/xlink">
    <title>检验项</title>
    <g id="检验项" stroke="none" stroke-width="1" fill="none" fill-rule="evenodd">
        <g id="编组" transform="translate(6.000000, 6.000000)" fill="#1C879C" fill-rule="nonzero">
            <path d="M13.1343236,14.0667163 C14.6569388,12.1052104 14.3923296,9.29796169 12.5300086,7.65551745 C10.6676875,6.01307321 7.84937902,6.10139182 6.09355121,7.85721963 C4.33772339,9.61304745 4.24940478,12.431356 5.89184902,14.293677 C7.53429327,16.155998 10.3415419,16.4206072 12.3030478,14.897992 L13.9497263,16.5446704 C14.0973303,16.6974962 14.3159096,16.7587872 14.5214531,16.7049863 C14.7269966,16.6511853 14.8875169,16.4906651 14.9413179,16.2851216 C14.9951188,16.0795781 14.9338278,15.8609987 14.781002,15.7133947 L13.1343236,14.0667163 L13.1343236,14.0667163 Z M0.0126304495,2.95207781 L18.8250937,2.95207781 C19.4744585,2.95207781 20.0008726,3.47849199 20.0008726,4.12785677 L20.0008726,18.8250937 C20.0008726,19.4744585 19.4744585,20.0008726 18.8250937,20.0008726 L1.18840938,20.0008726 C0.539044615,20.0008726 0.0126304495,19.4744585 0.0126304495,18.8250937 L0.0126304495,2.95207781 Z M1.18840938,0.0126304495 L8.43885031,0.0126304495 C8.69325385,0.0126304495 8.94079485,0.0951440991 9.14431768,0.247786217 L11.1825305,1.77629888 L0.0126304495,1.77629888 L0.0126304495,1.18840938 C0.0126304495,0.539044615 0.539044615,0.0126304495 1.18840938,0.0126304495 Z M9.41886208,14.7098674 C7.47076772,14.7098674 5.89152521,13.1306248 5.89152521,11.1825305 C5.89152521,9.23443613 7.47076772,7.65519362 9.41886208,7.65519362 C11.3669564,7.65519362 12.9461989,9.23443613 12.9461989,11.1825305 C12.9461989,13.1306248 11.3669564,14.7098674 9.41886208,14.7098674 Z" id="形状"></path>
        </g>
    </g>
</svg>