<?xml version="1.0" encoding="UTF-8"?>
<svg width="32px" height="32px" viewBox="0 0 32 32" version="1.1" xmlns="http://www.w3.org/2000/svg" xmlns:xlink="http://www.w3.org/1999/xlink">
    <title>图标_检验组</title>
    <defs>
        <polygon id="path-1" points="0 0.0432098765 9.94935802 0.0432098765 9.94935802 22.5925556 0 22.5925556"></polygon>
        <polygon id="path-3" points="0.0728641975 0.0432345679 10.0222222 0.0432345679 10.0222222 22.5925926 0.0728641975 22.5925926"></polygon>
        <polygon id="path-5" points="0 0.0432098765 19.8987401 0.0432098765 19.8987401 22.5925556 0 22.5925556"></polygon>
    </defs>
    <g id="图标_检验组" stroke="none" stroke-width="1" fill="none" fill-rule="evenodd">
        <g id="编组" transform="translate(6.000000, 5.000000)">
            <g transform="translate(0.000000, 0.080247)">
                <mask id="mask-2" fill="white">
                    <use xlink:href="#path-1"></use>
                </mask>
                <g id="Clip-2"></g>
                <path d="M1.67404938,5.77033333 C1.34071605,12.5777407 3.97540741,17.4839136 9.63454321,20.6110741 L9.86293827,20.7345309 L9.90367901,20.7135432 C9.91849383,20.7049012 9.93454321,20.6962593 9.94935802,20.6876173 L9.94935802,22.5518148 L9.87158025,22.5925556 L9.4925679,22.3987284 C2.71491358,18.9332963 -0.451876543,13.182679 0.0518271605,5.29625926 L0.0789876543,4.91848148 L0.117382716,4.42959259 L9.94935802,0.0431728395 L9.94935802,1.84440741 L1.68762963,5.53082716 L1.67404938,5.77033333 Z" id="Fill-1" fill="#000000" mask="url(#mask-2)"></path>
            </g>
            <g transform="translate(9.876543, 0.080247)">
                <mask id="mask-4" fill="white">
                    <use xlink:href="#path-3"></use>
                </mask>
                <g id="Clip-4"></g>
                <path d="M0.529654321,22.3987901 L0.150641975,22.5926173 L0.0728641975,22.5518765 L0.0728641975,20.687679 C0.0876790123,20.696321 0.103728395,20.704963 0.11854321,20.7136049 L0.159283951,20.7345926 L0.387679012,20.6111358 C6.04681481,17.4839753 8.68150617,12.5778025 8.34817284,5.77039506 L8.33459259,5.53088889 L0.0728641975,1.84446914 L0.0728641975,0.0432345679 L9.90483951,4.42965432 L9.94323457,4.91854321 L9.97039506,5.29632099 C10.4740988,13.1827407 7.30730864,18.933358 0.529654321,22.3987901" id="Fill-3" fill="#000000" mask="url(#mask-4)"></path>
            </g>
            <path d="M12.042,9.86666667 C12.042,11.3839506 10.8111358,12.6135802 9.29508642,12.6135802 L9.29138272,12.6135802 C7.7765679,12.6135802 6.54681481,11.382716 6.54681481,9.86666667 C6.54817284,8.34938272 7.77780247,7.12098765 9.29508642,7.12222129 C10.8111358,7.12222129 12.042,8.35061728 12.042,9.86666667" id="Fill-5" fill="#1C879C"></path>
            <g transform="translate(0.000000, 0.080247)">
                <mask id="mask-6" fill="white">
                    <use xlink:href="#path-5"></use>
                </mask>
                <g id="Clip-8"></g>
                <path d="M5.92835802,12.1592222 C4.61860494,10.299963 5.06292593,7.73082716 6.92354321,6.41971605 C7.61737037,5.93082716 8.44576543,5.6678642 9.29514815,5.6678642 C11.5703333,5.6678642 13.4160123,7.51107407 13.4160123,9.78638272 C13.4160123,10.6431728 13.1481111,11.4802099 12.6505802,12.1777407 L15.7518148,14.8036667 L14.9308272,16.0147778 L11.6690988,13.1555185 C9.8087284,14.4641605 7.23823457,14.019716 5.92835802,12.1592222 M19.8468765,5.29625926 L19.8198395,4.91848148 L19.7814444,4.42959259 L9.94934568,0.0431728395 L0.11737037,4.42959259 L0.0789753086,4.91848148 L0.0518148148,5.29625926 C-0.451888889,13.182679 2.71490123,18.9332963 9.49255556,22.3987284 L9.8715679,22.5925556 L9.94934568,22.5518148 L10.0271235,22.5925556 L10.4062593,22.3987284 C17.1839136,18.9332963 20.3505802,13.182679 19.8468765,5.29625926" id="Fill-7" fill="#1C879C" mask="url(#mask-6)"></path>
            </g>
        </g>
    </g>
</svg>