<?xml version="1.0" encoding="UTF-8"?>
<svg width="14px" height="14px" viewBox="0 0 14 14" version="1.1" xmlns="http://www.w3.org/2000/svg" xmlns:xlink="http://www.w3.org/1999/xlink">
    <title>检验单号</title>
    <defs>
        <polygon id="path-1" points="0 0.0681872727 8.93181273 0.0681872727 8.93181273 10.6363636 0 10.6363636"></polygon>
        <polygon id="path-3" points="-7.99360578e-16 11.5912636 8.93184545 11.5912636 8.93184545 -1.03916875e-14 -7.99360578e-16 -1.03916875e-14"></polygon>
    </defs>
    <g id="页面-1" stroke="none" stroke-width="1" fill="none" fill-rule="evenodd">
        <g id="IQC" transform="translate(-43.000000, -273.000000)">
            <g id="编组备份-3" transform="translate(43.000000, 273.000000)">
                <g id="编组-8" transform="translate(2.000000, 1.000000)">
                    <g id="编组" transform="translate(0.000000, 0.954900)">
                        <mask id="mask-2" fill="white">
                            <use xlink:href="#path-1"></use>
                        </mask>
                        <g id="Clip-2"></g>
                        <path d="M7.90908545,0.0681872727 L7.22729455,0.0681872727 L7.22729455,1.09058727 L7.90908545,1.09091455 L7.90908545,9.61366909 L4.43181273,9.61366909 L3.52003091,9.61366909 L1.02269455,9.61366909 L1.02269455,1.09091455 L1.70456727,1.09058727 L1.70456727,0.0681872727 L1.02269455,0.0681872727 C0.457903636,0.0681872727 -3.27272727e-05,0.526041818 -3.27272727e-05,1.09091455 L-3.27272727e-05,9.61366909 C-3.27272727e-05,10.17846 0.457903636,10.6363964 1.02269455,10.6363964 L3.52003091,10.6363964 L4.43181273,10.6363964 L7.90908545,10.6363964 C8.47395818,10.6363964 8.93181273,10.17846 8.93181273,9.61366909 L8.93181273,1.09091455 C8.93181273,0.526041818 8.47395818,0.0681872727 7.90908545,0.0681872727" id="Fill-1" fill="#999999" mask="url(#mask-2)"></path>
                    </g>
                    <g id="编组-4">
                        <mask id="mask-4" fill="white">
                            <use xlink:href="#path-3"></use>
                        </mask>
                        <g id="Clip-4"></g>
                        <polygon id="Fill-3" fill="#999999" mask="url(#mask-4)" points="2.04545455 7.50035455 5.11363636 7.50035455 5.11363636 6.47762727 2.04545455 6.47762727"></polygon>
                        <polygon id="Fill-5" fill="#999999" mask="url(#mask-4)" points="6.81820364 4.43216455 6.81820364 4.43216455 2.04550364 4.43216455 2.04550364 5.45489182 6.81820364 5.45489182"></polygon>
                        <path d="M3.40879091,1.70509091 L5.45424545,1.70509091 L5.45424545,1.02272727 L3.40879091,1.02272727 L3.40879091,1.70509091 Z M3.40879091,2.72781818 L5.45424545,2.72781818 C6.01960909,2.72781818 6.47697273,2.26963636 6.47697273,1.70509091 L6.47697273,1.02272727 C6.47697273,0.458181818 6.01960909,-1.25899291e-14 5.45424545,-1.25899291e-14 L3.40879091,-1.25899291e-14 C2.84424545,-1.25899291e-14 2.38606364,0.458181818 2.38606364,1.02272727 L2.38606364,1.70509091 C2.38606364,2.26963636 2.84424545,2.72781818 3.40879091,2.72781818 L3.40879091,2.72781818 Z" id="Fill-6" fill="#999999" mask="url(#mask-4)"></path>
                    </g>
                </g>
            </g>
        </g>
    </g>
</svg>