<?xml version="1.0" encoding="UTF-8"?>
<svg width="32px" height="32px" viewBox="0 0 32 32" version="1.1" xmlns="http://www.w3.org/2000/svg" xmlns:xlink="http://www.w3.org/1999/xlink">
    <title>图标_物料描述</title>
    <g id="图标_物料描述" stroke="none" stroke-width="1" fill="none" fill-rule="evenodd">
        <g id="编组" transform="translate(6.000000, 6.000000)" fill="#1C879C" fill-rule="nonzero">
            <path d="M0.566610848,11.3073656 L9.01607087,15.3581361 C9.58428033,15.7334745 10.3216534,15.7334745 10.8898629,15.3581361 L19.3393229,11.3073656 C19.7568256,11.0986142 19.9059337,10.1244412 19.9059337,9.6025628 L18.5788715,10.3083412 L9.9405412,14.547982 L1.32706225,10.3083412 C1.35688387,10.3083412 0.566610848,9.94551147 0,9.6025628 C0,10.1145007 0.119286494,11.0538818 0.566610848,11.3073656 Z M0.566610848,7.06275452 L9.01607087,11.1135251 C9.58428033,11.4888634 10.3216534,11.4888634 10.8898629,11.1135251 L19.3393229,7.06275452 C19.9606067,6.75459774 19.9804878,5.43747603 19.3393229,5.07464628 L10.8799223,0.308156777 C10.3221365,-0.100402975 9.56391619,-0.100402975 9.00613032,0.308156777 L0.556670307,5.06470574 C-0.074554059,5.50705982 -0.0944351414,6.68998423 0.566610848,7.06275452 Z M9.9405412,18.7925931 L1.32706225,14.547982 C1.35688387,14.547982 0.566610848,14.1851523 0,13.8422036 C0,14.3392307 0.119286494,15.2935226 0.566610848,15.5470064 L9.01607087,19.597777 C9.58428033,19.9731153 10.3216534,19.9731153 10.8898629,19.597777 L19.3393229,15.5470064 C19.7568256,15.3382551 19.9059337,14.364082 19.9059337,13.8422036 L18.5788715,14.547982 L9.9405412,18.7925931 Z" id="形状"></path>
        </g>
    </g>
</svg>