<?xml version="1.0" encoding="UTF-8"?>
<svg width="32px" height="32px" viewBox="0 0 32 32" version="1.1" xmlns="http://www.w3.org/2000/svg" xmlns:xlink="http://www.w3.org/1999/xlink">
    <title>判定结果</title>
    <g id="判定结果" stroke="none" stroke-width="1" fill="none" fill-rule="evenodd">
        <g id="编组" transform="translate(6.000000, 6.000000)" fill="#1C879C" fill-rule="nonzero">
            <path d="M19.3194067,7.77049365 C19.6898777,7.77049365 19.9353487,8.01505887 19.9353487,8.3837183 L19.9489357,19.3275589 C19.9489357,19.6962183 19.7025589,19.9407835 19.3348053,19.9407835 L0.636435695,19.9407835 C0.267776282,19.9407835 0.0204936523,19.6962183 0.0204936523,19.3275589 L0.0204936523,7.26596467 C0.0204936523,6.89911685 0.123754522,6.65274004 0.492413956,6.65274004 L1.11469657,6.65274004 L1.11469657,1.12103713 C1.11469657,0.0141530868 1.11016757,0.0141530868 2.24694293,0.0141530868 L15.5023777,0.0141530868 C16.6310009,0.0141530868 16.6074502,0.0141530868 16.6074502,1.12103713 L16.6074502,3.33752265 L17.7206748,3.33752265 C18.8302763,3.33752265 18.84024,3.31306613 18.8275589,4.47701539 L18.8302763,7.77049365 L19.3194067,7.77049365 Z M17.7206748,7.77049365 L17.7206748,4.44350091 L4.43444293,4.44350091 L4.43444293,6.65364583 L7.09295743,6.65364583 C7.27774004,6.65364583 7.46252265,6.71433424 7.64639946,6.77592843 L9.61469657,7.64821104 C9.80038498,7.70799365 9.98335598,7.77049365 10.1672328,7.77049365 L17.719769,7.77049365 L17.7206748,7.77049365 Z M2.21433424,1.12103713 L2.21433424,6.65364583 L3.32484148,6.65364583 L3.32484148,4.49784874 C3.32484148,3.33299367 3.29495017,3.34205163 4.34476902,3.34205163 L15.5041893,3.34205163 L15.5041893,1.12103713 L2.21342843,1.12103713 L2.21433424,1.12103713 Z M3.75056613,12.1898777 L8.44984148,12.1898777 C8.68263133,12.1898777 8.86650815,11.920856 8.86650815,11.6201313 C8.86650815,11.3194067 8.68353713,11.0820879 8.44984148,11.0820879 L3.75147191,11.0820879 C3.51958785,11.0820879 3.33661685,11.3511096 3.33661685,11.65274 C3.33661685,11.9516531 3.51958787,12.1898777 3.75147191,12.1898777 L3.75056613,12.1898777 Z M3.76324728,14.4045516 C3.53136322,14.4045516 3.349298,14.6536458 3.349298,14.9561821 C3.349298,15.2550951 3.53045741,15.5114357 3.76324728,15.5114357 L12.849298,15.5114357 C13.0820878,15.5114357 13.2659647,15.2759285 13.2659647,14.974298 C13.2659647,14.6726676 13.0820879,14.4045516 12.849298,14.4045516 L3.76415309,14.4045516 L3.76324728,14.4045516 Z" id="形状"></path>
        </g>
    </g>
</svg>