<?xml version="1.0" encoding="UTF-8"?>
<svg width="32px" height="32px" viewBox="0 0 32 32" version="1.1" xmlns="http://www.w3.org/2000/svg" xmlns:xlink="http://www.w3.org/1999/xlink">
    <title>图标_工序</title>
    <g id="图标_工序" stroke="none" stroke-width="1" fill="none" fill-rule="evenodd">
        <path d="M26.0159296,9.27257962 C26.0089358,9.26558591 24.3479277,10.9073613 21.0416473,14.206648 L18.7214812,11.8899787 L23.6642917,6.94716825 C21.0520683,5.37703096 17.7057068,5.79117747 15.5550752,7.95076684 C13.870616,9.63547008 13.2110484,12.089861 13.8241299,14.3919815 L13.8730859,14.5755666 L6.12754277,22.3176129 C5.95748574,22.4882027 5.95748574,22.7642188 6.12754277,22.9348086 L9.9915722,26.798838 C10.162162,26.968895 10.4381781,26.968895 10.6087679,26.798838 L18.3473173,19.0585401 L18.5309024,19.1074962 C20.8351889,19.7243862 23.2935245,19.0644751 24.9791108,17.3765509 C27.1318861,15.2282345 27.5583655,11.8955102 26.0159296,9.27432805 L26.0159296,9.27257962 Z" id="路径" fill="#1C879C" fill-rule="nonzero"></path>
    </g>
</svg>