<?xml version="1.0" encoding="UTF-8"?>
<svg width="12px" height="12px" viewBox="0 0 12 12" version="1.1" xmlns="http://www.w3.org/2000/svg" xmlns:xlink="http://www.w3.org/1999/xlink">
    <title>供应商</title>
    <g id="页面-1" stroke="none" stroke-width="1" fill="none" fill-rule="evenodd">
        <g id="IQC" transform="translate(-394.000000, -289.000000)" fill="#999999" fill-rule="nonzero">
            <g id="编组-4" transform="translate(224.000000, 242.000000)">
                <g id="编组" transform="translate(170.000000, 47.000000)">
                    <path d="M7.75115214,1.01100353 C8.2370895,1.01100353 8.63101958,1.4049336 8.63101958,1.89087097 L8.63101958,8.63652133 L7.75115214,8.63652133 L7.75115214,1.89087097 L1.8853692,1.89087097 L1.8853692,9.51638877 L10.0974653,9.51638877 L10.0974653,3.65060585 L9.21759787,3.65060585 L9.21759787,2.77073841 L10.0974653,2.77073841 C10.5834027,2.77073841 10.9773328,3.16466848 10.9773328,3.65060585 L10.9773328,9.51638877 C10.9773328,10.0023261 10.5834027,10.3962562 10.0974653,10.3962562 L1.8853692,10.3962562 C1.39943183,10.3962562 1.00550176,10.0023261 1.00550176,9.51638877 L1.00550176,1.89087097 C1.00550176,1.4049336 1.39943183,1.01100353 1.8853692,1.01100353 L7.75115214,1.01100353 Z M5.11154981,5.41034073 L5.11154981,6.29020817 L2.76523664,6.29020817 L2.76523664,5.41034073 L5.11154981,5.41034073 Z M6.8712847,3.65060585 L6.8712847,4.53047329 L2.76523664,4.53047329 L2.76523664,3.65060585 L6.8712847,3.65060585 Z" id="形状"></path>
                </g>
            </g>
        </g>
    </g>
</svg>