<?xml version="1.0" encoding="UTF-8"?>
<svg width="32px" height="32px" viewBox="0 0 32 32" version="1.1" xmlns="http://www.w3.org/2000/svg" xmlns:xlink="http://www.w3.org/1999/xlink">
    <title>图标_供应商</title>
    <g id="图标_供应商" stroke="none" stroke-width="1" fill="none" fill-rule="evenodd">
        <g id="编组">
            <path d="M21.5760707,20.7548742 L16.5769038,17.7887019 L16.6195634,17.7667055 C17.6673888,17.2541243 18.7272121,16.7182136 19.7523746,16.2002999 L19.9483419,16.1023163 C20.1029828,16.0236627 20.4622563,15.8276954 20.662223,15.7170472 C20.7509385,15.667121 20.8510421,15.6409471 20.9528412,15.6410595 C21.0487495,15.6415842 21.143222,15.6644037 21.2287952,15.7077154 L21.814031,16.0056657 C21.9660057,16.0843193 22.1219797,16.1629728 22.2766206,16.2409598 C22.7321002,16.4746987 23.1880242,16.7073266 23.6443926,16.9388435 C23.9203466,17.0808199 24.1996334,17.2194634 24.4589235,17.3494418 L24.6282286,17.4340943 L25.2761206,17.7607065 C25.2967839,17.772038 25.3214464,17.7827029 25.3547742,17.796034 C25.5391621,17.840534 25.6757346,17.9960453 25.6960978,18.1846359 C25.698911,18.3789575 25.5714455,18.551186 25.3847692,18.6052325 L25.3687719,18.6112315 L25.310115,18.6405599 C24.2049658,19.2684553 22.9031828,20.0069988 21.5760707,20.7548742 L21.5760707,20.7548742 Z" id="路径" fill="#1C879C" fill-rule="nonzero"></path>
            <path d="M25.9966672,22.887852 C26.0064587,23.1028465 25.8860498,23.3026517 25.6913848,23.3944343 C24.1958727,24.2348975 22.7018969,25.0780917 21.2094651,25.9240127 C21.1314607,25.9705853 21.0429653,25.9967212 20.9521746,26 C20.8664608,25.998661 20.7828495,25.9732543 20.7108815,25.9266789 C19.3394622,25.0939633 17.965239,24.2658744 16.5882353,23.4424263 C16.3425513,23.3206623 16.1953878,23.0619395 16.2162973,22.7885352 C16.2296284,21.3421096 16.2296284,19.8763539 16.2162973,18.4305949 L21.3487752,21.4754208 C21.3534411,22.3312781 21.3534411,23.1978004 21.352108,24.0156641 L21.352108,24.9488419 C21.7580403,24.7208798 22.1713048,24.4862523 22.5245792,24.2876187 L22.9798367,24.0303283 C23.6777204,23.6363939 24.4015997,23.2304616 25.1128145,22.8305282 C25.196134,22.7852025 25.2207965,22.7518747 25.2194634,22.6305616 C25.2154641,22.1046492 25.2154641,21.5640727 25.2154641,21.0494918 L25.2154641,19.9196801 C25.1998344,19.7758571 25.2425779,19.6317781 25.334111,19.5197467 C25.405222,19.4507377 25.5017586,19.4142951 25.6007332,19.4190968 L25.6107315,19.4190968 C25.7457114,19.413528 25.8716275,19.4868924 25.9333444,19.6070655 C25.9781641,19.7032839 25.9987597,19.8090077 25.9933345,19.9150142 L25.9933345,20.2816197 C25.9933345,21.1354774 25.9893351,22.0186636 25.9980003,22.8891851 L25.9966672,22.887852 Z" id="路径" fill="#1C879C" fill-rule="nonzero"></path>
            <path d="M19.2011331,10.5965672 C19.2167498,12.3742415 18.5422092,14.0886689 17.3194468,15.3791035 C17.1308115,15.5557407 16.4529245,16.1789702 15.6437261,16.8915181 C15.1244603,17.2295324 14.7738847,17.7728518 14.6798867,18.3852691 C14.6932178,19.8276954 14.6565572,21.2654558 14.6432261,22.7045492 C14.6367316,22.8865872 14.6405147,23.0688466 14.6545576,23.2504583 C14.7172138,23.8463589 15.6770538,24.3756041 15.6770538,24.3756041 C15.3657724,24.3756041 14.0353274,24.3702716 13.7333778,24.3649392 C9.35144143,24.2869522 6.00133311,23.8043659 6.00133311,22.0819863 C6.00133311,20.5362439 8.71688051,18.4692551 12.4475921,17.7493751 C12.9408542,17.6168001 13.3227461,17.2260773 13.444012,16.7299138 C13.5652779,16.2337503 13.406664,15.710924 13.0301616,15.3657724 L13.0388269,15.3657724 C11.8234056,14.0768906 11.1532531,12.3680732 11.1684719,10.5965672 C11.1684719,7.73971004 12.9615064,6.00133311 15.1844693,6.00133311 C17.4074321,6.00133311 19.2011331,7.74170971 19.2011331,10.5965672 Z" id="路径" fill="#1C879C" fill-rule="nonzero"></path>
            <rect id="矩形" x="0" y="0" width="32" height="32"></rect>
        </g>
    </g>
</svg>