<?xml version="1.0" encoding="UTF-8"?>
<svg width="14px" height="14px" viewBox="0 0 14 14" version="1.1" xmlns="http://www.w3.org/2000/svg" xmlns:xlink="http://www.w3.org/1999/xlink">
    <title>图标_工序</title>
    <g id="图标_工序" stroke="none" stroke-width="1" fill="none" fill-rule="evenodd">
        <g id="编组" transform="translate(2.000000, 2.000000)" fill="#999999" fill-rule="nonzero">
            <path d="M9.4663039,1.56622167 C9.46010543,1.55502542 9.45142757,1.54382916 9.44151002,1.53512096 C9.37952532,1.47291952 9.2791101,1.47291952 9.21712539,1.53512096 L7.08113252,3.67858234 L6.23938024,2.83388688 L8.37661282,0.689181466 C8.38653037,0.679229237 8.39396853,0.669277008 8.4014067,0.65808075 C8.44603568,0.582195001 8.4212418,0.485160766 8.34562046,0.440375734 C7.12824089,-0.28116089 5.53399432,-0.115705078 4.48645283,0.934255113 C3.65585781,1.76775432 3.38064572,2.94958155 3.66205628,4.01198202 L0.0297526576,7.656986 C-0.00743816441,7.69430686 -0.00495877627,7.75526427 0.0334717398,7.79382916 L2.13723257,9.9049458 C2.17566309,9.94351069 2.23764779,9.94599874 2.27359892,9.90867788 L5.90466284,6.26491793 C6.96460127,6.54855647 8.14231064,6.27362613 8.97414536,5.4388829 C10.0204471,4.38767868 10.1853265,2.78785782 9.4663039,1.56622167 Z M8.34314108,4.80442828 C7.62287882,5.52720893 6.5418656,5.66654014 5.68275761,5.22242191 L5.57366453,5.33189643 L5.57242483,5.33065241 L2.17566309,8.74053497 L1.19382539,7.75526427 L4.04636144,4.89275432 C4.04636144,4.89275432 4.04636144,4.89399835 4.04760113,4.89399835 L4.7021596,4.23715121 C4.25958882,3.37503935 4.39843455,2.29024635 5.11869681,1.5674657 C5.60465688,1.07980647 6.26045504,0.854637279 6.90385626,0.901910368 L5.25630285,2.55398043 C5.10134109,2.70948401 5.10134109,2.96202183 5.25630285,3.11752542 L6.79972196,4.6663411 C6.95468372,4.82184468 7.20634162,4.82184468 7.36130337,4.6663411 L9.0076171,3.01427104 C9.05348578,3.65867788 8.82910115,4.31801307 8.34314108,4.80442828 Z" id="形状"></path>
        </g>
    </g>
</svg>