<?xml version="1.0" encoding="UTF-8"?>
<svg width="32px" height="32px" viewBox="0 0 32 32" version="1.1" xmlns="http://www.w3.org/2000/svg" xmlns:xlink="http://www.w3.org/1999/xlink">
    <title>图标_数量</title>
    <g id="图标_数量" stroke="none" stroke-width="1" fill="none" fill-rule="evenodd">
        <g id="编组" transform="translate(6.000000, 8.000000)" fill="#1C879C" fill-rule="nonzero">
            <path d="M6.23833955,4.97512439 L6.23833955,9.95024875 L0.0194340893,9.95024875 L0.0194340893,4.97512439 L6.23833955,4.97512439 L6.23833955,4.97512439 Z M6.23833955,11.1940299 L6.23833955,14.9253731 L0.0194340893,14.9253731 L0.0194340893,11.1940299 L6.23833955,11.1940299 Z M12.457245,0 L12.457245,3.73134328 L7.48212066,3.73134328 L7.48212066,0 L12.457245,0 Z M12.457245,4.97512439 L12.457245,8.70646767 L7.48212066,8.70646767 L7.48212066,4.97512439 L12.457245,4.97512439 Z M12.457245,9.95024875 L12.457245,14.9253731 L7.48212066,14.9253731 L7.48212066,9.95024875 L12.457245,9.95024875 Z M19.9199316,1.2437811 L19.9199316,4.97512439 L13.7010261,4.97512439 L13.7010261,1.2437811 L19.9199316,1.2437811 L19.9199316,1.2437811 Z M19.9199316,6.21890546 L19.9199316,9.95024875 L13.7010261,9.95024875 L13.7010261,6.21890546 L19.9199316,6.21890546 Z M19.9199316,11.1940299 L19.9199316,14.9253731 L13.7010261,14.9253731 L13.7010261,11.1940299 L19.9199316,11.1940299 Z" id="形状"></path>
        </g>
    </g>
</svg>