<?xml version="1.0" encoding="UTF-8"?>
<svg width="32px" height="32px" viewBox="0 0 32 32" version="1.1" xmlns="http://www.w3.org/2000/svg" xmlns:xlink="http://www.w3.org/1999/xlink">
    <title>处理结果</title>
    <g id="处理结果" stroke="none" stroke-width="1" fill="none" fill-rule="evenodd">
        <g id="编组" transform="translate(6.000000, 6.000000)" fill="#1C879C" fill-rule="nonzero">
            <path d="M17.8844105,0.00665838068 L2.01305043,0.00665838068 C0.905539773,0.00665838068 0.00887784091,0.903320313 0.00887784091,2.01083097 L0.00887784091,17.8733132 C0.00887784091,18.9808239 0.905539773,19.8774858 2.01305043,19.8774858 L17.88663,19.8774858 C18.9941406,19.8774858 19.8908026,18.9808239 19.8908026,17.8733132 L19.8908026,2.01305043 C19.8908026,0.905539773 18.9919212,0.00665838068 17.8844105,0.00665838068 Z M5.53533381,15.986772 C4.15482955,15.986772 3.02734375,14.8637251 3.02734375,13.4832209 C3.02734375,12.1004972 4.15039062,10.9818892 5.53533381,10.9818892 C6.92027699,10.9818892 8.0411044,12.1004972 8.0411044,13.4765625 C8.0411044,14.8592862 6.91805753,15.986772 5.53533381,15.986772 Z M8.84011009,4.93386009 L5.81942472,7.95010653 C5.67294034,8.09881037 5.47762784,8.16539418 5.2845348,8.15429688 C5.09366122,8.16539418 4.89834872,8.09881037 4.74964489,7.95010653 L3.46235795,6.6517223 C3.18936435,6.37872869 3.18936435,5.92373935 3.46235795,5.65074574 C3.73535156,5.37775213 4.19034091,5.37775213 4.46555398,5.65074574 L5.28675426,6.46972656 L7.83913352,3.91956676 C8.11212713,3.64657315 8.56711648,3.64657315 8.84232955,3.91956676 C9.11310369,4.20365767 9.11310369,4.66086648 8.84011009,4.93386009 L8.84011009,4.93386009 Z M16.237571,14.2689098 L11.2215909,14.2689098 C10.7887962,14.2689098 10.4225852,13.9160156 10.4225852,13.4699041 C10.4225852,13.0371094 10.7887962,12.6708984 11.2215909,12.6708984 L16.237571,12.6708984 C16.6814631,12.6708984 17.0365767,13.0237926 17.0365767,13.4699041 C17.0365767,13.9160156 16.6836825,14.2689098 16.237571,14.2689098 Z M16.237571,7.26873224 L11.2215909,7.26873224 C10.7887962,7.26873224 10.4225852,6.91583807 10.4225852,6.46972656 C10.4225852,6.02583452 10.7887962,5.67294034 11.2215909,5.67294034 L16.237571,5.67294034 C16.6814631,5.67294034 17.0365767,6.02583452 17.0365767,6.47194602 C17.0365767,6.91583807 16.6836825,7.26873224 16.237571,7.26873224 Z" id="形状"></path>
            <path d="M5.53533381,12.3335405 C4.89834872,12.3335405 4.38121449,12.8506747 4.38121449,13.4854403 C4.38121449,14.120206 4.89834872,14.6373402 5.53533381,14.6373402 C6.17231889,14.6373402 6.68723366,14.1135476 6.68723366,13.4765625 C6.68723366,12.8440163 6.17009943,12.3335405 5.53533381,12.3335405 Z" id="路径"></path>
        </g>
    </g>
</svg>