<?xml version="1.0" encoding="UTF-8"?>
<svg width="32px" height="32px" viewBox="0 0 32 32" version="1.1" xmlns="http://www.w3.org/2000/svg" xmlns:xlink="http://www.w3.org/1999/xlink">
    <title>图标_供应商</title>
    <g id="图标_供应商" stroke="none" stroke-width="1" fill="none" fill-rule="evenodd">
        <g id="编组" transform="translate(6.000000, 6.000000)" fill="#1C879C" fill-rule="nonzero">
            <path d="M15.5760707,14.7548742 L10.5769038,11.7887019 L10.6195634,11.7667055 C11.6673888,11.2541243 12.7272121,10.7182136 13.7523746,10.2002999 L13.9483419,10.1023163 C14.1029828,10.0236627 14.4622563,9.82769539 14.662223,9.71704717 C14.7509385,9.66712104 14.8510421,9.64094715 14.9528412,9.64105946 C15.0487495,9.64158422 15.143222,9.66440366 15.2287952,9.70771537 L15.814031,10.0056657 C15.9660057,10.0843193 16.1219797,10.1629728 16.2766206,10.2409598 C16.7321002,10.4746987 17.1880242,10.7073266 17.6443926,10.9388435 C17.9203466,11.0808199 18.1996334,11.2194634 18.4589235,11.3494418 L18.6282286,11.4340943 L19.2761206,11.7607065 C19.2967839,11.772038 19.3214464,11.7827029 19.3547742,11.796034 C19.5391621,11.840534 19.6757346,11.9960453 19.6960978,12.1846359 C19.698911,12.3789575 19.5714455,12.551186 19.3847692,12.6052325 L19.3687719,12.6112315 L19.310115,12.6405599 C18.2049658,13.2684553 16.9031828,14.0069988 15.5760707,14.7548742 L15.5760707,14.7548742 Z" id="路径"></path>
            <path d="M19.9966672,16.887852 C20.0064587,17.1028465 19.8860498,17.3026517 19.6913848,17.3944343 C18.1958727,18.2348975 16.7018969,19.0780917 15.2094651,19.9240127 C15.1314607,19.9705853 15.0429653,19.9967212 14.9521746,20 C14.8664608,19.998661 14.7828495,19.9732543 14.7108815,19.9266789 C13.3394622,19.0939633 11.965239,18.2658744 10.5882353,17.4424263 C10.3425513,17.3206623 10.1953878,17.0619395 10.2162973,16.7885352 C10.2296284,15.3421096 10.2296284,13.8763539 10.2162973,12.4305949 L15.3487752,15.4754208 C15.3534411,16.3312781 15.3534411,17.1978004 15.352108,18.0156641 L15.352108,18.9488419 C15.7580403,18.7208798 16.1713048,18.4862523 16.5245792,18.2876187 L16.9798367,18.0303283 C17.6777204,17.6363939 18.4015997,17.2304616 19.1128145,16.8305282 C19.196134,16.7852025 19.2207965,16.7518747 19.2194634,16.6305616 C19.2154641,16.1046492 19.2154641,15.5640727 19.2154641,15.0494918 L19.2154641,13.9196801 C19.1998344,13.7758571 19.2425779,13.6317781 19.334111,13.5197467 C19.405222,13.4507377 19.5017586,13.4142951 19.6007332,13.4190968 L19.6107315,13.4190968 C19.7457114,13.413528 19.8716275,13.4868924 19.9333444,13.6070655 C19.9781641,13.7032839 19.9987597,13.8090077 19.9933345,13.9150142 L19.9933345,14.2816197 C19.9933345,15.1354774 19.9893351,16.0186636 19.9980003,16.8891851 L19.9966672,16.887852 Z" id="路径"></path>
            <path d="M13.2011331,4.59656725 C13.2167498,6.37424147 12.5422092,8.08866886 11.3194468,9.37910348 C11.1308115,9.5557407 10.4529245,10.1789702 9.64372605,10.8915181 C9.12446026,11.2295324 8.77388473,11.7728518 8.67988668,12.3852691 C8.69321779,13.8276954 8.65655723,15.2654558 8.64322613,16.7045492 C8.63673156,16.8865872 8.64051472,17.0688466 8.65455758,17.2504583 C8.71721381,17.8463589 9.67705383,18.3756041 9.67705383,18.3756041 C9.36577238,18.3756041 8.03532744,18.3702716 7.73337777,18.3649392 C3.35144143,18.2869522 0.00133310547,17.8043659 0.00133310547,16.0819863 C0.00133310547,14.5362439 2.71688051,12.4692551 6.44759207,11.7493751 C6.94085423,11.6168001 7.32274605,11.2260773 7.44401197,10.7299138 C7.5652779,10.2337503 7.40666398,9.71092403 7.03016164,9.36577236 L7.03882686,9.36577236 C5.82340563,8.07689059 5.15325306,6.36807321 5.16847191,4.59656725 C5.16847191,1.73971004 6.96150641,0.00133310547 9.18446926,0.00133310547 C11.4074321,0.00133310547 13.2011331,1.74170971 13.2011331,4.59656725 Z" id="路径"></path>
        </g>
    </g>
</svg>