<?xml version="1.0" encoding="UTF-8"?>
<svg width="32px" height="32px" viewBox="0 0 32 32" version="1.1" xmlns="http://www.w3.org/2000/svg" xmlns:xlink="http://www.w3.org/1999/xlink">
    <title>图标_时间</title>
    <defs>
        <polygon id="path-1" points="0 24 24 24 24 0 0 0"></polygon>
    </defs>
    <g id="图标_时间" stroke="none" stroke-width="1" fill="none" fill-rule="evenodd">
        <g id="编组" transform="translate(4.000000, 4.000000)">
            <path d="M16.1221374,20.790229 C14.8708397,21.3801527 13.4729771,21.7099237 12,21.7099237 C6.64580153,21.7099237 2.29007634,17.3541985 2.29007634,12 C2.29007634,6.64580153 6.64580153,2.29007634 12,2.29007634 C17.3541985,2.29007634 21.7099237,6.64580153 21.7099237,12 C21.7099237,14.2259542 20.9569466,16.2796947 19.6909924,17.9193893 C18.7520611,19.138626 17.5291603,20.1280305 16.1221374,20.790229 M12,0 C5.38351145,0 0,5.38351145 0,12 C0,18.6165802 5.38351145,24 12,24 C13.4473282,24 14.8360305,23.7425954 16.1221374,23.2708397 C18.3664122,22.4473282 20.2983206,20.9716031 21.6879389,19.0735878 C23.1416794,17.0885496 24,14.6427481 24,12 C24,5.38351145 18.6164885,0 12,0" id="Fill-1" fill="#1C879C"></path>
            <mask id="mask-2" fill="white">
                <use xlink:href="#path-1"></use>
            </mask>
            <g id="Clip-4"></g>
            <polygon id="Fill-3" fill="#1C879C" mask="url(#mask-2)" points="9.98473282 13.0076336 12.7328244 13.0076336 12.7328244 5.67938931 9.98473282 5.67938931"></polygon>
            <polygon id="Fill-5" fill="#1C879C" mask="url(#mask-2)" points="9.94895267 12.8997527 11.8921282 10.9565771 17.0739298 16.1383786 15.1307542 18.0815542"></polygon>
        </g>
        <rect id="矩形" x="0" y="0" width="32" height="32"></rect>
    </g>
</svg>