<?xml version="1.0" encoding="UTF-8"?>
<svg width="12px" height="12px" viewBox="0 0 12 12" version="1.1" xmlns="http://www.w3.org/2000/svg" xmlns:xlink="http://www.w3.org/1999/xlink">
    <title>生成对账单</title>
    <g id="对账单" stroke="none" stroke-width="1" fill="none" fill-rule="evenodd">
        <g id="对账单创建" transform="translate(-214.000000, -168.000000)" fill="#FFFFFF" fill-rule="nonzero">
            <g id="Group备份" transform="translate(209.000000, 160.000000)">
                <g id="生成对账单" transform="translate(5.000000, 8.000000)">
                    <path d="M10.1091429,11.9888574 L1.69457143,11.9888574 C1.2480287,11.9890847 0.819709837,11.811797 0.5039564,11.4960436 C0.188202964,11.1802902 0.0109153173,10.7519713 0.0111426367,10.3054286 L0.0111426367,1.89085714 C0.0111426367,0.96 0.792857145,0.0111428555 1.72285714,0.0111428555 L6.42857143,0.0111428555 L6.42857143,0.866571434 L1.72285714,0.866571434 C1.25273641,0.872124618 0.872981757,1.25187926 0.867428566,1.722 L0.852857145,10.3054286 C0.852857145,10.7708571 1.23,11.1471429 1.69457143,11.1471429 L10.278,11.1334286 C10.7425714,11.1334286 11.1334286,10.7425714 11.1334286,10.278 L11.1334286,5.57142857 L11.9888571,5.57142857 L11.9888571,10.2771429 C11.9888571,11.2062857 11.0391429,11.988 10.1091429,11.988 L10.1091429,11.9888574 Z M11.5611429,3.86142857 C11.3177143,3.86142857 11.1325714,3.66428571 11.1325714,3.43285714 L11.1205714,1.38942857 L4.61057143,7.59857143 C4.44,7.76142858 4.16314287,7.76142858 3.99257143,7.59857143 C3.91066838,7.52221105 3.86415984,7.41526347 3.86415984,7.30328572 C3.86415984,7.19130796 3.91066838,7.08436038 3.99257143,7.008 L10.4468571,0.853714289 L8.56628571,0.866571434 C8.41347811,0.866571436 8.27227807,0.785049553 8.19587427,0.652714291 C8.11947047,0.520379028 8.11947047,0.357335261 8.19587427,0.224999998 C8.27227807,0.0926647356 8.41347811,0.0111428555 8.56628571,0.0111428555 L11.5517143,0.0111428555 C11.7942857,0.0111428555 11.9888571,0.197142855 11.9888571,0.428571434 L11.9888571,3.43371429 C11.9888571,3.66514286 11.8037143,3.86057143 11.5602857,3.86142857 L11.5611429,3.86142857 Z" id="形状"></path>
                </g>
            </g>
        </g>
    </g>
</svg>