<?xml version="1.0" encoding="UTF-8"?>
<svg width="82px" height="80px" viewBox="0 0 82 80" version="1.1" xmlns="http://www.w3.org/2000/svg" xmlns:xlink="http://www.w3.org/1999/xlink">
    <title>其他</title>
    <g id="备件监控" stroke="none" stroke-width="1" fill="none" fill-rule="evenodd">
        <g id="安灯看板-方案二" transform="translate(-239.000000, -393.000000)">
            <g id="编组-9备份-3" transform="translate(208.000000, 149.000000)">
                <g id="编组-5">
                    <g id="编组-6备份-2" transform="translate(15.984551, 227.000000)">
                        <g id="其他" transform="translate(16.015449, 17.000000)">
                            <circle id="椭圆形" fill="#EEEDFB" cx="40" cy="40" r="40"></circle>
                            <g id="编组" transform="translate(19.000000, 19.000000)" fill="#A172FC" fill-rule="nonzero">
                                <path d="M40.809375,12.759375 C40.640625,12.759375 40.48125,12.7875 40.33125,12.853125 L23.68125,21.4875 L23.671875,21.4875 C22.959375,21.928125 22.5,22.659375 22.5,23.49375 L22.5,40.921875 C22.5,41.521875 23.025,42 23.690625,42 C23.896875,42 24.09375,41.953125 24.2625,41.86875 C24.28125,41.859375 24.3,41.85 24.309375,41.840625 L40.6875,33.15 L40.715625,33.140625 C41.484375,32.71875 42,31.95 42,31.06875 L42,13.8375 C42,13.2375 41.465625,12.759375 40.809375,12.759375 Z M39.590625,8.109375 L22.55625,0.45 C22.55625,0.45 21.553125,0 21,0 C20.446875,0 19.453125,0.45 19.453125,0.45 L2.4,8.109375 C2.4,8.109375 1.65,8.41875 1.65,9 C1.65,9.61875 2.428125,10.078125 2.428125,10.078125 L19.81875,19.246875 C20.175,19.40625 20.578125,19.490625 21,19.490625 C21.43125,19.490625 21.834375,19.396875 22.190625,19.2375 L39.571875,10.059375 C39.571875,10.059375 40.2750942,9.684375 40.2750942,8.98125 C40.284375,8.390625 39.590625,8.109375 39.590625,8.109375 Z M18.328125,21.4875 L1.66875,12.84375 C1.528125,12.7875 1.359375,12.75 1.190625,12.75 C0.534375,12.75 0,13.228125 0,13.828125 L0,31.059375 C0,31.940625 0.515625,32.709375 1.284375,33.13125 L1.303125,33.140625 L17.68125,41.83125 C17.859375,41.934375 18.075,41.990625 18.3,41.990625 C18.95625,41.990625 19.4907631,41.503125 19.4907631,40.9125 L19.4907631,23.49375 C19.5,22.659375 19.03125,21.91875 18.328125,21.4875 L18.328125,21.4875 Z" id="形状"></path>
                            </g>
                        </g>
                    </g>
                </g>
            </g>
        </g>
    </g>
</svg>