<?xml version="1.0" encoding="UTF-8"?>
<svg width="8px" height="5px" viewBox="0 0 8 5" version="1.1" xmlns="http://www.w3.org/2000/svg" xmlns:xlink="http://www.w3.org/1999/xlink">
    <title>展开</title>
    <g id="模具履历" stroke="none" stroke-width="1" fill="none" fill-rule="evenodd">
        <g id="履历" transform="translate(-631.000000, -396.000000)" fill="#47CAC2" fill-rule="nonzero">
            <g id="展开" transform="translate(631.000000, 396.000000)">
                <path d="M3.95698413,4.35426194 C3.8716384,4.35443188 3.78974878,4.32055164 3.72947619,4.26012698 L0.0935555556,0.624222222 C-0.0264964619,0.497681323 -0.0238086367,0.298512335 0.0996144283,0.175257181 C0.223037493,0.0520020271 0.422209956,0.049585348 0.548587302,0.169809524 L4.18450794,3.80510317 C4.27656473,3.89709516 4.30411447,4.03549609 4.25430247,4.15572813 C4.20449047,4.27596017 4.0871342,4.35432669 3.95699206,4.35426194" id="路径"></path>
                <path d="M3.95698413,4.35426423 C3.82652359,4.35529426 3.70846098,4.27712585 3.65847831,4.15661541 C3.60849564,4.03610496 3.63657614,3.89732253 3.72947619,3.80572222 L7.4514127,0.0844047619 C7.5783959,-0.0316047744 7.77417502,-0.0271854325 7.89579415,0.0944358299 C8.01741329,0.216057092 8.02182921,0.411836284 7.90581746,0.53881746 L4.18512698,4.26013492 C4.12454544,4.32048061 4.04250067,4.35433175 3.95699206,4.35426423" id="路径"></path>
            </g>
        </g>
    </g>
</svg>