<?xml version="1.0" encoding="UTF-8"?>
<svg width="24px" height="24px" viewBox="0 0 24 24" version="1.1" xmlns="http://www.w3.org/2000/svg" xmlns:xlink="http://www.w3.org/1999/xlink">
    <title>编组 5</title>
    <g id="模具履历" stroke="none" stroke-width="1" fill="none" fill-rule="evenodd">
        <g id="履历" transform="translate(-375.000000, -311.000000)">
            <g id="编组-5" transform="translate(375.000000, 311.000000)">
                <rect id="矩形备份-3" fill="#2ABECF" transform="translate(12.000000, 12.000000) rotate(-315.000000) translate(-12.000000, -12.000000) " x="4" y="4" width="16" height="16" rx="2"></rect>
                <path d="M17.1894211,9.22116044 C16.8945405,8.92627985 16.4522196,8.92627985 16.157339,9.22116044 L10.4071677,14.9713318 L7.75324247,12.3174065 C7.45836189,12.022526 7.01604101,12.022526 6.72116044,12.3174065 C6.42627985,12.6122871 6.42627985,13.054608 6.72116044,13.3494886 L9.81740654,16.4457347 C9.96484683,16.593175 10.1860073,16.6668951 10.3334476,16.6668951 C10.554608,16.6668951 10.7020483,16.593175 10.8494886,16.4457347 L17.1157009,10.1795223 C17.4843017,9.95836189 17.4843017,9.51604101 17.1894211,9.22116044 Z" id="路径" fill="#FFFFFF" fill-rule="nonzero"></path>
            </g>
        </g>
    </g>
</svg>