<?xml version="1.0" encoding="UTF-8"?>
<svg width="13px" height="14px" viewBox="0 0 13 14" version="1.1" xmlns="http://www.w3.org/2000/svg" xmlns:xlink="http://www.w3.org/1999/xlink">
    <title>通知</title>
    <g id="页面1" stroke="none" stroke-width="1" fill="none" fill-rule="evenodd">
        <g id="画板备份" transform="translate(-40.000000, -85.000000)" fill="#67D2F9" fill-rule="nonzero">
            <g id="编组-12" transform="translate(-0.000000, 18.000000)">
                <g id="通知" transform="translate(40.000000, 67.000000)">
                    <path d="M11.1851965,8.68526555 L11.1851965,5.93914078 C11.161864,5.00952553 10.8426702,4.11157614 10.2740097,3.37580844 C9.67357198,2.57062344 8.85317664,1.95617562 7.91161234,1.60645426 L7.89486435,1.60087615 C7.82344157,1.57825769 7.75156764,1.55708934 7.67928685,1.53738414 L7.67928685,1.39783572 C7.67928684,0.625832364 7.05345446,2.16715534e-13 6.2814511,2.16715534e-13 C5.50944775,2.16715534e-13 4.88361537,0.625832364 4.88361535,1.39783572 L4.88361535,1.52621426 C4.821888,1.54296705 4.76048147,1.56088033 4.6994284,1.57994456 L4.68756124,1.58343088 C3.73094543,1.92544373 2.89539065,2.54004255 2.28399797,3.35139055 C1.7052773,4.09166057 1.37995188,4.99841316 1.35606319,5.93774624 L1.35606319,8.68387102 L0.112773858,10.8048648 C-0.037591286,11.0581983 -0.037591286,11.3734274 0.112773858,11.6267608 C0.221824785,11.8419758 0.46227077,11.9566082 0.698133477,11.9058303 L4.18661153,11.9058303 C4.88361535,11.9058303 7.18042584,11.9058303 8.37279067,11.9058303 L11.8612687,11.9058303 C12.0520903,11.9335905 12.2448793,11.8701943 12.3819837,11.7345998 C12.5190881,11.5990053 12.5846153,11.40693 12.5589698,11.2158128 C12.5605244,11.0124963 12.4846972,10.816198 12.346865,10.6667246 L11.1851965,8.68526555 Z M4.88710167,12.5343468 L7.67790599,12.5343468 C7.60667035,13.2717659 7.02040546,13.8539238 6.28250383,13.9199736 C5.54371671,13.8558055 4.95645449,13.2726516 4.88710167,12.5343468 Z" id="形状"></path>
                </g>
            </g>
        </g>
    </g>
</svg>