<?xml version="1.0" encoding="UTF-8"?>
<svg width="32px" height="32px" viewBox="0 0 32 32" version="1.1" xmlns="http://www.w3.org/2000/svg" xmlns:xlink="http://www.w3.org/1999/xlink">
    <title>图标_部门</title>
    <g id="图标_部门" stroke="none" stroke-width="1" fill="none" fill-rule="evenodd">
        <g id="编组" transform="translate(0.000000, -0.000000)">
            <polygon id="路径" fill="#1C879C" fill-rule="nonzero" points="17.4022887 21.5039613 19.5149648 21.5039613 19.5149648 25.7293134 12.4727113 25.7293134 12.4727113 21.5039613 14.5853873 21.5039613 14.5853873 17.2786092 8.24735917 17.2786092 8.24735917 21.5039613 9.65580985 21.5039613 9.65580985 25.7293134 4.02200705 25.7293134 4.02200705 21.5039613 5.43045774 21.5039613 5.43045774 14.4617077 14.5853873 14.4617077 14.5853873 10.2363556 12.4727113 10.2363556 12.4727113 6.01100351 19.5149648 6.01100351 19.5149648 10.2363556 17.4022887 10.2363556 17.4022887 14.4617077 26.5572183 14.4617077 26.5572183 21.5039613 27.965669 21.5039613 27.965669 25.7293134 22.3318662 25.7293134 22.3318662 21.5039613 23.7403169 21.5039613 23.7403169 17.2786092 17.4022887 17.2786092"></polygon>
            <rect id="矩形" x="0" y="0" width="32" height="32"></rect>
        </g>
    </g>
</svg>