<?xml version="1.0" encoding="UTF-8"?>
<svg width="62px" height="39px" viewBox="0 0 62 39" version="1.1" xmlns="http://www.w3.org/2000/svg" xmlns:xlink="http://www.w3.org/1999/xlink">
    <title>logo</title>
    <defs>
        <polygon id="path-1" points="0 7.7030303e-05 61.4496812 7.7030303e-05 61.4496812 38.3701035 0 38.3701035"></polygon>
    </defs>
    <g id="检验判定" stroke="none" stroke-width="1" fill="none" fill-rule="evenodd">
        <g transform="translate(-16.000000, -14.000000)" id="logo">
            <g transform="translate(16.000000, 14.000000)">
                <mask id="mask-2" fill="white">
                    <use xlink:href="#path-1"></use>
                </mask>
                <g id="Clip-2"></g>
                <path d="M47.342115,28.6234592 L37.53139,28.6234592 C37.26479,28.6234592 37.01989,28.7675059 36.89124,28.9993671 L36.63704,29.4584677 C36.50839,29.6903289 36.262715,29.8343756 35.996115,29.8343756 L26.953415,29.8343756 C26.631015,29.8343756 26.347365,30.0462089 26.254365,30.3527895 C25.809515,31.8132841 25.364665,33.2414259 24.919815,34.7019204 C24.82604,35.008501 24.54239,35.2203344 24.21999,35.2203344 L17.32094,35.2203344 L17.32094,35.1633319 C17.32094,34.7620041 16.993115,34.4361659 16.58934,34.4361659 L14.08144,34.4361659 C13.677665,34.4361659 13.350615,34.7620041 13.350615,35.1633319 L13.350615,37.6437077 C13.350615,38.0450356 13.677665,38.3701035 14.08144,38.3701035 L16.58934,38.3701035 C16.993115,38.3701035 17.32094,38.0450356 17.32094,37.6437077 L17.32094,37.5805428 L25.99164,37.5805428 C26.313265,37.5805428 26.59769,37.3710204 26.691465,37.0652101 L28.182565,32.1945841 L28.427465,32.1945841 L33.12939,32.1945841 C38.72179,32.1945841 40.836765,32.1368113 46.19279,32.1337301 C46.45784,32.1337301 46.70739,31.9904538 46.836815,31.7593628 L47.98149,29.7018835 C48.25119,29.2181332 47.89934,28.6234592 47.342115,28.6234592 M51.86114,16.8832707 L32.08469,16.8832707 C31.825065,16.8832707 31.583265,17.0203847 31.45229,17.2445428 L31.203515,17.6712907 C31.07254,17.8946786 30.831515,18.0325628 30.571115,18.0325628 L21.15254,18.0325628 C20.83014,18.0325628 20.545715,18.2428556 20.452715,18.5502065 C20.00709,20.020715 19.56224,21.4912235 19.116615,22.9617319 C19.02439,23.2690828 18.739965,23.4793756 18.41679,23.4793756 L3.970015,23.4793756 L3.970015,23.4146701 C3.970015,23.0133422 3.64219,22.6875041 3.23919,22.6875041 L0.730515,22.6875041 C0.327515,22.6875041 -0.00031,23.0133422 -0.00031,23.4146701 L-0.00031,25.8950459 C-0.00031,26.2963738 0.327515,26.6214416 0.730515,26.6214416 L3.23919,26.6214416 C3.64219,26.6214416 3.970015,26.2963738 3.970015,25.8950459 L3.970015,25.8395841 L20.187665,25.8395841 C20.51084,25.8395841 20.795265,25.6292913 20.888265,25.3219404 L22.224365,20.910415 C22.31659,20.6030641 22.601015,20.3927713 22.92419,20.3927713 L42.658015,20.3927713 L47.543615,20.3927713 L50.716465,20.3927713 C50.981515,20.3927713 51.22719,20.249495 51.35584,20.0184041 L52.500515,17.961695 C52.77099,17.4771744 52.418365,16.8832707 51.86114,16.8832707 M52.960865,5.02060406 L48.887465,5.02060406 L43.39039,5.02060406 L37.30664,5.02060406 C37.029965,5.02060406 36.777315,5.17620527 36.653315,5.42193194 L36.44639,5.83019255 C36.32239,6.07591921 36.06974,6.23152042 35.79384,6.23152042 L31.535215,6.23152042 C31.212815,6.23152042 30.92839,6.0212277 30.83539,5.71387679 L29.500065,1.30158103 C29.40629,0.995000424 29.121865,0.784707697 28.799465,0.784707697 L20.136515,0.784707697 L20.136515,0.72693497 C20.136515,0.325607091 19.80869,-0.000231090909 19.404915,-0.000231090909 L16.897015,-0.000231090909 C16.49324,-0.000231090909 16.165415,0.325607091 16.165415,0.72693497 L16.165415,3.20731073 C16.165415,3.60863861 16.49324,3.93370648 16.897015,3.93370648 L19.404915,3.93370648 C19.80869,3.93370648 20.136515,3.60863861 20.136515,3.20731073 L20.136515,3.14491618 L27.02859,3.14491618 C27.35099,3.14491618 27.635415,3.35597921 27.728415,3.66255982 C28.173265,5.12998709 28.61734,6.59356285 29.06219,8.02170467 C29.15674,8.32674467 29.439615,8.53164527 29.760465,8.53164527 L51.815415,8.53164527 C52.08124,8.53164527 52.326915,8.38759861 52.455565,8.1565077 L53.60024,6.09979861 C53.86994,5.615278 53.51809,5.02060406 52.960865,5.02060406 M54.97664,22.7529798 L47.543615,22.7529798 L36.126315,22.7529798 C35.86049,22.7529798 35.614815,22.8970265 35.486165,23.1288877 L35.231965,23.5879883 C35.103315,23.8198495 34.858415,23.9638962 34.591815,23.9638962 L28.636715,23.9638962 L28.636715,23.874541 C28.636715,23.4732132 28.309665,23.1489156 27.906665,23.1489156 L25.398765,23.1489156 C24.994215,23.1489156 24.667165,23.4732132 24.667165,23.874541 L24.667165,26.3556871 C24.667165,26.757015 24.994215,27.0820828 25.398765,27.0820828 L27.906665,27.0820828 C28.309665,27.0820828 28.636715,26.757015 28.636715,26.3556871 L28.636715,26.2632507 L33.74009,26.2632507 L53.83119,26.2632507 C54.097015,26.2632507 54.341915,26.1199744 54.470565,25.8888835 L55.616015,23.8321744 C55.88494,23.3476538 55.53309,22.7529798 54.97664,22.7529798 M60.71784,10.9519374 L29.21409,10.9519374 C28.95369,10.9519374 28.712665,11.0898216 28.582465,11.3132095 L28.33369,11.7399574 C28.202715,11.9641156 27.960915,12.1019998 27.700515,12.1019998 L15.58649,12.1019998 L15.58649,12.0457677 C15.58649,11.6444398 15.25944,11.3186016 14.855665,11.3186016 L12.347765,11.3186016 C11.94399,11.3186016 11.616165,11.6444398 11.616165,12.0457677 L11.616165,14.5261435 C11.616165,14.9274713 11.94399,15.2525392 12.347765,15.2525392 L14.855665,15.2525392 C15.25944,15.2525392 15.58649,14.9274713 15.58649,14.5261435 L15.58649,14.4622083 L59.571615,14.4622083 C59.838215,14.4622083 60.083115,14.3181616 60.211765,14.0870707 L61.357215,12.0303616 C61.626915,11.545841 61.27429,10.9519374 60.71784,10.9519374 M7.29244,3.26585376 L9.801115,3.26585376 C10.204115,3.26585376 10.53194,3.59092164 10.53194,3.99224952 L10.53194,6.47339558 C10.53194,6.87472345 10.204115,7.19979133 9.801115,7.19979133 L7.29244,7.19979133 C6.88944,7.19979133 6.561615,6.87472345 6.561615,6.47339558 L6.561615,3.99224952 C6.561615,3.59092164 6.88944,3.26585376 7.29244,3.26585376 M4.483065,15.9142295 L6.502715,15.9142295 C6.90649,15.9142295 7.23354,16.2400677 7.23354,16.6413956 L7.23354,18.6372507 C7.23354,19.0385786 6.90649,19.3644168 6.502715,19.3644168 L4.483065,19.3644168 C4.080065,19.3644168 3.75224,19.0385786 3.75224,18.6372507 L3.75224,16.6413956 C3.75224,16.2400677 4.080065,15.9142295 4.483065,15.9142295 M59.45149,24.9922507 L60.493865,24.9922507 C60.896865,24.9922507 61.22469,25.3173186 61.22469,25.7186465 L61.22469,26.747001 C61.22469,27.1483289 60.896865,27.4733968 60.493865,27.4733968 L59.45149,27.4733968 C59.047715,27.4733968 58.720665,27.1483289 58.720665,26.747001 L58.720665,25.7186465 C58.720665,25.3173186 59.047715,24.9922507 59.45149,24.9922507 M57.61939,16.7014792 L60.12729,16.7014792 C60.531065,16.7014792 60.858115,17.0265471 60.858115,17.427875 L60.858115,19.8473968 C60.858115,20.249495 60.531065,20.5745628 60.12729,20.5745628 L57.61939,20.5745628 C57.215615,20.5745628 56.88779,20.249495 56.88779,19.8473968 L56.88779,17.427875 C56.88779,17.0265471 57.215615,16.7014792 57.61939,16.7014792" id="Fill-1" fill="#FEFEFE" mask="url(#mask-2)"></path>
            </g>
        </g>
    </g>
</svg>