<?xml version="1.0" encoding="UTF-8"?>
<svg width="14px" height="14px" viewBox="0 0 14 14" version="1.1" xmlns="http://www.w3.org/2000/svg" xmlns:xlink="http://www.w3.org/1999/xlink">
    <title>模具名</title>
    <g id="检验" stroke="none" stroke-width="1" fill="none" fill-rule="evenodd">
        <g id="试模检" transform="translate(-241.000000, -275.000000)">
            <rect fill="#F6F6F6" x="0" y="0" width="1440" height="900"></rect>
            <rect id="矩形" fill="#FEFFFF" x="208" y="183" width="1224" height="672" rx="4"></rect>
            <g id="编组-5备份-4" transform="translate(224.000000, 199.000000)">
                <g id="编组-3" fill="#FFFFFF" stroke="#DDDDDD">
                    <rect id="矩形" x="0.5" y="0.5" width="285" height="147" rx="2"></rect>
                </g>
                <g id="编组备份" transform="translate(17.000000, 76.000000)">
                    <g id="编组" transform="translate(3.000000, 2.000000)" fill="#999999" fill-rule="nonzero">
                        <path d="M8.72573758,1.54163432 L4.69914596,0.0327542702 C4.60743401,-0.00109180901 4.50698758,-0.00218361801 4.41527562,0.0316624612 L0.268585016,1.54381793 C0.106997283,1.60277562 0,1.75562888 0,1.9281347 L0,7.93635967 C0,8.10886549 0.108089092,8.26171875 0.269676825,8.32067644 L4.26023874,9.76623156 C4.34976708,9.79898583 4.44475446,9.81536297 4.53865004,9.81536297 C4.63472923,9.81536297 4.73080842,9.79898583 4.82252038,9.76513975 L8.72464577,8.32176825 C8.88514169,8.26281056 8.99213898,8.1099573 8.99213898,7.93854328 L8.99213898,1.92485928 C8.99104717,1.75453707 8.88514169,1.60168381 8.72573758,1.54163432 Z M4.55393536,0.851611025 L7.58042993,1.98600058 L4.51899748,3.04614713 C4.510263,3.04942255 4.50262034,3.05269798 4.49497768,3.05597341 L1.3462005,2.02093847 L4.55393536,0.851611025 Z M0.817764946,2.70768634 L4.08991654,3.78311821 L4.08991654,8.83491848 L0.817764946,7.6492139 L0.817764946,2.70768634 Z M4.90768148,8.86112189 L4.90768148,3.77656735 L8.17437403,2.64436141 L8.17437403,7.65358113 L4.90768148,8.86112189 Z" id="形状"></path>
                    </g>
                    <rect id="矩形" x="0" y="0" width="14" height="14"></rect>
                </g>
            </g>
        </g>
    </g>
</svg>