<?xml version="1.0" encoding="UTF-8"?>
<svg width="32px" height="32px" viewBox="0 0 32 32" version="1.1" xmlns="http://www.w3.org/2000/svg" xmlns:xlink="http://www.w3.org/1999/xlink">
    <title>图标_单号备份 2</title>
    <g id="图标_单号备份-2" stroke="none" stroke-width="1" fill="none" fill-rule="evenodd">
        <g id="编组" transform="translate(4.000000, 6.000000)" fill="#1C879C" fill-rule="nonzero">
            <path d="M6.4303576,14.6979602 L4.59311257,14.6979602 C4.04193907,14.6979602 3.67449006,14.3305112 3.67449006,13.7793377 L3.67449006,0.918622515 C3.67449006,0.367449006 4.04193907,0 4.59311257,0 L6.4303576,0 C6.98153111,0 7.34898012,0.367449006 7.34898012,0.918622515 L7.34898012,13.7793377 C7.34898012,14.3305112 6.98153111,14.6979602 6.4303576,14.6979602 Z M22.9655629,18.3724503 L0.918622515,18.3724503 C0.367449006,18.3724503 0,18.0050013 0,17.4538278 C0,16.9026543 0.367449006,16.5352053 0.918622515,16.5352053 L22.9655629,16.5352053 C23.5167364,16.5352053 23.8841854,16.9026543 23.8841854,17.4538278 C23.8841854,18.0050013 23.5167364,18.3724503 22.9655629,18.3724503 Z M13.7793377,14.6979602 C13.2281642,14.6979602 12.8607152,14.3305112 12.8607152,13.7793377 L12.8607152,0.918622515 C12.8607152,0.367449006 13.2281642,0 13.7793377,0 C14.3305112,0 14.6979602,0.367449006 14.6979602,0.918622515 L14.6979602,13.7793377 C14.6979602,14.3305112 14.3305112,14.6979602 13.7793377,14.6979602 Z M10.1048477,14.6979602 C9.55367415,14.6979602 9.18622515,14.3305112 9.18622515,13.7793377 L9.18622515,0.918622515 C9.18622515,0.367449006 9.55367415,0 10.1048477,0 C10.6560212,0 11.0234702,0.367449006 11.0234702,0.918622515 L11.0234702,13.7793377 C11.0234702,14.3305112 10.6560212,14.6979602 10.1048477,14.6979602 Z M0.918622515,14.6979602 C0.367449006,14.6979602 0,14.3305112 0,13.7793377 L0,0.918622515 C0,0.367449006 0.367449006,0 0.918622515,0 C1.46979602,0 1.83724503,0.367449006 1.83724503,0.918622515 L1.83724503,13.7793377 C1.83724503,14.3305112 1.46979602,14.6979602 0.918622515,14.6979602 Z M19.2910728,14.6979602 L17.4538278,14.6979602 C16.9026543,14.6979602 16.5352053,14.3305112 16.5352053,13.7793377 L16.5352053,0.918622515 C16.5352053,0.367449006 16.9026543,0 17.4538278,0 L19.2910728,0 C19.8422463,0 20.2096953,0.367449006 20.2096953,0.918622515 L20.2096953,13.7793377 C20.2096953,14.3305112 19.8422463,14.6979602 19.2910728,14.6979602 Z M22.9655629,14.6979602 C22.4143894,14.6979602 22.0469404,14.3305112 22.0469404,13.7793377 L22.0469404,0.918622515 C22.0469404,0.367449006 22.4143894,0 22.9655629,0 C23.5167364,0 23.8841854,0.367449006 23.8841854,0.918622515 L23.8841854,13.7793377 C23.8841854,14.3305112 23.5167364,14.6979602 22.9655629,14.6979602 Z" id="形状"></path>
        </g>
    </g>
</svg>