<?xml version="1.0" encoding="UTF-8"?>
<svg width="32px" height="32px" viewBox="0 0 32 32" version="1.1" xmlns="http://www.w3.org/2000/svg" xmlns:xlink="http://www.w3.org/1999/xlink">
    <title>工位</title>
    <g id="检验" stroke="none" stroke-width="1" fill="none" fill-rule="evenodd">
        <g id="试模检执行" transform="translate(-41.000000, -492.000000)">
            <g id="工位" transform="translate(41.000000, 492.000000)">
                <path d="M15.984375,26.8149038 C9.95873398,22.4559295 7.01001602,18.2251602 7.01001602,13.994391 C7.01001602,8.99439102 10.984375,5.02003206 15.984375,5.02003206 C20.984375,5.02003206 24.958734,8.99439105 24.958734,13.994391 C24.958734,18.2251602 22.010016,22.4559295 15.984375,26.8149038 Z M15.984375,23.2251602 C20.2151442,20.020032 22.3946314,16.943109 22.3946314,13.994391 C22.3946314,10.4046474 19.5741186,7.58413462 15.984375,7.58413462 C12.3946314,7.58413462 9.5741186,10.4046474 9.5741186,13.994391 C9.5741186,16.943109 11.7536058,20.020032 15.984375,23.2251602 Z M15.984375,17.8405449 C13.8048878,17.8405449 12.1382212,16.1738782 12.1382212,13.994391 C12.1382212,11.8149038 13.8048878,10.1482372 15.984375,10.1482372 C18.1638622,10.1482372 19.8305288,11.8149038 19.8305288,13.994391 C19.8305288,16.1738782 18.1638622,17.8405449 15.984375,17.8405449 Z M15.984375,15.2764423 C16.7536058,15.2764423 17.2664263,14.7636218 17.2664263,13.994391 C17.2664263,13.2251602 16.7536058,12.7123398 15.984375,12.7123398 C15.2151442,12.7123398 14.7023237,13.2251603 14.7023237,13.994391 C14.7023237,14.7636218 15.2151442,15.2764423 15.984375,15.2764423 L15.984375,15.2764423 Z" id="形状" fill="#1C879C" fill-rule="nonzero"></path>
                <rect id="矩形" x="0" y="0" width="32" height="32"></rect>
            </g>
        </g>
    </g>
</svg>