<?xml version="1.0" encoding="UTF-8"?>
<svg width="32px" height="32px" viewBox="0 0 32 32" version="1.1" xmlns="http://www.w3.org/2000/svg" xmlns:xlink="http://www.w3.org/1999/xlink">
    <title>图标_产线</title>
    <defs>
        <polygon id="path-1" points="13.0387859 0.275730623 20.6109253 0.275730623 20.6109253 9.47867376 13.0387859 9.47867376"></polygon>
    </defs>
    <g id="图标_产线" stroke="none" stroke-width="1" fill="none" fill-rule="evenodd">
        <g id="编组" transform="translate(6.000000, 5.000000)">
            <polygon id="Fill-1" fill="#1C879C" points="0.375 22.2710902 19.9302732 22.2710902 19.9302732 19.2348767 0.375 19.2348767"></polygon>
            <polygon id="Fill-2" fill="#1C879C" points="6.73046379 6.70406353 15.6075286 6.70406353 15.6075286 3.66785006 6.73046379 3.66785006"></polygon>
            <path d="M11.6758946,20.9721955 L8.79046258,21.9170497 L7.91201912,19.2348639 L4.53255915,8.91534037 L3.58104072,6.00983847 L3.60162522,6.00314851 C3.82651086,6.33278351 4.20526563,6.54966693 4.63342319,6.54966693 C5.32146004,6.54966693 5.88135839,5.98979431 5.88135839,5.30173173 C5.88135839,5.2865764 5.88110108,5.27165264 5.88032916,5.25670314 L6.46647274,5.06477843 L6.73046893,5.87091884 L7.00321353,6.70405067 L7.33127897,7.7054865 L11.1069905,19.2348639 L11.6758946,20.9721955 Z" id="Fill-3" fill="#1C879C"></path>
            <path d="M4.63341804,6.5496798 C4.20526048,6.5496798 3.82650572,6.33277065 3.60162008,6.00316137 C3.46524778,5.80323443 3.38548285,5.56162389 3.38548285,5.3017446 C3.38548285,4.61370775 3.94538119,4.0538094 4.63341804,4.0538094 C5.30627382,4.0538094 5.85665184,4.58952097 5.88032402,5.25671601 C5.88109593,5.27163977 5.88135324,5.28656353 5.88135324,5.3017446 C5.88135324,5.98978145 5.32145489,6.5496798 4.63341804,6.5496798 M7.85772236,3.66785006 C7.26025731,2.49324714 6.03908196,1.68659212 4.63341804,1.68659212 C2.64006671,1.68659212 1.01826557,3.30839327 1.01826557,5.3017446 C1.01826557,7.26138882 2.58551779,8.86180781 4.532554,8.91532751 C4.56600381,8.91638247 4.59971093,8.91689708 4.63341804,8.91689708 C5.70484117,8.91689708 6.66871029,8.44834244 7.33127382,7.70549936 C7.59424079,7.41088374 7.8096061,7.07304066 7.96553367,6.70406353 C8.14770648,6.27256099 8.24857052,5.79886023 8.24857052,5.3017446 C8.24857052,4.71405718 8.10756671,4.15879034 7.85772236,3.66785006" id="Fill-5" fill="#1C879C"></path>
            <mask id="mask-2" fill="white">
                <use xlink:href="#path-1"></use>
            </mask>
            <g id="Clip-8"></g>
            <path d="M17.6402349,9.47867376 C17.0886476,9.47867376 16.5370859,9.26871188 16.1171879,8.84881385 L13.6686361,6.40023634 C12.8288401,5.56044028 12.8288401,4.19393837 13.6686104,3.35414231 L16.1171879,0.905564803 C16.9570097,0.0657687421 18.3234859,0.0657944727 19.1633077,0.905564803 L20.1946167,1.93689962 C20.646781,2.38908958 20.646781,3.12220648 20.194591,3.57437071 C19.742401,4.02650921 19.0092841,4.02653494 18.5570942,3.57434498 L17.6402349,2.65745997 L15.4205313,4.87718933 L17.6402349,7.09691868 L18.6342861,6.1028418 C19.086476,5.65065184 19.8195929,5.65067757 20.2717829,6.10281607 C20.7239728,6.5549803 20.7239728,7.2880972 20.2718086,7.74028717 L19.1633334,8.84881385 C18.7434096,9.26871188 18.1918223,9.47867376 17.6402349,9.47867376" id="Fill-7" fill="#1C879C" mask="url(#mask-2)"></path>
        </g>
    </g>
</svg>