<?xml version="1.0" encoding="UTF-8"?>
<svg width="48px" height="48px" viewBox="0 0 48 48" version="1.1" xmlns="http://www.w3.org/2000/svg" xmlns:xlink="http://www.w3.org/1999/xlink">
    <title>按钮_开工</title>
    <defs>
        <path d="M23.9423974,42.84787 C13.5443875,42.84787 5.03692477,34.3404073 5.03692477,23.9423974 C5.03692477,13.5443875 13.5443875,5.03692477 23.9423974,5.03692477 C34.3404073,5.03692477 42.84787,13.5443875 42.84787,23.9423974 C42.84787,34.3404073 34.3404073,42.84787 23.9423974,42.84787 Z M23.9423974,38.1215019 C31.7409049,38.1215019 38.1215019,31.7409049 38.1215019,23.9423974 C38.1215019,16.1438899 31.7409049,9.76329291 23.9423974,9.76329291 C16.1438899,9.76329291 9.76329291,16.1438899 9.76329291,23.9423974 C9.76329291,31.7409049 16.1438899,38.1215019 23.9423974,38.1215019 Z M31.0319496,23.9423974 L19.2160292,31.0319496 L19.2160292,16.8528451 L31.0319496,23.9423974 Z" id="path-1"></path>
        <filter x="-10.6%" y="-5.3%" width="121.2%" height="121.2%" filterUnits="objectBoundingBox" id="filter-2">
            <feOffset dx="0" dy="2" in="SourceAlpha" result="shadowOffsetOuter1"></feOffset>
            <feGaussianBlur stdDeviation="1" in="shadowOffsetOuter1" result="shadowBlurOuter1"></feGaussianBlur>
            <feColorMatrix values="0 0 0 0 0   0 0 0 0 0   0 0 0 0 0  0 0 0 0.102381993 0" type="matrix" in="shadowBlurOuter1"></feColorMatrix>
        </filter>
    </defs>
    <g id="按钮_开工" stroke="none" stroke-width="1" fill="none" fill-rule="evenodd">
        <g id="编组">
            <g id="形状" fill-rule="nonzero">
                <use fill="black" fill-opacity="1" filter="url(#filter-2)" xlink:href="#path-1"></use>
                <use fill="#505050" xlink:href="#path-1"></use>
            </g>
            <rect id="矩形" x="0" y="0" width="48" height="48"></rect>
        </g>
    </g>
</svg>