<?xml version="1.0" encoding="UTF-8"?>
<svg width="14px" height="14px" viewBox="0 0 14 14" version="1.1" xmlns="http://www.w3.org/2000/svg" xmlns:xlink="http://www.w3.org/1999/xlink">
    <title>图标_时间</title>
    <g id="图标_时间" stroke="none" stroke-width="1" fill="none" fill-rule="evenodd">
        <g id="编组" transform="translate(-0.000000, 0.000000)" fill="#999999" fill-rule="nonzero">
            <g id="图标_部门备份-2" transform="translate(-0.000000, 0.000000)">
                <g id="编组" transform="translate(1.993031, 2.000000)">
                    <path d="M4.9825784,0 C2.23103845,0 0,2.23883929 0,5 C0,7.76116071 2.23103845,10 4.9825784,10 C7.73411834,10 9.96515679,7.76116071 9.96515679,5 C9.96515679,2.23883929 7.73411834,0 4.9825784,0 Z M4.9825784,9.15178571 C2.69815518,9.15178571 0.845258835,7.29241071 0.845258835,5 C0.845258835,2.70758929 2.69815518,0.848214286 4.9825784,0.848214286 C7.26700162,0.848214286 9.11989796,2.70758929 9.11989796,5 C9.11989796,7.29241071 7.26700162,9.15178571 4.9825784,9.15178571 Z" id="形状"></path>
                    <path d="M6.92556154,6.41294643 L5.33958904,5.26227679 L5.33958904,2.5 C5.33958904,2.45089286 5.29955046,2.41071429 5.25061442,2.41071429 L4.71565455,2.41071429 C4.66671852,2.41071429 4.62667994,2.45089286 4.62667994,2.5 L4.62667994,5.57366071 C4.62667994,5.60267857 4.64002613,5.62946429 4.66338197,5.64620536 L6.50293212,6.9921875 C6.54297069,7.02120536 6.59857983,7.01227679 6.62749658,6.97321429 L6.94558082,6.53794643 C6.97449757,6.49665179 6.96560011,6.44084821 6.92556154,6.41294643 L6.92556154,6.41294643 Z" id="路径"></path>
                </g>
            </g>
        </g>
    </g>
</svg>