<?xml version="1.0" encoding="UTF-8"?>
<svg width="32px" height="32px" viewBox="0 0 32 32" version="1.1" xmlns="http://www.w3.org/2000/svg" xmlns:xlink="http://www.w3.org/1999/xlink">
    <title>图标_员工</title>
    <g id="图标_员工" stroke="none" stroke-width="1" fill="none" fill-rule="evenodd">
        <g id="编组">
            <polygon id="Fill-1" fill="#1C879C" points="10.0786333 18.6608926 7.14665185 21.59305 6.99992963 21.59305 6.99992963 27.4571889 18.7283833 27.4571889 18.7283833 24.5252074 9.93208704 24.5252074 9.93208704 22.9124944 11.2515315 21.59305 25.9119667 21.59305 22.9799852 18.6608926"></polygon>
            <polygon id="Fill-2" fill="#1C879C" points="9.93201667 18.6608926 7.00003519 21.59305 21.6604704 21.59305 22.9799148 22.9124944 22.9799148 24.5252074 14.1836185 24.5252074 14.1836185 27.4571889 25.9118963 27.4571889 25.9118963 21.59305 25.7655259 21.59305 22.8333685 18.6608926"></polygon>
            <path d="M16.5290278,14.2635537 C14.4777315,14.2635537 12.8644907,12.650313 12.8644907,10.5972574 C12.8644907,8.54596111 14.4777315,6.93272037 16.5290278,6.93272037 C18.5820833,6.93272037 20.1953241,8.54596111 20.1953241,10.5972574 C20.1953241,12.650313 18.5820833,14.2635537 16.5290278,14.2635537 M16.5290278,4.00003519 C12.8644907,4.00003519 9.93180556,6.93272037 9.93180556,10.5972574 C9.93180556,14.2635537 12.8644907,17.1946556 16.5290278,17.1946556 C20.1953241,17.1946556 23.12625,14.2635537 23.12625,10.5972574 C23.12625,6.93272037 20.1953241,4.00003519 16.5290278,4.00003519" id="Fill-3" fill="#1C879C"></path>
            <rect id="矩形" x="0" y="0" width="32" height="32"></rect>
        </g>
    </g>
</svg>